<svg width="134" height="22" preserveAspectRatio="none" overflow="visible" style="display: block;" viewBox="0 0 134 22" fill="none" xmlns="http://www.w3.org/2000/svg">
<g id="Title">
<path d="M6.56017 4.38824C6.8931 4.56863 7.14658 4.8 7.32061 5.08235C7.49464 5.36471 7.58165 5.69412 7.58165 6.07059V6.18823C7.58165 6.8549 7.32817 7.38039 6.82122 7.76471C6.32183 8.14118 5.62949 8.32941 4.74421 8.32941H0V0.611765H4.51721C5.41763 0.611765 6.11375 0.792157 6.60557 1.15294C7.0974 1.51373 7.34331 2.02745 7.34331 2.69412V2.81176C7.34331 3.48627 7.08226 4.01176 6.56017 4.38824ZM2.00891 2.4V3.62353H4.51721C4.79717 3.62353 5.00147 3.58039 5.1301 3.49412C5.2663 3.4 5.3344 3.25882 5.3344 3.07059V2.95294C5.3344 2.58431 5.062 2.4 4.51721 2.4H2.00891ZM5.52734 5.83529C5.52734 5.45098 5.25116 5.25882 4.69881 5.25882H2.00891V6.54118H4.69881C5.25116 6.54118 5.52734 6.3451 5.52734 5.95294V5.83529Z" fill="#F3F3F3"/>
<path d="M16.3909 3.28235C16.3909 3.9098 16.2093 4.41961 15.8461 4.81176C15.4829 5.20392 14.957 5.4549 14.2684 5.56471L16.3455 8.01176V8.32941H14.0755L11.8623 5.62353H10.6933V8.32941H8.68435V0.611765H13.4626C14.3706 0.611765 15.0856 0.839215 15.6077 1.29412C16.1298 1.74902 16.3909 2.37255 16.3909 3.16471V3.28235ZM14.3479 3.15294C14.3479 2.66667 14.0377 2.42353 13.4172 2.42353H10.6933V4.01176H13.4172C13.7199 4.01176 13.9507 3.94902 14.1095 3.82353C14.2684 3.69804 14.3479 3.51373 14.3479 3.27059V3.15294Z" fill="#F3F3F3"/>
<path d="M19.4969 0.611765V8.32941H17.488V0.611765H19.4969Z" fill="#F3F3F3"/>
<path d="M24.9882 8.48235C24.0727 8.48235 23.2668 8.32157 22.5707 8C21.8822 7.67059 21.3487 7.20784 20.9704 6.61176C20.5996 6.01569 20.4143 5.31765 20.4143 4.51765V4.43529C20.4143 3.63529 20.5996 2.93725 20.9704 2.34118C21.3487 1.73725 21.8822 1.27451 22.5707 0.952941C23.2668 0.623529 24.0727 0.458823 24.9882 0.458823C25.8432 0.458823 26.6112 0.603921 27.2922 0.894117C27.9732 1.18431 28.5029 1.58431 28.8812 2.09412C29.2671 2.60392 29.46 3.18039 29.46 3.82353V3.91765H27.4057V3.82353C27.4057 3.39216 27.1825 3.04706 26.7361 2.78823C26.2972 2.52941 25.7146 2.4 24.9882 2.4C23.3009 2.4 22.4572 3.07059 22.4572 4.41176V4.55294C22.4572 5.21961 22.6653 5.71765 23.0815 6.04706C23.4976 6.37647 24.1332 6.54118 24.9882 6.54118C25.7373 6.54118 26.3275 6.41569 26.7588 6.16471C27.1901 5.91372 27.4057 5.56863 27.4057 5.12941V5.04706H29.46V5.12941C29.46 5.77255 29.2671 6.34902 28.8812 6.85882C28.5029 7.36863 27.9732 7.76863 27.2922 8.05882C26.6112 8.34118 25.8432 8.48235 24.9882 8.48235Z" fill="#F3F3F3"/>
<path d="M38.4493 0.929412L35.2033 4L38.2677 8.01176V8.32941H35.9751L33.637 5.22353L32.468 6.35294V8.32941H30.4591V0.611765H32.468V3.97647L36.0318 0.611765H38.4493V0.929412Z" fill="#F3F3F3"/>
<path d="M41.9618 0C42.5066 0 42.9833 0.101961 43.3919 0.305882C43.8005 0.509804 44.1145 0.8 44.3339 1.17647C44.5609 1.55294 44.6744 1.99216 44.6744 2.49412V2.61176C44.6744 3.10588 44.5609 3.54118 44.3339 3.91765C44.1145 4.28627 43.8005 4.57255 43.3919 4.77647C42.9833 4.98039 42.5066 5.08235 41.9618 5.08235C41.417 5.08235 40.9366 4.98039 40.5204 4.77647C40.1118 4.57255 39.794 4.28627 39.567 3.91765C39.3476 3.54118 39.2379 3.10588 39.2379 2.61176V2.49412C39.2379 1.99216 39.3476 1.55294 39.567 1.17647C39.794 0.8 40.1118 0.509804 40.5204 0.305882C40.9366 0.101961 41.417 0 41.9618 0ZM43.9821 2.47059C43.9821 1.8902 43.8043 1.43922 43.4486 1.11765C43.093 0.796078 42.5974 0.635294 41.9618 0.635294C41.3262 0.635294 40.8268 0.799999 40.4636 1.12941C40.1005 1.45098 39.9189 1.89804 39.9189 2.47059V2.62353C39.9189 3.19608 40.1005 3.64314 40.4636 3.96471C40.8268 4.28627 41.3262 4.44706 41.9618 4.44706C42.5974 4.44706 43.093 4.28627 43.4486 3.96471C43.8043 3.64314 43.9821 3.19608 43.9821 2.62353V2.47059ZM42.4045 1.32941C42.692 1.32941 42.9152 1.4 43.0741 1.54118C43.233 1.67451 43.3124 1.86274 43.3124 2.10588V2.18824C43.3124 2.37647 43.2595 2.54118 43.1535 2.68235C43.0552 2.81569 42.9114 2.90588 42.7222 2.95294L43.3011 3.68235V3.74118H42.552L41.9845 3H41.417V3.74118H40.7247V1.32941H42.4045ZM41.417 2.48235H42.2229C42.3439 2.48235 42.4347 2.4549 42.4953 2.4C42.5634 2.3451 42.5974 2.27059 42.5974 2.17647V2.11765C42.5974 2.03137 42.5634 1.96471 42.4953 1.91765C42.4347 1.86274 42.3439 1.83529 42.2229 1.83529H41.417V2.48235Z" fill="var(--fill-0, #D1D1D1)"/>
<path d="M57.3504 8.01176V8.32941H55.3642L54.7854 6.90588H51.3123L50.7335 8.32941H48.7473V8.01176L51.9366 0.611765H54.1611L57.3504 8.01176ZM54.0817 5.15294L53.0489 2.6L52.016 5.15294H54.0817Z" fill="#F3F3F3"/>
<path d="M66.2653 4.01176V8.32941H64.4721L64.4267 7.76471C64.0786 8.01569 63.6965 8.2 63.2803 8.31765C62.8717 8.42745 62.3951 8.48235 61.8503 8.48235C60.9044 8.48235 60.0797 8.32157 59.376 8C58.6799 7.67843 58.1427 7.21961 57.7643 6.62353C57.386 6.02745 57.1969 5.32549 57.1969 4.51765V4.43529C57.1969 3.64314 57.386 2.94902 57.7643 2.35294C58.1427 1.74902 58.6799 1.28235 59.376 0.952941C60.0721 0.623529 60.8817 0.458823 61.8049 0.458823C62.7128 0.458823 63.4998 0.572549 64.1656 0.799999C64.839 1.02745 65.3536 1.35294 65.7092 1.77647C66.0724 2.2 66.254 2.69804 66.254 3.27059V3.31765H64.1997V3.27059C64.1997 3.10588 64.0937 2.95294 63.8819 2.81176C63.67 2.66274 63.3863 2.5451 63.0306 2.45882C62.675 2.37255 62.2929 2.32941 61.8843 2.32941C61.0142 2.32941 60.3559 2.50588 59.9095 2.85882C59.463 3.21176 59.2398 3.72941 59.2398 4.41176V4.55294C59.2398 5.24314 59.4592 5.75686 59.8981 6.09412C60.337 6.43137 60.999 6.6 61.8843 6.6C62.414 6.6 62.8869 6.5451 63.303 6.43529C63.7268 6.32549 64.071 6.16863 64.3359 5.96471V5.62353H60.7266V4.01176H66.2653Z" fill="#F3F3F3"/>
<path d="M74.0616 0.611765V2.41176H69.306V3.57647H73.8346V5.35294H69.306V6.52941H74.0616V8.32941H67.2971V0.611765H74.0616Z" fill="#F3F3F3"/>
<path d="M82.9559 0.611765V8.32941H81.0718L77.1675 3.55294V8.32941H75.2721V0.611765H77.1562L81.0605 5.37647V0.611765H82.9559Z" fill="#F3F3F3"/>
<path d="M88.5665 8.48235C87.6509 8.48235 86.8451 8.32157 86.149 8C85.4604 7.67059 84.927 7.20784 84.5487 6.61176C84.1779 6.01569 83.9925 5.31765 83.9925 4.51765V4.43529C83.9925 3.63529 84.1779 2.93725 84.5487 2.34118C84.927 1.73725 85.4604 1.27451 86.149 0.952941C86.8451 0.623529 87.6509 0.458823 88.5665 0.458823C89.4215 0.458823 90.1895 0.603921 90.8705 0.894117C91.5515 1.18431 92.0811 1.58431 92.4595 2.09412C92.8454 2.60392 93.0383 3.18039 93.0383 3.82353V3.91765H90.984V3.82353C90.984 3.39216 90.7608 3.04706 90.3144 2.78823C89.8755 2.52941 89.2929 2.4 88.5665 2.4C86.8792 2.4 86.0355 3.07059 86.0355 4.41176V4.55294C86.0355 5.21961 86.2436 5.71765 86.6597 6.04706C87.0759 6.37647 87.7115 6.54118 88.5665 6.54118C89.3156 6.54118 89.9058 6.41569 90.3371 6.16471C90.7683 5.91372 90.984 5.56863 90.984 5.12941V5.04706H93.0383V5.12941C93.0383 5.77255 92.8454 6.34902 92.4595 6.85882C92.0811 7.36863 91.5515 7.76863 90.8705 8.05882C90.1895 8.34118 89.4215 8.48235 88.5665 8.48235Z" fill="#F3F3F3"/>
<path d="M101.14 0.611765V0.929412L97.9737 5.32941V8.32941H95.9648V5.32941L92.7868 0.929412V0.611765H94.9206L96.9749 3.52941L99.0179 0.611765H101.14Z" fill="#F3F3F3"/>
<path d="M3.75678 14.1412C5.12632 14.1412 6.16293 14.4627 6.86662 15.1059C7.57787 15.749 7.9335 16.6902 7.9335 17.9294V18.0824C7.9335 19.3216 7.57787 20.2627 6.86662 20.9059C6.16293 21.5412 5.12632 21.8588 3.75678 21.8588H0.158897V14.1412H3.75678ZM3.75678 20.5412C4.67989 20.5412 5.36466 20.3412 5.81109 19.9412C6.26508 19.5412 6.49207 18.9294 6.49207 18.1059V17.9176C6.49207 16.2784 5.57652 15.4588 3.74543 15.4588H1.57762V20.5412H3.75678Z" fill="var(--fill-0, #D1D1D1)"/>
<path d="M10.7502 14.1412V21.8588H9.33147V14.1412H10.7502Z" fill="var(--fill-0, #D1D1D1)"/>
<path d="M20.8268 17.7059V21.8588H19.5443L19.4876 21.0706C18.7536 21.6902 17.7927 22 16.6047 22C15.6967 22 14.906 21.8431 14.2326 21.5294C13.5668 21.2078 13.0522 20.7529 12.6891 20.1647C12.3259 19.5765 12.1443 18.8824 12.1443 18.0824V17.9294C12.1443 17.1451 12.3259 16.4588 12.6891 15.8706C13.0598 15.2745 13.5819 14.8157 14.2553 14.4941C14.9363 14.1647 15.7232 14 16.6161 14C17.4484 14 18.1823 14.1176 18.8179 14.3529C19.4535 14.5804 19.9453 14.9098 20.2934 15.3412C20.6415 15.7647 20.8155 16.2549 20.8155 16.8118V16.8706H19.3741V16.8118C19.3741 16.5529 19.2492 16.3137 18.9995 16.0941C18.7574 15.8667 18.4245 15.6902 18.0007 15.5647C17.5846 15.4314 17.1268 15.3647 16.6274 15.3647C15.6665 15.3647 14.9174 15.5882 14.3802 16.0353C13.8505 16.4745 13.5857 17.098 13.5857 17.9059V18.1059C13.5857 18.9294 13.8429 19.5569 14.3575 19.9882C14.8796 20.4196 15.6362 20.6353 16.6274 20.6353C17.2252 20.6353 17.7586 20.5451 18.2277 20.3647C18.6969 20.1843 19.0903 19.9373 19.4081 19.6235V19.0235H15.6059V17.7059H20.8268Z" fill="var(--fill-0, #D1D1D1)"/>
<path d="M23.6632 14.1412V21.8588H22.2445V14.1412H23.6632Z" fill="var(--fill-0, #D1D1D1)"/>
<path d="M24.5693 15.4588V14.1412H32.1169V15.4588H29.0524V21.8588H27.6337V15.4588H24.5693Z" fill="var(--fill-0, #D1D1D1)"/>
<path d="M39.702 21.6353V21.8588H38.2605L37.4888 20.0941H33.539L32.7673 21.8588H31.3258V21.6353L34.7308 14.1412H36.297L39.702 21.6353ZM36.8986 18.7765L35.5139 15.6235L34.1292 18.7765H36.8986Z" fill="var(--fill-0, #D1D1D1)"/>
<path d="M42.0347 14.1412V20.5412H47.301V21.8588H40.616V14.1412H42.0347Z" fill="var(--fill-0, #D1D1D1)"/>
<path d="M56.143 14.1412C56.998 14.1412 57.6714 14.3569 58.1633 14.7882C58.6627 15.2118 58.9124 15.7922 58.9124 16.5294V16.6588C58.9124 17.3961 58.6627 17.9804 58.1633 18.4118C57.6714 18.8353 56.998 19.0471 56.143 19.0471H52.9083V21.8588H51.4896V14.1412H56.143ZM56.109 17.7294C56.5478 17.7294 56.8845 17.6392 57.1191 17.4588C57.3537 17.2706 57.4709 17.0039 57.4709 16.6588V16.5294C57.4709 16.1843 57.3537 15.9216 57.1191 15.7412C56.8845 15.5529 56.5478 15.4588 56.109 15.4588H52.9083V17.7294H56.109Z" fill="var(--fill-0, #D1D1D1)"/>
<path d="M67.6189 16.7176C67.6189 17.3451 67.4184 17.8667 67.0173 18.2824C66.6163 18.6902 66.0564 18.9333 65.3376 19.0118L67.5848 21.6353V21.8588H65.9505L63.5216 19.0353H61.6148V21.8588H60.1961V14.1412H64.8495C65.7121 14.1412 66.3893 14.3608 66.8811 14.8C67.373 15.2314 67.6189 15.8235 67.6189 16.5765V16.7176ZM66.1775 16.5176C66.1775 16.1804 66.0602 15.9216 65.8256 15.7412C65.591 15.5529 65.2543 15.4588 64.8155 15.4588H61.6148V17.7294H64.8155C65.2543 17.7294 65.591 17.6392 65.8256 17.4588C66.0602 17.2706 66.1775 17.0039 66.1775 16.6588V16.5176Z" fill="var(--fill-0, #D1D1D1)"/>
<path d="M73.1311 22C72.2533 22 71.4853 21.8392 70.8271 21.5176C70.1763 21.1961 69.6732 20.7412 69.3175 20.1529C68.9619 19.5569 68.7841 18.8627 68.7841 18.0706V17.9412C68.7841 17.149 68.9619 16.4549 69.3175 15.8588C69.6732 15.2627 70.1801 14.8039 70.8384 14.4824C71.4967 14.1608 72.2609 14 73.1311 14C74.0012 14 74.7616 14.1608 75.4124 14.4824C76.0706 14.8039 76.5776 15.2627 76.9332 15.8588C77.2889 16.4549 77.4667 17.149 77.4667 17.9412V18.0706C77.4667 18.8627 77.2889 19.5569 76.9332 20.1529C76.5776 20.7412 76.0744 21.1961 75.4237 21.5176C74.773 21.8392 74.0088 22 73.1311 22ZM73.1311 20.6353C74.0542 20.6353 74.7654 20.4157 75.2648 19.9765C75.7718 19.5294 76.0253 18.902 76.0253 18.0941V17.9294C76.0253 17.1216 75.7718 16.4941 75.2648 16.0471C74.7654 15.5922 74.0542 15.3647 73.1311 15.3647C72.2079 15.3647 71.4929 15.5922 70.9859 16.0471C70.479 16.4941 70.2255 17.1216 70.2255 17.9294V18.0941C70.2255 18.902 70.479 19.5294 70.9859 19.9765C71.4929 20.4157 72.2079 20.6353 73.1311 20.6353Z" fill="var(--fill-0, #D1D1D1)"/>
<path d="M82.4373 14.1412C83.8069 14.1412 84.8435 14.4627 85.5472 15.1059C86.2584 15.749 86.6141 16.6902 86.6141 17.9294V18.0824C86.6141 19.3216 86.2584 20.2627 85.5472 20.9059C84.8435 21.5412 83.8069 21.8588 82.4373 21.8588H78.8395V14.1412H82.4373ZM82.4373 20.5412C83.3605 20.5412 84.0452 20.3412 84.4917 19.9412C84.9456 19.5412 85.1726 18.9294 85.1726 18.1059V17.9176C85.1726 16.2784 84.2571 15.4588 82.426 15.4588H80.2582V20.5412H82.4373Z" fill="var(--fill-0, #D1D1D1)"/>
<path d="M91.5191 22C90.7927 22 90.1534 21.8549 89.601 21.5647C89.0562 21.2667 88.6325 20.851 88.3298 20.3176C88.0272 19.7843 87.8758 19.1647 87.8758 18.4588V14.1412H89.2946V18.4824C89.2946 19.1569 89.4875 19.6863 89.8734 20.0706C90.2669 20.4471 90.8154 20.6353 91.5191 20.6353C92.2228 20.6353 92.7714 20.4471 93.1648 20.0706C93.5583 19.6863 93.755 19.1569 93.755 18.4824V14.1412H95.1737V18.4588C95.1737 19.1647 95.0224 19.7843 94.7197 20.3176C94.4171 20.851 93.9896 21.2667 93.4372 21.5647C92.8849 21.8549 92.2455 22 91.5191 22Z" fill="var(--fill-0, #D1D1D1)"/>
<path d="M100.837 22C99.9516 22 99.1761 21.8392 98.5102 21.5176C97.8444 21.1961 97.3298 20.7412 96.9667 20.1529C96.611 19.5647 96.4332 18.8745 96.4332 18.0824V17.9294C96.4332 17.1373 96.611 16.4471 96.9667 15.8588C97.3298 15.2627 97.8444 14.8039 98.5102 14.4824C99.1761 14.1608 99.9516 14 100.837 14C101.647 14 102.373 14.1412 103.016 14.4235C103.667 14.698 104.174 15.0824 104.537 15.5765C104.908 16.0706 105.093 16.6235 105.093 17.2353V17.3294H103.652V17.2353C103.652 16.8824 103.531 16.5647 103.288 16.2824C103.054 15.9922 102.721 15.7686 102.29 15.6118C101.858 15.4471 101.374 15.3647 100.837 15.3647C99.8836 15.3647 99.1496 15.5843 98.6351 16.0235C98.1281 16.4627 97.8746 17.0902 97.8746 17.9059V18.1059C97.8746 18.9216 98.1281 19.549 98.6351 19.9882C99.142 20.4196 99.876 20.6353 100.837 20.6353C101.389 20.6353 101.877 20.5569 102.301 20.4C102.732 20.2431 103.065 20.0235 103.3 19.7412C103.534 19.4588 103.652 19.1373 103.652 18.7765V18.6824H105.093V18.7765C105.093 19.3882 104.908 19.9412 104.537 20.4353C104.174 20.9216 103.667 21.3059 103.016 21.5882C102.373 21.8627 101.647 22 100.837 22Z" fill="var(--fill-0, #D1D1D1)"/>
<path d="M105.306 15.4588V14.1412H112.853V15.4588H109.789V21.8588H108.37V15.4588H105.306Z" fill="var(--fill-0, #D1D1D1)"/>
<path d="M115.185 14.1412V21.8588H113.766V14.1412H115.185Z" fill="var(--fill-0, #D1D1D1)"/>
<path d="M120.926 22C120.048 22 119.28 21.8392 118.622 21.5176C117.971 21.1961 117.468 20.7412 117.112 20.1529C116.756 19.5569 116.579 18.8627 116.579 18.0706V17.9412C116.579 17.149 116.756 16.4549 117.112 15.8588C117.468 15.2627 117.975 14.8039 118.633 14.4824C119.291 14.1608 120.055 14 120.926 14C121.796 14 122.556 14.1608 123.207 14.4824C123.865 14.8039 124.372 15.2627 124.728 15.8588C125.083 16.4549 125.261 17.149 125.261 17.9412V18.0706C125.261 18.8627 125.083 19.5569 124.728 20.1529C124.372 20.7412 123.869 21.1961 123.218 21.5176C122.568 21.8392 121.803 22 120.926 22ZM120.926 20.6353C121.849 20.6353 122.56 20.4157 123.059 19.9765C123.566 19.5294 123.82 18.902 123.82 18.0941V17.9294C123.82 17.1216 123.566 16.4941 123.059 16.0471C122.56 15.5922 121.849 15.3647 120.926 15.3647C120.002 15.3647 119.287 15.5922 118.78 16.0471C118.274 16.4941 118.02 17.1216 118.02 17.9294V18.0941C118.02 18.902 118.274 19.5294 118.78 19.9765C119.287 20.4157 120.002 20.6353 120.926 20.6353Z" fill="var(--fill-0, #D1D1D1)"/>
<path d="M134 14.1412V21.8588H132.604L128.019 16.2V21.8588H126.634V14.1412H128.03L132.615 19.7882V14.1412H134Z" fill="var(--fill-0, #D1D1D1)"/>
</g>
</svg>
