<svg preserveAspectRatio="none" width="100%" height="100%" overflow="visible" style="display: block;" viewBox="0 0 15 15" fill="none" xmlns="http://www.w3.org/2000/svg">
<path id="Vector" d="M5.25 9V11.25H9.75V9H15V14.25C15 14.6642 14.6642 15 14.25 15H0.75C0.33579 15 0 14.6642 0 14.25V9H5.25ZM6.75 7.5H8.25V9.75H6.75V7.5ZM3.75 3V0.75C3.75 0.33579 4.08579 0 4.5 0H10.5C10.9142 0 11.25 0.33579 11.25 0.75V3H14.25C14.6642 3 15 3.33579 15 3.75V7.5H9.75V6H5.25V7.5H0V3.75C0 3.33579 0.33579 3 0.75 3H3.75ZM5.25 1.5V3H9.75V1.5H5.25Z" fill="var(--fill-0, white)" fill-opacity="0.64"/>
</svg>
