<svg width="19.548" height="16.2" preserveAspectRatio="none" overflow="visible" style="display: block;" viewBox="0 0 19.548 16.2" fill="none" xmlns="http://www.w3.org/2000/svg">
<path id="Vector" d="M1.34382 6.97397C6.59119 4.68781 10.0903 3.18061 11.841 2.4524C16.8398 0.373227 17.8785 0.0120569 18.5555 0.000126886C18.7044 -0.00249311 19.0374 0.0344069 19.253 0.209407C19.4351 0.357167 19.4852 0.556777 19.5092 0.696867C19.5332 0.836967 19.563 1.15611 19.5393 1.40547C19.2684 4.2517 18.0963 11.1588 17.5 14.3466C17.2477 15.6955 16.7509 16.1477 16.2699 16.192C15.2246 16.2882 14.4308 15.5012 13.4184 14.8376C11.8342 13.7991 10.9392 13.1526 9.40139 12.1392C7.62424 10.9681 8.7763 10.3244 9.78909 9.27247C10.0542 8.99717 14.6598 4.80804 14.7489 4.42802C14.76 4.38049 14.7704 4.20333 14.6651 4.10978C14.5599 4.01623 14.4046 4.04822 14.2925 4.07367C14.1336 4.10973 11.6027 5.78247 6.69994 9.09207C5.98157 9.58527 5.3309 9.82567 4.74792 9.81307C4.10522 9.79917 2.86894 9.44967 1.94989 9.15097C0.822639 8.78447 -0.0732792 8.59077 0.00473577 7.96847C0.0453698 7.64437 0.491729 7.31287 1.34382 6.97397Z" fill="var(--fill-0, white)" fill-opacity="0.5"/>
</svg>
