<svg preserveAspectRatio="none" width="100%" height="100%" overflow="visible" style="display: block;" viewBox="0 0 42 41" fill="none" xmlns="http://www.w3.org/2000/svg">
<path id="Vector" d="M21 0.5C32.3332 0.500001 41.5 9.46559 41.5 20.5C41.5 31.5343 32.3332 40.5 21 40.5C9.66673 40.5 0.5 31.5343 0.5 20.5C0.5 9.46559 9.66673 0.5 21 0.5ZM28.5264 20.583C27.9195 20.2088 27.157 20.0972 26.0938 20.2617C24.2136 20.5531 23.079 20.8693 22.3887 21.292C22.0281 21.5128 21.7768 21.7698 21.6064 22.0713C21.4408 22.3645 21.3694 22.6703 21.3213 22.9531L21.3203 22.959L21.2695 23.2803V23.2842L21.2178 23.623V23.625C21.1167 24.3152 21.0538 24.8695 21.125 25.3457C21.2026 25.8646 21.4313 26.2582 21.8154 26.6523H21.8164C23.1387 28.0066 24.1888 29.1655 24.9658 30.123C25.6523 30.9691 26.1067 31.6353 26.3516 32.127L26.4434 32.3271C26.8107 33.2024 27.5255 34.04 28.3555 34.5352C29.1865 35.0309 30.2401 35.234 31.1572 34.6025C32.0859 33.9631 32.9486 33.238 33.7334 32.4395C34.1786 31.9865 34.5102 31.4139 34.6396 30.7686C34.7666 30.1357 34.8457 29.4146 34.8457 28.6016V28.3867C34.8457 27.4711 34.8505 26.6927 34.6514 26.0557C34.4335 25.3594 33.9886 24.8616 33.2197 24.4326L33.2188 24.4316C32.6217 24.1005 32.1741 23.901 31.8242 23.7461H31.8252C31.432 23.5715 31.1592 23.449 30.8975 23.2617C30.6435 23.08 30.3816 22.8222 30.0615 22.3652H30.0605C29.9804 22.251 29.9028 22.1361 29.8242 22.0195H29.8232C29.4748 21.5031 29.1051 20.9399 28.5264 20.583ZM21 3.25879C16.5369 3.25879 12.4578 4.87682 9.34863 7.54785C8.92116 7.91508 8.77714 8.42291 8.77441 8.89258C8.77239 9.24122 8.84694 9.59288 8.95898 9.91113L9.08203 10.2168C9.45895 11.0424 9.46484 11.9012 9.46484 12.7666C9.46442 13.0978 9.46337 13.4499 9.49316 13.7783C9.52296 14.1064 9.58595 14.4488 9.7334 14.7568H9.73438C9.86447 15.0278 10.084 15.2258 10.3115 15.3721C10.5409 15.5195 10.8098 15.6358 11.084 15.7305C11.6293 15.9188 12.2786 16.0508 12.8467 16.167C13.055 16.2098 13.2615 16.2519 13.4619 16.2959L14.04 16.4355C14.9309 16.6772 15.6561 17.4736 16.3389 18.248V18.249C16.348 18.2594 16.3577 18.2705 16.3672 18.2812C16.6936 18.6525 17.1554 18.8766 17.623 18.8379C18.1241 18.7963 18.5332 18.459 18.6875 17.918C18.8316 17.4116 18.8425 16.796 18.4873 16.3877H18.4863C17.9987 15.8251 17.7393 14.9572 17.6582 14.0645C17.577 13.1705 17.6841 12.361 17.8301 11.9746H17.8311C18.0397 11.4217 18.4557 11.1532 19.0273 11.0264C19.6266 10.8935 20.3259 10.9342 20.9932 10.9766H20.9941C21.4621 11.006 21.9759 11.0411 22.375 10.9922C23.2849 10.8806 23.8192 10.1566 24.1338 9.57617C24.2976 9.27383 24.4249 8.96798 24.5225 8.73145C24.5729 8.60915 24.6132 8.5114 24.6494 8.43164C24.6671 8.3926 24.6816 8.36267 24.6934 8.34082C24.7014 8.32597 24.7063 8.31816 24.708 8.31543V8.31445C25.3606 7.44148 25.7138 6.36557 25.5938 5.42188C25.5328 4.94321 25.3474 4.48647 25.002 4.125C24.6544 3.76145 24.1764 3.52662 23.5908 3.44238C22.7451 3.32085 21.8797 3.25879 21 3.25879Z" fill="url(#paint0_linear_18398_28035)" stroke="url(#paint1_linear_18398_28035)"/>
<defs>
<linearGradient id="paint0_linear_18398_28035" x1="21" y1="0" x2="21" y2="41" gradientUnits="userSpaceOnUse">
<stop stop-color="#FFB247"/>
<stop offset="1" stop-color="#FF7700"/>
</linearGradient>
<linearGradient id="paint1_linear_18398_28035" x1="21" y1="0" x2="21" y2="41" gradientUnits="userSpaceOnUse">
<stop stop-color="white" stop-opacity="0.5"/>
<stop offset="1" stop-color="white" stop-opacity="0.2"/>
</linearGradient>
</defs>
</svg>
