<svg preserveAspectRatio="none" width="100%" height="100%" overflow="visible" style="display: block;" viewBox="0 0 20 20" fill="none" xmlns="http://www.w3.org/2000/svg">
<g id="Vector">
<path d="M9.75901 0.00615763C10.0789 -0.0123772 10.4858 0.0147504 10.8033 0.037049C12.5977 0.1631 14.3402 0.771507 15.7358 1.9063C17.4798 3.32433 18.617 5.43845 19.1272 7.58437C19.2944 8.28777 19.3691 8.94941 19.44 9.6641C19.5232 9.76121 19.6251 9.82276 19.7266 9.89839C19.8619 9.99947 19.9656 10.1299 19.9862 10.3003C20.0076 10.4767 19.9887 10.669 19.9894 10.8471C19.9899 10.9771 20.0105 11.1171 19.9928 11.2459C19.9844 11.3067 19.9674 11.3607 19.9263 11.4079C19.6296 11.749 17.9633 11.8495 17.5072 11.8776L17.5076 11.8889C17.5147 12.1456 17.4982 12.4784 17.4901 12.7378L17.4521 14.026L17.4197 15.2594C17.4073 15.8119 17.4315 16.1669 17.2813 16.7125C17.1304 17.2612 16.8424 17.7642 16.4433 18.1757C15.4885 19.1598 13.2061 19.7359 11.8698 19.8947C11.3543 19.956 10.7822 19.9846 10.2603 19.9981L10.2122 19.9989C9.5739 20.0066 8.80217 19.9727 8.17647 19.9015C6.8605 19.7519 4.59028 19.1752 3.62428 18.2413C3.2137 17.843 2.91215 17.3494 2.74752 16.8062C2.58329 16.2536 2.59505 15.9252 2.58084 15.3602L2.55331 14.3579C2.52594 13.531 2.50379 12.7041 2.48685 11.877C1.96347 11.8372 0.513385 11.756 0.131652 11.4647C0.0494531 11.402 0.0175857 11.3313 0.00671416 11.2306C-0.0052662 11.1197 -0.0019999 10.3232 0.0229009 10.2256C0.0447163 10.1402 0.0926741 10.0724 0.153082 10.0089C0.275875 9.87981 0.435476 9.80216 0.552303 9.664C0.585038 9.48681 0.605443 9.19576 0.625475 9.00917C0.656282 8.70968 0.700648 8.41171 0.758428 8.1161C1.13503 6.13255 1.99219 4.24535 3.37493 2.73927C4.76229 1.22816 6.56335 0.367137 8.60544 0.0971985C8.98481 0.0470503 9.37482 0.0228342 9.75901 0.00615763ZM2.47891 11.2542C3.00534 11.0324 4.29708 10.9784 4.89779 10.9282C5.08539 10.9125 5.56394 10.8855 5.75065 10.8882C5.81119 10.8939 5.943 10.8892 5.98104 10.9088C5.64431 10.9769 4.45004 11.1187 4.24045 11.2498C4.08447 11.3474 4.00041 11.7332 3.96269 11.9036C3.69201 13.1274 3.68921 14.6844 3.7822 15.9384C3.81011 16.3146 3.83925 16.7105 3.92698 17.0783C3.99744 17.3738 4.10815 17.656 4.27675 17.9112C4.6172 18.4264 5.15791 18.7827 5.79571 18.7785C6.09912 18.7766 6.29591 18.715 6.58696 18.8453C7.09713 19.0736 7.17807 19.4727 7.83173 19.608C8.95883 19.8414 10.575 19.8318 11.715 19.6829C11.9518 19.6519 12.2346 19.6208 12.4544 19.5286C12.8673 19.3553 13.0805 18.9304 13.5564 18.793C13.7406 18.7397 13.9086 18.7543 14.0975 18.7675C14.4616 18.7929 14.7863 18.7268 15.0944 18.528C15.6381 18.1769 15.956 17.6259 16.0849 17.0089C16.1609 16.6451 16.1914 16.2716 16.2194 15.9019C16.3121 14.6772 16.2982 13.4099 16.0904 12.1977C16.0456 11.9354 15.9827 11.5327 15.8272 11.3173C15.8022 11.2827 15.7693 11.2487 15.7292 11.2316C15.5691 11.1633 15.37 11.1377 15.1987 11.1058C14.7299 11.0182 14.2542 10.9617 13.7864 10.8724C13.8228 10.8618 14.0388 10.8744 14.095 10.876C14.5842 10.8916 15.0729 10.9193 15.5608 10.9589C16.0642 10.9967 17.0662 11.0598 17.5147 11.261C17.5214 11.3956 17.5172 11.5709 17.5179 11.7086C17.7636 11.6874 19.4151 11.5225 19.4893 11.2891C19.3961 11.0721 18.3392 10.885 18.0939 10.8415C17.6513 10.7618 17.2062 10.6962 16.7593 10.6449C15.5336 10.5084 14.3028 10.4207 13.0699 10.3818C11.4852 10.3218 9.89906 10.3084 8.31367 10.3419C6.24823 10.385 4.07146 10.471 2.0359 10.8192C1.63111 10.8885 1.18314 10.9571 0.798925 11.106C0.724186 11.135 0.543818 11.1977 0.517206 11.2774C0.51224 11.2922 0.518495 11.3086 0.527366 11.321C0.679423 11.5331 2.15571 11.6644 2.47786 11.7087L2.47891 11.2542ZM9.69614 5.23347L9.69743 7.11095C9.69751 7.38631 9.69153 7.66303 9.69992 7.93794C9.70208 8.00933 9.74214 8.07104 9.78769 8.12377C9.93896 8.29894 10.2891 8.17232 10.2934 7.94993C10.3114 7.04478 10.2893 6.13601 10.2995 5.23018C10.3941 5.16691 10.4881 5.10275 10.5815 5.03772L11.7993 4.21299C12.0101 4.07143 12.2487 3.92011 12.4475 3.76391C12.4914 3.72942 12.5223 3.67026 12.5339 3.61566C12.5507 3.53423 12.5334 3.44958 12.486 3.38076C12.4399 3.31401 12.3675 3.2692 12.2862 3.25719C12.2344 3.24988 12.1607 3.25822 12.1164 3.2833C11.9298 3.38884 11.7322 3.53136 11.555 3.65177L10.5217 4.35294C10.3667 4.45801 10.1527 4.6135 9.99645 4.70702C9.28258 4.24918 8.58072 3.71826 7.85888 3.26769C7.83007 3.24971 7.71737 3.25564 7.67987 3.25921C7.57851 3.30299 7.50215 3.35576 7.46422 3.46095C7.40799 3.6169 7.49542 3.73571 7.61734 3.82097C7.83232 3.97131 8.04854 4.11521 8.26497 4.26116C8.74437 4.58193 9.22144 4.90604 9.69614 5.23347ZM10.7552 0.804256L11.4798 0.8536C11.5705 0.86011 11.9315 0.883083 11.9922 0.912211C12.4705 1.14159 13.1129 1.70051 13.4539 2.07819C13.7739 2.4361 14.0568 2.82441 14.2984 3.23737C14.5192 3.61724 14.7098 4.04581 14.8774 4.44955C15.2709 5.38795 15.5771 6.35943 15.792 7.35209C15.8163 7.46619 15.9917 8.42918 15.9912 8.42898C15.9834 8.06879 15.8894 7.41088 15.8236 7.04883C15.4552 5.02079 14.711 2.85353 13.1526 1.40195C12.8491 1.14186 12.421 0.70254 12.0567 0.556368C12.0115 0.538224 11.4504 0.497662 11.4067 0.504255C11.1334 0.545597 10.4746 0.279067 10.4999 0.691461C10.557 1.62282 10.6619 2.53515 10.7112 3.45764C10.7102 3.51905 10.7217 3.64148 10.7379 3.69986C10.754 3.56408 10.7453 3.14386 10.7431 3.00104C10.7588 2.27734 10.75 1.5303 10.7552 0.804256ZM11.0753 8.7228C11.0035 7.81157 10.9037 6.89978 10.8251 5.98886C10.8168 5.89274 10.7865 5.45147 10.7587 5.38132C10.7441 5.53687 10.7535 5.72164 10.7554 5.88113C10.7567 6.08738 10.7569 6.29365 10.7559 6.4999L10.7584 9.022C12.8036 9.0743 14.8 9.14542 16.8332 9.41497C17.5608 9.51143 18.3487 9.60912 19.0598 9.78441C19.0284 9.72843 18.4418 9.55345 18.3546 9.52969C17.1342 9.19689 15.8526 9.03219 14.5949 8.91364C13.7311 8.83048 12.8646 8.7761 11.997 8.75058C11.6978 8.74035 11.3726 8.72403 11.0753 8.7228ZM9.24872 0.817075C9.2259 1.01916 9.24248 1.30524 9.24426 1.51515L9.25149 2.72831L9.25262 3.36838C9.25204 3.45457 9.24249 3.64632 9.25661 3.71634C9.27749 3.64519 9.28648 3.42972 9.29239 3.34282L9.34195 2.62742L9.4458 1.3673C9.46284 1.1604 9.48805 0.950464 9.49416 0.743089C9.49594 0.68307 9.50013 0.601876 9.46732 0.54916C9.43859 0.502988 9.39395 0.474085 9.34014 0.463706C9.27185 0.450544 8.03994 0.532045 7.94492 0.556261C7.85238 0.57985 7.76712 0.633525 7.69042 0.687923C7.48703 0.832201 7.29441 0.997854 7.10767 1.16224C6.73322 1.48542 6.39282 1.84475 6.09158 2.23482C4.99925 3.65879 4.4207 5.54863 4.13549 7.28786C4.10804 7.4553 3.98929 8.31488 4.00858 8.44429H4.01541C4.21715 6.75278 4.93355 4.54461 5.79794 3.06739C6.07272 2.59779 6.41303 2.21969 6.78255 1.82644C7.05683 1.56925 7.7364 0.959092 8.11088 0.890563C8.20107 0.874064 9.19955 0.797463 9.24872 0.817075ZM0.945715 9.77873C1.91545 9.56346 2.96659 9.42886 3.95702 9.32427C5.71214 9.1395 7.47545 9.03963 9.24056 9.02505C9.23555 8.65608 9.26303 5.48568 9.23137 5.40494C9.17206 5.7824 9.14477 6.32604 9.10878 6.72294C9.04274 7.3893 8.981 8.05607 8.92354 8.72318C6.88505 8.76512 4.78731 8.89907 2.78168 9.27162C2.23601 9.37297 1.46766 9.54784 0.954923 9.76145L0.945715 9.77873Z" fill="var(--fill-0, white)" fill-opacity="0.5"/>
<path d="M6.78255 1.82644C6.41303 2.21969 6.07272 2.59779 5.79794 3.06739C4.93355 4.54461 4.21715 6.75278 4.01541 8.44429H4.00858C3.98929 8.31488 4.10804 7.4553 4.13549 7.28786C4.4207 5.54863 4.99925 3.65879 6.09158 2.23482C6.39282 1.84475 6.73322 1.48542 7.10767 1.16224C7.29441 0.997854 7.48703 0.832201 7.69042 0.687923C7.76712 0.633525 7.85238 0.57985 7.94492 0.556261C8.03994 0.532045 9.27185 0.450544 9.34014 0.463706C9.39395 0.474085 9.43859 0.502988 9.46732 0.54916C9.50013 0.601876 9.49594 0.68307 9.49416 0.743089C9.48805 0.950464 9.46284 1.1604 9.4458 1.3673L9.34195 2.62742L9.29239 3.34282C9.28648 3.42972 9.27749 3.64519 9.25661 3.71634C9.24249 3.64632 9.25204 3.45457 9.25262 3.36838L9.25149 2.72831L9.24426 1.51515C9.24248 1.30524 9.2259 1.01916 9.24872 0.817075C9.26712 0.799795 9.25982 0.81053 9.26853 0.78358C9.31204 0.835527 9.27256 1.87195 9.28418 2.01713C9.28887 2.07569 9.31958 2.14336 9.32611 2.19944C9.38272 2.09184 9.41857 1.04906 9.4544 0.86353C9.4626 0.821087 9.46457 0.595213 9.42891 0.55406C9.39985 0.520541 9.37923 0.505616 9.33366 0.500941C9.26899 0.494313 9.08653 0.49526 9.03455 0.518683L9.03076 0.544603C8.98431 0.548403 8.98453 0.550237 8.94249 0.516458C8.63786 0.542378 8.33639 0.540638 8.03286 0.569908C7.93482 0.579365 7.96003 0.665423 7.8401 0.629572C7.78811 0.655588 7.65974 0.743445 7.62301 0.783307C7.62357 0.803381 7.62462 0.811122 7.61928 0.830615C7.60389 0.831467 7.5838 0.832568 7.559 0.833929C7.3258 1.02111 7.09034 1.2126 6.8729 1.41724C6.85627 1.4329 6.84959 1.47034 6.84716 1.48614C6.77629 1.55657 6.67605 1.60726 6.61649 1.67019C6.00639 2.31466 5.53611 3.04903 5.17093 3.85129C5.11106 3.9828 5.04044 4.12713 4.99437 4.26324C4.99332 4.26633 4.99632 4.33293 4.99663 4.33898C4.9871 4.35132 4.94048 4.3913 4.94456 4.38121C4.86376 4.58077 4.79893 4.78676 4.71636 4.98628C4.69763 5.04352 4.70226 5.10522 4.70208 5.16452C4.68866 5.17048 4.67523 5.17643 4.66182 5.18238C4.59695 5.39503 4.5328 5.608 4.47439 5.82245C4.44513 5.92987 4.425 6.03946 4.39456 6.14661C4.45036 6.31961 4.34776 6.26321 4.34597 6.37092L4.35804 6.3953L4.38164 6.40241C4.3684 6.4348 4.35948 6.427 4.32322 6.43415C4.29036 6.52667 4.32459 6.61907 4.30847 6.70208C4.29943 6.74864 4.20825 6.85291 4.23301 6.9123L4.2572 6.91041C4.31447 6.83718 4.34976 6.58651 4.37929 6.48566C4.45347 6.23236 4.53025 5.98024 4.60793 5.72792L4.58398 5.70007L4.58738 5.67408L4.62488 5.66769C4.65536 5.60724 4.70369 5.44058 4.72804 5.36886C4.79118 5.18588 4.85812 5.00417 4.92882 4.82388C5.32598 3.82166 5.71753 2.9571 6.43988 2.1369C6.53443 2.02953 6.60146 1.92632 6.70674 1.82721C6.7619 1.81404 6.73797 1.81017 6.78255 1.82644Z" fill="var(--fill-0, white)" fill-opacity="0.5"/>
<path d="M10.7112 3.45764L10.7179 3.46229L10.728 3.45793C10.7435 3.315 10.7182 3.12541 10.7431 3.00104C10.7453 3.14386 10.754 3.56408 10.7379 3.69986C10.7217 3.64148 10.7102 3.51905 10.7112 3.45764Z" fill="var(--fill-0, white)" fill-opacity="0.5"/>
<path d="M5.75065 10.8882C5.82802 10.8772 6.1269 10.8593 6.19457 10.8746C6.14241 10.8894 6.03497 10.9101 5.98104 10.9088C5.943 10.8892 5.81119 10.8939 5.75065 10.8882Z" fill="var(--fill-0, white)" fill-opacity="0.5"/>
</g>
</svg>
