<svg width="20" height="20" preserveAspectRatio="none" overflow="visible" style="display: block;" viewBox="0 0 20 20" fill="none" xmlns="http://www.w3.org/2000/svg">
<g id="Vector">
<path d="M8.97337 1.36744C9.34932 0.636433 10.5072 0.600844 10.961 1.25779L11.0266 1.36744L12.1856 3.62297C13.1976 5.5918 14.8806 7.24652 17.0095 8.36585L17.3677 8.54764L19.4254 9.54796C19.589 9.62716 19.727 9.74049 19.827 9.87764C19.9269 10.0148 19.9856 10.1714 19.9977 10.3332C20.0097 10.495 19.9748 10.6568 19.896 10.8039C19.8172 10.951 19.6971 11.0787 19.5466 11.1754L19.4265 11.2427L17.3677 12.2431C15.1958 13.2995 13.4488 14.9042 12.3602 16.8426L12.1856 17.1677L11.0266 19.4233C10.6507 20.1543 9.49281 20.1899 9.039 19.5329L8.97337 19.4233L7.81439 17.1677C6.80237 15.1989 5.11938 13.5442 2.99048 12.4249L2.63232 12.2431L0.574626 11.2427C0.411043 11.1635 0.272979 11.0502 0.173018 10.9131C0.0730568 10.7759 0.0143762 10.6193 0.00232407 10.4575C-0.00972809 10.2957 0.0252314 10.1339 0.104017 9.98681C0.182802 9.8397 0.302908 9.71198 0.453388 9.61529L0.573513 9.54796L2.63232 8.54764C4.80416 7.49119 6.5512 5.88646 7.63976 3.94808L7.81439 3.62297L8.97337 1.36744Z" fill="url(#paint0_linear_18396_27910)"/>
<path d="M19.2223 2.3268C18.2119 1.82429 17.4133 1.05015 16.9451 0.11915L16.9443 0.118176L16.9436 0.117221C16.9256 0.0823868 16.8966 0.0528058 16.8599 0.032017C16.8231 0.0111198 16.7802 0 16.7363 0C16.6924 0 16.6494 0.0111198 16.6126 0.032017C16.5758 0.0529143 16.5466 0.0826957 16.5287 0.117767C16.0606 1.04975 15.2615 1.82473 14.2502 2.32763C14.2161 2.34466 14.1877 2.3693 14.168 2.39903C14.1483 2.42876 14.1379 2.46254 14.1379 2.49692C14.1379 2.5313 14.1483 2.56508 14.168 2.59481C14.1877 2.62454 14.2161 2.64917 14.2502 2.66621C15.2612 3.16868 16.0602 3.94305 16.5287 4.87442C16.5466 4.90949 16.5758 4.93927 16.6126 4.96017C16.6494 4.98107 16.6924 4.99219 16.7363 4.99219C16.7802 4.99219 16.8231 4.98107 16.8599 4.96017C16.8968 4.93927 16.9259 4.90949 16.9438 4.87442C17.4121 3.94275 18.2112 3.16807 19.2223 2.66538C19.3733 2.59106 19.3733 2.40113 19.2223 2.3268Z" fill="url(#paint1_linear_18396_27910)"/>
<path d="M5.09651 4.7711C4.38958 4.41954 3.8309 3.87794 3.5033 3.2266L3.50225 3.22525C3.4897 3.20088 3.46939 3.18019 3.44376 3.16564C3.41799 3.15102 3.38794 3.14324 3.35723 3.14324C3.32652 3.14324 3.29647 3.15102 3.27071 3.16564C3.24494 3.18026 3.22455 3.2011 3.21202 3.22563C2.88451 3.87766 2.32549 4.41985 1.61795 4.77168C1.59408 4.7836 1.57423 4.80083 1.56043 4.82163C1.54663 4.84244 1.53936 4.86606 1.53936 4.89012C1.53936 4.91417 1.54663 4.9378 1.56043 4.9586C1.57423 4.9794 1.59408 4.99664 1.61795 5.00856C2.32528 5.36009 2.88428 5.90185 3.21202 6.55345C3.22455 6.57799 3.24494 6.59882 3.27071 6.61344C3.29647 6.62806 3.32652 6.63584 3.35723 6.63584C3.38794 6.63584 3.41799 6.62806 3.44376 6.61344C3.46953 6.59882 3.48991 6.57799 3.50245 6.55345C3.83007 5.90164 4.38908 5.35966 5.09651 5.00798C5.20212 4.95598 5.20212 4.8231 5.09651 4.7711Z" fill="url(#paint2_linear_18396_27910)"/>
<path d="M18.3168 15.7144C17.6735 15.5142 17.127 15.1348 16.7582 14.6327L16.7571 14.6317C16.7431 14.613 16.7231 14.5984 16.6995 14.5896C16.6758 14.5808 16.6495 14.5783 16.6237 14.5824C16.598 14.5865 16.5739 14.597 16.5545 14.6127C16.535 14.6284 16.5209 14.6486 16.514 14.6708C16.3338 15.2609 15.9438 15.7899 15.4018 16.1791C15.3835 16.1923 15.3694 16.2094 15.3608 16.2287C15.3522 16.2479 15.3496 16.2687 15.353 16.2889C15.3565 16.309 15.366 16.3279 15.3806 16.3434C15.3952 16.359 15.4143 16.3708 15.436 16.3776C16.0796 16.5778 16.6265 16.9572 16.9954 17.4595C17.0094 17.4784 17.0295 17.4932 17.0532 17.502C17.0769 17.5108 17.1032 17.5133 17.129 17.5092C17.1547 17.5051 17.1788 17.4946 17.1982 17.4789C17.2177 17.4632 17.2318 17.443 17.2387 17.4208C17.419 16.8308 17.8091 16.3021 18.351 15.9129C18.432 15.8553 18.4128 15.7439 18.3168 15.7144Z" fill="url(#paint3_linear_18396_27910)"/>
<path d="M5.00606 16.3589C3.93627 16.0258 3.02738 15.395 2.41413 14.56L2.41323 14.5591L2.41234 14.5583C2.38898 14.5271 2.35571 14.5028 2.31648 14.4882C2.27705 14.4736 2.2333 14.4694 2.1905 14.4762C2.14771 14.483 2.1077 14.5005 2.07531 14.5266C2.04291 14.5527 2.01952 14.5863 2.00795 14.6232C1.70839 15.6046 1.05974 16.4843 0.158328 17.1317C0.127925 17.1536 0.104413 17.182 0.0901785 17.214C0.0759445 17.2461 0.0714958 17.2806 0.077283 17.3142C0.0830702 17.3477 0.0988872 17.379 0.12313 17.4049C0.147372 17.4309 0.179176 17.4505 0.215314 17.4618C1.28564 17.7947 2.19502 18.4257 2.80853 19.261C2.83191 19.2925 2.86533 19.317 2.90476 19.3316C2.94418 19.3463 2.98794 19.3505 3.03073 19.3436C3.07353 19.3368 3.11354 19.3193 3.14593 19.2932C3.17833 19.2671 3.20172 19.2336 3.21329 19.1966C3.51307 18.2155 4.16175 17.3361 5.06305 16.689C5.19772 16.5931 5.16576 16.4079 5.00606 16.3589Z" fill="url(#paint4_linear_18396_27910)"/>
</g>
<defs>
<linearGradient id="paint0_linear_18396_27910" x1="10" y1="0" x2="10" y2="20" gradientUnits="userSpaceOnUse">
<stop stop-color="#354809"/>
<stop offset="1" stop-color="#151D01"/>
</linearGradient>
<linearGradient id="paint1_linear_18396_27910" x1="10" y1="0" x2="10" y2="20" gradientUnits="userSpaceOnUse">
<stop stop-color="#354809"/>
<stop offset="1" stop-color="#151D01"/>
</linearGradient>
<linearGradient id="paint2_linear_18396_27910" x1="10" y1="0" x2="10" y2="20" gradientUnits="userSpaceOnUse">
<stop stop-color="#354809"/>
<stop offset="1" stop-color="#151D01"/>
</linearGradient>
<linearGradient id="paint3_linear_18396_27910" x1="10" y1="0" x2="10" y2="20" gradientUnits="userSpaceOnUse">
<stop stop-color="#354809"/>
<stop offset="1" stop-color="#151D01"/>
</linearGradient>
<linearGradient id="paint4_linear_18396_27910" x1="10" y1="0" x2="10" y2="20" gradientUnits="userSpaceOnUse">
<stop stop-color="#354809"/>
<stop offset="1" stop-color="#151D01"/>
</linearGradient>
</defs>
</svg>
