<svg width="27" height="27" preserveAspectRatio="none" overflow="visible" style="display: block;" viewBox="0 0 27 27" fill="none" xmlns="http://www.w3.org/2000/svg">
<g id="Vector" filter="url(#filter0_d_18396_27900)">
<path d="M7.66809 6.33333H20.4499L20.9085 4.52381H9.50214V2.71429H22.083C22.5894 2.71429 23 3.11937 23 3.61905C23 3.69302 22.9908 3.76672 22.9726 3.83849L20.68 12.8861C20.5781 13.2889 20.2112 13.5714 19.7904 13.5714H6.75107C6.24462 13.5714 5.83405 13.1664 5.83405 12.6667V1.80952H4V0H6.75107C7.25753 0 7.66809 0.40508 7.66809 0.904762V6.33333ZM7.66809 19C6.65518 19 5.83405 18.1899 5.83405 17.1905C5.83405 16.1911 6.65518 15.381 7.66809 15.381C8.68101 15.381 9.50214 16.1911 9.50214 17.1905C9.50214 18.1899 8.68101 19 7.66809 19ZM18.6724 19C17.6594 19 16.8383 18.1899 16.8383 17.1905C16.8383 16.1911 17.6594 15.381 18.6724 15.381C19.6853 15.381 20.5064 16.1911 20.5064 17.1905C20.5064 18.1899 19.6853 19 18.6724 19Z" fill="url(#paint0_linear_18396_27900)"/>
</g>
<defs>
<filter id="filter0_d_18396_27900" x="0" y="0" width="27" height="27" filterUnits="userSpaceOnUse" color-interpolation-filters="sRGB">
<feFlood flood-opacity="0" result="BackgroundImageFix"/>
<feColorMatrix in="SourceAlpha" type="matrix" values="0 0 0 0 0 0 0 0 0 0 0 0 0 0 0 0 0 0 127 0" result="hardAlpha"/>
<feOffset dy="4"/>
<feGaussianBlur stdDeviation="2"/>
<feComposite in2="hardAlpha" operator="out"/>
<feColorMatrix type="matrix" values="0 0 0 0 0 0 0 0 0 0 0 0 0 0 0 0 0 0 0.12 0"/>
<feBlend mode="normal" in2="BackgroundImageFix" result="effect1_dropShadow_18396_27900"/>
<feBlend mode="normal" in="SourceGraphic" in2="effect1_dropShadow_18396_27900" result="shape"/>
</filter>
<linearGradient id="paint0_linear_18396_27900" x1="13.5" y1="0" x2="13.5" y2="19" gradientUnits="userSpaceOnUse">
<stop stop-color="#0B0B0B"/>
<stop offset="1" stop-color="#404040"/>
</linearGradient>
</defs>
</svg>
