<svg preserveAspectRatio="none" width="100%" height="100%" overflow="visible" style="display: block;" viewBox="0 0 24.5 26.3333" fill="none" xmlns="http://www.w3.org/2000/svg">
<g id="Vector" filter="url(#filter0_d_18396_27908)">
<path d="M20.5 6.41667V17.4098C20.5 17.9218 20.0923 18.3333 19.5894 18.3333H4.91062C4.40787 18.3333 4 17.9263 4 17.4242V0.90915C4 0.417368 4.4097 0 4.91507 0H14.0833V5.5C14.0833 6.00626 14.4937 6.41667 15 6.41667H20.5ZM20.5 4.58333H15.9167V0.00291502L20.5 4.58333ZM8.58333 4.58333V6.41667H11.3333V4.58333H8.58333ZM8.58333 8.25V10.0833H15.9167V8.25H8.58333ZM8.58333 11.9167V13.75H15.9167V11.9167H8.58333Z" fill="var(--fill-0, white)"/>
</g>
<defs>
<filter id="filter0_d_18396_27908" x="0" y="0" width="24.5" height="26.3333" filterUnits="userSpaceOnUse" color-interpolation-filters="sRGB">
<feFlood flood-opacity="0" result="BackgroundImageFix"/>
<feColorMatrix in="SourceAlpha" type="matrix" values="0 0 0 0 0 0 0 0 0 0 0 0 0 0 0 0 0 0 127 0" result="hardAlpha"/>
<feOffset dy="4"/>
<feGaussianBlur stdDeviation="2"/>
<feComposite in2="hardAlpha" operator="out"/>
<feColorMatrix type="matrix" values="0 0 0 0 0 0 0 0 0 0 0 0 0 0 0 0 0 0 0.12 0"/>
<feBlend mode="normal" in2="BackgroundImageFix" result="effect1_dropShadow_18396_27908"/>
<feBlend mode="normal" in="SourceGraphic" in2="effect1_dropShadow_18396_27908" result="shape"/>
</filter>
</defs>
</svg>
