<svg preserveAspectRatio="none" width="100%" height="100%" overflow="visible" style="display: block;" viewBox="0 0 24.5 26.3333" fill="none" xmlns="http://www.w3.org/2000/svg">
<g id="Vector" filter="url(#filter0_d_18396_27904)">
<path d="M10.4167 0V1.83333H12.25V0H19.5894C20.0922 0 20.5 0.407046 20.5 0.90915V17.4242C20.5 17.916 20.0923 18.3333 19.5894 18.3333H4.91062C4.40787 18.3333 4 17.9263 4 17.4242V0.90915C4 0.417368 4.4077 0 4.91062 0H10.4167ZM12.25 1.83333V3.66667H14.0833V1.83333H12.25ZM10.4167 3.66667V5.5H12.25V3.66667H10.4167ZM12.25 5.5V7.33333H14.0833V5.5H12.25ZM10.4167 7.33333V9.16667H12.25V7.33333H10.4167ZM12.25 9.16667V11H10.4167V13.75H14.0833V9.16667H12.25Z" fill="var(--fill-0, white)"/>
</g>
<defs>
<filter id="filter0_d_18396_27904" x="0" y="0" width="24.5" height="26.3333" filterUnits="userSpaceOnUse" color-interpolation-filters="sRGB">
<feFlood flood-opacity="0" result="BackgroundImageFix"/>
<feColorMatrix in="SourceAlpha" type="matrix" values="0 0 0 0 0 0 0 0 0 0 0 0 0 0 0 0 0 0 127 0" result="hardAlpha"/>
<feOffset dy="4"/>
<feGaussianBlur stdDeviation="2"/>
<feComposite in2="hardAlpha" operator="out"/>
<feColorMatrix type="matrix" values="0 0 0 0 0 0 0 0 0 0 0 0 0 0 0 0 0 0 0.12 0"/>
<feBlend mode="normal" in2="BackgroundImageFix" result="effect1_dropShadow_18396_27904"/>
<feBlend mode="normal" in="SourceGraphic" in2="effect1_dropShadow_18396_27904" result="shape"/>
</filter>
</defs>
</svg>
