<svg width="28" height="28" preserveAspectRatio="none" overflow="visible" style="display: block;" viewBox="0 0 28 28" fill="none" xmlns="http://www.w3.org/2000/svg">
<g id="Vector" filter="url(#filter0_d_18396_27906)">
<path d="M6.3987 18.9728L12.0648 13.3115C12.7115 13.4841 13.4301 13.3169 13.9374 12.81C14.6945 12.0536 14.6945 10.8273 13.9374 10.071C13.1804 9.31456 11.9531 9.31456 11.1961 10.071C10.6887 10.5778 10.5214 11.2958 10.6941 11.942L5.02801 17.6033L4 16.5762C6.74137 13.3806 7.76938 9.84273 9.14006 3.90808L15.3082 3.22331L20.7909 8.70147L20.1055 14.8643C14.1659 16.2338 10.625 17.261 7.42671 20L6.3987 18.9728ZM17.7068 0.141879L23.858 6.28794C24.0473 6.47703 24.0473 6.78361 23.858 6.9727C23.7854 7.04524 23.6917 7.09287 23.5902 7.10871L22.1615 7.33189L16.6788 1.85379L16.8844 0.415781C16.9223 0.151059 17.1677 -0.0328885 17.4327 0.00492756C17.5365 0.0197441 17.6326 0.0677962 17.7068 0.141879Z" fill="url(#paint0_linear_18396_27906)"/>
</g>
<defs>
<filter id="filter0_d_18396_27906" x="0" y="0" width="28" height="28" filterUnits="userSpaceOnUse" color-interpolation-filters="sRGB">
<feFlood flood-opacity="0" result="BackgroundImageFix"/>
<feColorMatrix in="SourceAlpha" type="matrix" values="0 0 0 0 0 0 0 0 0 0 0 0 0 0 0 0 0 0 127 0" result="hardAlpha"/>
<feOffset dy="4"/>
<feGaussianBlur stdDeviation="2"/>
<feComposite in2="hardAlpha" operator="out"/>
<feColorMatrix type="matrix" values="0 0 0 0 0 0 0 0 0 0 0 0 0 0 0 0 0 0 0.12 0"/>
<feBlend mode="normal" in2="BackgroundImageFix" result="effect1_dropShadow_18396_27906"/>
<feBlend mode="normal" in="SourceGraphic" in2="effect1_dropShadow_18396_27906" result="shape"/>
</filter>
<linearGradient id="paint0_linear_18396_27906" x1="14" y1="2.48903e-10" x2="14" y2="20" gradientUnits="userSpaceOnUse">
<stop stop-color="white"/>
<stop offset="0.997813" stop-color="#DBECFF"/>
</linearGradient>
</defs>
</svg>
