<svg preserveAspectRatio="none" width="100%" height="100%" overflow="visible" style="display: block;" viewBox="0 0 20 20" fill="none" xmlns="http://www.w3.org/2000/svg">
<path id="Vector" d="M10 0C15.5228 0 20 4.47715 20 10C20 15.5228 15.5228 20 10 20C4.47715 20 0 15.5228 0 10C0 4.47715 4.47715 0 10 0ZM14.0043 10.8777C13.6589 10.3533 13.4097 9.9746 12.4622 10.1248C10.6717 10.409 10.4732 10.7224 10.3877 11.2375L10.3636 11.3943L10.3393 11.5597C10.2416 12.2428 10.2453 12.5012 10.5589 12.8308C11.8241 14.1582 12.582 15.115 12.8116 15.6746C12.9237 15.9484 13.2119 16.7751 13.0136 17.5927C14.2372 17.1066 15.3156 16.3332 16.1653 15.3559C16.2755 14.9821 16.3551 14.5166 16.3551 13.9518V13.8472C16.3551 12.9247 16.3551 12.504 15.7031 12.1314C15.428 11.9751 15.2227 11.881 15.0582 11.8064C14.691 11.6394 14.4479 11.5297 14.1198 11.0499C14.0807 10.9928 14.0425 10.9358 14.0043 10.8777ZM10 1.83333C7.68259 1.83333 5.59062 2.79858 4.1042 4.34896C4.28116 4.47186 4.43537 4.64453 4.54129 4.88256C4.74529 5.34029 4.74529 5.8112 4.74529 6.22764C4.74488 6.55621 4.74442 6.8672 4.84992 7.09302C4.99443 7.40134 5.6164 7.53227 6.16548 7.64736C6.36166 7.68867 6.56395 7.73083 6.74797 7.78176C7.25405 7.92233 7.64554 8.3765 7.95938 8.7412C8.0896 8.8931 8.2819 9.1163 8.3783 9.1717C8.4286 9.1356 8.59 8.9608 8.6699 8.6735C8.7307 8.4547 8.7134 8.2597 8.6239 8.1543C8.0648 7.49445 8.0952 6.2232 8.268 5.75495C8.5402 5.01606 9.3905 5.07058 10.012 5.11097C10.2438 5.12589 10.4626 5.14023 10.6257 5.11976C11.2482 5.04166 11.4396 4.09538 11.575 3.91C11.8671 3.50981 12.7607 2.9071 13.3158 2.53454C12.3025 2.08382 11.1805 1.83333 10 1.83333Z" fill="url(#paint0_linear_18396_27896)"/>
<defs>
<linearGradient id="paint0_linear_18396_27896" x1="10" y1="0" x2="10" y2="20" gradientUnits="userSpaceOnUse">
<stop stop-color="#482E09"/>
<stop offset="1" stop-color="#1D0F01"/>
</linearGradient>
</defs>
</svg>
