<svg preserveAspectRatio="none" width="100%" height="100%" overflow="visible" style="display: block;" viewBox="0 0 22.625 18.75" fill="none" xmlns="http://www.w3.org/2000/svg">
<g id="Vector">
<path fill-rule="evenodd" clip-rule="evenodd" d="M14.3862 0C14.45 0.00384101 14.8937 0.266861 14.9833 0.316191L16.71 1.27658L22.3037 4.39964C21.6613 4.80124 20.8865 5.22542 20.2238 5.60697L11.0216 10.9238C10.0605 11.4799 9.07798 12.0669 8.10991 12.606L7.98325 12.6841C7.74931 12.5296 7.45068 12.3646 7.20587 12.2193L5.47055 11.1987L0.265528 8.11992L12.6148 1.02553C13.1788 0.70046 13.8374 0.340039 14.3862 0ZM8.63188 8.05983C8.18214 7.69667 7.48463 7.53587 6.91691 7.55364C6.31629 7.58066 5.62073 7.72766 5.19283 8.17608C4.83924 8.54664 4.93555 9.0026 5.31165 9.303C5.77011 9.66914 6.46002 9.82155 7.03469 9.80509C7.64939 9.77505 8.30429 9.64787 8.74862 9.19353C9.09993 8.83428 8.99422 8.35242 8.63188 8.05983ZM12.8334 5.70458C12.3262 5.29125 11.5738 5.16163 10.9337 5.20532C10.9294 5.20599 10.925 5.20665 10.9207 5.20732C10.3648 5.25216 9.73245 5.41731 9.3482 5.84195C9.0051 6.22112 9.14541 6.67192 9.51686 6.95459C10.041 7.35346 10.7568 7.46722 11.398 7.42748C11.9979 7.40588 13.1576 7.06762 13.161 6.28811C13.162 6.07234 12.9942 5.83948 12.8334 5.70458ZM17.0312 3.34569C16.5799 2.96414 15.7614 2.76919 15.1763 2.8342C14.8282 2.86102 14.6284 2.89505 14.2881 3.00558C13.5976 3.22985 12.9314 3.91707 13.6787 4.55043C14.1548 4.95391 14.9045 5.08626 15.5268 5.06053C16.0996 5.02438 16.7325 4.86993 17.1414 4.44107C17.4764 4.08969 17.3776 3.63859 17.0312 3.34569Z" fill="url(#paint0_linear_18395_32348)"/>
<path d="M22.6184 4.88347C22.6292 4.94142 22.6235 5.28621 22.6233 5.36068L22.6216 6.38485L22.6208 10.473C22.4577 10.5815 22.2311 10.7039 22.057 10.8039L8.28516 18.75L8.28252 15.4263C8.28785 14.6756 8.28477 13.9249 8.27327 13.1743C8.71585 12.9436 9.28102 12.5942 9.72304 12.3387L12.889 10.5037L22.6184 4.88347Z" fill="url(#paint1_linear_18395_32348)"/>
<path d="M8.2804e-05 8.63617C0.255011 8.76347 0.667269 9.02796 0.927417 9.18188L7.69614 13.1778L7.69565 18.7462C7.45053 18.6141 7.15212 18.4264 6.90792 18.2811L2.33159 15.5684C1.55734 15.1028 0.780124 14.642 0 14.186L8.2804e-05 8.63617Z" fill="url(#paint2_linear_18395_32348)"/>
</g>
<defs>
<linearGradient id="paint0_linear_18395_32348" x1="11.3125" y1="0" x2="11.3125" y2="18.75" gradientUnits="userSpaceOnUse">
<stop stop-color="#354809"/>
<stop offset="1" stop-color="#151D01"/>
</linearGradient>
<linearGradient id="paint1_linear_18395_32348" x1="11.3125" y1="0" x2="11.3125" y2="18.75" gradientUnits="userSpaceOnUse">
<stop stop-color="#354809"/>
<stop offset="1" stop-color="#151D01"/>
</linearGradient>
<linearGradient id="paint2_linear_18395_32348" x1="11.3125" y1="0" x2="11.3125" y2="18.75" gradientUnits="userSpaceOnUse">
<stop stop-color="#354809"/>
<stop offset="1" stop-color="#151D01"/>
</linearGradient>
</defs>
</svg>
