<svg width="17.0888" height="24.6852" preserveAspectRatio="none" overflow="visible" style="display: block;" viewBox="0 0 17.0888 24.6852" fill="none" xmlns="http://www.w3.org/2000/svg">
<g id="Logo">
<path id="Vector" d="M16.2678 19.9203C15.2071 19.5884 14.3628 19.4566 13.5816 19.5515C13.3597 19.5789 13.0431 19.4911 12.9407 19.7294C13.0174 19.8741 12.986 20.0487 13.0332 20.2134C13.1239 20.5283 13.3033 20.968 13.5007 21.2282C13.7167 21.5116 13.9369 21.8123 14.1804 22.0738C14.6137 22.5398 15.1463 22.8866 15.5592 23.3468C15.8031 23.6187 16.0307 23.9382 16.2607 24.232C16.3743 24.377 16.4246 24.567 16.5915 24.6852L16.5999 24.6554C16.5374 24.5038 16.5606 24.3261 16.5074 24.1713L16.2236 23.6659C15.9819 23.0461 15.6185 22.459 15.203 21.9393C14.8717 21.5241 14.0548 20.8593 14.018 20.3292L13.9961 20.2902C14.3003 20.3402 14.6752 20.3319 14.9683 20.3363C15.4595 20.3441 15.8591 20.4914 16.3648 20.5033L17.0545 20.5029L17.0888 20.3819C16.9193 20.0711 16.8407 19.7005 16.6433 19.4063C16.126 18.6364 15.5466 17.8501 14.918 17.153C14.5695 16.7664 14.0947 16.4444 13.7091 16.0912C13.5791 15.9726 13.325 15.8574 13.2609 15.7027C13.1098 15.3366 13.0886 14.9204 13.0056 14.5195C12.8314 13.68 12.6832 12.7757 12.5629 11.9102C12.4809 11.3204 12.4773 10.7603 12.3231 10.2085C11.5832 7.55936 10.4845 5.77534 8.56333 3.78387C8.15427 3.36018 7.5969 3.08061 7.01578 2.75688L6.02984 2.41243C5.84964 2.26988 5.70806 1.96121 5.55073 1.78589C4.92458 1.09033 3.26482 -0.50625 2.31163 0.704863C1.71031 1.46896 2.36044 2.56502 2.55407 3.09387C2.69043 3.46421 2.87827 3.89019 2.93957 4.28114C2.98053 4.53872 2.93395 4.77151 2.95569 5.03733C3.00824 5.69239 3.01822 6.39194 3.14891 7.02018C3.21465 7.3382 3.2913 7.67497 3.40377 7.97474C3.47215 8.15832 3.64512 8.28019 3.60941 8.52315C3.34717 8.7316 3.22143 9.13452 3.02237 9.43555C2.12503 10.7921 1.7798 12.6957 2.15778 13.9943C2.27368 14.3936 2.56744 15.2611 3.33246 15.1771C4.00217 15.1034 4.08167 14.3113 4.44216 13.6942C4.52382 13.5544 4.53134 13.4367 4.63608 13.3569L4.62748 13.3873L4.86634 14.6309C5.08727 15.3948 5.61297 16.2766 6.09231 16.907C6.34072 17.2337 6.47303 17.7142 6.84207 17.9688L6.85067 17.9384L6.82017 17.9298C6.77587 17.7845 6.66636 17.6988 6.59364 17.572C6.42173 17.2722 6.2389 16.9086 6.11769 16.5871C5.77578 15.6821 5.51855 14.7242 5.31454 13.7456C5.21666 13.278 5.15879 12.7768 5.09652 12.3115C5.07234 12.132 5.14214 11.8903 5.02104 11.7672C4.73871 12.0149 4.37922 12.1785 4.12567 12.4936C3.72084 12.9978 3.491 13.6881 3.19596 14.387C3.13721 14.391 3.16438 14.3845 3.12634 14.4001C2.73182 14.1782 2.70622 13.7027 2.65417 13.2855C2.52303 12.2322 2.87801 10.6963 3.53531 9.71178C3.70514 9.4572 4.36471 8.69096 4.2723 8.38468C4.26631 8.10419 4.04766 7.88051 3.95747 7.64179C3.84568 7.34666 3.75656 6.97437 3.71122 6.65686C3.59322 5.83125 3.67515 4.96451 3.54201 4.12571C3.47846 3.72456 3.30346 3.28721 3.16512 2.90807C3.01191 2.48729 2.80298 2.1498 2.72723 1.67249C2.70033 1.50264 2.67446 1.23564 2.8204 1.11097C2.88294 1.01592 2.9414 0.985495 3.05447 0.980929C3.26881 0.895416 3.70878 1.21526 3.87053 1.34286C4.30094 1.68242 4.65309 1.98959 4.98905 2.37905C5.14968 2.56552 5.27871 2.87525 5.49822 3.01345L5.77186 3.09097C6.17169 3.30992 6.67003 3.37757 7.03569 3.61191C7.68162 4.02604 8.22033 4.53807 8.69285 5.06217C10.1319 6.65936 11.1204 8.63177 11.5702 10.7795C11.6423 11.1252 11.6294 11.4313 11.6778 11.7901C11.775 12.5132 11.9401 13.2755 12.04 13.9845C12.1405 14.6911 12.2315 15.4022 12.4768 16.0364C12.6056 16.3698 13.3615 16.743 13.6811 16.9984C13.9053 17.1772 14.2905 17.4068 14.4902 17.6199C14.8719 18.0262 15.2241 18.4815 15.5704 18.906C15.7424 19.1183 16.3118 19.6383 16.2674 19.9207L16.2678 19.9203ZM5.95016 4.54664C5.72859 4.47941 5.56324 4.46274 5.38643 4.45205L5.37782 4.48242L5.40772 4.49089C5.45277 4.73809 5.60056 4.93131 5.67924 5.15572L5.80273 5.87721L5.84167 5.85609C6.06725 5.77706 6.2132 5.5904 6.30333 5.26757C6.25039 5.16685 6.26751 5.06552 6.22844 4.95207C6.17791 4.80191 6.0297 4.68326 5.94997 4.54674L5.95016 4.54664Z" fill="var(--fill-0, #4482B4)"/>
</g>
</svg>
