<svg width="21" height="16" preserveAspectRatio="none" overflow="visible" style="display: block;" viewBox="0 0 21 16" fill="none" xmlns="http://www.w3.org/2000/svg">
<g id="Vector">
<path d="M16.8229 3.50744L16.3697 3.16103L16.0545 3.659C15.6604 4.30853 15.4634 5.21786 15.5225 6.0839C15.5422 6.38701 15.6407 6.92828 15.9362 7.4046C15.6604 7.57781 15.089 7.79432 14.3403 7.79432H0.0947272L0.0553205 7.96752C-0.0826031 8.83356 -0.0826031 11.5399 1.53307 13.6184C2.75468 15.1989 4.56739 16 6.9515 16C12.1138 16 15.9362 13.3802 17.7292 8.6387C18.4386 8.66035 19.9557 8.6387 20.7242 7.01488L20.7242 7.01486C20.7439 6.97155 20.7833 6.88492 20.9212 6.56022L21 6.38701L20.5665 6.10555C20.0936 5.75913 19.01 5.62923 18.1627 5.80244C18.0642 4.9364 17.611 4.17862 16.8229 3.50744Z" fill="var(--fill-0, #4EAFFF)"/>
<path d="M3.79896 7.3613V5.19621H1.63159V7.3613H3.79896Z" fill="var(--fill-0, #4EAFFF)"/>
<path d="M6.3604 7.3613V5.19621H4.19303V7.3613H6.3604Z" fill="var(--fill-0, #4EAFFF)"/>
<path d="M8.92183 7.3613V5.19621H6.75447V7.3613H8.92183Z" fill="var(--fill-0, #4EAFFF)"/>
<path d="M11.4833 7.3613V5.19621H9.3159V7.3613H11.4833Z" fill="var(--fill-0, #4EAFFF)"/>
<path d="M14.0447 7.3613V5.19621H11.8773V7.3613H14.0447Z" fill="var(--fill-0, #4EAFFF)"/>
<path d="M11.4833 4.76319V2.59811H9.3159V4.76319H11.4833Z" fill="var(--fill-0, #4EAFFF)"/>
<path d="M8.92183 4.76319V2.59811H6.75447V4.76319H8.92183Z" fill="var(--fill-0, #4EAFFF)"/>
<path d="M6.3604 4.76319V2.59811H4.19303V4.76319H6.3604Z" fill="var(--fill-0, #4EAFFF)"/>
<path d="M11.4833 2.16509V0H9.3159V2.16509H11.4833Z" fill="var(--fill-0, #4EAFFF)"/>
</g>
</svg>
