<svg width="16" height="16" preserveAspectRatio="none" overflow="visible" style="display: block;" viewBox="0 0 16 16" fill="none" xmlns="http://www.w3.org/2000/svg">
<g id="Vector">
<path d="M15.9577 9.58433C15.8615 9.30187 15.6096 9.1051 15.2838 9.05785C15.1302 9.03561 14.9542 9.0451 14.7461 9.08674C14.3832 9.15935 14.114 9.18698 13.9176 9.19237C14.6591 7.97792 15.2621 6.59299 15.6093 5.28934C16.1706 3.18142 15.8706 2.22112 15.5201 1.78672C14.5925 0.63705 13.239 0.0193895 11.6062 0.000455879C10.7352 -0.00985524 9.97054 0.156955 9.57169 0.27688C9.20029 0.213361 8.80092 0.177865 8.38188 0.17129C7.59652 0.159146 6.90253 0.325202 6.30955 0.666511C5.98119 0.558873 5.45437 0.40708 4.84591 0.310185C3.41482 0.0822981 2.26146 0.259886 1.41783 0.837955C0.396259 1.53789 -0.0773385 2.75395 0.0102618 4.45241C0.038042 4.99168 0.349069 6.63237 0.838742 8.18841C1.12017 9.08275 1.42027 9.82547 1.73071 10.3961C2.17093 11.2052 2.64197 11.6817 3.1708 11.8528C3.46723 11.9486 4.00576 12.0156 4.57222 11.5581C4.644 11.6424 4.73975 11.7262 4.86691 11.8041C5.02833 11.9028 5.22576 11.9835 5.42288 12.0313C6.13343 12.2036 6.79897 12.1605 7.36676 11.9191C7.37024 12.017 7.37294 12.1106 7.37524 12.1914C7.37902 12.3225 7.38272 12.451 7.38769 12.5712C7.42132 13.3839 7.47832 14.0158 7.64723 14.458C7.65649 14.4823 7.66897 14.5194 7.68216 14.5586C7.76638 14.8089 7.90732 15.2278 8.26576 15.5559C8.63702 15.8958 9.08602 16 9.49724 16C9.70348 16 9.90027 15.9738 10.0728 15.9379C10.6881 15.81 11.3868 15.6151 11.8923 14.9171C12.3702 14.2571 12.6025 13.2632 12.6445 11.697C12.65 11.6527 12.655 11.6104 12.6599 11.5701C12.6631 11.5429 12.6664 11.5151 12.6698 11.4874L12.7824 11.497L12.8114 11.4989C13.4381 11.5266 14.2043 11.3977 14.6748 11.1856C15.0467 11.0183 16.2382 10.4081 15.9577 9.58433Z" fill="#4482B4"/>
<path d="M14.8862 9.74457C13.023 10.1173 12.8949 9.50547 12.8949 9.50547C14.8622 6.67412 15.6845 3.08014 14.9748 2.20053C13.0387 -0.198868 9.68726 0.935893 9.63133 0.965353L9.61332 0.968479C9.24522 0.894361 8.83326 0.850207 8.37025 0.842878C7.52718 0.829477 6.88768 1.05726 6.40241 1.41419C6.40241 1.41419 0.423705 -0.974788 0.701767 4.41879C0.76092 5.56623 2.39732 13.1009 4.34916 10.825C5.06256 9.99286 5.75184 9.28923 5.75184 9.28923C6.0942 9.50982 6.50405 9.62234 6.93372 9.58192L6.96709 9.55444C6.95672 9.65777 6.96146 9.75883 6.98046 9.87847C6.47764 10.4234 6.6254 10.519 5.62023 10.7197C4.60315 10.9231 5.20064 11.285 5.59075 11.3796C6.06368 11.4943 7.15781 11.6568 7.8971 10.653L7.86762 10.7676C8.06463 10.9206 8.20298 11.7631 8.17979 12.5269C8.1566 13.2907 8.14112 13.815 8.29636 14.2246C8.45159 14.6342 8.60631 15.5557 9.92769 15.2811C11.0318 15.0516 11.604 14.4568 11.6836 13.4648C11.7401 12.7595 11.8679 12.8637 11.876 12.2332L11.9785 11.9347C12.0967 10.9786 11.9973 10.6702 12.6775 10.8136L12.8428 10.8277C13.3435 10.8498 13.9988 10.7496 14.3834 10.5762C15.2115 10.2034 15.7027 9.58103 14.8861 9.74457H14.8862Z" fill="#4482B4"/>
<path d="M6.75237 4.93193C6.5845 4.90926 6.43242 4.93025 6.35548 4.98672C6.31218 5.01852 6.29881 5.05534 6.29522 5.08071C6.28555 5.14786 6.33407 5.22208 6.36385 5.26038C6.44816 5.36877 6.57135 5.44329 6.69329 5.45971C6.71096 5.46208 6.72852 5.46323 6.746 5.46323C6.94935 5.46323 7.13418 5.30967 7.15048 5.19632C7.17085 5.05437 6.95839 4.95974 6.75237 4.93193Z" fill="var(--fill-0, white)"/>
<path d="M12.3147 4.93643C12.2987 4.82516 12.0945 4.79344 11.9008 4.81955C11.7074 4.84571 11.5198 4.93039 11.5354 5.04191C11.548 5.12864 11.7094 5.27669 11.9005 5.27666C11.9166 5.27666 11.9329 5.27561 11.9493 5.27339C12.0769 5.25625 12.1705 5.17768 12.215 5.13237C12.2827 5.06339 12.3219 4.98644 12.3147 4.93643Z" fill="var(--fill-0, white)"/>
<path d="M15.5062 9.70221C15.4352 9.49383 15.2065 9.42675 14.8266 9.50288C13.6986 9.72869 13.2946 9.57226 13.1619 9.47752C14.0387 8.18191 14.76 6.61588 15.1491 5.15468C15.3335 4.46255 15.4353 3.81977 15.4436 3.29588C15.4528 2.72076 15.3519 2.29822 15.1436 2.04008C14.3039 0.999412 13.0716 0.441211 11.5799 0.42587C10.5544 0.414697 9.68796 0.669277 9.51998 0.740844C9.16625 0.655517 8.78062 0.603135 8.36084 0.596453C7.59096 0.584381 6.92553 0.763155 6.37456 1.12753C6.13524 1.04116 5.51674 0.835225 4.76042 0.71706C3.45275 0.512814 2.41366 0.667553 1.67211 1.17711C0.787293 1.78514 0.378813 2.87201 0.457968 4.40747C0.4846 4.9241 0.788034 6.51327 1.26696 8.03522C1.89735 10.0383 2.58256 11.1724 3.30359 11.4056C3.38796 11.4329 3.48531 11.452 3.59258 11.452C3.8556 11.452 4.17803 11.337 4.51354 10.9458C5.07082 10.2955 5.59112 9.7506 5.78291 9.55261C6.06635 9.7002 6.37767 9.78258 6.69618 9.79084C6.69674 9.79893 6.69759 9.80701 6.69833 9.81506C6.63443 9.88856 6.58202 9.95298 6.53735 10.008C6.3167 10.2797 6.27077 10.3362 5.56049 10.4781C5.35847 10.5185 4.82179 10.6258 4.81398 10.9906C4.80542 11.3892 5.44826 11.5567 5.52152 11.5744C5.77677 11.6364 6.02264 11.667 6.25714 11.667C6.82749 11.6669 7.32935 11.4851 7.73046 11.1334C7.71808 12.5545 7.7792 13.9548 7.95511 14.3815C8.09915 14.7307 8.45115 15.5844 9.56299 15.5843C9.72607 15.5843 9.90568 15.5659 10.1032 15.5248C11.2635 15.2835 11.7674 14.7861 11.9623 13.6894C12.0667 13.1034 12.2457 11.7038 12.3298 10.9531C12.5075 11.0068 12.7363 11.0314 12.9835 11.0314C13.4993 11.0314 14.0944 10.9251 14.4676 10.7571C14.8868 10.5683 15.6434 10.1048 15.5062 9.70221ZM12.743 4.62928C12.7391 4.85092 12.7077 5.05211 12.6743 5.26214C12.6385 5.48802 12.6014 5.72154 12.592 6.00505C12.5828 6.28093 12.6183 6.56777 12.6527 6.84513C12.7221 7.40538 12.7933 7.98219 12.5176 8.55135C12.4747 8.47752 12.4333 8.39697 12.3954 8.30777C12.3612 8.22718 12.2867 8.09773 12.1837 7.91856C11.7828 7.22122 10.844 5.58818 11.3246 4.9218C11.4677 4.72341 11.831 4.51953 12.743 4.62928ZM11.6376 0.874673C12.9741 0.903307 14.0314 1.38829 14.78 2.31607C15.3541 3.02772 14.7219 6.26584 12.8917 9.05936C12.8736 9.03709 12.8552 9.0146 12.8362 8.99153C12.8286 8.9823 12.8208 8.97292 12.813 8.96344C13.2859 8.20584 13.1935 7.45629 13.1111 6.79171C13.0773 6.51898 13.0454 6.26139 13.0535 6.01945C13.0619 5.76293 13.0969 5.54302 13.1307 5.33033C13.1723 5.06821 13.2145 4.79703 13.2029 4.47731C13.2116 4.44379 13.2151 4.40416 13.2105 4.35714C13.1807 4.05053 12.8199 3.13306 12.0844 2.30253C11.6821 1.84834 11.0953 1.34 10.2942 0.997149C10.6388 0.927881 11.11 0.863284 11.6376 0.874673ZM4.15851 10.6595C3.78889 11.0905 3.53361 11.0079 3.44967 10.9808C2.9027 10.8038 2.26809 9.68256 1.70856 7.90448C1.22441 6.36597 0.941454 4.81891 0.919082 4.38509C0.848372 3.0131 1.19125 2.05689 1.93825 1.54306C3.15391 0.706857 5.1526 1.20736 5.95571 1.46122C5.94415 1.47225 5.93215 1.4826 5.9207 1.49381C4.60285 2.78478 4.63411 4.99042 4.63733 5.12522C4.63722 5.17725 4.6417 5.2509 4.64789 5.35221C4.67056 5.72316 4.71275 6.41361 4.60003 7.19553C4.49525 7.92212 4.72616 8.6333 5.23346 9.1467C5.28598 9.19984 5.3408 9.24974 5.39744 9.2967C5.1716 9.53127 4.68086 10.0499 4.15851 10.6595ZM5.56682 8.83683C5.15793 8.42306 4.97225 7.84747 5.0573 7.25754C5.17634 6.43154 5.13238 5.71217 5.10878 5.3257C5.10549 5.27163 5.10256 5.22424 5.10082 5.18684C5.29335 5.02129 6.18554 4.55757 6.82178 4.69898C7.11218 4.76351 7.28905 4.95525 7.36261 5.28514C7.74331 6.99287 7.41302 7.70465 7.14763 8.27662C7.09292 8.39446 7.04125 8.50583 6.9971 8.62109L6.96291 8.71015C6.87631 8.93538 6.79574 9.14476 6.74581 9.34362C6.31118 9.34233 5.88833 9.16226 5.56682 8.83683ZM5.63353 11.1399C5.50663 11.1092 5.39247 11.0558 5.3255 11.0115C5.38144 10.9859 5.481 10.9512 5.65364 10.9167C6.48924 10.7498 6.61825 10.6321 6.90005 10.2851C6.96469 10.2055 7.03791 10.1153 7.13933 10.0054L7.13944 10.0053C7.29053 9.84125 7.35961 9.86905 7.48492 9.91946C7.58648 9.96024 7.68538 10.0837 7.72549 10.2196C7.74446 10.2837 7.76579 10.4056 7.69605 10.5003C7.10736 11.2997 6.24959 11.2895 5.63353 11.1399ZM10.0064 15.0869C8.98423 15.2994 8.62231 14.7935 8.38381 14.2152C8.22987 13.8418 8.15423 12.1581 8.20791 10.2989C8.20861 10.2741 8.20498 10.2502 8.19794 10.2278C8.19183 10.1844 8.18242 10.1405 8.16938 10.0964C8.08952 9.82583 7.89503 9.59953 7.66167 9.50572C7.56896 9.46847 7.39876 9.4001 7.19426 9.45083C7.23789 9.27654 7.31353 9.07977 7.3955 8.86665L7.42991 8.77698C7.46866 8.67591 7.51722 8.57122 7.56863 8.46042C7.84635 7.86194 8.22672 7.04226 7.81391 5.19047C7.65926 4.49689 7.14292 4.15821 6.36015 4.23685C5.89085 4.28395 5.46155 4.46761 5.24742 4.57291C5.20138 4.59555 5.15927 4.61739 5.11993 4.6387C5.17968 3.93984 5.40551 2.63385 6.25018 1.80756C6.78197 1.28733 7.49025 1.03042 8.35321 1.04425C10.0535 1.07127 11.1439 1.91764 11.7593 2.62293C12.2895 3.23071 12.5766 3.84291 12.6912 4.17308C11.8295 4.08811 11.2434 4.25313 10.9463 4.6651C10.2999 5.56127 11.2999 7.30072 11.7805 8.13668C11.8686 8.28991 11.9447 8.4223 11.9686 8.47856C12.1251 8.84646 12.3277 9.09206 12.4756 9.27137C12.521 9.3263 12.565 9.37958 12.5984 9.42611C12.3375 9.49911 11.8686 9.66772 11.9113 10.5106C11.8769 10.9336 11.6318 12.9137 11.5074 13.6134C11.3431 14.5376 10.9924 14.8819 10.0064 15.0869ZM14.2732 10.3509C14.0063 10.4711 13.5597 10.5612 13.1354 10.5806C12.6667 10.6019 12.4282 10.5296 12.3721 10.4852C12.3457 9.95999 12.5473 9.90509 12.7606 9.847C12.7942 9.83783 12.8269 9.82896 12.8584 9.81825C12.8781 9.83374 12.8995 9.84911 12.9231 9.86417C13.2997 10.1053 13.9716 10.1313 14.92 9.94145C14.9235 9.94073 14.9269 9.94008 14.9304 9.9394C14.8025 10.0554 14.5836 10.2111 14.2732 10.3509Z" fill="var(--fill-0, white)"/>
</g>
</svg>
