<svg preserveAspectRatio="none" width="100%" height="100%" overflow="visible" style="display: block;" viewBox="0 0 18 18" fill="none" xmlns="http://www.w3.org/2000/svg">
<g id="settings-5-fill" clip-path="url(#clip0_0_88)">
<g id="Vector" filter="url(#filter0_d_0_88)">
<path d="M1.59845 10.2231C1.4619 9.40118 1.46641 8.5755 1.59912 7.77713C2.42503 7.79723 3.16781 7.40099 3.45649 6.70403C3.74518 6.00708 3.50014 5.20168 2.90195 4.63186C3.37264 3.97348 3.95329 3.38646 4.63103 2.90183C5.20087 3.50037 6.00653 3.74562 6.70367 3.45685C7.40081 3.16809 7.79708 2.42499 7.77675 1.59882C8.59868 1.46227 9.42435 1.46677 10.2227 1.59949C10.2027 2.42539 10.5989 3.16816 11.2959 3.45685C11.9928 3.74554 12.7982 3.5005 13.3681 2.90231C14.0264 3.373 14.6134 3.95365 15.0981 4.6314C14.4995 5.20124 14.2543 6.00689 14.543 6.70403C14.8318 7.40117 15.5749 7.79745 16.4011 7.77713C16.5376 8.59905 16.5332 9.42473 16.4004 10.2231C15.5745 10.2031 14.8317 10.5993 14.543 11.2962C14.2543 11.9932 14.4994 12.7986 15.0976 13.3684C14.6269 14.0268 14.0462 14.6138 13.3685 15.0984C12.7987 14.4999 11.993 14.2546 11.2959 14.5434C10.5987 14.8321 10.2025 15.5753 10.2227 16.4015C9.4008 16.538 8.57512 16.5335 7.77682 16.4008C7.79685 15.5749 7.40062 14.8321 6.70367 14.5434C6.00671 14.2547 5.20131 14.4997 4.63149 15.0979C3.97312 14.6272 3.38609 14.0466 2.90146 13.3689C3.5 12.799 3.74525 11.9934 3.45649 11.2962C3.16772 10.5991 2.42463 10.2029 1.59845 10.2231ZM8.99977 11.2502C10.2424 11.2502 11.2498 10.2428 11.2498 9.00015C11.2498 7.75748 10.2424 6.75014 8.99977 6.75014C7.7571 6.75014 6.74977 7.75748 6.74977 9.00015C6.74977 10.2428 7.7571 11.2502 8.99977 11.2502Z" fill="var(--fill-0, #F2A230)"/>
</g>
</g>
<defs>
<filter id="filter0_d_0_88" x="-0.502198" y="-0.0018301" width="19.0039" height="19.0039" filterUnits="userSpaceOnUse" color-interpolation-filters="sRGB">
<feFlood flood-opacity="0" result="BackgroundImageFix"/>
<feColorMatrix in="SourceAlpha" type="matrix" values="0 0 0 0 0 0 0 0 0 0 0 0 0 0 0 0 0 0 127 0" result="hardAlpha"/>
<feOffset dy="0.5"/>
<feGaussianBlur stdDeviation="1"/>
<feComposite in2="hardAlpha" operator="out"/>
<feColorMatrix type="matrix" values="0 0 0 0 0 0 0 0 0 0 0 0 0 0 0 0 0 0 0.6 0"/>
<feBlend mode="normal" in2="BackgroundImageFix" result="effect1_dropShadow_0_88"/>
<feBlend mode="normal" in="SourceGraphic" in2="effect1_dropShadow_0_88" result="shape"/>
</filter>
<clipPath id="clip0_0_88">
<rect width="18" height="18" fill="white"/>
</clipPath>
</defs>
</svg>
