<svg preserveAspectRatio="none" width="100%" height="100%" overflow="visible" style="display: block;" viewBox="0 0 20 20" fill="none" xmlns="http://www.w3.org/2000/svg">
<g id="lead-icon">
<path id="Vector" d="M15.4167 8.33333L19.0833 17.5H17.2875L16.2867 15H12.8783L11.8792 17.5H10.0842L13.75 8.33333H15.4167ZM8.33333 1.66667V3.33333H13.3333V5L11.6935 5.0005C11.0354 6.9718 9.999 8.75475 8.67625 10.2508C9.27867 10.7881 9.93083 11.2647 10.6229 11.6732L9.99742 13.2379C9.10308 12.7317 8.2662 12.127 7.49967 11.4374C6.01169 12.7767 4.25762 13.7961 2.33242 14.3945L1.88547 12.7868C3.53208 12.2669 5.03786 11.3947 6.32535 10.2517C5.38564 9.19008 4.59061 7.98321 3.97285 6.6669L5.83903 6.66697C6.30848 7.53237 6.86649 8.33608 7.49972 9.06417C8.52358 7.88757 9.35042 6.51347 9.92458 5.00084L1.66667 5V3.33333H6.66667V1.66667H8.33333ZM14.5833 10.7377L13.5442 13.3333H15.6208L14.5833 10.7377Z" fill="var(--fill-0, white)" fill-opacity="0.7"/>
</g>
</svg>
