<svg preserveAspectRatio="none" width="100%" height="100%" overflow="visible" style="display: block;" viewBox="0 0 18 18" fill="none" xmlns="http://www.w3.org/2000/svg">
<g id="lead-icon">
<path id="Vector" d="M1.61065 8.85743C5.54617 7.14281 8.1705 6.0124 9.48353 5.46625C13.2326 3.90687 14.0116 3.63599 14.5194 3.62704C14.6311 3.62508 14.8808 3.65275 15.0425 3.784C15.1791 3.89482 15.2167 4.04453 15.2347 4.1496C15.2527 4.25468 15.275 4.49403 15.2573 4.68105C15.0541 6.81572 14.175 11.996 13.7278 14.3869C13.5385 15.3986 13.166 15.7377 12.8052 15.7709C12.0212 15.8431 11.4259 15.2528 10.6666 14.7551C9.47843 13.9763 8.80718 13.4914 7.65383 12.7313C6.32096 11.853 7.18501 11.3702 7.9446 10.5813C8.14343 10.3748 11.5976 7.23298 11.6645 6.94796C11.6728 6.91232 11.6806 6.77945 11.6016 6.70928C11.5227 6.63912 11.4062 6.66311 11.3222 6.6822C11.203 6.70925 9.3048 7.9638 5.62774 10.446C5.08896 10.8159 4.60096 10.9962 4.16372 10.9868C3.6817 10.9763 2.75449 10.7142 2.0652 10.4902C1.21976 10.2153 0.547824 10.07 0.606335 9.6033C0.636811 9.36023 0.97158 9.1116 1.61065 8.85743Z" fill="var(--fill-0, #121212)"/>
</g>
</svg>
