<svg width="32" height="32" viewBox="0 0 32 32" fill="none" xmlns="http://www.w3.org/2000/svg">
<g id="BrickWorldIcon">
<g id="Project=Tools">
<g clip-path="url(#clip0_15003_22374)">
<rect width="32" height="32" rx="8" fill="#5CAEFF"/>
<g id="Dot">
<mask id="mask0_15003_22374" style="mask-type:alpha" maskUnits="userSpaceOnUse" x="0" y="0" width="32" height="32">
<rect id="Rectangle" width="32" height="32" fill="url(#paint0_linear_15003_22374)"/>
</mask>
<g mask="url(#mask0_15003_22374)">
<g id="Upm">
<g id="FrameContainer">
<g clip-path="url(#clip1_15003_22374)">
<g id="Pattern">
<rect id="Rectangle 271" opacity="0.4" x="2" y="1" width="1" height="1" fill="white"/>
<rect id="Rectangle 272" x="4" y="1" width="1" height="1" fill="white"/>
<rect id="Rectangle 273" opacity="0.4" x="6" y="1" width="1" height="1" fill="white"/>
<rect id="Rectangle 274" opacity="0.4" x="8" y="1" width="1" height="1" fill="white"/>
<rect id="Rectangle 275" opacity="0.4" x="10" y="1" width="1" height="1" fill="white"/>
<rect id="Rectangle 276" opacity="0.2" x="12" y="1" width="1" height="1" fill="white"/>
<rect id="Rectangle 277" x="14" y="1" width="1" height="1" fill="white"/>
<rect id="Rectangle 268" x="16" y="1" width="1" height="1" fill="white"/>
<rect id="Rectangle 269" opacity="0.7" x="18" y="1" width="1" height="1" fill="white"/>
<rect id="Rectangle 270" opacity="0.4" x="20" y="1" width="1" height="1" fill="white"/>
<rect id="Rectangle 271_2" opacity="0.4" x="22" y="1" width="1" height="1" fill="white"/>
<rect id="Rectangle 272_2" x="24" y="1" width="1" height="1" fill="white"/>
<rect id="Rectangle 273_2" opacity="0.4" x="26" y="1" width="1" height="1" fill="white"/>
<rect id="Rectangle 274_2" opacity="0.4" x="28" y="1" width="1" height="1" fill="white"/>
<rect id="Rectangle 275_2" opacity="0.4" x="30" y="1" width="1" height="1" fill="white"/>
<rect id="Rectangle 271_3" opacity="0.2" x="2" y="3" width="1" height="1" fill="white"/>
<rect id="Rectangle 272_3" opacity="0.7" x="4" y="3" width="1" height="1" fill="white"/>
<rect id="Rectangle 273_3" opacity="0.2" x="6" y="3" width="1" height="1" fill="white"/>
<rect id="Rectangle 274_3" x="8" y="3" width="1" height="1" fill="white"/>
<rect id="Rectangle 275_3" opacity="0.4" x="10" y="3" width="1" height="1" fill="white"/>
<rect id="Rectangle 276_2" opacity="0.4" x="12" y="3" width="1" height="1" fill="white"/>
<rect id="Rectangle 277_2" opacity="0.4" x="14" y="3" width="1" height="1" fill="white"/>
<rect id="Rectangle 268_2" opacity="0.2" x="16" y="3" width="1" height="1" fill="white"/>
<rect id="Rectangle 269_2" opacity="0.4" x="18" y="3" width="1" height="1" fill="white"/>
<rect id="Rectangle 270_2" opacity="0.4" x="20" y="3" width="1" height="1" fill="white"/>
<rect id="Rectangle 271_4" opacity="0.2" x="22" y="3" width="1" height="1" fill="white"/>
<rect id="Rectangle 272_4" opacity="0.7" x="24" y="3" width="1" height="1" fill="white"/>
<rect id="Rectangle 273_4" opacity="0.2" x="26" y="3" width="1" height="1" fill="white"/>
<rect id="Rectangle 274_4" x="28" y="3" width="1" height="1" fill="white"/>
<rect id="Rectangle 275_4" opacity="0.4" x="30" y="3" width="1" height="1" fill="white"/>
<rect id="Rectangle 271_5" x="2" y="5" width="1" height="1" fill="white"/>
<rect id="Rectangle 272_5" opacity="0.4" x="4" y="5" width="1" height="1" fill="white"/>
<rect id="Rectangle 273_5" opacity="0.4" x="6" y="5" width="1" height="1" fill="white"/>
<rect id="Rectangle 274_5" opacity="0.4" x="8" y="5" width="1" height="1" fill="white"/>
<rect id="Rectangle 275_5" opacity="0.4" x="10" y="5" width="1" height="1" fill="white"/>
<rect id="Rectangle 276_3" opacity="0.2" x="12" y="5" width="1" height="1" fill="white"/>
<rect id="Rectangle 277_3" opacity="0.4" x="14" y="5" width="1" height="1" fill="white"/>
<rect id="Rectangle 268_3" opacity="0.4" x="16" y="5" width="1" height="1" fill="white"/>
<rect id="Rectangle 269_3" x="18" y="5" width="1" height="1" fill="white"/>
<rect id="Rectangle 270_3" opacity="0.4" x="20" y="5" width="1" height="1" fill="white"/>
<rect id="Rectangle 271_6" x="22" y="5" width="1" height="1" fill="white"/>
<rect id="Rectangle 272_6" opacity="0.4" x="24" y="5" width="1" height="1" fill="white"/>
<rect id="Rectangle 273_6" opacity="0.4" x="26" y="5" width="1" height="1" fill="white"/>
<rect id="Rectangle 274_6" opacity="0.4" x="28" y="5" width="1" height="1" fill="white"/>
<rect id="Rectangle 275_6" opacity="0.4" x="30" y="5" width="1" height="1" fill="white"/>
<rect id="Rectangle 271_7" opacity="0.4" x="2" y="7" width="1" height="1" fill="white"/>
<rect id="Rectangle 272_7" x="4" y="7" width="1" height="1" fill="white"/>
<rect id="Rectangle 273_7" opacity="0.2" x="6" y="7" width="1" height="1" fill="white"/>
<rect id="Rectangle 274_7" x="8" y="7" width="1" height="1" fill="white"/>
<rect id="Rectangle 275_7" x="10" y="7" width="1" height="1" fill="white"/>
<rect id="Rectangle 276_4" opacity="0.4" x="12" y="7" width="1" height="1" fill="white"/>
<rect id="Rectangle 277_4" opacity="0.4" x="14" y="7" width="1" height="1" fill="white"/>
<rect id="Rectangle 268_4" opacity="0.4" x="16" y="7" width="1" height="1" fill="white"/>
<rect id="Rectangle 269_4" opacity="0.2" x="18" y="7" width="1" height="1" fill="white"/>
<rect id="Rectangle 270_4" opacity="0.2" x="20" y="7" width="1" height="1" fill="white"/>
<rect id="Rectangle 271_8" opacity="0.4" x="22" y="7" width="1" height="1" fill="white"/>
<rect id="Rectangle 272_8" x="24" y="7" width="1" height="1" fill="white"/>
<rect id="Rectangle 273_8" opacity="0.2" x="26" y="7" width="1" height="1" fill="white"/>
<rect id="Rectangle 274_8" x="28" y="7" width="1" height="1" fill="white"/>
<rect id="Rectangle 275_8" x="30" y="7" width="1" height="1" fill="white"/>
<rect id="Rectangle 271_9" opacity="0.4" x="2" y="9" width="1" height="1" fill="white"/>
<rect id="Rectangle 272_9" opacity="0.4" x="4" y="9" width="1" height="1" fill="white"/>
<rect id="Rectangle 273_9" opacity="0.4" x="6" y="9" width="1" height="1" fill="white"/>
<rect id="Rectangle 274_9" opacity="0.2" x="8" y="9" width="1" height="1" fill="white"/>
<rect id="Rectangle 275_9" opacity="0.2" x="10" y="9" width="1" height="1" fill="white"/>
<rect id="Rectangle 276_5" opacity="0.4" x="12" y="9" width="1" height="1" fill="white"/>
<rect id="Rectangle 277_5" opacity="0.2" x="14" y="9" width="1" height="1" fill="white"/>
<rect id="Rectangle 268_5" opacity="0.4" x="16" y="9" width="1" height="1" fill="white"/>
<rect id="Rectangle 269_5" opacity="0.4" x="18" y="9" width="1" height="1" fill="white"/>
<rect id="Rectangle 270_5" opacity="0.2" x="20" y="9" width="1" height="1" fill="white"/>
<rect id="Rectangle 271_10" opacity="0.4" x="22" y="9" width="1" height="1" fill="white"/>
<rect id="Rectangle 272_10" opacity="0.4" x="24" y="9" width="1" height="1" fill="white"/>
<rect id="Rectangle 273_10" opacity="0.4" x="26" y="9" width="1" height="1" fill="white"/>
<rect id="Rectangle 274_10" opacity="0.2" x="28" y="9" width="1" height="1" fill="white"/>
<rect id="Rectangle 275_10" opacity="0.2" x="30" y="9" width="1" height="1" fill="white"/>
<rect id="Rectangle 271_11" opacity="0.4" x="2" y="11" width="1" height="1" fill="white"/>
<rect id="Rectangle 272_11" opacity="0.4" x="4" y="11" width="1" height="1" fill="white"/>
<rect id="Rectangle 273_11" opacity="0.4" x="6" y="11" width="1" height="1" fill="white"/>
<rect id="Rectangle 274_11" opacity="0.4" x="8" y="11" width="1" height="1" fill="white"/>
<rect id="Rectangle 275_11" opacity="0.4" x="10" y="11" width="1" height="1" fill="white"/>
<rect id="Rectangle 276_6" opacity="0.4" x="12" y="11" width="1" height="1" fill="white"/>
<rect id="Rectangle 277_6" opacity="0.4" x="14" y="11" width="1" height="1" fill="white"/>
<rect id="Rectangle 268_6" opacity="0.2" x="16" y="11" width="1" height="1" fill="white"/>
<rect id="Rectangle 269_6" opacity="0.4" x="18" y="11" width="1" height="1" fill="white"/>
<rect id="Rectangle 270_6" opacity="0.4" x="20" y="11" width="1" height="1" fill="white"/>
<rect id="Rectangle 271_12" opacity="0.4" x="22" y="11" width="1" height="1" fill="white"/>
<rect id="Rectangle 272_12" opacity="0.4" x="24" y="11" width="1" height="1" fill="white"/>
<rect id="Rectangle 273_12" opacity="0.4" x="26" y="11" width="1" height="1" fill="white"/>
<rect id="Rectangle 274_12" opacity="0.4" x="28" y="11" width="1" height="1" fill="white"/>
<rect id="Rectangle 275_12" opacity="0.4" x="30" y="11" width="1" height="1" fill="white"/>
<rect id="Rectangle 271_13" opacity="0.4" x="2" y="13" width="1" height="1" fill="white"/>
<rect id="Rectangle 272_13" x="4" y="13" width="1" height="1" fill="white"/>
<rect id="Rectangle 273_13" opacity="0.2" x="6" y="13" width="1" height="1" fill="white"/>
<rect id="Rectangle 274_13" opacity="0.4" x="8" y="13" width="1" height="1" fill="white"/>
<rect id="Rectangle 275_13" opacity="0.4" x="10" y="13" width="1" height="1" fill="white"/>
<rect id="Rectangle 276_7" opacity="0.7" x="12" y="13" width="1" height="1" fill="white"/>
<rect id="Rectangle 277_7" opacity="0.7" x="14" y="13" width="1" height="1" fill="white"/>
<rect id="Rectangle 268_7" opacity="0.4" x="16" y="13" width="1" height="1" fill="white"/>
<rect id="Rectangle 269_7" opacity="0.7" x="18" y="13" width="1" height="1" fill="white"/>
<rect id="Rectangle 270_7" opacity="0.2" x="20" y="13" width="1" height="1" fill="white"/>
<rect id="Rectangle 271_14" opacity="0.4" x="22" y="13" width="1" height="1" fill="white"/>
<rect id="Rectangle 272_14" x="24" y="13" width="1" height="1" fill="white"/>
<rect id="Rectangle 273_14" opacity="0.2" x="26" y="13" width="1" height="1" fill="white"/>
<rect id="Rectangle 274_14" opacity="0.4" x="28" y="13" width="1" height="1" fill="white"/>
<rect id="Rectangle 275_14" opacity="0.4" x="30" y="13" width="1" height="1" fill="white"/>
<rect id="Rectangle 271_15" opacity="0.4" x="2" y="15" width="1" height="1" fill="white"/>
<rect id="Rectangle 272_15" opacity="0.4" x="4" y="15" width="1" height="1" fill="white"/>
<rect id="Rectangle 273_15" opacity="0.4" x="6" y="15" width="1" height="1" fill="white"/>
<rect id="Rectangle 274_15" opacity="0.4" x="8" y="15" width="1" height="1" fill="white"/>
<rect id="Rectangle 275_15" opacity="0.4" x="10" y="15" width="1" height="1" fill="white"/>
<rect id="Rectangle 276_8" opacity="0.7" x="12" y="15" width="1" height="1" fill="white"/>
<rect id="Rectangle 277_8" opacity="0.2" x="14" y="15" width="1" height="1" fill="white"/>
<rect id="Rectangle 268_8" opacity="0.4" x="16" y="15" width="1" height="1" fill="white"/>
<rect id="Rectangle 269_8" opacity="0.4" x="18" y="15" width="1" height="1" fill="white"/>
<rect id="Rectangle 270_8" opacity="0.2" x="20" y="15" width="1" height="1" fill="white"/>
<rect id="Rectangle 271_16" opacity="0.4" x="22" y="15" width="1" height="1" fill="white"/>
<rect id="Rectangle 272_16" opacity="0.4" x="24" y="15" width="1" height="1" fill="white"/>
<rect id="Rectangle 273_16" opacity="0.4" x="26" y="15" width="1" height="1" fill="white"/>
<rect id="Rectangle 274_16" opacity="0.4" x="28" y="15" width="1" height="1" fill="white"/>
<rect id="Rectangle 275_16" opacity="0.4" x="30" y="15" width="1" height="1" fill="white"/>
<rect id="Rectangle 271_17" opacity="0.4" x="2" y="17" width="1" height="1" fill="white"/>
<rect id="Rectangle 272_17" opacity="0.2" x="4" y="17" width="1" height="1" fill="white"/>
<rect id="Rectangle 273_17" x="6" y="17" width="1" height="1" fill="white"/>
<rect id="Rectangle 274_17" opacity="0.4" x="8" y="17" width="1" height="1" fill="white"/>
<rect id="Rectangle 275_17" x="10" y="17" width="1" height="1" fill="white"/>
<rect id="Rectangle 276_9" opacity="0.4" x="12" y="17" width="1" height="1" fill="white"/>
<rect id="Rectangle 277_9" opacity="0.4" x="14" y="17" width="1" height="1" fill="white"/>
<rect id="Rectangle 268_9" opacity="0.4" x="16" y="17" width="1" height="1" fill="white"/>
<rect id="Rectangle 269_9" x="18" y="17" width="1" height="1" fill="white"/>
<rect id="Rectangle 270_9" opacity="0.4" x="20" y="17" width="1" height="1" fill="white"/>
<rect id="Rectangle 271_18" opacity="0.4" x="22" y="17" width="1" height="1" fill="white"/>
<rect id="Rectangle 272_18" opacity="0.2" x="24" y="17" width="1" height="1" fill="white"/>
<rect id="Rectangle 273_18" x="26" y="17" width="1" height="1" fill="white"/>
<rect id="Rectangle 274_18" opacity="0.4" x="28" y="17" width="1" height="1" fill="white"/>
<rect id="Rectangle 275_18" x="30" y="17" width="1" height="1" fill="white"/>
<rect id="Rectangle 271_19" opacity="0.2" x="2" y="19" width="1" height="1" fill="white"/>
<rect id="Rectangle 272_19" opacity="0.4" x="4" y="19" width="1" height="1" fill="white"/>
<rect id="Rectangle 273_19" opacity="0.4" x="6" y="19" width="1" height="1" fill="white"/>
<rect id="Rectangle 274_19" opacity="0.4" x="8" y="19" width="1" height="1" fill="white"/>
<rect id="Rectangle 275_19" opacity="0.4" x="10" y="19" width="1" height="1" fill="white"/>
<rect id="Rectangle 276_10" opacity="0.4" x="12" y="19" width="1" height="1" fill="white"/>
<rect id="Rectangle 277_10" opacity="0.7" x="14" y="19" width="1" height="1" fill="white"/>
<rect id="Rectangle 268_10" opacity="0.4" x="16" y="19" width="1" height="1" fill="white"/>
<rect id="Rectangle 269_10" opacity="0.4" x="18" y="19" width="1" height="1" fill="white"/>
<rect id="Rectangle 270_10" opacity="0.2" x="20" y="19" width="1" height="1" fill="white"/>
<rect id="Rectangle 271_20" opacity="0.2" x="22" y="19" width="1" height="1" fill="white"/>
<rect id="Rectangle 272_20" opacity="0.4" x="24" y="19" width="1" height="1" fill="white"/>
<rect id="Rectangle 273_20" opacity="0.4" x="26" y="19" width="1" height="1" fill="white"/>
<rect id="Rectangle 274_20" opacity="0.4" x="28" y="19" width="1" height="1" fill="white"/>
<rect id="Rectangle 275_20" opacity="0.4" x="30" y="19" width="1" height="1" fill="white"/>
<rect id="Rectangle 271_21" opacity="0.4" x="2" y="21" width="1" height="1" fill="white"/>
<rect id="Rectangle 272_21" x="4" y="21" width="1" height="1" fill="white"/>
<rect id="Rectangle 273_21" opacity="0.4" x="6" y="21" width="1" height="1" fill="white"/>
<rect id="Rectangle 274_21" opacity="0.4" x="8" y="21" width="1" height="1" fill="white"/>
<rect id="Rectangle 275_21" opacity="0.4" x="10" y="21" width="1" height="1" fill="white"/>
<rect id="Rectangle 276_11" opacity="0.2" x="12" y="21" width="1" height="1" fill="white"/>
<rect id="Rectangle 277_11" x="14" y="21" width="1" height="1" fill="white"/>
<rect id="Rectangle 268_11" x="16" y="21" width="1" height="1" fill="white"/>
<rect id="Rectangle 269_11" opacity="0.7" x="18" y="21" width="1" height="1" fill="white"/>
<rect id="Rectangle 270_11" opacity="0.4" x="20" y="21" width="1" height="1" fill="white"/>
<rect id="Rectangle 271_22" opacity="0.4" x="22" y="21" width="1" height="1" fill="white"/>
<rect id="Rectangle 272_22" x="24" y="21" width="1" height="1" fill="white"/>
<rect id="Rectangle 273_22" opacity="0.4" x="26" y="21" width="1" height="1" fill="white"/>
<rect id="Rectangle 274_22" opacity="0.4" x="28" y="21" width="1" height="1" fill="white"/>
<rect id="Rectangle 275_22" opacity="0.4" x="30" y="21" width="1" height="1" fill="white"/>
<rect id="Rectangle 271_23" opacity="0.2" x="2" y="23" width="1" height="1" fill="white"/>
<rect id="Rectangle 272_23" opacity="0.7" x="4" y="23" width="1" height="1" fill="white"/>
<rect id="Rectangle 273_23" opacity="0.2" x="6" y="23" width="1" height="1" fill="white"/>
<rect id="Rectangle 274_23" x="8" y="23" width="1" height="1" fill="white"/>
<rect id="Rectangle 275_23" opacity="0.4" x="10" y="23" width="1" height="1" fill="white"/>
<rect id="Rectangle 276_12" opacity="0.4" x="12" y="23" width="1" height="1" fill="white"/>
<rect id="Rectangle 277_12" opacity="0.4" x="14" y="23" width="1" height="1" fill="white"/>
<rect id="Rectangle 268_12" opacity="0.2" x="16" y="23" width="1" height="1" fill="white"/>
<rect id="Rectangle 269_12" opacity="0.4" x="18" y="23" width="1" height="1" fill="white"/>
<rect id="Rectangle 270_12" opacity="0.4" x="20" y="23" width="1" height="1" fill="white"/>
<rect id="Rectangle 271_24" opacity="0.2" x="22" y="23" width="1" height="1" fill="white"/>
<rect id="Rectangle 272_24" opacity="0.7" x="24" y="23" width="1" height="1" fill="white"/>
<rect id="Rectangle 273_24" opacity="0.2" x="26" y="23" width="1" height="1" fill="white"/>
<rect id="Rectangle 274_24" x="28" y="23" width="1" height="1" fill="white"/>
<rect id="Rectangle 275_24" opacity="0.4" x="30" y="23" width="1" height="1" fill="white"/>
<rect id="Rectangle 271_25" x="2" y="25" width="1" height="1" fill="white"/>
<rect id="Rectangle 272_25" opacity="0.4" x="4" y="25" width="1" height="1" fill="white"/>
<rect id="Rectangle 273_25" opacity="0.4" x="6" y="25" width="1" height="1" fill="white"/>
<rect id="Rectangle 274_25" opacity="0.4" x="8" y="25" width="1" height="1" fill="white"/>
<rect id="Rectangle 275_25" opacity="0.4" x="10" y="25" width="1" height="1" fill="white"/>
<rect id="Rectangle 276_13" opacity="0.2" x="12" y="25" width="1" height="1" fill="white"/>
<rect id="Rectangle 277_13" opacity="0.4" x="14" y="25" width="1" height="1" fill="white"/>
<rect id="Rectangle 268_13" opacity="0.4" x="16" y="25" width="1" height="1" fill="white"/>
<rect id="Rectangle 269_13" x="18" y="25" width="1" height="1" fill="white"/>
<rect id="Rectangle 270_13" opacity="0.4" x="20" y="25" width="1" height="1" fill="white"/>
<rect id="Rectangle 271_26" x="22" y="25" width="1" height="1" fill="white"/>
<rect id="Rectangle 272_26" opacity="0.4" x="24" y="25" width="1" height="1" fill="white"/>
<rect id="Rectangle 273_26" opacity="0.4" x="26" y="25" width="1" height="1" fill="white"/>
<rect id="Rectangle 274_26" opacity="0.4" x="28" y="25" width="1" height="1" fill="white"/>
<rect id="Rectangle 275_26" opacity="0.4" x="30" y="25" width="1" height="1" fill="white"/>
<rect id="Rectangle 271_27" opacity="0.4" x="2" y="27" width="1" height="1" fill="white"/>
<rect id="Rectangle 272_27" x="4" y="27" width="1" height="1" fill="white"/>
<rect id="Rectangle 273_27" opacity="0.2" x="6" y="27" width="1" height="1" fill="white"/>
<rect id="Rectangle 274_27" x="8" y="27" width="1" height="1" fill="white"/>
<rect id="Rectangle 275_27" x="10" y="27" width="1" height="1" fill="white"/>
<rect id="Rectangle 276_14" opacity="0.4" x="12" y="27" width="1" height="1" fill="white"/>
<rect id="Rectangle 277_14" opacity="0.4" x="14" y="27" width="1" height="1" fill="white"/>
<rect id="Rectangle 268_14" opacity="0.4" x="16" y="27" width="1" height="1" fill="white"/>
<rect id="Rectangle 269_14" opacity="0.2" x="18" y="27" width="1" height="1" fill="white"/>
<rect id="Rectangle 270_14" opacity="0.2" x="20" y="27" width="1" height="1" fill="white"/>
<rect id="Rectangle 271_28" opacity="0.4" x="22" y="27" width="1" height="1" fill="white"/>
<rect id="Rectangle 272_28" x="24" y="27" width="1" height="1" fill="white"/>
<rect id="Rectangle 273_28" opacity="0.2" x="26" y="27" width="1" height="1" fill="white"/>
<rect id="Rectangle 274_28" x="28" y="27" width="1" height="1" fill="white"/>
<rect id="Rectangle 275_28" x="30" y="27" width="1" height="1" fill="white"/>
<rect id="Rectangle 271_29" opacity="0.4" x="2" y="29" width="1" height="1" fill="white"/>
<rect id="Rectangle 272_29" opacity="0.4" x="4" y="29" width="1" height="1" fill="white"/>
<rect id="Rectangle 273_29" opacity="0.4" x="6" y="29" width="1" height="1" fill="white"/>
<rect id="Rectangle 274_29" opacity="0.2" x="8" y="29" width="1" height="1" fill="white"/>
<rect id="Rectangle 275_29" opacity="0.2" x="10" y="29" width="1" height="1" fill="white"/>
<rect id="Rectangle 276_15" opacity="0.4" x="12" y="29" width="1" height="1" fill="white"/>
<rect id="Rectangle 277_15" opacity="0.2" x="14" y="29" width="1" height="1" fill="white"/>
<rect id="Rectangle 268_15" opacity="0.4" x="16" y="29" width="1" height="1" fill="white"/>
<rect id="Rectangle 269_15" opacity="0.4" x="18" y="29" width="1" height="1" fill="white"/>
<rect id="Rectangle 270_15" opacity="0.2" x="20" y="29" width="1" height="1" fill="white"/>
<rect id="Rectangle 271_30" opacity="0.4" x="22" y="29" width="1" height="1" fill="white"/>
<rect id="Rectangle 272_30" opacity="0.4" x="24" y="29" width="1" height="1" fill="white"/>
<rect id="Rectangle 273_30" opacity="0.4" x="26" y="29" width="1" height="1" fill="white"/>
<rect id="Rectangle 274_30" opacity="0.2" x="28" y="29" width="1" height="1" fill="white"/>
<rect id="Rectangle 275_30" opacity="0.2" x="30" y="29" width="1" height="1" fill="white"/>
</g>
</g>
</g>
</g>
</g>
</g>
<g id="Vector" filter="url(#filter0_d_15003_22374)">
<path d="M9.17018 25.1891L14.8363 19.5279C15.483 19.7004 16.2016 19.5332 16.7089 19.0263C17.4659 18.2699 17.4659 17.0436 16.7089 16.2873C15.9519 15.5309 14.7246 15.5309 13.9676 16.2873C13.4602 16.7942 13.2929 17.5121 13.4656 18.1583L7.7995 23.8196L6.77148 22.7925C9.51285 19.5969 10.5409 16.059 11.9115 10.1244L18.0797 9.43962L23.5624 14.9178L22.877 21.0806C16.9374 22.4501 13.3965 23.4773 10.1982 26.2163L9.17018 25.1891ZM20.4783 6.35819L26.6295 12.5043C26.8188 12.6933 26.8188 12.9999 26.6295 13.189C26.5569 13.2616 26.4632 13.3092 26.3617 13.325L24.933 13.5482L19.4503 8.0701L19.6559 6.63209C19.6938 6.36737 19.9392 6.18342 20.2042 6.22124C20.308 6.23605 20.4041 6.2841 20.4783 6.35819Z" fill="url(#paint1_linear_15003_22374)"/>
</g>
</g>
<rect x="0.5" y="0.5" width="31" height="31" rx="7.5" stroke="url(#paint2_linear_15003_22374)"/>
</g>
</g>
<defs>
<filter id="filter0_d_15003_22374" x="2.77148" y="6.21631" width="28" height="28" filterUnits="userSpaceOnUse" color-interpolation-filters="sRGB">
<feFlood flood-opacity="0" result="BackgroundImageFix"/>
<feColorMatrix in="SourceAlpha" type="matrix" values="0 0 0 0 0 0 0 0 0 0 0 0 0 0 0 0 0 0 127 0" result="hardAlpha"/>
<feOffset dy="4"/>
<feGaussianBlur stdDeviation="2"/>
<feComposite in2="hardAlpha" operator="out"/>
<feColorMatrix type="matrix" values="0 0 0 0 0 0 0 0 0 0 0 0 0 0 0 0 0 0 0.12 0"/>
<feBlend mode="normal" in2="BackgroundImageFix" result="effect1_dropShadow_15003_22374"/>
<feBlend mode="normal" in="SourceGraphic" in2="effect1_dropShadow_15003_22374" result="shape"/>
</filter>
<linearGradient id="paint0_linear_15003_22374" x1="16" y1="0" x2="16" y2="32" gradientUnits="userSpaceOnUse">
<stop stop-color="#D9D9D9" stop-opacity="0.3"/>
<stop offset="1" stop-color="#D9D9D9" stop-opacity="0.15"/>
</linearGradient>
<linearGradient id="paint1_linear_15003_22374" x1="16.7715" y1="6.21631" x2="16.7715" y2="26.2163" gradientUnits="userSpaceOnUse">
<stop stop-color="white"/>
<stop offset="0.997813" stop-color="#DBECFF"/>
</linearGradient>
<linearGradient id="paint2_linear_15003_22374" x1="16" y1="0" x2="16" y2="32" gradientUnits="userSpaceOnUse">
<stop stop-color="white" stop-opacity="0.5"/>
<stop offset="1" stop-color="white" stop-opacity="0.2"/>
</linearGradient>
<clipPath id="clip0_15003_22374">
<rect width="32" height="32" rx="8" fill="white"/>
</clipPath>
<clipPath id="clip1_15003_22374">
<rect x="1" y="1" width="30" height="30" rx="7" fill="white"/>
</clipPath>
</defs>
</svg>
