<svg preserveAspectRatio="none" width="100%" height="100%" overflow="visible" style="display: block;" viewBox="0 0 17.4167 15.8333" fill="none" xmlns="http://www.w3.org/2000/svg">
<path id="Vector" d="M13.75 6.66667L17.4167 15.8333H15.6208L14.62 13.3333H11.2117L10.2125 15.8333H8.4175L12.0833 6.66667H13.75ZM6.66667 0V1.66667H11.6667V3.33333L10.0268 3.33383C9.36875 5.30513 8.33233 7.08808 7.00958 8.58417C7.612 9.12142 8.26417 9.598 8.95625 10.0066L8.33075 11.5712C7.43642 11.0651 6.59953 10.4603 5.83301 9.77075C4.34502 11.11 2.59095 12.1294 0.665758 12.7278L0.218808 11.1202C1.86542 10.6002 3.37119 9.72808 4.65868 8.58508C3.71897 7.52342 2.92394 6.31654 2.30618 5.00023L4.17237 5.00031C4.64182 5.86571 5.19982 6.66942 5.83306 7.3975C6.85692 6.2209 7.68375 4.8468 8.25792 3.33417L0 3.33333V1.66667H5V0H6.66667ZM12.9167 9.071L11.8775 11.6667H13.9542L12.9167 9.071Z" fill="var(--fill-0, white)" fill-opacity="0.7"/>
</svg>
