<svg preserveAspectRatio="none" width="100%" height="100%" overflow="visible" style="display: block;" viewBox="0 0 10 10" fill="none" xmlns="http://www.w3.org/2000/svg">
<path id="Vector" d="M5 0C7.7614 0 10 2.23857 10 5C10 7.7614 7.7614 10 5 10C2.23857 10 0 7.7614 0 5C0 2.23857 2.23857 0 5 0ZM7.00215 5.43885C6.82945 5.17665 6.70485 4.9873 6.2311 5.0624C5.33585 5.2045 5.2366 5.3612 5.19385 5.61875L5.1818 5.69715L5.16965 5.77985C5.1208 6.1214 5.12265 6.2506 5.27945 6.4154C5.91205 7.0791 6.291 7.5575 6.4058 7.8373C6.46185 7.9742 6.60595 8.38755 6.5068 8.79635C7.1186 8.5533 7.6578 8.1666 8.08265 7.67795C8.13775 7.49105 8.17755 7.2583 8.17755 6.9759V6.9236C8.17755 6.46235 8.17755 6.252 7.85155 6.0657C7.714 5.98755 7.61135 5.9405 7.5291 5.9032C7.3455 5.8197 7.22395 5.76485 7.0599 5.52495C7.04035 5.4964 7.02125 5.4679 7.00215 5.43885ZM5 0.916665C3.8413 0.916665 2.79531 1.39929 2.0521 2.17448C2.14058 2.23593 2.21768 2.32226 2.27064 2.44128C2.37264 2.67014 2.37264 2.9056 2.37264 3.11382C2.37244 3.27811 2.37221 3.4336 2.42496 3.54651C2.49721 3.70067 2.8082 3.76613 3.08274 3.82368C3.18083 3.84433 3.28197 3.86542 3.37398 3.89088C3.62702 3.96117 3.82277 4.18825 3.97969 4.3706C4.0448 4.44655 4.14095 4.55815 4.18915 4.58585C4.2143 4.5678 4.295 4.4804 4.33495 4.33675C4.36535 4.22735 4.3567 4.12985 4.31195 4.07715C4.0324 3.74722 4.0476 3.1116 4.134 2.87748C4.2701 2.50803 4.69525 2.53529 5.006 2.55549C5.1219 2.56295 5.2313 2.57012 5.31285 2.55988C5.6241 2.52083 5.7198 2.04769 5.7875 1.955C5.93355 1.7549 6.38035 1.45355 6.6579 1.26727C6.15125 1.04191 5.59025 0.916665 5 0.916665Z" fill="url(#paint0_linear_18398_27962)"/>
<defs>
<linearGradient id="paint0_linear_18398_27962" x1="5" y1="0" x2="5" y2="10" gradientUnits="userSpaceOnUse">
<stop stop-color="#482E09"/>
<stop offset="1" stop-color="#1D0F01"/>
</linearGradient>
</defs>
</svg>
