<svg width="13.032" height="10.8" preserveAspectRatio="none" overflow="visible" style="display: block;" viewBox="0 0 13.032 10.8" fill="none" xmlns="http://www.w3.org/2000/svg">
<path id="Vector" d="M0.895879 4.64931C4.39413 3.1252 6.72686 2.1204 7.89399 1.63493C11.2265 0.248818 11.919 0.00803792 12.3703 8.45907e-05C12.4696 -0.00166208 12.6916 0.0229379 12.8353 0.139605C12.9567 0.238111 12.9901 0.371185 13.0061 0.464578C13.0221 0.557978 13.042 0.770738 13.0262 0.936978C12.8456 2.83446 12.0642 7.43918 11.6667 9.56438C11.4985 10.4636 11.1673 10.7651 10.8466 10.7946C10.1497 10.8588 9.62053 10.3341 8.94559 9.89171C7.88946 9.19938 7.29279 8.76838 6.26759 8.09278C5.08283 7.31204 5.85087 6.88291 6.52606 6.18165C6.70279 5.99811 9.77319 3.20536 9.83259 2.95201C9.83999 2.92032 9.84693 2.80222 9.77673 2.73985C9.70659 2.67748 9.60306 2.69881 9.52833 2.71578C9.42239 2.73982 7.73513 3.85498 4.46663 6.06138C3.98771 6.39018 3.55393 6.55045 3.16528 6.54205C2.73681 6.53278 1.91263 6.29978 1.29993 6.10065C0.548426 5.85631 -0.0488528 5.72718 0.00315718 5.31231C0.0302465 5.09624 0.327819 4.87524 0.895879 4.64931Z" fill="var(--fill-0, #121212)"/>
</svg>
