<svg width="32" height="32" viewBox="0 0 32 32" fill="none" xmlns="http://www.w3.org/2000/svg">
<g id="BrickWorldIcon">
<g id="Project=CEH">
<g clip-path="url(#clip0_15003_22374)">
<rect width="32" height="32" rx="8" fill="url(#paint0_linear_15003_22374)"/>
<g id="Dot">
<mask id="mask0_15003_22374" style="mask-type:alpha" maskUnits="userSpaceOnUse" x="0" y="0" width="32" height="32">
<rect id="Rectangle" width="32" height="32" fill="url(#paint1_linear_15003_22374)"/>
</mask>
<g mask="url(#mask0_15003_22374)">
<g id="Upm">
<g id="FrameContainer">
<g clip-path="url(#clip1_15003_22374)">
<g id="Pattern">
<rect id="Rectangle 271" opacity="0.4" x="2" y="1" width="1" height="1" fill="white"/>
<rect id="Rectangle 272" x="4" y="1" width="1" height="1" fill="white"/>
<rect id="Rectangle 273" opacity="0.4" x="6" y="1" width="1" height="1" fill="white"/>
<rect id="Rectangle 274" opacity="0.4" x="8" y="1" width="1" height="1" fill="white"/>
<rect id="Rectangle 275" opacity="0.4" x="10" y="1" width="1" height="1" fill="white"/>
<rect id="Rectangle 276" opacity="0.2" x="12" y="1" width="1" height="1" fill="white"/>
<rect id="Rectangle 277" x="14" y="1" width="1" height="1" fill="white"/>
<rect id="Rectangle 268" x="16" y="1" width="1" height="1" fill="white"/>
<rect id="Rectangle 269" opacity="0.7" x="18" y="1" width="1" height="1" fill="white"/>
<rect id="Rectangle 270" opacity="0.4" x="20" y="1" width="1" height="1" fill="white"/>
<rect id="Rectangle 271_2" opacity="0.4" x="22" y="1" width="1" height="1" fill="white"/>
<rect id="Rectangle 272_2" x="24" y="1" width="1" height="1" fill="white"/>
<rect id="Rectangle 273_2" opacity="0.4" x="26" y="1" width="1" height="1" fill="white"/>
<rect id="Rectangle 274_2" opacity="0.4" x="28" y="1" width="1" height="1" fill="white"/>
<rect id="Rectangle 275_2" opacity="0.4" x="30" y="1" width="1" height="1" fill="white"/>
<rect id="Rectangle 271_3" opacity="0.2" x="2" y="3" width="1" height="1" fill="white"/>
<rect id="Rectangle 272_3" opacity="0.7" x="4" y="3" width="1" height="1" fill="white"/>
<rect id="Rectangle 273_3" opacity="0.2" x="6" y="3" width="1" height="1" fill="white"/>
<rect id="Rectangle 274_3" x="8" y="3" width="1" height="1" fill="white"/>
<rect id="Rectangle 275_3" opacity="0.4" x="10" y="3" width="1" height="1" fill="white"/>
<rect id="Rectangle 276_2" opacity="0.4" x="12" y="3" width="1" height="1" fill="white"/>
<rect id="Rectangle 277_2" opacity="0.4" x="14" y="3" width="1" height="1" fill="white"/>
<rect id="Rectangle 268_2" opacity="0.2" x="16" y="3" width="1" height="1" fill="white"/>
<rect id="Rectangle 269_2" opacity="0.4" x="18" y="3" width="1" height="1" fill="white"/>
<rect id="Rectangle 270_2" opacity="0.4" x="20" y="3" width="1" height="1" fill="white"/>
<rect id="Rectangle 271_4" opacity="0.2" x="22" y="3" width="1" height="1" fill="white"/>
<rect id="Rectangle 272_4" opacity="0.7" x="24" y="3" width="1" height="1" fill="white"/>
<rect id="Rectangle 273_4" opacity="0.2" x="26" y="3" width="1" height="1" fill="white"/>
<rect id="Rectangle 274_4" x="28" y="3" width="1" height="1" fill="white"/>
<rect id="Rectangle 275_4" opacity="0.4" x="30" y="3" width="1" height="1" fill="white"/>
<rect id="Rectangle 271_5" x="2" y="5" width="1" height="1" fill="white"/>
<rect id="Rectangle 272_5" opacity="0.4" x="4" y="5" width="1" height="1" fill="white"/>
<rect id="Rectangle 273_5" opacity="0.4" x="6" y="5" width="1" height="1" fill="white"/>
<rect id="Rectangle 274_5" opacity="0.4" x="8" y="5" width="1" height="1" fill="white"/>
<rect id="Rectangle 275_5" opacity="0.4" x="10" y="5" width="1" height="1" fill="white"/>
<rect id="Rectangle 276_3" opacity="0.2" x="12" y="5" width="1" height="1" fill="white"/>
<rect id="Rectangle 277_3" opacity="0.4" x="14" y="5" width="1" height="1" fill="white"/>
<rect id="Rectangle 268_3" opacity="0.4" x="16" y="5" width="1" height="1" fill="white"/>
<rect id="Rectangle 269_3" x="18" y="5" width="1" height="1" fill="white"/>
<rect id="Rectangle 270_3" opacity="0.4" x="20" y="5" width="1" height="1" fill="white"/>
<rect id="Rectangle 271_6" x="22" y="5" width="1" height="1" fill="white"/>
<rect id="Rectangle 272_6" opacity="0.4" x="24" y="5" width="1" height="1" fill="white"/>
<rect id="Rectangle 273_6" opacity="0.4" x="26" y="5" width="1" height="1" fill="white"/>
<rect id="Rectangle 274_6" opacity="0.4" x="28" y="5" width="1" height="1" fill="white"/>
<rect id="Rectangle 275_6" opacity="0.4" x="30" y="5" width="1" height="1" fill="white"/>
<rect id="Rectangle 271_7" opacity="0.4" x="2" y="7" width="1" height="1" fill="white"/>
<rect id="Rectangle 272_7" x="4" y="7" width="1" height="1" fill="white"/>
<rect id="Rectangle 273_7" opacity="0.2" x="6" y="7" width="1" height="1" fill="white"/>
<rect id="Rectangle 274_7" x="8" y="7" width="1" height="1" fill="white"/>
<rect id="Rectangle 275_7" x="10" y="7" width="1" height="1" fill="white"/>
<rect id="Rectangle 276_4" opacity="0.4" x="12" y="7" width="1" height="1" fill="white"/>
<rect id="Rectangle 277_4" opacity="0.4" x="14" y="7" width="1" height="1" fill="white"/>
<rect id="Rectangle 268_4" opacity="0.4" x="16" y="7" width="1" height="1" fill="white"/>
<rect id="Rectangle 269_4" opacity="0.2" x="18" y="7" width="1" height="1" fill="white"/>
<rect id="Rectangle 270_4" opacity="0.2" x="20" y="7" width="1" height="1" fill="white"/>
<rect id="Rectangle 271_8" opacity="0.4" x="22" y="7" width="1" height="1" fill="white"/>
<rect id="Rectangle 272_8" x="24" y="7" width="1" height="1" fill="white"/>
<rect id="Rectangle 273_8" opacity="0.2" x="26" y="7" width="1" height="1" fill="white"/>
<rect id="Rectangle 274_8" x="28" y="7" width="1" height="1" fill="white"/>
<rect id="Rectangle 275_8" x="30" y="7" width="1" height="1" fill="white"/>
<rect id="Rectangle 271_9" opacity="0.4" x="2" y="9" width="1" height="1" fill="white"/>
<rect id="Rectangle 272_9" opacity="0.4" x="4" y="9" width="1" height="1" fill="white"/>
<rect id="Rectangle 273_9" opacity="0.4" x="6" y="9" width="1" height="1" fill="white"/>
<rect id="Rectangle 274_9" opacity="0.2" x="8" y="9" width="1" height="1" fill="white"/>
<rect id="Rectangle 275_9" opacity="0.2" x="10" y="9" width="1" height="1" fill="white"/>
<rect id="Rectangle 276_5" opacity="0.4" x="12" y="9" width="1" height="1" fill="white"/>
<rect id="Rectangle 277_5" opacity="0.2" x="14" y="9" width="1" height="1" fill="white"/>
<rect id="Rectangle 268_5" opacity="0.4" x="16" y="9" width="1" height="1" fill="white"/>
<rect id="Rectangle 269_5" opacity="0.4" x="18" y="9" width="1" height="1" fill="white"/>
<rect id="Rectangle 270_5" opacity="0.2" x="20" y="9" width="1" height="1" fill="white"/>
<rect id="Rectangle 271_10" opacity="0.4" x="22" y="9" width="1" height="1" fill="white"/>
<rect id="Rectangle 272_10" opacity="0.4" x="24" y="9" width="1" height="1" fill="white"/>
<rect id="Rectangle 273_10" opacity="0.4" x="26" y="9" width="1" height="1" fill="white"/>
<rect id="Rectangle 274_10" opacity="0.2" x="28" y="9" width="1" height="1" fill="white"/>
<rect id="Rectangle 275_10" opacity="0.2" x="30" y="9" width="1" height="1" fill="white"/>
<rect id="Rectangle 271_11" opacity="0.4" x="2" y="11" width="1" height="1" fill="white"/>
<rect id="Rectangle 272_11" opacity="0.4" x="4" y="11" width="1" height="1" fill="white"/>
<rect id="Rectangle 273_11" opacity="0.4" x="6" y="11" width="1" height="1" fill="white"/>
<rect id="Rectangle 274_11" opacity="0.4" x="8" y="11" width="1" height="1" fill="white"/>
<rect id="Rectangle 275_11" opacity="0.4" x="10" y="11" width="1" height="1" fill="white"/>
<rect id="Rectangle 276_6" opacity="0.4" x="12" y="11" width="1" height="1" fill="white"/>
<rect id="Rectangle 277_6" opacity="0.4" x="14" y="11" width="1" height="1" fill="white"/>
<rect id="Rectangle 268_6" opacity="0.2" x="16" y="11" width="1" height="1" fill="white"/>
<rect id="Rectangle 269_6" opacity="0.4" x="18" y="11" width="1" height="1" fill="white"/>
<rect id="Rectangle 270_6" opacity="0.4" x="20" y="11" width="1" height="1" fill="white"/>
<rect id="Rectangle 271_12" opacity="0.4" x="22" y="11" width="1" height="1" fill="white"/>
<rect id="Rectangle 272_12" opacity="0.4" x="24" y="11" width="1" height="1" fill="white"/>
<rect id="Rectangle 273_12" opacity="0.4" x="26" y="11" width="1" height="1" fill="white"/>
<rect id="Rectangle 274_12" opacity="0.4" x="28" y="11" width="1" height="1" fill="white"/>
<rect id="Rectangle 275_12" opacity="0.4" x="30" y="11" width="1" height="1" fill="white"/>
<rect id="Rectangle 271_13" opacity="0.4" x="2" y="13" width="1" height="1" fill="white"/>
<rect id="Rectangle 272_13" x="4" y="13" width="1" height="1" fill="white"/>
<rect id="Rectangle 273_13" opacity="0.2" x="6" y="13" width="1" height="1" fill="white"/>
<rect id="Rectangle 274_13" opacity="0.4" x="8" y="13" width="1" height="1" fill="white"/>
<rect id="Rectangle 275_13" opacity="0.4" x="10" y="13" width="1" height="1" fill="white"/>
<rect id="Rectangle 276_7" opacity="0.7" x="12" y="13" width="1" height="1" fill="white"/>
<rect id="Rectangle 277_7" opacity="0.7" x="14" y="13" width="1" height="1" fill="white"/>
<rect id="Rectangle 268_7" opacity="0.4" x="16" y="13" width="1" height="1" fill="white"/>
<rect id="Rectangle 269_7" opacity="0.7" x="18" y="13" width="1" height="1" fill="white"/>
<rect id="Rectangle 270_7" opacity="0.2" x="20" y="13" width="1" height="1" fill="white"/>
<rect id="Rectangle 271_14" opacity="0.4" x="22" y="13" width="1" height="1" fill="white"/>
<rect id="Rectangle 272_14" x="24" y="13" width="1" height="1" fill="white"/>
<rect id="Rectangle 273_14" opacity="0.2" x="26" y="13" width="1" height="1" fill="white"/>
<rect id="Rectangle 274_14" opacity="0.4" x="28" y="13" width="1" height="1" fill="white"/>
<rect id="Rectangle 275_14" opacity="0.4" x="30" y="13" width="1" height="1" fill="white"/>
<rect id="Rectangle 271_15" opacity="0.4" x="2" y="15" width="1" height="1" fill="white"/>
<rect id="Rectangle 272_15" opacity="0.4" x="4" y="15" width="1" height="1" fill="white"/>
<rect id="Rectangle 273_15" opacity="0.4" x="6" y="15" width="1" height="1" fill="white"/>
<rect id="Rectangle 274_15" opacity="0.4" x="8" y="15" width="1" height="1" fill="white"/>
<rect id="Rectangle 275_15" opacity="0.4" x="10" y="15" width="1" height="1" fill="white"/>
<rect id="Rectangle 276_8" opacity="0.7" x="12" y="15" width="1" height="1" fill="white"/>
<rect id="Rectangle 277_8" opacity="0.2" x="14" y="15" width="1" height="1" fill="white"/>
<rect id="Rectangle 268_8" opacity="0.4" x="16" y="15" width="1" height="1" fill="white"/>
<rect id="Rectangle 269_8" opacity="0.4" x="18" y="15" width="1" height="1" fill="white"/>
<rect id="Rectangle 270_8" opacity="0.2" x="20" y="15" width="1" height="1" fill="white"/>
<rect id="Rectangle 271_16" opacity="0.4" x="22" y="15" width="1" height="1" fill="white"/>
<rect id="Rectangle 272_16" opacity="0.4" x="24" y="15" width="1" height="1" fill="white"/>
<rect id="Rectangle 273_16" opacity="0.4" x="26" y="15" width="1" height="1" fill="white"/>
<rect id="Rectangle 274_16" opacity="0.4" x="28" y="15" width="1" height="1" fill="white"/>
<rect id="Rectangle 275_16" opacity="0.4" x="30" y="15" width="1" height="1" fill="white"/>
<rect id="Rectangle 271_17" opacity="0.4" x="2" y="17" width="1" height="1" fill="white"/>
<rect id="Rectangle 272_17" opacity="0.2" x="4" y="17" width="1" height="1" fill="white"/>
<rect id="Rectangle 273_17" x="6" y="17" width="1" height="1" fill="white"/>
<rect id="Rectangle 274_17" opacity="0.4" x="8" y="17" width="1" height="1" fill="white"/>
<rect id="Rectangle 275_17" x="10" y="17" width="1" height="1" fill="white"/>
<rect id="Rectangle 276_9" opacity="0.4" x="12" y="17" width="1" height="1" fill="white"/>
<rect id="Rectangle 277_9" opacity="0.4" x="14" y="17" width="1" height="1" fill="white"/>
<rect id="Rectangle 268_9" opacity="0.4" x="16" y="17" width="1" height="1" fill="white"/>
<rect id="Rectangle 269_9" x="18" y="17" width="1" height="1" fill="white"/>
<rect id="Rectangle 270_9" opacity="0.4" x="20" y="17" width="1" height="1" fill="white"/>
<rect id="Rectangle 271_18" opacity="0.4" x="22" y="17" width="1" height="1" fill="white"/>
<rect id="Rectangle 272_18" opacity="0.2" x="24" y="17" width="1" height="1" fill="white"/>
<rect id="Rectangle 273_18" x="26" y="17" width="1" height="1" fill="white"/>
<rect id="Rectangle 274_18" opacity="0.4" x="28" y="17" width="1" height="1" fill="white"/>
<rect id="Rectangle 275_18" x="30" y="17" width="1" height="1" fill="white"/>
<rect id="Rectangle 271_19" opacity="0.2" x="2" y="19" width="1" height="1" fill="white"/>
<rect id="Rectangle 272_19" opacity="0.4" x="4" y="19" width="1" height="1" fill="white"/>
<rect id="Rectangle 273_19" opacity="0.4" x="6" y="19" width="1" height="1" fill="white"/>
<rect id="Rectangle 274_19" opacity="0.4" x="8" y="19" width="1" height="1" fill="white"/>
<rect id="Rectangle 275_19" opacity="0.4" x="10" y="19" width="1" height="1" fill="white"/>
<rect id="Rectangle 276_10" opacity="0.4" x="12" y="19" width="1" height="1" fill="white"/>
<rect id="Rectangle 277_10" opacity="0.7" x="14" y="19" width="1" height="1" fill="white"/>
<rect id="Rectangle 268_10" opacity="0.4" x="16" y="19" width="1" height="1" fill="white"/>
<rect id="Rectangle 269_10" opacity="0.4" x="18" y="19" width="1" height="1" fill="white"/>
<rect id="Rectangle 270_10" opacity="0.2" x="20" y="19" width="1" height="1" fill="white"/>
<rect id="Rectangle 271_20" opacity="0.2" x="22" y="19" width="1" height="1" fill="white"/>
<rect id="Rectangle 272_20" opacity="0.4" x="24" y="19" width="1" height="1" fill="white"/>
<rect id="Rectangle 273_20" opacity="0.4" x="26" y="19" width="1" height="1" fill="white"/>
<rect id="Rectangle 274_20" opacity="0.4" x="28" y="19" width="1" height="1" fill="white"/>
<rect id="Rectangle 275_20" opacity="0.4" x="30" y="19" width="1" height="1" fill="white"/>
<rect id="Rectangle 271_21" opacity="0.4" x="2" y="21" width="1" height="1" fill="white"/>
<rect id="Rectangle 272_21" x="4" y="21" width="1" height="1" fill="white"/>
<rect id="Rectangle 273_21" opacity="0.4" x="6" y="21" width="1" height="1" fill="white"/>
<rect id="Rectangle 274_21" opacity="0.4" x="8" y="21" width="1" height="1" fill="white"/>
<rect id="Rectangle 275_21" opacity="0.4" x="10" y="21" width="1" height="1" fill="white"/>
<rect id="Rectangle 276_11" opacity="0.2" x="12" y="21" width="1" height="1" fill="white"/>
<rect id="Rectangle 277_11" x="14" y="21" width="1" height="1" fill="white"/>
<rect id="Rectangle 268_11" x="16" y="21" width="1" height="1" fill="white"/>
<rect id="Rectangle 269_11" opacity="0.7" x="18" y="21" width="1" height="1" fill="white"/>
<rect id="Rectangle 270_11" opacity="0.4" x="20" y="21" width="1" height="1" fill="white"/>
<rect id="Rectangle 271_22" opacity="0.4" x="22" y="21" width="1" height="1" fill="white"/>
<rect id="Rectangle 272_22" x="24" y="21" width="1" height="1" fill="white"/>
<rect id="Rectangle 273_22" opacity="0.4" x="26" y="21" width="1" height="1" fill="white"/>
<rect id="Rectangle 274_22" opacity="0.4" x="28" y="21" width="1" height="1" fill="white"/>
<rect id="Rectangle 275_22" opacity="0.4" x="30" y="21" width="1" height="1" fill="white"/>
<rect id="Rectangle 271_23" opacity="0.2" x="2" y="23" width="1" height="1" fill="white"/>
<rect id="Rectangle 272_23" opacity="0.7" x="4" y="23" width="1" height="1" fill="white"/>
<rect id="Rectangle 273_23" opacity="0.2" x="6" y="23" width="1" height="1" fill="white"/>
<rect id="Rectangle 274_23" x="8" y="23" width="1" height="1" fill="white"/>
<rect id="Rectangle 275_23" opacity="0.4" x="10" y="23" width="1" height="1" fill="white"/>
<rect id="Rectangle 276_12" opacity="0.4" x="12" y="23" width="1" height="1" fill="white"/>
<rect id="Rectangle 277_12" opacity="0.4" x="14" y="23" width="1" height="1" fill="white"/>
<rect id="Rectangle 268_12" opacity="0.2" x="16" y="23" width="1" height="1" fill="white"/>
<rect id="Rectangle 269_12" opacity="0.4" x="18" y="23" width="1" height="1" fill="white"/>
<rect id="Rectangle 270_12" opacity="0.4" x="20" y="23" width="1" height="1" fill="white"/>
<rect id="Rectangle 271_24" opacity="0.2" x="22" y="23" width="1" height="1" fill="white"/>
<rect id="Rectangle 272_24" opacity="0.7" x="24" y="23" width="1" height="1" fill="white"/>
<rect id="Rectangle 273_24" opacity="0.2" x="26" y="23" width="1" height="1" fill="white"/>
<rect id="Rectangle 274_24" x="28" y="23" width="1" height="1" fill="white"/>
<rect id="Rectangle 275_24" opacity="0.4" x="30" y="23" width="1" height="1" fill="white"/>
<rect id="Rectangle 271_25" x="2" y="25" width="1" height="1" fill="white"/>
<rect id="Rectangle 272_25" opacity="0.4" x="4" y="25" width="1" height="1" fill="white"/>
<rect id="Rectangle 273_25" opacity="0.4" x="6" y="25" width="1" height="1" fill="white"/>
<rect id="Rectangle 274_25" opacity="0.4" x="8" y="25" width="1" height="1" fill="white"/>
<rect id="Rectangle 275_25" opacity="0.4" x="10" y="25" width="1" height="1" fill="white"/>
<rect id="Rectangle 276_13" opacity="0.2" x="12" y="25" width="1" height="1" fill="white"/>
<rect id="Rectangle 277_13" opacity="0.4" x="14" y="25" width="1" height="1" fill="white"/>
<rect id="Rectangle 268_13" opacity="0.4" x="16" y="25" width="1" height="1" fill="white"/>
<rect id="Rectangle 269_13" x="18" y="25" width="1" height="1" fill="white"/>
<rect id="Rectangle 270_13" opacity="0.4" x="20" y="25" width="1" height="1" fill="white"/>
<rect id="Rectangle 271_26" x="22" y="25" width="1" height="1" fill="white"/>
<rect id="Rectangle 272_26" opacity="0.4" x="24" y="25" width="1" height="1" fill="white"/>
<rect id="Rectangle 273_26" opacity="0.4" x="26" y="25" width="1" height="1" fill="white"/>
<rect id="Rectangle 274_26" opacity="0.4" x="28" y="25" width="1" height="1" fill="white"/>
<rect id="Rectangle 275_26" opacity="0.4" x="30" y="25" width="1" height="1" fill="white"/>
<rect id="Rectangle 271_27" opacity="0.4" x="2" y="27" width="1" height="1" fill="white"/>
<rect id="Rectangle 272_27" x="4" y="27" width="1" height="1" fill="white"/>
<rect id="Rectangle 273_27" opacity="0.2" x="6" y="27" width="1" height="1" fill="white"/>
<rect id="Rectangle 274_27" x="8" y="27" width="1" height="1" fill="white"/>
<rect id="Rectangle 275_27" x="10" y="27" width="1" height="1" fill="white"/>
<rect id="Rectangle 276_14" opacity="0.4" x="12" y="27" width="1" height="1" fill="white"/>
<rect id="Rectangle 277_14" opacity="0.4" x="14" y="27" width="1" height="1" fill="white"/>
<rect id="Rectangle 268_14" opacity="0.4" x="16" y="27" width="1" height="1" fill="white"/>
<rect id="Rectangle 269_14" opacity="0.2" x="18" y="27" width="1" height="1" fill="white"/>
<rect id="Rectangle 270_14" opacity="0.2" x="20" y="27" width="1" height="1" fill="white"/>
<rect id="Rectangle 271_28" opacity="0.4" x="22" y="27" width="1" height="1" fill="white"/>
<rect id="Rectangle 272_28" x="24" y="27" width="1" height="1" fill="white"/>
<rect id="Rectangle 273_28" opacity="0.2" x="26" y="27" width="1" height="1" fill="white"/>
<rect id="Rectangle 274_28" x="28" y="27" width="1" height="1" fill="white"/>
<rect id="Rectangle 275_28" x="30" y="27" width="1" height="1" fill="white"/>
<rect id="Rectangle 271_29" opacity="0.4" x="2" y="29" width="1" height="1" fill="white"/>
<rect id="Rectangle 272_29" opacity="0.4" x="4" y="29" width="1" height="1" fill="white"/>
<rect id="Rectangle 273_29" opacity="0.4" x="6" y="29" width="1" height="1" fill="white"/>
<rect id="Rectangle 274_29" opacity="0.2" x="8" y="29" width="1" height="1" fill="white"/>
<rect id="Rectangle 275_29" opacity="0.2" x="10" y="29" width="1" height="1" fill="white"/>
<rect id="Rectangle 276_15" opacity="0.4" x="12" y="29" width="1" height="1" fill="white"/>
<rect id="Rectangle 277_15" opacity="0.2" x="14" y="29" width="1" height="1" fill="white"/>
<rect id="Rectangle 268_15" opacity="0.4" x="16" y="29" width="1" height="1" fill="white"/>
<rect id="Rectangle 269_15" opacity="0.4" x="18" y="29" width="1" height="1" fill="white"/>
<rect id="Rectangle 270_15" opacity="0.2" x="20" y="29" width="1" height="1" fill="white"/>
<rect id="Rectangle 271_30" opacity="0.4" x="22" y="29" width="1" height="1" fill="white"/>
<rect id="Rectangle 272_30" opacity="0.4" x="24" y="29" width="1" height="1" fill="white"/>
<rect id="Rectangle 273_30" opacity="0.4" x="26" y="29" width="1" height="1" fill="white"/>
<rect id="Rectangle 274_30" opacity="0.2" x="28" y="29" width="1" height="1" fill="white"/>
<rect id="Rectangle 275_30" opacity="0.2" x="30" y="29" width="1" height="1" fill="white"/>
</g>
</g>
</g>
</g>
</g>
</g>
<g id="Vector">
<path d="M14.9734 7.36744C15.3493 6.63643 16.5072 6.60084 16.961 7.25779L17.0266 7.36744L18.1856 9.62297C19.1976 11.5918 20.8806 13.2465 23.0095 14.3659L23.3677 14.5476L25.4254 15.548C25.589 15.6272 25.727 15.7405 25.827 15.8776C25.9269 16.0148 25.9856 16.1714 25.9977 16.3332C26.0097 16.495 25.9748 16.6568 25.896 16.8039C25.8172 16.951 25.6971 17.0787 25.5466 17.1754L25.4265 17.2427L23.3677 18.2431C21.1958 19.2995 19.4488 20.9043 18.3602 22.8426L18.1856 23.1677L17.0266 25.4233C16.6507 26.1543 15.4928 26.1899 15.039 25.5329L14.9734 25.4233L13.8144 23.1677C12.8024 21.1989 11.1194 19.5442 8.99048 18.4249L8.63232 18.2431L6.57463 17.2427C6.41104 17.1635 6.27298 17.0502 6.17302 16.9131C6.07306 16.7759 6.01438 16.6193 6.00232 16.4575C5.99027 16.2957 6.02523 16.1339 6.10402 15.9868C6.1828 15.8397 6.30291 15.712 6.45339 15.6153L6.57351 15.548L8.63232 14.5476C10.8042 13.4912 12.5512 11.8865 13.6398 9.94808L13.8144 9.62297L14.9734 7.36744Z" fill="url(#paint2_linear_15003_22374)"/>
<path d="M25.2223 8.3268C24.2119 7.82429 23.4133 7.05015 22.9451 6.11915L22.9443 6.11818L22.9436 6.11722C22.9256 6.08239 22.8966 6.05281 22.8599 6.03202C22.8231 6.01112 22.7802 6 22.7363 6C22.6924 6 22.6494 6.01112 22.6126 6.03202C22.5758 6.05291 22.5466 6.0827 22.5287 6.11777C22.0606 7.04975 21.2615 7.82473 20.2502 8.32763C20.2161 8.34466 20.1877 8.3693 20.168 8.39903C20.1483 8.42876 20.1379 8.46254 20.1379 8.49692C20.1379 8.5313 20.1483 8.56508 20.168 8.59481C20.1877 8.62454 20.2161 8.64917 20.2502 8.66621C21.2612 9.16868 22.0602 9.94305 22.5287 10.8744C22.5466 10.9095 22.5758 10.9393 22.6126 10.9602C22.6494 10.9811 22.6924 10.9922 22.7363 10.9922C22.7802 10.9922 22.8231 10.9811 22.8599 10.9602C22.8968 10.9393 22.9259 10.9095 22.9438 10.8744C23.4121 9.94275 24.2112 9.16807 25.2223 8.66538C25.3733 8.59106 25.3733 8.40113 25.2223 8.3268Z" fill="url(#paint3_linear_15003_22374)"/>
<path d="M11.0965 10.7711C10.3896 10.4195 9.8309 9.87794 9.5033 9.2266L9.50225 9.22525C9.4897 9.20088 9.46939 9.18019 9.44376 9.16564C9.41799 9.15102 9.38794 9.14324 9.35723 9.14324C9.32652 9.14324 9.29647 9.15102 9.27071 9.16564C9.24494 9.18026 9.22455 9.2011 9.21202 9.22563C8.88451 9.87766 8.32549 10.4198 7.61795 10.7717C7.59408 10.7836 7.57423 10.8008 7.56043 10.8216C7.54663 10.8424 7.53936 10.8661 7.53936 10.8901C7.53936 10.9142 7.54663 10.9378 7.56043 10.9586C7.57423 10.9794 7.59408 10.9966 7.61795 11.0086C8.32528 11.3601 8.88428 11.9019 9.21202 12.5534C9.22455 12.578 9.24494 12.5988 9.27071 12.6134C9.29647 12.6281 9.32652 12.6358 9.35723 12.6358C9.38794 12.6358 9.41799 12.6281 9.44376 12.6134C9.46953 12.5988 9.48991 12.578 9.50245 12.5534C9.83007 11.9016 10.3891 11.3597 11.0965 11.008C11.2021 10.956 11.2021 10.8231 11.0965 10.7711Z" fill="url(#paint4_linear_15003_22374)"/>
<path d="M24.3168 21.7144C23.6735 21.5142 23.127 21.1348 22.7582 20.6327L22.7571 20.6317C22.7431 20.613 22.7231 20.5984 22.6995 20.5896C22.6758 20.5808 22.6495 20.5783 22.6237 20.5824C22.598 20.5865 22.5739 20.597 22.5545 20.6127C22.535 20.6284 22.5209 20.6486 22.514 20.6708C22.3338 21.2609 21.9438 21.7899 21.4018 22.1791C21.3835 22.1923 21.3694 22.2094 21.3608 22.2287C21.3522 22.2479 21.3496 22.2687 21.353 22.2889C21.3565 22.309 21.366 22.3279 21.3806 22.3434C21.3952 22.359 21.4143 22.3708 21.436 22.3776C22.0796 22.5778 22.6265 22.9572 22.9954 23.4595C23.0094 23.4784 23.0295 23.4932 23.0532 23.502C23.0769 23.5108 23.1032 23.5133 23.129 23.5092C23.1547 23.5051 23.1788 23.4946 23.1982 23.4789C23.2177 23.4632 23.2318 23.443 23.2387 23.4208C23.419 22.8308 23.8091 22.3021 24.351 21.9129C24.432 21.8553 24.4128 21.7439 24.3168 21.7144Z" fill="url(#paint5_linear_15003_22374)"/>
<path d="M11.0061 22.3589C9.93627 22.0258 9.02738 21.395 8.41413 20.56L8.41323 20.5591L8.41234 20.5583C8.38898 20.5271 8.35571 20.5028 8.31648 20.4882C8.27705 20.4736 8.2333 20.4694 8.1905 20.4762C8.14771 20.483 8.1077 20.5005 8.07531 20.5266C8.04291 20.5527 8.01952 20.5863 8.00795 20.6232C7.70839 21.6046 7.05974 22.4843 6.15833 23.1317C6.12792 23.1536 6.10441 23.182 6.09018 23.214C6.07594 23.2461 6.0715 23.2806 6.07728 23.3142C6.08307 23.3477 6.09889 23.379 6.12313 23.4049C6.14737 23.4309 6.17918 23.4505 6.21531 23.4618C7.28564 23.7947 8.19502 24.4257 8.80853 25.261C8.83191 25.2925 8.86533 25.317 8.90476 25.3316C8.94418 25.3463 8.98794 25.3505 9.03073 25.3436C9.07353 25.3368 9.11354 25.3193 9.14593 25.2932C9.17833 25.2671 9.20172 25.2336 9.21329 25.1966C9.51307 24.2155 10.1617 23.3361 11.063 22.689C11.1977 22.5931 11.1658 22.4079 11.0061 22.3589Z" fill="url(#paint6_linear_15003_22374)"/>
</g>
</g>
<rect x="0.5" y="0.5" width="31" height="31" rx="7.5" stroke="url(#paint7_linear_15003_22374)"/>
</g>
</g>
<defs>
<linearGradient id="paint0_linear_15003_22374" x1="16" y1="0" x2="16" y2="32" gradientUnits="userSpaceOnUse">
<stop stop-color="#C7FF47"/>
<stop offset="1" stop-color="#87C200"/>
</linearGradient>
<linearGradient id="paint1_linear_15003_22374" x1="16" y1="0" x2="16" y2="32" gradientUnits="userSpaceOnUse">
<stop stop-color="#D9D9D9" stop-opacity="0.3"/>
<stop offset="1" stop-color="#D9D9D9" stop-opacity="0.15"/>
</linearGradient>
<linearGradient id="paint2_linear_15003_22374" x1="16" y1="6" x2="16" y2="26" gradientUnits="userSpaceOnUse">
<stop stop-color="#354809"/>
<stop offset="1" stop-color="#151D01"/>
</linearGradient>
<linearGradient id="paint3_linear_15003_22374" x1="16" y1="6" x2="16" y2="26" gradientUnits="userSpaceOnUse">
<stop stop-color="#354809"/>
<stop offset="1" stop-color="#151D01"/>
</linearGradient>
<linearGradient id="paint4_linear_15003_22374" x1="16" y1="6" x2="16" y2="26" gradientUnits="userSpaceOnUse">
<stop stop-color="#354809"/>
<stop offset="1" stop-color="#151D01"/>
</linearGradient>
<linearGradient id="paint5_linear_15003_22374" x1="16" y1="6" x2="16" y2="26" gradientUnits="userSpaceOnUse">
<stop stop-color="#354809"/>
<stop offset="1" stop-color="#151D01"/>
</linearGradient>
<linearGradient id="paint6_linear_15003_22374" x1="16" y1="6" x2="16" y2="26" gradientUnits="userSpaceOnUse">
<stop stop-color="#354809"/>
<stop offset="1" stop-color="#151D01"/>
</linearGradient>
<linearGradient id="paint7_linear_15003_22374" x1="16" y1="0" x2="16" y2="32" gradientUnits="userSpaceOnUse">
<stop stop-color="white" stop-opacity="0.5"/>
<stop offset="1" stop-color="white" stop-opacity="0.2"/>
</linearGradient>
<clipPath id="clip0_15003_22374">
<rect width="32" height="32" rx="8" fill="white"/>
</clipPath>
<clipPath id="clip1_15003_22374">
<rect x="1" y="1" width="30" height="30" rx="7" fill="white"/>
</clipPath>
</defs>
</svg>
