<svg width="32" height="32" viewBox="0 0 32 32" fill="none" xmlns="http://www.w3.org/2000/svg">
<g id="Logo">
<g id="Type=Icon">
<g id="LogoIconE">
<g clip-path="url(#clip0_15003_22374)">
<rect width="32" height="32" rx="8" fill="url(#paint0_linear_15003_22374)"/>
<g id="Mask group">
<mask id="mask0_15003_22374" style="mask-type:alpha" maskUnits="userSpaceOnUse" x="0" y="0" width="32" height="32">
<rect id="Rectangle 279" width="32" height="32" fill="url(#paint1_linear_15003_22374)"/>
</mask>
<g mask="url(#mask0_15003_22374)">
<g id="Group 2148">
<g id="Frame 1171275576">
<g clip-path="url(#clip1_15003_22374)">
<g id="Frame 1171275575">
<rect id="Rectangle 271" opacity="0.4" x="2" y="1" width="1" height="1" fill="white"/>
<rect id="Rectangle 272" x="4" y="1" width="1" height="1" fill="white"/>
<rect id="Rectangle 273" opacity="0.4" x="6" y="1" width="1" height="1" fill="white"/>
<rect id="Rectangle 274" opacity="0.4" x="8" y="1" width="1" height="1" fill="white"/>
<rect id="Rectangle 275" opacity="0.4" x="10" y="1" width="1" height="1" fill="white"/>
<rect id="Rectangle 276" opacity="0.2" x="12" y="1" width="1" height="1" fill="white"/>
<rect id="Rectangle 277" x="14" y="1" width="1" height="1" fill="white"/>
<rect id="Rectangle 268" x="16" y="1" width="1" height="1" fill="white"/>
<rect id="Rectangle 269" opacity="0.7" x="18" y="1" width="1" height="1" fill="white"/>
<rect id="Rectangle 270" opacity="0.4" x="20" y="1" width="1" height="1" fill="white"/>
<rect id="Rectangle 271_2" opacity="0.4" x="22" y="1" width="1" height="1" fill="white"/>
<rect id="Rectangle 272_2" x="24" y="1" width="1" height="1" fill="white"/>
<rect id="Rectangle 273_2" opacity="0.4" x="26" y="1" width="1" height="1" fill="white"/>
<rect id="Rectangle 274_2" opacity="0.4" x="28" y="1" width="1" height="1" fill="white"/>
<rect id="Rectangle 275_2" opacity="0.4" x="30" y="1" width="1" height="1" fill="white"/>
<rect id="Rectangle 271_3" opacity="0.2" x="2" y="3" width="1" height="1" fill="white"/>
<rect id="Rectangle 272_3" opacity="0.7" x="4" y="3" width="1" height="1" fill="white"/>
<rect id="Rectangle 273_3" opacity="0.2" x="6" y="3" width="1" height="1" fill="white"/>
<rect id="Rectangle 274_3" x="8" y="3" width="1" height="1" fill="white"/>
<rect id="Rectangle 275_3" opacity="0.4" x="10" y="3" width="1" height="1" fill="white"/>
<rect id="Rectangle 276_2" opacity="0.4" x="12" y="3" width="1" height="1" fill="white"/>
<rect id="Rectangle 277_2" opacity="0.4" x="14" y="3" width="1" height="1" fill="white"/>
<rect id="Rectangle 268_2" opacity="0.2" x="16" y="3" width="1" height="1" fill="white"/>
<rect id="Rectangle 269_2" opacity="0.4" x="18" y="3" width="1" height="1" fill="white"/>
<rect id="Rectangle 270_2" opacity="0.4" x="20" y="3" width="1" height="1" fill="white"/>
<rect id="Rectangle 271_4" opacity="0.2" x="22" y="3" width="1" height="1" fill="white"/>
<rect id="Rectangle 272_4" opacity="0.7" x="24" y="3" width="1" height="1" fill="white"/>
<rect id="Rectangle 273_4" opacity="0.2" x="26" y="3" width="1" height="1" fill="white"/>
<rect id="Rectangle 274_4" x="28" y="3" width="1" height="1" fill="white"/>
<rect id="Rectangle 275_4" opacity="0.4" x="30" y="3" width="1" height="1" fill="white"/>
<rect id="Rectangle 271_5" x="2" y="5" width="1" height="1" fill="white"/>
<rect id="Rectangle 272_5" opacity="0.4" x="4" y="5" width="1" height="1" fill="white"/>
<rect id="Rectangle 273_5" opacity="0.4" x="6" y="5" width="1" height="1" fill="white"/>
<rect id="Rectangle 274_5" opacity="0.4" x="8" y="5" width="1" height="1" fill="white"/>
<rect id="Rectangle 275_5" opacity="0.4" x="10" y="5" width="1" height="1" fill="white"/>
<rect id="Rectangle 276_3" opacity="0.2" x="12" y="5" width="1" height="1" fill="white"/>
<rect id="Rectangle 277_3" opacity="0.4" x="14" y="5" width="1" height="1" fill="white"/>
<rect id="Rectangle 268_3" opacity="0.4" x="16" y="5" width="1" height="1" fill="white"/>
<rect id="Rectangle 269_3" x="18" y="5" width="1" height="1" fill="white"/>
<rect id="Rectangle 270_3" opacity="0.4" x="20" y="5" width="1" height="1" fill="white"/>
<rect id="Rectangle 271_6" x="22" y="5" width="1" height="1" fill="white"/>
<rect id="Rectangle 272_6" opacity="0.4" x="24" y="5" width="1" height="1" fill="white"/>
<rect id="Rectangle 273_6" opacity="0.4" x="26" y="5" width="1" height="1" fill="white"/>
<rect id="Rectangle 274_6" opacity="0.4" x="28" y="5" width="1" height="1" fill="white"/>
<rect id="Rectangle 275_6" opacity="0.4" x="30" y="5" width="1" height="1" fill="white"/>
<rect id="Rectangle 271_7" opacity="0.4" x="2" y="7" width="1" height="1" fill="white"/>
<rect id="Rectangle 272_7" x="4" y="7" width="1" height="1" fill="white"/>
<rect id="Rectangle 273_7" opacity="0.2" x="6" y="7" width="1" height="1" fill="white"/>
<rect id="Rectangle 274_7" x="8" y="7" width="1" height="1" fill="white"/>
<rect id="Rectangle 275_7" x="10" y="7" width="1" height="1" fill="white"/>
<rect id="Rectangle 276_4" opacity="0.4" x="12" y="7" width="1" height="1" fill="white"/>
<rect id="Rectangle 277_4" opacity="0.4" x="14" y="7" width="1" height="1" fill="white"/>
<rect id="Rectangle 268_4" opacity="0.4" x="16" y="7" width="1" height="1" fill="white"/>
<rect id="Rectangle 269_4" opacity="0.2" x="18" y="7" width="1" height="1" fill="white"/>
<rect id="Rectangle 270_4" opacity="0.2" x="20" y="7" width="1" height="1" fill="white"/>
<rect id="Rectangle 271_8" opacity="0.4" x="22" y="7" width="1" height="1" fill="white"/>
<rect id="Rectangle 272_8" x="24" y="7" width="1" height="1" fill="white"/>
<rect id="Rectangle 273_8" opacity="0.2" x="26" y="7" width="1" height="1" fill="white"/>
<rect id="Rectangle 274_8" x="28" y="7" width="1" height="1" fill="white"/>
<rect id="Rectangle 275_8" x="30" y="7" width="1" height="1" fill="white"/>
<rect id="Rectangle 271_9" opacity="0.4" x="2" y="9" width="1" height="1" fill="white"/>
<rect id="Rectangle 272_9" opacity="0.4" x="4" y="9" width="1" height="1" fill="white"/>
<rect id="Rectangle 273_9" opacity="0.4" x="6" y="9" width="1" height="1" fill="white"/>
<rect id="Rectangle 274_9" opacity="0.2" x="8" y="9" width="1" height="1" fill="white"/>
<rect id="Rectangle 275_9" opacity="0.2" x="10" y="9" width="1" height="1" fill="white"/>
<rect id="Rectangle 276_5" opacity="0.4" x="12" y="9" width="1" height="1" fill="white"/>
<rect id="Rectangle 277_5" opacity="0.2" x="14" y="9" width="1" height="1" fill="white"/>
<rect id="Rectangle 268_5" opacity="0.4" x="16" y="9" width="1" height="1" fill="white"/>
<rect id="Rectangle 269_5" opacity="0.4" x="18" y="9" width="1" height="1" fill="white"/>
<rect id="Rectangle 270_5" opacity="0.2" x="20" y="9" width="1" height="1" fill="white"/>
<rect id="Rectangle 271_10" opacity="0.4" x="22" y="9" width="1" height="1" fill="white"/>
<rect id="Rectangle 272_10" opacity="0.4" x="24" y="9" width="1" height="1" fill="white"/>
<rect id="Rectangle 273_10" opacity="0.4" x="26" y="9" width="1" height="1" fill="white"/>
<rect id="Rectangle 274_10" opacity="0.2" x="28" y="9" width="1" height="1" fill="white"/>
<rect id="Rectangle 275_10" opacity="0.2" x="30" y="9" width="1" height="1" fill="white"/>
<rect id="Rectangle 271_11" opacity="0.4" x="2" y="11" width="1" height="1" fill="white"/>
<rect id="Rectangle 272_11" opacity="0.4" x="4" y="11" width="1" height="1" fill="white"/>
<rect id="Rectangle 273_11" opacity="0.4" x="6" y="11" width="1" height="1" fill="white"/>
<rect id="Rectangle 274_11" opacity="0.4" x="8" y="11" width="1" height="1" fill="white"/>
<rect id="Rectangle 275_11" opacity="0.4" x="10" y="11" width="1" height="1" fill="white"/>
<rect id="Rectangle 276_6" opacity="0.4" x="12" y="11" width="1" height="1" fill="white"/>
<rect id="Rectangle 277_6" opacity="0.4" x="14" y="11" width="1" height="1" fill="white"/>
<rect id="Rectangle 268_6" opacity="0.2" x="16" y="11" width="1" height="1" fill="white"/>
<rect id="Rectangle 269_6" opacity="0.4" x="18" y="11" width="1" height="1" fill="white"/>
<rect id="Rectangle 270_6" opacity="0.4" x="20" y="11" width="1" height="1" fill="white"/>
<rect id="Rectangle 271_12" opacity="0.4" x="22" y="11" width="1" height="1" fill="white"/>
<rect id="Rectangle 272_12" opacity="0.4" x="24" y="11" width="1" height="1" fill="white"/>
<rect id="Rectangle 273_12" opacity="0.4" x="26" y="11" width="1" height="1" fill="white"/>
<rect id="Rectangle 274_12" opacity="0.4" x="28" y="11" width="1" height="1" fill="white"/>
<rect id="Rectangle 275_12" opacity="0.4" x="30" y="11" width="1" height="1" fill="white"/>
<rect id="Rectangle 271_13" opacity="0.4" x="2" y="13" width="1" height="1" fill="white"/>
<rect id="Rectangle 272_13" x="4" y="13" width="1" height="1" fill="white"/>
<rect id="Rectangle 273_13" opacity="0.2" x="6" y="13" width="1" height="1" fill="white"/>
<rect id="Rectangle 274_13" opacity="0.4" x="8" y="13" width="1" height="1" fill="white"/>
<rect id="Rectangle 275_13" opacity="0.4" x="10" y="13" width="1" height="1" fill="white"/>
<rect id="Rectangle 276_7" opacity="0.7" x="12" y="13" width="1" height="1" fill="white"/>
<rect id="Rectangle 277_7" opacity="0.7" x="14" y="13" width="1" height="1" fill="white"/>
<rect id="Rectangle 268_7" opacity="0.4" x="16" y="13" width="1" height="1" fill="white"/>
<rect id="Rectangle 269_7" opacity="0.7" x="18" y="13" width="1" height="1" fill="white"/>
<rect id="Rectangle 270_7" opacity="0.2" x="20" y="13" width="1" height="1" fill="white"/>
<rect id="Rectangle 271_14" opacity="0.4" x="22" y="13" width="1" height="1" fill="white"/>
<rect id="Rectangle 272_14" x="24" y="13" width="1" height="1" fill="white"/>
<rect id="Rectangle 273_14" opacity="0.2" x="26" y="13" width="1" height="1" fill="white"/>
<rect id="Rectangle 274_14" opacity="0.4" x="28" y="13" width="1" height="1" fill="white"/>
<rect id="Rectangle 275_14" opacity="0.4" x="30" y="13" width="1" height="1" fill="white"/>
<rect id="Rectangle 271_15" opacity="0.4" x="2" y="15" width="1" height="1" fill="white"/>
<rect id="Rectangle 272_15" opacity="0.4" x="4" y="15" width="1" height="1" fill="white"/>
<rect id="Rectangle 273_15" opacity="0.4" x="6" y="15" width="1" height="1" fill="white"/>
<rect id="Rectangle 274_15" opacity="0.4" x="8" y="15" width="1" height="1" fill="white"/>
<rect id="Rectangle 275_15" opacity="0.4" x="10" y="15" width="1" height="1" fill="white"/>
<rect id="Rectangle 276_8" opacity="0.7" x="12" y="15" width="1" height="1" fill="white"/>
<rect id="Rectangle 277_8" opacity="0.2" x="14" y="15" width="1" height="1" fill="white"/>
<rect id="Rectangle 268_8" opacity="0.4" x="16" y="15" width="1" height="1" fill="white"/>
<rect id="Rectangle 269_8" opacity="0.4" x="18" y="15" width="1" height="1" fill="white"/>
<rect id="Rectangle 270_8" opacity="0.2" x="20" y="15" width="1" height="1" fill="white"/>
<rect id="Rectangle 271_16" opacity="0.4" x="22" y="15" width="1" height="1" fill="white"/>
<rect id="Rectangle 272_16" opacity="0.4" x="24" y="15" width="1" height="1" fill="white"/>
<rect id="Rectangle 273_16" opacity="0.4" x="26" y="15" width="1" height="1" fill="white"/>
<rect id="Rectangle 274_16" opacity="0.4" x="28" y="15" width="1" height="1" fill="white"/>
<rect id="Rectangle 275_16" opacity="0.4" x="30" y="15" width="1" height="1" fill="white"/>
<rect id="Rectangle 271_17" opacity="0.4" x="2" y="17" width="1" height="1" fill="white"/>
<rect id="Rectangle 272_17" opacity="0.2" x="4" y="17" width="1" height="1" fill="white"/>
<rect id="Rectangle 273_17" x="6" y="17" width="1" height="1" fill="white"/>
<rect id="Rectangle 274_17" opacity="0.4" x="8" y="17" width="1" height="1" fill="white"/>
<rect id="Rectangle 275_17" x="10" y="17" width="1" height="1" fill="white"/>
<rect id="Rectangle 276_9" opacity="0.4" x="12" y="17" width="1" height="1" fill="white"/>
<rect id="Rectangle 277_9" opacity="0.4" x="14" y="17" width="1" height="1" fill="white"/>
<rect id="Rectangle 268_9" opacity="0.4" x="16" y="17" width="1" height="1" fill="white"/>
<rect id="Rectangle 269_9" x="18" y="17" width="1" height="1" fill="white"/>
<rect id="Rectangle 270_9" opacity="0.4" x="20" y="17" width="1" height="1" fill="white"/>
<rect id="Rectangle 271_18" opacity="0.4" x="22" y="17" width="1" height="1" fill="white"/>
<rect id="Rectangle 272_18" opacity="0.2" x="24" y="17" width="1" height="1" fill="white"/>
<rect id="Rectangle 273_18" x="26" y="17" width="1" height="1" fill="white"/>
<rect id="Rectangle 274_18" opacity="0.4" x="28" y="17" width="1" height="1" fill="white"/>
<rect id="Rectangle 275_18" x="30" y="17" width="1" height="1" fill="white"/>
<rect id="Rectangle 271_19" opacity="0.2" x="2" y="19" width="1" height="1" fill="white"/>
<rect id="Rectangle 272_19" opacity="0.4" x="4" y="19" width="1" height="1" fill="white"/>
<rect id="Rectangle 273_19" opacity="0.4" x="6" y="19" width="1" height="1" fill="white"/>
<rect id="Rectangle 274_19" opacity="0.4" x="8" y="19" width="1" height="1" fill="white"/>
<rect id="Rectangle 275_19" opacity="0.4" x="10" y="19" width="1" height="1" fill="white"/>
<rect id="Rectangle 276_10" opacity="0.4" x="12" y="19" width="1" height="1" fill="white"/>
<rect id="Rectangle 277_10" opacity="0.7" x="14" y="19" width="1" height="1" fill="white"/>
<rect id="Rectangle 268_10" opacity="0.4" x="16" y="19" width="1" height="1" fill="white"/>
<rect id="Rectangle 269_10" opacity="0.4" x="18" y="19" width="1" height="1" fill="white"/>
<rect id="Rectangle 270_10" opacity="0.2" x="20" y="19" width="1" height="1" fill="white"/>
<rect id="Rectangle 271_20" opacity="0.2" x="22" y="19" width="1" height="1" fill="white"/>
<rect id="Rectangle 272_20" opacity="0.4" x="24" y="19" width="1" height="1" fill="white"/>
<rect id="Rectangle 273_20" opacity="0.4" x="26" y="19" width="1" height="1" fill="white"/>
<rect id="Rectangle 274_20" opacity="0.4" x="28" y="19" width="1" height="1" fill="white"/>
<rect id="Rectangle 275_20" opacity="0.4" x="30" y="19" width="1" height="1" fill="white"/>
<rect id="Rectangle 271_21" opacity="0.4" x="2" y="21" width="1" height="1" fill="white"/>
<rect id="Rectangle 272_21" x="4" y="21" width="1" height="1" fill="white"/>
<rect id="Rectangle 273_21" opacity="0.4" x="6" y="21" width="1" height="1" fill="white"/>
<rect id="Rectangle 274_21" opacity="0.4" x="8" y="21" width="1" height="1" fill="white"/>
<rect id="Rectangle 275_21" opacity="0.4" x="10" y="21" width="1" height="1" fill="white"/>
<rect id="Rectangle 276_11" opacity="0.2" x="12" y="21" width="1" height="1" fill="white"/>
<rect id="Rectangle 277_11" x="14" y="21" width="1" height="1" fill="white"/>
<rect id="Rectangle 268_11" x="16" y="21" width="1" height="1" fill="white"/>
<rect id="Rectangle 269_11" opacity="0.7" x="18" y="21" width="1" height="1" fill="white"/>
<rect id="Rectangle 270_11" opacity="0.4" x="20" y="21" width="1" height="1" fill="white"/>
<rect id="Rectangle 271_22" opacity="0.4" x="22" y="21" width="1" height="1" fill="white"/>
<rect id="Rectangle 272_22" x="24" y="21" width="1" height="1" fill="white"/>
<rect id="Rectangle 273_22" opacity="0.4" x="26" y="21" width="1" height="1" fill="white"/>
<rect id="Rectangle 274_22" opacity="0.4" x="28" y="21" width="1" height="1" fill="white"/>
<rect id="Rectangle 275_22" opacity="0.4" x="30" y="21" width="1" height="1" fill="white"/>
<rect id="Rectangle 271_23" opacity="0.2" x="2" y="23" width="1" height="1" fill="white"/>
<rect id="Rectangle 272_23" opacity="0.7" x="4" y="23" width="1" height="1" fill="white"/>
<rect id="Rectangle 273_23" opacity="0.2" x="6" y="23" width="1" height="1" fill="white"/>
<rect id="Rectangle 274_23" x="8" y="23" width="1" height="1" fill="white"/>
<rect id="Rectangle 275_23" opacity="0.4" x="10" y="23" width="1" height="1" fill="white"/>
<rect id="Rectangle 276_12" opacity="0.4" x="12" y="23" width="1" height="1" fill="white"/>
<rect id="Rectangle 277_12" opacity="0.4" x="14" y="23" width="1" height="1" fill="white"/>
<rect id="Rectangle 268_12" opacity="0.2" x="16" y="23" width="1" height="1" fill="white"/>
<rect id="Rectangle 269_12" opacity="0.4" x="18" y="23" width="1" height="1" fill="white"/>
<rect id="Rectangle 270_12" opacity="0.4" x="20" y="23" width="1" height="1" fill="white"/>
<rect id="Rectangle 271_24" opacity="0.2" x="22" y="23" width="1" height="1" fill="white"/>
<rect id="Rectangle 272_24" opacity="0.7" x="24" y="23" width="1" height="1" fill="white"/>
<rect id="Rectangle 273_24" opacity="0.2" x="26" y="23" width="1" height="1" fill="white"/>
<rect id="Rectangle 274_24" x="28" y="23" width="1" height="1" fill="white"/>
<rect id="Rectangle 275_24" opacity="0.4" x="30" y="23" width="1" height="1" fill="white"/>
<rect id="Rectangle 271_25" x="2" y="25" width="1" height="1" fill="white"/>
<rect id="Rectangle 272_25" opacity="0.4" x="4" y="25" width="1" height="1" fill="white"/>
<rect id="Rectangle 273_25" opacity="0.4" x="6" y="25" width="1" height="1" fill="white"/>
<rect id="Rectangle 274_25" opacity="0.4" x="8" y="25" width="1" height="1" fill="white"/>
<rect id="Rectangle 275_25" opacity="0.4" x="10" y="25" width="1" height="1" fill="white"/>
<rect id="Rectangle 276_13" opacity="0.2" x="12" y="25" width="1" height="1" fill="white"/>
<rect id="Rectangle 277_13" opacity="0.4" x="14" y="25" width="1" height="1" fill="white"/>
<rect id="Rectangle 268_13" opacity="0.4" x="16" y="25" width="1" height="1" fill="white"/>
<rect id="Rectangle 269_13" x="18" y="25" width="1" height="1" fill="white"/>
<rect id="Rectangle 270_13" opacity="0.4" x="20" y="25" width="1" height="1" fill="white"/>
<rect id="Rectangle 271_26" x="22" y="25" width="1" height="1" fill="white"/>
<rect id="Rectangle 272_26" opacity="0.4" x="24" y="25" width="1" height="1" fill="white"/>
<rect id="Rectangle 273_26" opacity="0.4" x="26" y="25" width="1" height="1" fill="white"/>
<rect id="Rectangle 274_26" opacity="0.4" x="28" y="25" width="1" height="1" fill="white"/>
<rect id="Rectangle 275_26" opacity="0.4" x="30" y="25" width="1" height="1" fill="white"/>
<rect id="Rectangle 271_27" opacity="0.4" x="2" y="27" width="1" height="1" fill="white"/>
<rect id="Rectangle 272_27" x="4" y="27" width="1" height="1" fill="white"/>
<rect id="Rectangle 273_27" opacity="0.2" x="6" y="27" width="1" height="1" fill="white"/>
<rect id="Rectangle 274_27" x="8" y="27" width="1" height="1" fill="white"/>
<rect id="Rectangle 275_27" x="10" y="27" width="1" height="1" fill="white"/>
<rect id="Rectangle 276_14" opacity="0.4" x="12" y="27" width="1" height="1" fill="white"/>
<rect id="Rectangle 277_14" opacity="0.4" x="14" y="27" width="1" height="1" fill="white"/>
<rect id="Rectangle 268_14" opacity="0.4" x="16" y="27" width="1" height="1" fill="white"/>
<rect id="Rectangle 269_14" opacity="0.2" x="18" y="27" width="1" height="1" fill="white"/>
<rect id="Rectangle 270_14" opacity="0.2" x="20" y="27" width="1" height="1" fill="white"/>
<rect id="Rectangle 271_28" opacity="0.4" x="22" y="27" width="1" height="1" fill="white"/>
<rect id="Rectangle 272_28" x="24" y="27" width="1" height="1" fill="white"/>
<rect id="Rectangle 273_28" opacity="0.2" x="26" y="27" width="1" height="1" fill="white"/>
<rect id="Rectangle 274_28" x="28" y="27" width="1" height="1" fill="white"/>
<rect id="Rectangle 275_28" x="30" y="27" width="1" height="1" fill="white"/>
<rect id="Rectangle 271_29" opacity="0.4" x="2" y="29" width="1" height="1" fill="white"/>
<rect id="Rectangle 272_29" opacity="0.4" x="4" y="29" width="1" height="1" fill="white"/>
<rect id="Rectangle 273_29" opacity="0.4" x="6" y="29" width="1" height="1" fill="white"/>
<rect id="Rectangle 274_29" opacity="0.2" x="8" y="29" width="1" height="1" fill="white"/>
<rect id="Rectangle 275_29" opacity="0.2" x="10" y="29" width="1" height="1" fill="white"/>
<rect id="Rectangle 276_15" opacity="0.4" x="12" y="29" width="1" height="1" fill="white"/>
<rect id="Rectangle 277_15" opacity="0.2" x="14" y="29" width="1" height="1" fill="white"/>
<rect id="Rectangle 268_15" opacity="0.4" x="16" y="29" width="1" height="1" fill="white"/>
<rect id="Rectangle 269_15" opacity="0.4" x="18" y="29" width="1" height="1" fill="white"/>
<rect id="Rectangle 270_15" opacity="0.2" x="20" y="29" width="1" height="1" fill="white"/>
<rect id="Rectangle 271_30" opacity="0.4" x="22" y="29" width="1" height="1" fill="white"/>
<rect id="Rectangle 272_30" opacity="0.4" x="24" y="29" width="1" height="1" fill="white"/>
<rect id="Rectangle 273_30" opacity="0.4" x="26" y="29" width="1" height="1" fill="white"/>
<rect id="Rectangle 274_30" opacity="0.2" x="28" y="29" width="1" height="1" fill="white"/>
<rect id="Rectangle 275_30" opacity="0.2" x="30" y="29" width="1" height="1" fill="white"/>
</g>
</g>
</g>
</g>
</g>
</g>
<g id="Vector">
<path fill-rule="evenodd" clip-rule="evenodd" d="M19.0737 6.625C19.1375 6.62884 19.5812 6.89186 19.6708 6.94119L21.3975 7.90158L26.9912 11.0246C26.3488 11.4262 25.574 11.8504 24.9113 12.232L15.7091 17.5488C14.748 18.1049 13.7655 18.6919 12.7974 19.231L12.6707 19.3091C12.4368 19.1546 12.1382 18.9896 11.8934 18.8443L10.1581 17.8237L4.95303 14.7449L17.3023 7.65053C17.8664 7.32546 18.5249 6.96504 19.0737 6.625ZM13.3194 14.6848C12.8696 14.3217 12.1721 14.1609 11.6044 14.1786C11.0038 14.2057 10.3082 14.3527 9.88033 14.8011C9.52674 15.1716 9.62304 15.6276 9.99915 15.928C10.4576 16.2941 11.1475 16.4466 11.7222 16.4301C12.3369 16.4 12.9918 16.2729 13.4361 15.8185C13.7874 15.4593 13.6817 14.9774 13.3194 14.6848ZM17.5209 12.3296C17.0137 11.9163 16.2613 11.7866 15.6212 11.8303C15.6169 11.831 15.6125 11.8316 15.6082 11.8323C15.0523 11.8772 14.42 12.0423 14.0357 12.4669C13.6926 12.8461 13.8329 13.2969 14.2044 13.5796C14.7285 13.9785 15.4443 14.0922 16.0855 14.0525C16.6854 14.0309 17.8451 13.6926 17.8485 12.9131C17.8495 12.6973 17.6817 12.4645 17.5209 12.3296ZM21.7187 9.97069C21.2674 9.58914 20.4489 9.39419 19.8638 9.4592C19.5157 9.48602 19.3159 9.52005 18.9756 9.63058C18.2851 9.85485 17.6189 10.5421 18.3662 11.1754C18.8423 11.5789 19.592 11.7113 20.2143 11.6855C20.7871 11.6494 21.42 11.4949 21.8289 11.0661C22.1639 10.7147 22.0651 10.2636 21.7187 9.97069Z" fill="url(#paint2_linear_15003_22374)"/>
<path d="M27.3059 11.5085C27.3167 11.5664 27.311 11.9112 27.3108 11.9857L27.3091 13.0098L27.3083 17.098C27.1452 17.2065 26.9186 17.3289 26.7445 17.4289L12.9727 25.375L12.97 22.0513C12.9754 21.3006 12.9723 20.5499 12.9608 19.7993C13.4034 19.5686 13.9685 19.2192 14.4105 18.9637L17.5765 17.1287L27.3059 11.5085Z" fill="url(#paint3_linear_15003_22374)"/>
<path d="M4.68758 15.2612C4.94251 15.3885 5.35477 15.653 5.61492 15.8069L12.3836 19.8028L12.3832 25.3712C12.138 25.2391 11.8396 25.0514 11.5954 24.9061L7.01909 22.1934C6.24484 21.7278 5.46762 21.267 4.6875 20.811L4.68758 15.2612Z" fill="url(#paint4_linear_15003_22374)"/>
</g>
</g>
<rect x="0.5" y="0.5" width="31" height="31" rx="7.5" stroke="url(#paint5_linear_15003_22374)"/>
</g>
</g>
</g>
<defs>
<linearGradient id="paint0_linear_15003_22374" x1="16" y1="0" x2="16" y2="32" gradientUnits="userSpaceOnUse">
<stop stop-color="#C7FF47"/>
<stop offset="1" stop-color="#87C200"/>
</linearGradient>
<linearGradient id="paint1_linear_15003_22374" x1="16" y1="0" x2="16" y2="32" gradientUnits="userSpaceOnUse">
<stop stop-color="#D9D9D9" stop-opacity="0.3"/>
<stop offset="1" stop-color="#D9D9D9" stop-opacity="0.15"/>
</linearGradient>
<linearGradient id="paint2_linear_15003_22374" x1="16" y1="6.625" x2="16" y2="25.375" gradientUnits="userSpaceOnUse">
<stop stop-color="#354809"/>
<stop offset="1" stop-color="#151D01"/>
</linearGradient>
<linearGradient id="paint3_linear_15003_22374" x1="16" y1="6.625" x2="16" y2="25.375" gradientUnits="userSpaceOnUse">
<stop stop-color="#354809"/>
<stop offset="1" stop-color="#151D01"/>
</linearGradient>
<linearGradient id="paint4_linear_15003_22374" x1="16" y1="6.625" x2="16" y2="25.375" gradientUnits="userSpaceOnUse">
<stop stop-color="#354809"/>
<stop offset="1" stop-color="#151D01"/>
</linearGradient>
<linearGradient id="paint5_linear_15003_22374" x1="16" y1="0" x2="16" y2="32" gradientUnits="userSpaceOnUse">
<stop stop-color="white" stop-opacity="0.5"/>
<stop offset="1" stop-color="white" stop-opacity="0.2"/>
</linearGradient>
<clipPath id="clip0_15003_22374">
<rect width="32" height="32" rx="8" fill="white"/>
</clipPath>
<clipPath id="clip1_15003_22374">
<rect x="1" y="1" width="30" height="30" rx="7" fill="white"/>
</clipPath>
</defs>
</svg>
