<svg width="32" height="32" viewBox="0 0 32 32" fill="none" xmlns="http://www.w3.org/2000/svg">
<g id="BrickWorldIcon">
<g id="Project=Market">
<g clip-path="url(#clip0_15003_22374)">
<rect width="32" height="32" rx="8" fill="url(#paint0_linear_15003_22374)"/>
<g id="Dot">
<mask id="mask0_15003_22374" style="mask-type:alpha" maskUnits="userSpaceOnUse" x="0" y="0" width="32" height="32">
<rect id="Place" width="32" height="32" fill="url(#paint1_linear_15003_22374)"/>
</mask>
<g mask="url(#mask0_15003_22374)">
<g id="Upm">
<g id="FrameContainer">
<g clip-path="url(#clip1_15003_22374)">
<g id="Pattern">
<rect id="Rectangle 269" opacity="0.4" x="1.65039" y="1.6499" width="1" height="1" fill="white"/>
<rect id="Rectangle 270" opacity="0.2" x="3.30078" y="1.6499" width="1" height="1" fill="white"/>
<rect id="Rectangle 271" opacity="0.2" x="4.94922" y="1.6499" width="1" height="1" fill="white"/>
<rect id="Rectangle 272" opacity="0.4" x="6.59961" y="1.6499" width="1" height="1" fill="white"/>
<rect id="Rectangle 273" opacity="0.4" x="8.25" y="1.6499" width="1" height="1" fill="white"/>
<rect id="Rectangle 274" opacity="0.4" x="9.90039" y="1.6499" width="1" height="1" fill="white"/>
<rect id="Rectangle 275" opacity="0.4" x="11.5508" y="1.6499" width="1" height="1" fill="white"/>
<rect id="Rectangle 276" opacity="0.4" x="13.1992" y="1.6499" width="1" height="1" fill="white"/>
<rect id="Rectangle 277" opacity="0.7" x="14.8496" y="1.6499" width="1" height="1" fill="white"/>
<rect id="Rectangle 268" opacity="0.4" x="16.5" y="1.6499" width="1" height="1" fill="white"/>
<rect id="Rectangle 269_2" opacity="0.4" x="18.1504" y="1.6499" width="1" height="1" fill="white"/>
<rect id="Rectangle 270_2" opacity="0.2" x="19.8008" y="1.6499" width="1" height="1" fill="white"/>
<rect id="Rectangle 271_2" opacity="0.2" x="21.4492" y="1.6499" width="1" height="1" fill="white"/>
<rect id="Rectangle 272_2" opacity="0.4" x="23.0996" y="1.6499" width="1" height="1" fill="white"/>
<rect id="Rectangle 273_2" opacity="0.4" x="24.75" y="1.6499" width="1" height="1" fill="white"/>
<rect id="Rectangle 274_2" opacity="0.4" x="26.4004" y="1.6499" width="1" height="1" fill="white"/>
<rect id="Rectangle 275_2" opacity="0.4" x="28.0508" y="1.6499" width="1" height="1" fill="white"/>
<rect id="Rectangle 276_2" opacity="0.4" x="29.6992" y="1.6499" width="1" height="1" fill="white"/>
<rect id="Rectangle 269_3" opacity="0.7" x="1.65039" y="3.2998" width="1" height="1" fill="white"/>
<rect id="Rectangle 270_3" opacity="0.4" x="3.30078" y="3.2998" width="1" height="1" fill="white"/>
<rect id="Rectangle 271_3" opacity="0.4" x="4.94922" y="3.2998" width="1" height="1" fill="white"/>
<rect id="Rectangle 272_3" x="6.59961" y="3.2998" width="1" height="1" fill="white"/>
<rect id="Rectangle 273_3" opacity="0.4" x="8.25" y="3.2998" width="1" height="1" fill="white"/>
<rect id="Rectangle 274_3" opacity="0.4" x="9.90039" y="3.2998" width="1" height="1" fill="white"/>
<rect id="Rectangle 275_3" opacity="0.4" x="11.5508" y="3.2998" width="1" height="1" fill="white"/>
<rect id="Rectangle 276_3" opacity="0.2" x="13.1992" y="3.2998" width="1" height="1" fill="white"/>
<rect id="Rectangle 277_2" x="14.8496" y="3.2998" width="1" height="1" fill="white"/>
<rect id="Rectangle 268_2" x="16.5" y="3.2998" width="1" height="1" fill="white"/>
<rect id="Rectangle 269_4" opacity="0.7" x="18.1504" y="3.2998" width="1" height="1" fill="white"/>
<rect id="Rectangle 270_4" opacity="0.4" x="19.8008" y="3.2998" width="1" height="1" fill="white"/>
<rect id="Rectangle 271_4" opacity="0.4" x="21.4492" y="3.2998" width="1" height="1" fill="white"/>
<rect id="Rectangle 272_4" x="23.0996" y="3.2998" width="1" height="1" fill="white"/>
<rect id="Rectangle 273_4" opacity="0.4" x="24.75" y="3.2998" width="1" height="1" fill="white"/>
<rect id="Rectangle 274_4" opacity="0.4" x="26.4004" y="3.2998" width="1" height="1" fill="white"/>
<rect id="Rectangle 275_4" opacity="0.4" x="28.0508" y="3.2998" width="1" height="1" fill="white"/>
<rect id="Rectangle 276_4" opacity="0.2" x="29.6992" y="3.2998" width="1" height="1" fill="white"/>
<rect id="Rectangle 269_5" opacity="0.4" x="1.65039" y="4.9502" width="1" height="1" fill="white"/>
<rect id="Rectangle 270_5" opacity="0.4" x="3.30078" y="4.9502" width="1" height="1" fill="white"/>
<rect id="Rectangle 271_5" opacity="0.2" x="4.94922" y="4.9502" width="1" height="1" fill="white"/>
<rect id="Rectangle 272_5" opacity="0.7" x="6.59961" y="4.9502" width="1" height="1" fill="white"/>
<rect id="Rectangle 273_5" opacity="0.2" x="8.25" y="4.9502" width="1" height="1" fill="white"/>
<rect id="Rectangle 274_5" x="9.90039" y="4.9502" width="1" height="1" fill="white"/>
<rect id="Rectangle 275_5" opacity="0.4" x="11.5508" y="4.9502" width="1" height="1" fill="white"/>
<rect id="Rectangle 276_5" opacity="0.4" x="13.1992" y="4.9502" width="1" height="1" fill="white"/>
<rect id="Rectangle 277_3" opacity="0.4" x="14.8496" y="4.9502" width="1" height="1" fill="white"/>
<rect id="Rectangle 268_3" opacity="0.2" x="16.5" y="4.9502" width="1" height="1" fill="white"/>
<rect id="Rectangle 269_6" opacity="0.4" x="18.1504" y="4.9502" width="1" height="1" fill="white"/>
<rect id="Rectangle 270_6" opacity="0.4" x="19.8008" y="4.9502" width="1" height="1" fill="white"/>
<rect id="Rectangle 271_6" opacity="0.2" x="21.4492" y="4.9502" width="1" height="1" fill="white"/>
<rect id="Rectangle 272_6" opacity="0.7" x="23.0996" y="4.9502" width="1" height="1" fill="white"/>
<rect id="Rectangle 273_6" opacity="0.2" x="24.75" y="4.9502" width="1" height="1" fill="white"/>
<rect id="Rectangle 274_6" x="26.4004" y="4.9502" width="1" height="1" fill="white"/>
<rect id="Rectangle 275_6" opacity="0.4" x="28.0508" y="4.9502" width="1" height="1" fill="white"/>
<rect id="Rectangle 276_6" opacity="0.4" x="29.6992" y="4.9502" width="1" height="1" fill="white"/>
<rect id="Rectangle 269_7" x="1.65039" y="6.6001" width="1" height="1" fill="white"/>
<rect id="Rectangle 270_7" opacity="0.4" x="3.30078" y="6.6001" width="1" height="1" fill="white"/>
<rect id="Rectangle 271_7" x="4.94922" y="6.6001" width="1" height="1" fill="white"/>
<rect id="Rectangle 272_7" opacity="0.4" x="6.59961" y="6.6001" width="1" height="1" fill="white"/>
<rect id="Rectangle 273_7" opacity="0.4" x="8.25" y="6.6001" width="1" height="1" fill="white"/>
<rect id="Rectangle 274_7" opacity="0.4" x="9.90039" y="6.6001" width="1" height="1" fill="white"/>
<rect id="Rectangle 275_7" opacity="0.4" x="11.5508" y="6.6001" width="1" height="1" fill="white"/>
<rect id="Rectangle 276_7" opacity="0.2" x="13.1992" y="6.6001" width="1" height="1" fill="white"/>
<rect id="Rectangle 277_4" opacity="0.4" x="14.8496" y="6.6001" width="1" height="1" fill="white"/>
<rect id="Rectangle 268_4" opacity="0.4" x="16.5" y="6.6001" width="1" height="1" fill="white"/>
<rect id="Rectangle 269_8" x="18.1504" y="6.6001" width="1" height="1" fill="white"/>
<rect id="Rectangle 270_8" opacity="0.4" x="19.8008" y="6.6001" width="1" height="1" fill="white"/>
<rect id="Rectangle 271_8" x="21.4492" y="6.6001" width="1" height="1" fill="white"/>
<rect id="Rectangle 272_8" opacity="0.4" x="23.0996" y="6.6001" width="1" height="1" fill="white"/>
<rect id="Rectangle 273_8" opacity="0.4" x="24.75" y="6.6001" width="1" height="1" fill="white"/>
<rect id="Rectangle 274_8" opacity="0.4" x="26.4004" y="6.6001" width="1" height="1" fill="white"/>
<rect id="Rectangle 275_8" opacity="0.4" x="28.0508" y="6.6001" width="1" height="1" fill="white"/>
<rect id="Rectangle 276_8" opacity="0.2" x="29.6992" y="6.6001" width="1" height="1" fill="white"/>
<rect id="Rectangle 269_9" opacity="0.2" x="1.65039" y="8.25" width="1" height="1" fill="white"/>
<rect id="Rectangle 270_9" opacity="0.2" x="3.30078" y="8.25" width="1" height="1" fill="white"/>
<rect id="Rectangle 271_9" opacity="0.4" x="4.94922" y="8.25" width="1" height="1" fill="white"/>
<rect id="Rectangle 272_9" x="6.59961" y="8.25" width="1" height="1" fill="white"/>
<rect id="Rectangle 273_9" opacity="0.2" x="8.25" y="8.25" width="1" height="1" fill="white"/>
<rect id="Rectangle 274_9" x="9.90039" y="8.25" width="1" height="1" fill="white"/>
<rect id="Rectangle 275_9" x="11.5508" y="8.25" width="1" height="1" fill="white"/>
<rect id="Rectangle 276_9" opacity="0.4" x="13.1992" y="8.25" width="1" height="1" fill="white"/>
<rect id="Rectangle 277_5" opacity="0.4" x="14.8496" y="8.25" width="1" height="1" fill="white"/>
<rect id="Rectangle 268_5" opacity="0.4" x="16.5" y="8.25" width="1" height="1" fill="white"/>
<rect id="Rectangle 269_10" opacity="0.2" x="18.1504" y="8.25" width="1" height="1" fill="white"/>
<rect id="Rectangle 270_10" opacity="0.2" x="19.8008" y="8.25" width="1" height="1" fill="white"/>
<rect id="Rectangle 271_10" opacity="0.4" x="21.4492" y="8.25" width="1" height="1" fill="white"/>
<rect id="Rectangle 272_10" x="23.0996" y="8.25" width="1" height="1" fill="white"/>
<rect id="Rectangle 273_10" opacity="0.2" x="24.75" y="8.25" width="1" height="1" fill="white"/>
<rect id="Rectangle 274_10" x="26.4004" y="8.25" width="1" height="1" fill="white"/>
<rect id="Rectangle 275_10" x="28.0508" y="8.25" width="1" height="1" fill="white"/>
<rect id="Rectangle 276_10" opacity="0.4" x="29.6992" y="8.25" width="1" height="1" fill="white"/>
<rect id="Rectangle 269_11" opacity="0.4" x="1.65039" y="9.8999" width="1" height="1" fill="white"/>
<rect id="Rectangle 270_11" opacity="0.2" x="3.30078" y="9.8999" width="1" height="1" fill="white"/>
<rect id="Rectangle 271_11" opacity="0.4" x="4.94922" y="9.8999" width="1" height="1" fill="white"/>
<rect id="Rectangle 272_11" opacity="0.4" x="6.59961" y="9.8999" width="1" height="1" fill="white"/>
<rect id="Rectangle 273_11" opacity="0.4" x="8.25" y="9.8999" width="1" height="1" fill="white"/>
<rect id="Rectangle 274_11" opacity="0.2" x="9.90039" y="9.8999" width="1" height="1" fill="white"/>
<rect id="Rectangle 275_11" opacity="0.2" x="11.5508" y="9.8999" width="1" height="1" fill="white"/>
<rect id="Rectangle 276_11" opacity="0.4" x="13.1992" y="9.8999" width="1" height="1" fill="white"/>
<rect id="Rectangle 277_6" opacity="0.2" x="14.8496" y="9.8999" width="1" height="1" fill="white"/>
<rect id="Rectangle 268_6" opacity="0.4" x="16.5" y="9.8999" width="1" height="1" fill="white"/>
<rect id="Rectangle 269_12" opacity="0.4" x="18.1504" y="9.8999" width="1" height="1" fill="white"/>
<rect id="Rectangle 270_12" opacity="0.2" x="19.8008" y="9.8999" width="1" height="1" fill="white"/>
<rect id="Rectangle 271_12" opacity="0.4" x="21.4492" y="9.8999" width="1" height="1" fill="white"/>
<rect id="Rectangle 272_12" opacity="0.4" x="23.0996" y="9.8999" width="1" height="1" fill="white"/>
<rect id="Rectangle 273_12" opacity="0.4" x="24.75" y="9.8999" width="1" height="1" fill="white"/>
<rect id="Rectangle 274_12" opacity="0.2" x="26.4004" y="9.8999" width="1" height="1" fill="white"/>
<rect id="Rectangle 275_12" opacity="0.2" x="28.0508" y="9.8999" width="1" height="1" fill="white"/>
<rect id="Rectangle 276_12" opacity="0.4" x="29.6992" y="9.8999" width="1" height="1" fill="white"/>
<rect id="Rectangle 269_13" opacity="0.4" x="1.65039" y="11.5498" width="1" height="1" fill="white"/>
<rect id="Rectangle 270_13" opacity="0.4" x="3.30078" y="11.5498" width="1" height="1" fill="white"/>
<rect id="Rectangle 271_13" opacity="0.4" x="4.94922" y="11.5498" width="1" height="1" fill="white"/>
<rect id="Rectangle 272_13" opacity="0.4" x="6.59961" y="11.5498" width="1" height="1" fill="white"/>
<rect id="Rectangle 273_13" opacity="0.4" x="8.25" y="11.5498" width="1" height="1" fill="white"/>
<rect id="Rectangle 274_13" opacity="0.4" x="9.90039" y="11.5498" width="1" height="1" fill="white"/>
<rect id="Rectangle 275_13" opacity="0.4" x="11.5508" y="11.5498" width="1" height="1" fill="white"/>
<rect id="Rectangle 276_13" opacity="0.4" x="13.1992" y="11.5498" width="1" height="1" fill="white"/>
<rect id="Rectangle 277_7" opacity="0.4" x="14.8496" y="11.5498" width="1" height="1" fill="white"/>
<rect id="Rectangle 268_7" opacity="0.2" x="16.5" y="11.5498" width="1" height="1" fill="white"/>
<rect id="Rectangle 269_14" opacity="0.4" x="18.1504" y="11.5498" width="1" height="1" fill="white"/>
<rect id="Rectangle 270_14" opacity="0.4" x="19.8008" y="11.5498" width="1" height="1" fill="white"/>
<rect id="Rectangle 271_14" opacity="0.4" x="21.4492" y="11.5498" width="1" height="1" fill="white"/>
<rect id="Rectangle 272_14" opacity="0.4" x="23.0996" y="11.5498" width="1" height="1" fill="white"/>
<rect id="Rectangle 273_14" opacity="0.4" x="24.75" y="11.5498" width="1" height="1" fill="white"/>
<rect id="Rectangle 274_14" opacity="0.4" x="26.4004" y="11.5498" width="1" height="1" fill="white"/>
<rect id="Rectangle 275_14" opacity="0.4" x="28.0508" y="11.5498" width="1" height="1" fill="white"/>
<rect id="Rectangle 276_14" opacity="0.4" x="29.6992" y="11.5498" width="1" height="1" fill="white"/>
<rect id="Rectangle 269_15" opacity="0.7" x="1.65039" y="13.2002" width="1" height="1" fill="white"/>
<rect id="Rectangle 270_15" opacity="0.2" x="3.30078" y="13.2002" width="1" height="1" fill="white"/>
<rect id="Rectangle 271_15" opacity="0.4" x="4.94922" y="13.2002" width="1" height="1" fill="white"/>
<rect id="Rectangle 272_15" x="6.59961" y="13.2002" width="1" height="1" fill="white"/>
<rect id="Rectangle 273_15" opacity="0.2" x="8.25" y="13.2002" width="1" height="1" fill="white"/>
<rect id="Rectangle 274_15" opacity="0.4" x="9.90039" y="13.2002" width="1" height="1" fill="white"/>
<rect id="Rectangle 275_15" opacity="0.4" x="11.5508" y="13.2002" width="1" height="1" fill="white"/>
<rect id="Rectangle 276_15" opacity="0.7" x="13.1992" y="13.2002" width="1" height="1" fill="white"/>
<rect id="Rectangle 277_8" opacity="0.7" x="14.8496" y="13.2002" width="1" height="1" fill="white"/>
<rect id="Rectangle 268_8" opacity="0.4" x="16.5" y="13.2002" width="1" height="1" fill="white"/>
<rect id="Rectangle 269_16" opacity="0.7" x="18.1504" y="13.2002" width="1" height="1" fill="white"/>
<rect id="Rectangle 270_16" opacity="0.2" x="19.8008" y="13.2002" width="1" height="1" fill="white"/>
<rect id="Rectangle 271_16" opacity="0.4" x="21.4492" y="13.2002" width="1" height="1" fill="white"/>
<rect id="Rectangle 272_16" x="23.0996" y="13.2002" width="1" height="1" fill="white"/>
<rect id="Rectangle 273_16" opacity="0.2" x="24.75" y="13.2002" width="1" height="1" fill="white"/>
<rect id="Rectangle 274_16" opacity="0.4" x="26.4004" y="13.2002" width="1" height="1" fill="white"/>
<rect id="Rectangle 275_16" opacity="0.4" x="28.0508" y="13.2002" width="1" height="1" fill="white"/>
<rect id="Rectangle 276_16" opacity="0.7" x="29.6992" y="13.2002" width="1" height="1" fill="white"/>
<rect id="Rectangle 269_17" opacity="0.4" x="1.65039" y="14.8501" width="1" height="1" fill="white"/>
<rect id="Rectangle 270_17" opacity="0.2" x="3.30078" y="14.8501" width="1" height="1" fill="white"/>
<rect id="Rectangle 271_17" opacity="0.4" x="4.94922" y="14.8501" width="1" height="1" fill="white"/>
<rect id="Rectangle 272_17" opacity="0.4" x="6.59961" y="14.8501" width="1" height="1" fill="white"/>
<rect id="Rectangle 273_17" opacity="0.4" x="8.25" y="14.8501" width="1" height="1" fill="white"/>
<rect id="Rectangle 274_17" opacity="0.4" x="9.90039" y="14.8501" width="1" height="1" fill="white"/>
<rect id="Rectangle 275_17" opacity="0.4" x="11.5508" y="14.8501" width="1" height="1" fill="white"/>
<rect id="Rectangle 276_17" opacity="0.7" x="13.1992" y="14.8501" width="1" height="1" fill="white"/>
<rect id="Rectangle 277_9" opacity="0.2" x="14.8496" y="14.8501" width="1" height="1" fill="white"/>
<rect id="Rectangle 268_9" opacity="0.4" x="16.5" y="14.8501" width="1" height="1" fill="white"/>
<rect id="Rectangle 269_18" opacity="0.4" x="18.1504" y="14.8501" width="1" height="1" fill="white"/>
<rect id="Rectangle 270_18" opacity="0.2" x="19.8008" y="14.8501" width="1" height="1" fill="white"/>
<rect id="Rectangle 271_18" opacity="0.4" x="21.4492" y="14.8501" width="1" height="1" fill="white"/>
<rect id="Rectangle 272_18" opacity="0.4" x="23.0996" y="14.8501" width="1" height="1" fill="white"/>
<rect id="Rectangle 273_18" opacity="0.4" x="24.75" y="14.8501" width="1" height="1" fill="white"/>
<rect id="Rectangle 274_18" opacity="0.4" x="26.4004" y="14.8501" width="1" height="1" fill="white"/>
<rect id="Rectangle 275_18" opacity="0.4" x="28.0508" y="14.8501" width="1" height="1" fill="white"/>
<rect id="Rectangle 276_18" opacity="0.7" x="29.6992" y="14.8501" width="1" height="1" fill="white"/>
<rect id="Rectangle 269_19" x="1.65039" y="16.5" width="1" height="1" fill="white"/>
<rect id="Rectangle 270_19" opacity="0.4" x="3.30078" y="16.5" width="1" height="1" fill="white"/>
<rect id="Rectangle 271_19" opacity="0.4" x="4.94922" y="16.5" width="1" height="1" fill="white"/>
<rect id="Rectangle 272_19" opacity="0.2" x="6.59961" y="16.5" width="1" height="1" fill="white"/>
<rect id="Rectangle 273_19" x="8.25" y="16.5" width="1" height="1" fill="white"/>
<rect id="Rectangle 274_19" opacity="0.4" x="9.90039" y="16.5" width="1" height="1" fill="white"/>
<rect id="Rectangle 275_19" x="11.5508" y="16.5" width="1" height="1" fill="white"/>
<rect id="Rectangle 276_19" opacity="0.4" x="13.1992" y="16.5" width="1" height="1" fill="white"/>
<rect id="Rectangle 277_10" opacity="0.4" x="14.8496" y="16.5" width="1" height="1" fill="white"/>
<rect id="Rectangle 268_10" opacity="0.4" x="16.5" y="16.5" width="1" height="1" fill="white"/>
<rect id="Rectangle 269_20" x="18.1504" y="16.5" width="1" height="1" fill="white"/>
<rect id="Rectangle 270_20" opacity="0.4" x="19.8008" y="16.5" width="1" height="1" fill="white"/>
<rect id="Rectangle 271_20" opacity="0.4" x="21.4492" y="16.5" width="1" height="1" fill="white"/>
<rect id="Rectangle 272_20" opacity="0.2" x="23.0996" y="16.5" width="1" height="1" fill="white"/>
<rect id="Rectangle 273_20" x="24.75" y="16.5" width="1" height="1" fill="white"/>
<rect id="Rectangle 274_20" opacity="0.4" x="26.4004" y="16.5" width="1" height="1" fill="white"/>
<rect id="Rectangle 275_20" x="28.0508" y="16.5" width="1" height="1" fill="white"/>
<rect id="Rectangle 276_20" opacity="0.4" x="29.6992" y="16.5" width="1" height="1" fill="white"/>
<rect id="Rectangle 269_21" opacity="0.4" x="1.65039" y="18.1499" width="1" height="1" fill="white"/>
<rect id="Rectangle 270_21" opacity="0.2" x="3.30078" y="18.1499" width="1" height="1" fill="white"/>
<rect id="Rectangle 271_21" opacity="0.2" x="4.94922" y="18.1499" width="1" height="1" fill="white"/>
<rect id="Rectangle 272_21" opacity="0.4" x="6.59961" y="18.1499" width="1" height="1" fill="white"/>
<rect id="Rectangle 273_21" opacity="0.4" x="8.25" y="18.1499" width="1" height="1" fill="white"/>
<rect id="Rectangle 274_21" opacity="0.4" x="9.90039" y="18.1499" width="1" height="1" fill="white"/>
<rect id="Rectangle 275_21" opacity="0.4" x="11.5508" y="18.1499" width="1" height="1" fill="white"/>
<rect id="Rectangle 276_21" opacity="0.4" x="13.1992" y="18.1499" width="1" height="1" fill="white"/>
<rect id="Rectangle 277_11" opacity="0.7" x="14.8496" y="18.1499" width="1" height="1" fill="white"/>
<rect id="Rectangle 268_11" opacity="0.4" x="16.5" y="18.1499" width="1" height="1" fill="white"/>
<rect id="Rectangle 269_22" opacity="0.4" x="18.1504" y="18.1499" width="1" height="1" fill="white"/>
<rect id="Rectangle 270_22" opacity="0.2" x="19.8008" y="18.1499" width="1" height="1" fill="white"/>
<rect id="Rectangle 271_22" opacity="0.2" x="21.4492" y="18.1499" width="1" height="1" fill="white"/>
<rect id="Rectangle 272_22" opacity="0.4" x="23.0996" y="18.1499" width="1" height="1" fill="white"/>
<rect id="Rectangle 273_22" opacity="0.4" x="24.75" y="18.1499" width="1" height="1" fill="white"/>
<rect id="Rectangle 274_22" opacity="0.4" x="26.4004" y="18.1499" width="1" height="1" fill="white"/>
<rect id="Rectangle 275_22" opacity="0.4" x="28.0508" y="18.1499" width="1" height="1" fill="white"/>
<rect id="Rectangle 276_22" opacity="0.4" x="29.6992" y="18.1499" width="1" height="1" fill="white"/>
<rect id="Rectangle 269_23" opacity="0.7" x="1.65039" y="19.7998" width="1" height="1" fill="white"/>
<rect id="Rectangle 270_23" opacity="0.4" x="3.30078" y="19.7998" width="1" height="1" fill="white"/>
<rect id="Rectangle 271_23" opacity="0.4" x="4.94922" y="19.7998" width="1" height="1" fill="white"/>
<rect id="Rectangle 272_23" x="6.59961" y="19.7998" width="1" height="1" fill="white"/>
<rect id="Rectangle 273_23" opacity="0.4" x="8.25" y="19.7998" width="1" height="1" fill="white"/>
<rect id="Rectangle 274_23" opacity="0.4" x="9.90039" y="19.7998" width="1" height="1" fill="white"/>
<rect id="Rectangle 275_23" opacity="0.4" x="11.5508" y="19.7998" width="1" height="1" fill="white"/>
<rect id="Rectangle 276_23" opacity="0.2" x="13.1992" y="19.7998" width="1" height="1" fill="white"/>
<rect id="Rectangle 277_12" x="14.8496" y="19.7998" width="1" height="1" fill="white"/>
<rect id="Rectangle 268_12" x="16.5" y="19.7998" width="1" height="1" fill="white"/>
<rect id="Rectangle 269_24" opacity="0.7" x="18.1504" y="19.7998" width="1" height="1" fill="white"/>
<rect id="Rectangle 270_24" opacity="0.4" x="19.8008" y="19.7998" width="1" height="1" fill="white"/>
<rect id="Rectangle 271_24" opacity="0.4" x="21.4492" y="19.7998" width="1" height="1" fill="white"/>
<rect id="Rectangle 272_24" x="23.0996" y="19.7998" width="1" height="1" fill="white"/>
<rect id="Rectangle 273_24" opacity="0.4" x="24.75" y="19.7998" width="1" height="1" fill="white"/>
<rect id="Rectangle 274_24" opacity="0.4" x="26.4004" y="19.7998" width="1" height="1" fill="white"/>
<rect id="Rectangle 275_24" opacity="0.4" x="28.0508" y="19.7998" width="1" height="1" fill="white"/>
<rect id="Rectangle 276_24" opacity="0.2" x="29.6992" y="19.7998" width="1" height="1" fill="white"/>
<rect id="Rectangle 269_25" opacity="0.4" x="1.65039" y="21.4502" width="1" height="1" fill="white"/>
<rect id="Rectangle 270_25" opacity="0.4" x="3.30078" y="21.4502" width="1" height="1" fill="white"/>
<rect id="Rectangle 271_25" opacity="0.2" x="4.94922" y="21.4502" width="1" height="1" fill="white"/>
<rect id="Rectangle 272_25" opacity="0.7" x="6.59961" y="21.4502" width="1" height="1" fill="white"/>
<rect id="Rectangle 273_25" opacity="0.2" x="8.25" y="21.4502" width="1" height="1" fill="white"/>
<rect id="Rectangle 274_25" x="9.90039" y="21.4502" width="1" height="1" fill="white"/>
<rect id="Rectangle 275_25" opacity="0.4" x="11.5508" y="21.4502" width="1" height="1" fill="white"/>
<rect id="Rectangle 276_25" opacity="0.4" x="13.1992" y="21.4502" width="1" height="1" fill="white"/>
<rect id="Rectangle 277_13" opacity="0.4" x="14.8496" y="21.4502" width="1" height="1" fill="white"/>
<rect id="Rectangle 268_13" opacity="0.2" x="16.5" y="21.4502" width="1" height="1" fill="white"/>
<rect id="Rectangle 269_26" opacity="0.4" x="18.1504" y="21.4502" width="1" height="1" fill="white"/>
<rect id="Rectangle 270_26" opacity="0.4" x="19.8008" y="21.4502" width="1" height="1" fill="white"/>
<rect id="Rectangle 271_26" opacity="0.2" x="21.4492" y="21.4502" width="1" height="1" fill="white"/>
<rect id="Rectangle 272_26" opacity="0.7" x="23.0996" y="21.4502" width="1" height="1" fill="white"/>
<rect id="Rectangle 273_26" opacity="0.2" x="24.75" y="21.4502" width="1" height="1" fill="white"/>
<rect id="Rectangle 274_26" x="26.4004" y="21.4502" width="1" height="1" fill="white"/>
<rect id="Rectangle 275_26" opacity="0.4" x="28.0508" y="21.4502" width="1" height="1" fill="white"/>
<rect id="Rectangle 276_26" opacity="0.4" x="29.6992" y="21.4502" width="1" height="1" fill="white"/>
<rect id="Rectangle 269_27" x="1.65039" y="23.1001" width="1" height="1" fill="white"/>
<rect id="Rectangle 270_27" opacity="0.4" x="3.30078" y="23.1001" width="1" height="1" fill="white"/>
<rect id="Rectangle 271_27" x="4.94922" y="23.1001" width="1" height="1" fill="white"/>
<rect id="Rectangle 272_27" opacity="0.4" x="6.59961" y="23.1001" width="1" height="1" fill="white"/>
<rect id="Rectangle 273_27" opacity="0.4" x="8.25" y="23.1001" width="1" height="1" fill="white"/>
<rect id="Rectangle 274_27" opacity="0.4" x="9.90039" y="23.1001" width="1" height="1" fill="white"/>
<rect id="Rectangle 275_27" opacity="0.4" x="11.5508" y="23.1001" width="1" height="1" fill="white"/>
<rect id="Rectangle 276_27" opacity="0.2" x="13.1992" y="23.1001" width="1" height="1" fill="white"/>
<rect id="Rectangle 277_14" opacity="0.4" x="14.8496" y="23.1001" width="1" height="1" fill="white"/>
<rect id="Rectangle 268_14" opacity="0.4" x="16.5" y="23.1001" width="1" height="1" fill="white"/>
<rect id="Rectangle 269_28" x="18.1504" y="23.1001" width="1" height="1" fill="white"/>
<rect id="Rectangle 270_28" opacity="0.4" x="19.8008" y="23.1001" width="1" height="1" fill="white"/>
<rect id="Rectangle 271_28" x="21.4492" y="23.1001" width="1" height="1" fill="white"/>
<rect id="Rectangle 272_28" opacity="0.4" x="23.0996" y="23.1001" width="1" height="1" fill="white"/>
<rect id="Rectangle 273_28" opacity="0.4" x="24.75" y="23.1001" width="1" height="1" fill="white"/>
<rect id="Rectangle 274_28" opacity="0.4" x="26.4004" y="23.1001" width="1" height="1" fill="white"/>
<rect id="Rectangle 275_28" opacity="0.4" x="28.0508" y="23.1001" width="1" height="1" fill="white"/>
<rect id="Rectangle 276_28" opacity="0.2" x="29.6992" y="23.1001" width="1" height="1" fill="white"/>
<rect id="Rectangle 269_29" opacity="0.2" x="1.65039" y="24.75" width="1" height="1" fill="white"/>
<rect id="Rectangle 270_29" opacity="0.2" x="3.30078" y="24.75" width="1" height="1" fill="white"/>
<rect id="Rectangle 271_29" opacity="0.4" x="4.94922" y="24.75" width="1" height="1" fill="white"/>
<rect id="Rectangle 272_29" x="6.59961" y="24.75" width="1" height="1" fill="white"/>
<rect id="Rectangle 273_29" opacity="0.2" x="8.25" y="24.75" width="1" height="1" fill="white"/>
<rect id="Rectangle 274_29" x="9.90039" y="24.75" width="1" height="1" fill="white"/>
<rect id="Rectangle 275_29" x="11.5508" y="24.75" width="1" height="1" fill="white"/>
<rect id="Rectangle 276_29" opacity="0.4" x="13.1992" y="24.75" width="1" height="1" fill="white"/>
<rect id="Rectangle 277_15" opacity="0.4" x="14.8496" y="24.75" width="1" height="1" fill="white"/>
<rect id="Rectangle 268_15" opacity="0.4" x="16.5" y="24.75" width="1" height="1" fill="white"/>
<rect id="Rectangle 269_30" opacity="0.2" x="18.1504" y="24.75" width="1" height="1" fill="white"/>
<rect id="Rectangle 270_30" opacity="0.2" x="19.8008" y="24.75" width="1" height="1" fill="white"/>
<rect id="Rectangle 271_30" opacity="0.4" x="21.4492" y="24.75" width="1" height="1" fill="white"/>
<rect id="Rectangle 272_30" x="23.0996" y="24.75" width="1" height="1" fill="white"/>
<rect id="Rectangle 273_30" opacity="0.2" x="24.75" y="24.75" width="1" height="1" fill="white"/>
<rect id="Rectangle 274_30" x="26.4004" y="24.75" width="1" height="1" fill="white"/>
<rect id="Rectangle 275_30" x="28.0508" y="24.75" width="1" height="1" fill="white"/>
<rect id="Rectangle 276_30" opacity="0.4" x="29.6992" y="24.75" width="1" height="1" fill="white"/>
<rect id="Rectangle 269_31" opacity="0.4" x="1.65039" y="26.3999" width="1" height="1" fill="white"/>
<rect id="Rectangle 270_31" opacity="0.2" x="3.30078" y="26.3999" width="1" height="1" fill="white"/>
<rect id="Rectangle 271_31" opacity="0.4" x="4.94922" y="26.3999" width="1" height="1" fill="white"/>
<rect id="Rectangle 272_31" opacity="0.4" x="6.59961" y="26.3999" width="1" height="1" fill="white"/>
<rect id="Rectangle 273_31" opacity="0.4" x="8.25" y="26.3999" width="1" height="1" fill="white"/>
<rect id="Rectangle 274_31" opacity="0.2" x="9.90039" y="26.3999" width="1" height="1" fill="white"/>
<rect id="Rectangle 275_31" opacity="0.2" x="11.5508" y="26.3999" width="1" height="1" fill="white"/>
<rect id="Rectangle 276_31" opacity="0.4" x="13.1992" y="26.3999" width="1" height="1" fill="white"/>
<rect id="Rectangle 277_16" opacity="0.2" x="14.8496" y="26.3999" width="1" height="1" fill="white"/>
<rect id="Rectangle 268_16" opacity="0.4" x="16.5" y="26.3999" width="1" height="1" fill="white"/>
<rect id="Rectangle 269_32" opacity="0.4" x="18.1504" y="26.3999" width="1" height="1" fill="white"/>
<rect id="Rectangle 270_32" opacity="0.2" x="19.8008" y="26.3999" width="1" height="1" fill="white"/>
<rect id="Rectangle 271_32" opacity="0.4" x="21.4492" y="26.3999" width="1" height="1" fill="white"/>
<rect id="Rectangle 272_32" opacity="0.4" x="23.0996" y="26.3999" width="1" height="1" fill="white"/>
<rect id="Rectangle 273_32" opacity="0.4" x="24.75" y="26.3999" width="1" height="1" fill="white"/>
<rect id="Rectangle 274_32" opacity="0.2" x="26.4004" y="26.3999" width="1" height="1" fill="white"/>
<rect id="Rectangle 275_32" opacity="0.2" x="28.0508" y="26.3999" width="1" height="1" fill="white"/>
<rect id="Rectangle 276_32" opacity="0.4" x="29.6992" y="26.3999" width="1" height="1" fill="white"/>
<rect id="Rectangle 269_33" opacity="0.4" x="1.65039" y="28.0498" width="1" height="1" fill="white"/>
<rect id="Rectangle 270_33" opacity="0.4" x="3.30078" y="28.0498" width="1" height="1" fill="white"/>
<rect id="Rectangle 271_33" opacity="0.4" x="4.94922" y="28.0498" width="1" height="1" fill="white"/>
<rect id="Rectangle 272_33" opacity="0.4" x="6.59961" y="28.0498" width="1" height="1" fill="white"/>
<rect id="Rectangle 273_33" opacity="0.4" x="8.25" y="28.0498" width="1" height="1" fill="white"/>
<rect id="Rectangle 274_33" opacity="0.4" x="9.90039" y="28.0498" width="1" height="1" fill="white"/>
<rect id="Rectangle 275_33" opacity="0.4" x="11.5508" y="28.0498" width="1" height="1" fill="white"/>
<rect id="Rectangle 276_33" opacity="0.4" x="13.1992" y="28.0498" width="1" height="1" fill="white"/>
<rect id="Rectangle 277_17" opacity="0.4" x="14.8496" y="28.0498" width="1" height="1" fill="white"/>
<rect id="Rectangle 268_17" opacity="0.2" x="16.5" y="28.0498" width="1" height="1" fill="white"/>
<rect id="Rectangle 269_34" opacity="0.4" x="18.1504" y="28.0498" width="1" height="1" fill="white"/>
<rect id="Rectangle 270_34" opacity="0.4" x="19.8008" y="28.0498" width="1" height="1" fill="white"/>
<rect id="Rectangle 271_34" opacity="0.4" x="21.4492" y="28.0498" width="1" height="1" fill="white"/>
<rect id="Rectangle 272_34" opacity="0.4" x="23.0996" y="28.0498" width="1" height="1" fill="white"/>
<rect id="Rectangle 273_34" opacity="0.4" x="24.75" y="28.0498" width="1" height="1" fill="white"/>
<rect id="Rectangle 274_34" opacity="0.4" x="26.4004" y="28.0498" width="1" height="1" fill="white"/>
<rect id="Rectangle 275_34" opacity="0.4" x="28.0508" y="28.0498" width="1" height="1" fill="white"/>
<rect id="Rectangle 276_34" opacity="0.4" x="29.6992" y="28.0498" width="1" height="1" fill="white"/>
<rect id="Rectangle 269_35" opacity="0.7" x="1.65039" y="29.7002" width="1" height="1" fill="white"/>
<rect id="Rectangle 270_35" opacity="0.2" x="3.30078" y="29.7002" width="1" height="1" fill="white"/>
<rect id="Rectangle 271_35" opacity="0.4" x="4.94922" y="29.7002" width="1" height="1" fill="white"/>
<rect id="Rectangle 272_35" x="6.59961" y="29.7002" width="1" height="1" fill="white"/>
<rect id="Rectangle 273_35" opacity="0.2" x="8.25" y="29.7002" width="1" height="1" fill="white"/>
<rect id="Rectangle 274_35" opacity="0.4" x="9.90039" y="29.7002" width="1" height="1" fill="white"/>
<rect id="Rectangle 275_35" opacity="0.4" x="11.5508" y="29.7002" width="1" height="1" fill="white"/>
<rect id="Rectangle 276_35" opacity="0.7" x="13.1992" y="29.7002" width="1" height="1" fill="white"/>
<rect id="Rectangle 277_18" opacity="0.7" x="14.8496" y="29.7002" width="1" height="1" fill="white"/>
<rect id="Rectangle 268_18" opacity="0.4" x="16.5" y="29.7002" width="1" height="1" fill="white"/>
<rect id="Rectangle 269_36" opacity="0.7" x="18.1504" y="29.7002" width="1" height="1" fill="white"/>
<rect id="Rectangle 270_36" opacity="0.2" x="19.8008" y="29.7002" width="1" height="1" fill="white"/>
<rect id="Rectangle 271_36" opacity="0.4" x="21.4492" y="29.7002" width="1" height="1" fill="white"/>
<rect id="Rectangle 272_36" x="23.0996" y="29.7002" width="1" height="1" fill="white"/>
<rect id="Rectangle 273_36" opacity="0.2" x="24.75" y="29.7002" width="1" height="1" fill="white"/>
<rect id="Rectangle 274_36" opacity="0.4" x="26.4004" y="29.7002" width="1" height="1" fill="white"/>
<rect id="Rectangle 275_36" opacity="0.4" x="28.0508" y="29.7002" width="1" height="1" fill="white"/>
<rect id="Rectangle 276_36" opacity="0.7" x="29.6992" y="29.7002" width="1" height="1" fill="white"/>
</g>
</g>
</g>
</g>
</g>
</g>
<g id="Vector" filter="url(#filter0_d_15003_22374)">
<path d="M10.6681 12.3333H23.4499L23.9085 10.5238H12.5021V8.71429H25.083C25.5894 8.71429 26 9.11937 26 9.61905C26 9.69302 25.9908 9.76672 25.9726 9.83849L23.68 18.8861C23.5781 19.2889 23.2112 19.5714 22.7904 19.5714H9.75107C9.24462 19.5714 8.83405 19.1664 8.83405 18.6667V7.80952H7V6H9.75107C10.2575 6 10.6681 6.40508 10.6681 6.90476V12.3333ZM10.6681 25C9.65518 25 8.83405 24.1899 8.83405 23.1905C8.83405 22.1911 9.65518 21.381 10.6681 21.381C11.681 21.381 12.5021 22.1911 12.5021 23.1905C12.5021 24.1899 11.681 25 10.6681 25ZM21.6724 25C20.6594 25 19.8383 24.1899 19.8383 23.1905C19.8383 22.1911 20.6594 21.381 21.6724 21.381C22.6853 21.381 23.5064 22.1911 23.5064 23.1905C23.5064 24.1899 22.6853 25 21.6724 25Z" fill="url(#paint2_linear_15003_22374)"/>
</g>
</g>
<rect x="0.5" y="0.5" width="31" height="31" rx="7.5" stroke="url(#paint3_linear_15003_22374)"/>
</g>
</g>
<defs>
<filter id="filter0_d_15003_22374" x="3" y="6" width="27" height="27" filterUnits="userSpaceOnUse" color-interpolation-filters="sRGB">
<feFlood flood-opacity="0" result="BackgroundImageFix"/>
<feColorMatrix in="SourceAlpha" type="matrix" values="0 0 0 0 0 0 0 0 0 0 0 0 0 0 0 0 0 0 127 0" result="hardAlpha"/>
<feOffset dy="4"/>
<feGaussianBlur stdDeviation="2"/>
<feComposite in2="hardAlpha" operator="out"/>
<feColorMatrix type="matrix" values="0 0 0 0 0 0 0 0 0 0 0 0 0 0 0 0 0 0 0.12 0"/>
<feBlend mode="normal" in2="BackgroundImageFix" result="effect1_dropShadow_15003_22374"/>
<feBlend mode="normal" in="SourceGraphic" in2="effect1_dropShadow_15003_22374" result="shape"/>
</filter>
<linearGradient id="paint0_linear_15003_22374" x1="16" y1="0" x2="16" y2="32" gradientUnits="userSpaceOnUse">
<stop stop-color="#DBDBDB"/>
<stop offset="1" stop-color="#AFAFAF"/>
</linearGradient>
<linearGradient id="paint1_linear_15003_22374" x1="16" y1="0" x2="16" y2="32" gradientUnits="userSpaceOnUse">
<stop stop-color="#D9D9D9" stop-opacity="0.3"/>
<stop offset="1" stop-color="#D9D9D9" stop-opacity="0.15"/>
</linearGradient>
<linearGradient id="paint2_linear_15003_22374" x1="16.5" y1="6" x2="16.5" y2="25" gradientUnits="userSpaceOnUse">
<stop stop-color="#0B0B0B"/>
<stop offset="1" stop-color="#404040"/>
</linearGradient>
<linearGradient id="paint3_linear_15003_22374" x1="16" y1="0" x2="16" y2="32" gradientUnits="userSpaceOnUse">
<stop stop-color="white" stop-opacity="0.5"/>
<stop offset="1" stop-color="white" stop-opacity="0.2"/>
</linearGradient>
<clipPath id="clip0_15003_22374">
<rect width="32" height="32" rx="8" fill="white"/>
</clipPath>
<clipPath id="clip1_15003_22374">
<rect x="1" y="1" width="30" height="30" rx="7" fill="white"/>
</clipPath>
</defs>
</svg>
