<svg preserveAspectRatio="none" width="100%" height="100%" overflow="visible" style="display: block;" viewBox="0 0 1366.44 1104.8" fill="none" xmlns="http://www.w3.org/2000/svg">
<g id="Group" style="mix-blend-mode:overlay" opacity="0.7">
<path id="Vector" opacity="0.11" d="M337.309 852.023C338.224 851.429 338.485 850.205 337.891 849.29C337.297 848.375 336.074 848.115 335.159 848.709C334.244 849.303 333.983 850.526 334.577 851.441C335.171 852.356 336.394 852.616 337.309 852.023Z" fill="var(--fill-0, white)"/>
<path id="Vector_2" d="M348.597 857.639C349.283 857.194 349.478 856.277 349.033 855.592C348.588 854.906 347.671 854.711 346.985 855.156C346.299 855.601 346.104 856.518 346.549 857.203C346.994 857.889 347.911 858.085 348.597 857.639Z" fill="var(--fill-0, white)"/>
<path id="Vector_3" d="M364.647 822.518C365.333 822.073 365.528 821.156 365.083 820.47C364.638 819.784 363.721 819.589 363.035 820.034C362.349 820.479 362.154 821.396 362.599 822.082C363.044 822.768 363.961 822.963 364.647 822.518Z" fill="var(--fill-0, white)"/>
<path id="Vector_4" d="M293.179 866.537C293.864 866.092 294.06 865.175 293.615 864.489C293.169 863.803 292.253 863.608 291.567 864.053C290.881 864.498 290.686 865.415 291.131 866.101C291.576 866.787 292.493 866.982 293.179 866.537Z" fill="var(--fill-0, white)"/>
<path id="Vector_5" opacity="0.11" d="M265.083 913.017C265.999 912.423 266.259 911.2 265.665 910.285C265.071 909.37 263.848 909.11 262.933 909.704C262.018 910.297 261.758 911.521 262.351 912.436C262.945 913.351 264.168 913.611 265.083 913.017Z" fill="var(--fill-0, white)"/>
<path id="Vector_6" d="M237.532 905.005C237.989 904.709 238.119 904.098 237.822 903.641C237.526 903.184 236.915 903.054 236.458 903.35C236.001 903.647 235.871 904.258 236.167 904.715C236.464 905.172 237.075 905.302 237.532 905.005Z" fill="var(--fill-0, white)"/>
<path id="Vector_7" d="M355.776 885.931C356.233 885.634 356.363 885.023 356.067 884.566C355.77 884.109 355.159 883.979 354.702 884.276C354.245 884.572 354.115 885.183 354.412 885.64C354.708 886.097 355.319 886.227 355.776 885.931Z" fill="var(--fill-0, white)"/>
<path id="Vector_8" d="M536.313 768.779C536.77 768.483 536.9 767.872 536.603 767.415C536.307 766.958 535.696 766.828 535.239 767.125C534.782 767.421 534.652 768.032 534.948 768.489C535.245 768.946 535.856 769.076 536.313 768.779Z" fill="var(--fill-0, white)"/>
<path id="Vector_9" d="M597.55 665.482C598.007 665.185 598.137 664.575 597.84 664.118C597.544 663.661 596.933 663.531 596.476 663.827C596.019 664.124 595.889 664.735 596.185 665.192C596.482 665.649 597.093 665.779 597.55 665.482Z" fill="var(--fill-0, white)"/>
<path id="Vector_10" d="M669.083 704.973C669.54 704.677 669.67 704.066 669.374 703.609C669.077 703.152 668.466 703.022 668.009 703.319C667.552 703.615 667.422 704.226 667.719 704.683C668.015 705.14 668.626 705.27 669.083 704.973Z" fill="var(--fill-0, white)"/>
<path id="Vector_11" d="M66.5823 1044.19C67.0393 1043.89 67.1694 1043.28 66.8728 1042.82C66.5762 1042.37 65.9653 1042.24 65.5083 1042.53C65.0514 1042.83 64.9213 1043.44 65.2179 1043.9C65.5145 1044.35 66.1253 1044.48 66.5823 1044.19Z" fill="var(--fill-0, white)"/>
<path id="Vector_12" opacity="0.11" d="M25.1457 1007.53C25.6027 1007.23 25.7327 1006.62 25.4362 1006.16C25.1396 1005.71 24.5288 1005.58 24.0718 1005.87C23.6148 1006.17 23.4847 1006.78 23.7813 1007.24C24.0778 1007.7 24.6888 1007.83 25.1457 1007.53Z" fill="var(--fill-0, white)"/>
<path id="Vector_13" opacity="0.11" d="M1.90136 1049.68C2.35835 1049.38 2.48842 1048.77 2.19185 1048.32C1.89529 1047.86 1.28443 1047.73 0.827447 1048.03C0.370461 1048.32 0.240392 1048.93 0.536959 1049.39C0.833525 1049.85 1.44438 1049.98 1.90136 1049.68Z" fill="var(--fill-0, white)"/>
<path id="Vector_14" opacity="0.11" d="M61.473 1081.63C61.93 1081.34 62.06 1080.73 61.7635 1080.27C61.4669 1079.81 60.856 1079.68 60.399 1079.98C59.9421 1080.27 59.812 1080.89 60.1086 1081.34C60.4051 1081.8 61.016 1081.93 61.473 1081.63Z" fill="var(--fill-0, white)"/>
<path id="Vector_15" opacity="0.11" d="M237.056 920.608C237.513 920.311 237.643 919.7 237.346 919.243C237.05 918.786 236.439 918.656 235.982 918.953C235.525 919.25 235.395 919.86 235.691 920.317C235.988 920.774 236.599 920.904 237.056 920.608Z" fill="var(--fill-0, white)"/>
<path id="Vector_16" opacity="0.11" d="M373.483 916.818C373.94 916.522 374.07 915.911 373.773 915.454C373.477 914.997 372.866 914.867 372.409 915.163C371.952 915.46 371.822 916.071 372.118 916.528C372.415 916.985 373.026 917.115 373.483 916.818Z" fill="var(--fill-0, white)"/>
<path id="Vector_17" opacity="0.11" d="M527.093 805.355C527.55 805.059 527.68 804.448 527.383 803.991C527.087 803.534 526.476 803.404 526.019 803.7C525.562 803.997 525.432 804.608 525.729 805.065C526.025 805.522 526.636 805.652 527.093 805.355Z" fill="var(--fill-0, white)"/>
<path id="Vector_18" opacity="0.3" d="M91.246 998.762C91.703 998.465 91.8331 997.854 91.5365 997.397C91.24 996.94 90.6291 996.81 90.1721 997.107C89.7151 997.403 89.5851 998.014 89.8816 998.471C90.1782 998.928 90.7891 999.058 91.246 998.762Z" fill="var(--fill-0, white)"/>
<path id="Vector_19" d="M252.686 830.442C253.143 830.145 253.273 829.534 252.977 829.077C252.68 828.62 252.069 828.49 251.612 828.787C251.155 829.083 251.025 829.694 251.322 830.151C251.618 830.608 252.229 830.738 252.686 830.442Z" fill="var(--fill-0, white)"/>
<path id="Vector_20" d="M379.139 746.025C379.596 745.729 379.726 745.118 379.43 744.661C379.133 744.204 378.522 744.074 378.065 744.37C377.608 744.667 377.478 745.278 377.775 745.735C378.071 746.192 378.682 746.322 379.139 746.025Z" fill="var(--fill-0, white)"/>
<path id="Vector_21" d="M245.817 943.171C246.274 942.875 246.404 942.264 246.108 941.807C245.811 941.35 245.2 941.22 244.743 941.516C244.286 941.813 244.156 942.424 244.453 942.881C244.75 943.338 245.36 943.468 245.817 943.171Z" fill="var(--fill-0, white)"/>
<path id="Vector_22" opacity="0.3" d="M187.849 980.792C188.306 980.496 188.436 979.885 188.139 979.428C187.843 978.971 187.232 978.841 186.775 979.137C186.318 979.434 186.188 980.045 186.484 980.502C186.781 980.959 187.392 981.089 187.849 980.792Z" fill="var(--fill-0, white)"/>
<path id="Vector_23" opacity="0.11" d="M86.633 973.509C87.09 973.212 87.22 972.602 86.9235 972.145C86.6269 971.688 86.016 971.557 85.559 971.854C85.102 972.151 84.972 972.762 85.2686 973.219C85.5651 973.675 86.176 973.806 86.633 973.509Z" fill="var(--fill-0, white)"/>
<path id="Vector_24" opacity="0.3" d="M280.499 840.641C280.956 840.345 281.086 839.734 280.789 839.277C280.493 838.82 279.882 838.69 279.425 838.986C278.968 839.283 278.838 839.894 279.134 840.351C279.431 840.808 280.042 840.938 280.499 840.641Z" fill="var(--fill-0, white)"/>
<path id="Vector_25" opacity="0.3" d="M270.109 949.769C270.566 949.472 270.696 948.861 270.4 948.404C270.103 947.947 269.492 947.817 269.035 948.114C268.578 948.411 268.448 949.021 268.745 949.478C269.042 949.935 269.652 950.065 270.109 949.769Z" fill="var(--fill-0, white)"/>
<path id="Vector_26" opacity="0.3" d="M175.28 1023.08C175.737 1022.78 175.867 1022.17 175.571 1021.71C175.274 1021.25 174.663 1021.12 174.206 1021.42C173.749 1021.72 173.619 1022.33 173.916 1022.79C174.212 1023.24 174.823 1023.37 175.28 1023.08Z" fill="var(--fill-0, white)"/>
<path id="Vector_27" opacity="0.3" d="M115.263 983.178C115.72 982.881 115.85 982.27 115.553 981.813C115.257 981.356 114.646 981.226 114.189 981.523C113.732 981.819 113.602 982.43 113.898 982.887C114.195 983.344 114.806 983.474 115.263 983.178Z" fill="var(--fill-0, white)"/>
<path id="Vector_28" opacity="0.3" d="M628.728 646.428C629.185 646.132 629.315 645.521 629.019 645.064C628.722 644.607 628.111 644.477 627.654 644.774C627.197 645.07 627.067 645.681 627.364 646.138C627.661 646.595 628.271 646.725 628.728 646.428Z" fill="var(--fill-0, white)"/>
<path id="Vector_29" opacity="0.11" d="M473.365 698.998C473.822 698.702 473.952 698.091 473.656 697.634C473.359 697.177 472.748 697.047 472.291 697.343C471.835 697.64 471.704 698.251 472.001 698.708C472.298 699.165 472.908 699.295 473.365 698.998Z" fill="var(--fill-0, white)"/>
<path id="Vector_30" opacity="0.11" d="M629.477 696.544C629.934 696.247 630.064 695.637 629.767 695.18C629.47 694.723 628.86 694.593 628.403 694.889C627.946 695.186 627.816 695.797 628.112 696.254C628.409 696.711 629.02 696.841 629.477 696.544Z" fill="var(--fill-0, white)"/>
<path id="Vector_31" opacity="0.3" d="M424.799 839.965C425.714 839.371 425.974 838.148 425.38 837.232C424.786 836.317 423.563 836.057 422.648 836.651C421.733 837.245 421.473 838.468 422.067 839.383C422.66 840.298 423.884 840.558 424.799 839.965Z" fill="var(--fill-0, white)"/>
<path id="Vector_32" opacity="0.11" d="M457.545 783.415C458.46 782.821 458.721 781.598 458.127 780.683C457.533 779.768 456.31 779.508 455.395 780.101C454.48 780.695 454.219 781.918 454.813 782.833C455.407 783.748 456.63 784.009 457.545 783.415Z" fill="var(--fill-0, white)"/>
<path id="Vector_33" d="M438.32 754.701C439.006 754.256 439.201 753.339 438.756 752.653C438.311 751.967 437.394 751.772 436.709 752.217C436.023 752.662 435.828 753.579 436.273 754.265C436.718 754.951 437.635 755.146 438.32 754.701Z" fill="var(--fill-0, white)"/>
<path id="Vector_34" d="M437.612 878.73C438.298 878.285 438.493 877.368 438.048 876.682C437.603 875.997 436.686 875.801 436 876.247C435.314 876.692 435.119 877.608 435.564 878.294C436.009 878.98 436.926 879.175 437.612 878.73Z" fill="var(--fill-0, white)"/>
<path id="Vector_35" d="M723.288 716.874C723.974 716.429 724.169 715.512 723.724 714.826C723.279 714.14 722.362 713.945 721.676 714.39C720.99 714.835 720.795 715.752 721.24 716.438C721.685 717.124 722.602 717.319 723.288 716.874Z" fill="var(--fill-0, white)"/>
<path id="Vector_36" d="M176.704 1051.57C177.39 1051.13 177.586 1050.21 177.14 1049.52C176.695 1048.84 175.778 1048.64 175.093 1049.09C174.407 1049.53 174.212 1050.45 174.657 1051.14C175.102 1051.82 176.019 1052.02 176.704 1051.57Z" fill="var(--fill-0, white)"/>
<path id="Vector_37" d="M54.2129 1104C54.8988 1103.55 55.094 1102.64 54.6489 1101.95C54.2038 1101.26 53.2869 1101.07 52.6011 1101.51C51.9152 1101.96 51.72 1102.88 52.1651 1103.56C52.6102 1104.25 53.5271 1104.44 54.2129 1104Z" fill="var(--fill-0, white)"/>
<path id="Vector_38" d="M18.6385 1080.01C19.3244 1079.56 19.5196 1078.65 19.0745 1077.96C18.6294 1077.28 17.7125 1077.08 17.0267 1077.53C16.3408 1077.97 16.1456 1078.89 16.5907 1079.57C17.0358 1080.26 17.9527 1080.45 18.6385 1080.01Z" fill="var(--fill-0, white)"/>
<path id="Vector_39" d="M409.322 797.058C410.008 796.613 410.203 795.696 409.758 795.01C409.313 794.324 408.396 794.129 407.71 794.574C407.024 795.019 406.829 795.936 407.274 796.622C407.719 797.308 408.636 797.503 409.322 797.058Z" fill="var(--fill-0, white)"/>
<path id="Vector_40" d="M304.999 951.843C305.685 951.398 305.88 950.481 305.435 949.795C304.99 949.11 304.073 948.914 303.387 949.359C302.701 949.805 302.506 950.721 302.951 951.407C303.396 952.093 304.313 952.288 304.999 951.843Z" fill="var(--fill-0, white)"/>
<path id="Vector_41" d="M536.792 852.027C537.478 851.582 537.673 850.665 537.228 849.979C536.783 849.293 535.866 849.098 535.18 849.543C534.494 849.988 534.299 850.905 534.744 851.591C535.189 852.277 536.106 852.472 536.792 852.027Z" fill="var(--fill-0, white)"/>
<path id="Vector_42" d="M719.689 653.305C720.375 652.86 720.57 651.943 720.125 651.257C719.68 650.571 718.763 650.376 718.077 650.821C717.391 651.266 717.196 652.183 717.641 652.869C718.086 653.555 719.003 653.75 719.689 653.305Z" fill="var(--fill-0, white)"/>
<path id="Vector_43" d="M710.01 594.859C710.696 594.414 710.891 593.497 710.446 592.811C710.001 592.125 709.084 591.93 708.398 592.375C707.712 592.82 707.517 593.737 707.962 594.423C708.407 595.109 709.324 595.304 710.01 594.859Z" fill="var(--fill-0, white)"/>
<path id="Vector_44" opacity="0.3" d="M507.185 711.191C508.1 710.597 508.361 709.374 507.767 708.459C507.173 707.544 505.95 707.283 505.035 707.877C504.12 708.471 503.859 709.694 504.453 710.609C505.047 711.524 506.27 711.785 507.185 711.191Z" fill="var(--fill-0, white)"/>
<path id="Vector_45" d="M469.018 652.395C469.933 651.802 470.194 650.578 469.6 649.663C469.006 648.748 467.783 648.488 466.868 649.082C465.953 649.675 465.692 650.899 466.286 651.814C466.88 652.729 468.103 652.989 469.018 652.395Z" fill="var(--fill-0, white)"/>
<path id="Vector_46" d="M561.647 701.73C562.333 701.285 562.528 700.368 562.083 699.683C561.638 698.997 560.721 698.802 560.035 699.247C559.35 699.692 559.154 700.609 559.6 701.294C560.045 701.98 560.962 702.176 561.647 701.73Z" fill="var(--fill-0, white)"/>
<path id="Vector_47" opacity="0.3" d="M580.856 643.371C581.771 642.777 582.031 641.554 581.437 640.639C580.844 639.724 579.62 639.463 578.705 640.057C577.79 640.651 577.53 641.874 578.124 642.789C578.718 643.704 579.941 643.965 580.856 643.371Z" fill="var(--fill-0, white)"/>
<path id="Vector_48" opacity="0.3" d="M700.998 648.965C701.913 648.371 702.174 647.148 701.58 646.233C700.986 645.318 699.763 645.057 698.848 645.651C697.933 646.245 697.672 647.468 698.266 648.383C698.86 649.298 700.083 649.559 700.998 648.965Z" fill="var(--fill-0, white)"/>
<path id="Vector_49" opacity="0.3" d="M605.177 713.494C606.092 712.9 606.353 711.677 605.759 710.762C605.165 709.847 603.942 709.586 603.027 710.18C602.112 710.774 601.851 711.997 602.445 712.912C603.039 713.827 604.262 714.087 605.177 713.494Z" fill="var(--fill-0, white)"/>
<path id="Vector_50" opacity="0.3" d="M138.979 1036.04C139.894 1035.44 140.155 1034.22 139.561 1033.31C138.967 1032.39 137.744 1032.13 136.829 1032.72C135.914 1033.32 135.653 1034.54 136.247 1035.46C136.841 1036.37 138.064 1036.63 138.979 1036.04Z" fill="var(--fill-0, white)"/>
<path id="Vector_51" opacity="0.3" d="M42.3397 1034.03C43.2548 1033.43 43.5152 1032.21 42.9213 1031.3C42.3275 1030.38 41.1043 1030.12 40.1893 1030.71C39.2742 1031.31 39.0138 1032.53 39.6076 1033.45C40.2015 1034.36 41.4247 1034.62 42.3397 1034.03Z" fill="var(--fill-0, white)"/>
<path id="Vector_52" opacity="0.11" d="M650.921 646.154C651.837 645.56 652.097 644.337 651.503 643.422C650.909 642.507 649.686 642.247 648.771 642.841C647.856 643.434 647.596 644.658 648.189 645.573C648.783 646.488 650.006 646.748 650.921 646.154Z" fill="var(--fill-0, white)"/>
<path id="Vector_53" opacity="0.3" d="M142.487 929.024C143.402 928.43 143.663 927.207 143.069 926.292C142.475 925.377 141.252 925.117 140.337 925.71C139.422 926.304 139.161 927.527 139.755 928.442C140.349 929.358 141.572 929.618 142.487 929.024Z" fill="var(--fill-0, white)"/>
<path id="Vector_54" opacity="0.11" d="M109.381 926.977C110.296 926.383 110.556 925.159 109.962 924.244C109.369 923.329 108.145 923.069 107.23 923.663C106.315 924.257 106.055 925.48 106.649 926.395C107.243 927.31 108.466 927.57 109.381 926.977Z" fill="var(--fill-0, white)"/>
<path id="Vector_55" opacity="0.3" d="M137.155 984.27C138.07 983.676 138.331 982.453 137.737 981.538C137.143 980.623 135.92 980.363 135.005 980.956C134.09 981.55 133.829 982.773 134.423 983.688C135.017 984.604 136.24 984.864 137.155 984.27Z" fill="var(--fill-0, white)"/>
<path id="Vector_56" d="M188.365 949.855C189.05 949.41 189.246 948.493 188.8 947.807C188.355 947.121 187.438 946.926 186.753 947.371C186.067 947.817 185.872 948.733 186.317 949.419C186.762 950.105 187.679 950.3 188.365 949.855Z" fill="var(--fill-0, white)"/>
<path id="Vector_57" opacity="0.11" d="M459.578 413.288C460.493 412.694 460.753 411.471 460.159 410.556C459.566 409.641 458.342 409.38 457.427 409.974C456.512 410.568 456.252 411.791 456.846 412.706C457.44 413.621 458.663 413.881 459.578 413.288Z" fill="var(--fill-0, white)"/>
<path id="Vector_58" d="M470.865 418.91C471.55 418.464 471.746 417.548 471.301 416.862C470.855 416.176 469.939 415.981 469.253 416.426C468.567 416.871 468.372 417.788 468.817 418.474C469.262 419.159 470.179 419.355 470.865 418.91Z" fill="var(--fill-0, white)"/>
<path id="Vector_59" d="M486.911 383.783C487.597 383.338 487.792 382.421 487.347 381.735C486.902 381.049 485.985 380.854 485.299 381.299C484.613 381.744 484.418 382.661 484.863 383.347C485.308 384.033 486.225 384.228 486.911 383.783Z" fill="var(--fill-0, white)"/>
<path id="Vector_60" d="M415.441 427.804C416.127 427.358 416.322 426.442 415.877 425.756C415.432 425.07 414.515 424.875 413.829 425.32C413.143 425.765 412.948 426.682 413.393 427.368C413.838 428.053 414.755 428.249 415.441 427.804Z" fill="var(--fill-0, white)"/>
<path id="Vector_61" opacity="0.11" d="M387.349 474.28C388.264 473.686 388.524 472.463 387.931 471.548C387.337 470.633 386.114 470.373 385.198 470.966C384.283 471.56 384.023 472.784 384.617 473.699C385.211 474.614 386.434 474.874 387.349 474.28Z" fill="var(--fill-0, white)"/>
<path id="Vector_62" d="M359.796 466.273C360.253 465.976 360.383 465.365 360.087 464.908C359.79 464.451 359.179 464.321 358.722 464.618C358.265 464.914 358.135 465.525 358.432 465.982C358.728 466.439 359.339 466.569 359.796 466.273Z" fill="var(--fill-0, white)"/>
<path id="Vector_63" d="M478.042 447.2C478.499 446.904 478.629 446.293 478.332 445.836C478.035 445.379 477.425 445.249 476.968 445.545C476.511 445.842 476.381 446.453 476.677 446.91C476.974 447.367 477.585 447.497 478.042 447.2Z" fill="var(--fill-0, white)"/>
<path id="Vector_64" d="M658.576 330.045C659.033 329.749 659.163 329.138 658.866 328.681C658.57 328.224 657.959 328.094 657.502 328.39C657.045 328.687 656.915 329.298 657.212 329.755C657.508 330.212 658.119 330.342 658.576 330.045Z" fill="var(--fill-0, white)"/>
<path id="Vector_65" d="M719.814 226.749C720.271 226.453 720.401 225.842 720.105 225.385C719.808 224.928 719.197 224.798 718.74 225.095C718.283 225.391 718.153 226.002 718.45 226.459C718.746 226.916 719.357 227.046 719.814 226.749Z" fill="var(--fill-0, white)"/>
<path id="Vector_66" d="M791.348 266.244C791.805 265.947 791.935 265.337 791.638 264.88C791.342 264.423 790.731 264.293 790.274 264.589C789.817 264.886 789.687 265.497 789.983 265.954C790.28 266.411 790.891 266.541 791.348 266.244Z" fill="var(--fill-0, white)"/>
<path id="Vector_67" d="M188.848 605.453C189.305 605.156 189.435 604.545 189.139 604.088C188.842 603.631 188.231 603.501 187.774 603.798C187.317 604.094 187.187 604.705 187.484 605.162C187.78 605.619 188.391 605.749 188.848 605.453Z" fill="var(--fill-0, white)"/>
<path id="Vector_68" opacity="0.11" d="M147.413 568.792C147.87 568.495 148 567.884 147.704 567.427C147.407 566.97 146.796 566.84 146.339 567.137C145.882 567.433 145.752 568.044 146.049 568.501C146.346 568.958 146.956 569.088 147.413 568.792Z" fill="var(--fill-0, white)"/>
<path id="Vector_69" opacity="0.11" d="M124.167 610.947C124.624 610.65 124.754 610.04 124.457 609.583C124.161 609.126 123.55 608.996 123.093 609.292C122.636 609.589 122.506 610.2 122.802 610.657C123.099 611.114 123.71 611.244 124.167 610.947Z" fill="var(--fill-0, white)"/>
<path id="Vector_70" opacity="0.11" d="M183.737 642.897C184.194 642.601 184.324 641.99 184.028 641.533C183.731 641.076 183.12 640.946 182.663 641.242C182.206 641.539 182.076 642.15 182.373 642.607C182.67 643.064 183.28 643.194 183.737 642.897Z" fill="var(--fill-0, white)"/>
<path id="Vector_71" opacity="0.11" d="M359.324 481.87C359.781 481.574 359.911 480.963 359.614 480.506C359.318 480.049 358.707 479.919 358.25 480.215C357.793 480.512 357.663 481.123 357.959 481.58C358.256 482.037 358.867 482.167 359.324 481.87Z" fill="var(--fill-0, white)"/>
<path id="Vector_72" opacity="0.11" d="M495.744 478.084C496.201 477.787 496.331 477.177 496.034 476.72C495.737 476.263 495.127 476.133 494.67 476.429C494.213 476.726 494.083 477.337 494.379 477.794C494.676 478.251 495.287 478.381 495.744 478.084Z" fill="var(--fill-0, white)"/>
<path id="Vector_73" opacity="0.11" d="M649.356 366.621C649.813 366.325 649.943 365.714 649.647 365.257C649.35 364.8 648.739 364.67 648.282 364.966C647.825 365.263 647.695 365.874 647.992 366.331C648.288 366.788 648.899 366.918 649.356 366.621Z" fill="var(--fill-0, white)"/>
<path id="Vector_74" opacity="0.3" d="M213.509 560.028C213.966 559.731 214.096 559.12 213.8 558.663C213.503 558.206 212.892 558.076 212.435 558.373C211.978 558.669 211.848 559.28 212.145 559.737C212.441 560.194 213.052 560.324 213.509 560.028Z" fill="var(--fill-0, white)"/>
<path id="Vector_75" d="M374.951 391.706C375.408 391.409 375.538 390.798 375.241 390.341C374.945 389.884 374.334 389.754 373.877 390.051C373.42 390.347 373.29 390.958 373.586 391.415C373.883 391.872 374.494 392.002 374.951 391.706Z" fill="var(--fill-0, white)"/>
<path id="Vector_76" d="M501.406 307.289C501.863 306.993 501.993 306.382 501.696 305.925C501.4 305.468 500.789 305.338 500.332 305.634C499.875 305.931 499.745 306.542 500.041 306.999C500.338 307.456 500.949 307.586 501.406 307.289Z" fill="var(--fill-0, white)"/>
<path id="Vector_77" d="M368.082 504.439C368.539 504.142 368.669 503.531 368.372 503.074C368.076 502.617 367.465 502.487 367.008 502.784C366.551 503.08 366.421 503.691 366.717 504.148C367.014 504.605 367.625 504.735 368.082 504.439Z" fill="var(--fill-0, white)"/>
<path id="Vector_78" opacity="0.3" d="M310.113 542.056C310.57 541.76 310.7 541.149 310.404 540.692C310.107 540.235 309.496 540.105 309.039 540.402C308.582 540.698 308.452 541.309 308.749 541.766C309.045 542.223 309.656 542.353 310.113 542.056Z" fill="var(--fill-0, white)"/>
<path id="Vector_79" opacity="0.11" d="M208.896 534.776C209.353 534.479 209.483 533.868 209.186 533.411C208.89 532.954 208.279 532.824 207.822 533.121C207.365 533.417 207.235 534.028 207.531 534.485C207.828 534.942 208.439 535.072 208.896 534.776Z" fill="var(--fill-0, white)"/>
<path id="Vector_80" opacity="0.3" d="M402.768 401.906C403.225 401.609 403.355 400.998 403.058 400.541C402.762 400.084 402.151 399.954 401.694 400.251C401.237 400.547 401.107 401.158 401.403 401.615C401.7 402.072 402.311 402.202 402.768 401.906Z" fill="var(--fill-0, white)"/>
<path id="Vector_81" opacity="0.3" d="M392.377 511.035C392.834 510.739 392.964 510.128 392.668 509.671C392.371 509.214 391.76 509.084 391.303 509.38C390.846 509.677 390.716 510.288 391.013 510.745C391.309 511.202 391.92 511.332 392.377 511.035Z" fill="var(--fill-0, white)"/>
<path id="Vector_82" opacity="0.3" d="M297.546 584.338C298.003 584.042 298.133 583.431 297.837 582.974C297.54 582.517 296.929 582.387 296.472 582.683C296.015 582.98 295.885 583.591 296.182 584.048C296.478 584.505 297.089 584.635 297.546 584.338Z" fill="var(--fill-0, white)"/>
<path id="Vector_83" opacity="0.3" d="M237.531 544.446C237.988 544.149 238.118 543.539 237.822 543.082C237.525 542.625 236.914 542.495 236.457 542.791C236 543.088 235.87 543.699 236.167 544.156C236.463 544.613 237.074 544.743 237.531 544.446Z" fill="var(--fill-0, white)"/>
<path id="Vector_84" opacity="0.3" d="M750.991 207.695C751.448 207.398 751.578 206.787 751.282 206.33C750.985 205.873 750.374 205.743 749.917 206.04C749.46 206.337 749.33 206.947 749.627 207.404C749.923 207.861 750.534 207.991 750.991 207.695Z" fill="var(--fill-0, white)"/>
<path id="Vector_85" opacity="0.11" d="M595.632 260.266C596.089 259.97 596.219 259.359 595.922 258.902C595.626 258.445 595.015 258.315 594.558 258.611C594.101 258.908 593.971 259.519 594.267 259.976C594.564 260.433 595.175 260.563 595.632 260.266Z" fill="var(--fill-0, white)"/>
<path id="Vector_86" opacity="0.11" d="M751.74 257.809C752.197 257.513 752.327 256.902 752.031 256.445C751.734 255.988 751.123 255.858 750.666 256.155C750.209 256.451 750.079 257.062 750.376 257.519C750.672 257.976 751.283 258.106 751.74 257.809Z" fill="var(--fill-0, white)"/>
<path id="Vector_87" opacity="0.3" d="M547.064 401.228C547.979 400.634 548.239 399.411 547.645 398.496C547.051 397.581 545.828 397.32 544.913 397.914C543.998 398.508 543.738 399.731 544.332 400.646C544.925 401.561 546.149 401.822 547.064 401.228Z" fill="var(--fill-0, white)"/>
<path id="Vector_88" opacity="0.11" d="M579.806 344.681C580.721 344.087 580.982 342.864 580.388 341.949C579.794 341.034 578.571 340.773 577.656 341.367C576.741 341.961 576.48 343.184 577.074 344.099C577.668 345.014 578.891 345.275 579.806 344.681Z" fill="var(--fill-0, white)"/>
<path id="Vector_89" d="M560.586 315.963C561.272 315.518 561.467 314.601 561.022 313.915C560.577 313.229 559.66 313.034 558.974 313.479C558.289 313.924 558.093 314.841 558.538 315.527C558.984 316.213 559.9 316.408 560.586 315.963Z" fill="var(--fill-0, white)"/>
<path id="Vector_90" d="M559.878 439.995C560.564 439.549 560.759 438.633 560.314 437.947C559.869 437.261 558.952 437.066 558.267 437.511C557.581 437.956 557.386 438.873 557.831 439.559C558.276 440.244 559.193 440.44 559.878 439.995Z" fill="var(--fill-0, white)"/>
<path id="Vector_91" d="M845.552 278.142C846.238 277.697 846.433 276.78 845.988 276.094C845.543 275.408 844.626 275.213 843.94 275.658C843.255 276.103 843.059 277.02 843.504 277.706C843.95 278.392 844.866 278.587 845.552 278.142Z" fill="var(--fill-0, white)"/>
<path id="Vector_92" d="M298.968 612.837C299.654 612.392 299.849 611.475 299.404 610.789C298.959 610.103 298.042 609.908 297.356 610.353C296.67 610.798 296.475 611.715 296.92 612.401C297.365 613.087 298.282 613.282 298.968 612.837Z" fill="var(--fill-0, white)"/>
<path id="Vector_93" d="M176.484 665.264C177.169 664.819 177.365 663.902 176.92 663.216C176.474 662.53 175.558 662.335 174.872 662.78C174.186 663.225 173.991 664.142 174.436 664.828C174.881 665.514 175.798 665.709 176.484 665.264Z" fill="var(--fill-0, white)"/>
<path id="Vector_94" d="M140.904 641.275C141.59 640.83 141.785 639.913 141.34 639.227C140.895 638.542 139.978 638.346 139.292 638.792C138.607 639.237 138.411 640.153 138.857 640.839C139.302 641.525 140.218 641.72 140.904 641.275Z" fill="var(--fill-0, white)"/>
<path id="Vector_95" d="M531.591 358.323C532.277 357.878 532.472 356.961 532.027 356.275C531.582 355.589 530.665 355.394 529.979 355.839C529.293 356.284 529.098 357.201 529.543 357.887C529.988 358.573 530.905 358.768 531.591 358.323Z" fill="var(--fill-0, white)"/>
<path id="Vector_96" d="M427.264 513.11C427.95 512.664 428.145 511.748 427.7 511.062C427.255 510.376 426.338 510.181 425.652 510.626C424.966 511.071 424.771 511.988 425.216 512.674C425.661 513.36 426.578 513.555 427.264 513.11Z" fill="var(--fill-0, white)"/>
<path id="Vector_97" d="M659.057 413.29C659.743 412.845 659.938 411.929 659.493 411.243C659.048 410.557 658.131 410.362 657.445 410.807C656.759 411.252 656.564 412.169 657.009 412.855C657.454 413.54 658.371 413.736 659.057 413.29Z" fill="var(--fill-0, white)"/>
<path id="Vector_98" d="M841.955 214.569C842.641 214.124 842.836 213.207 842.391 212.522C841.946 211.836 841.029 211.641 840.344 212.086C839.658 212.531 839.463 213.448 839.908 214.133C840.353 214.819 841.27 215.014 841.955 214.569Z" fill="var(--fill-0, white)"/>
<path id="Vector_99" d="M832.279 156.127C832.964 155.682 833.16 154.765 832.715 154.08C832.269 153.394 831.353 153.198 830.667 153.644C829.981 154.089 829.786 155.005 830.231 155.691C830.676 156.377 831.593 156.572 832.279 156.127Z" fill="var(--fill-0, white)"/>
<path id="Vector_100" opacity="0.3" d="M629.446 272.453C630.361 271.859 630.622 270.636 630.028 269.721C629.434 268.806 628.211 268.546 627.296 269.139C626.381 269.733 626.12 270.956 626.714 271.872C627.308 272.787 628.531 273.047 629.446 272.453Z" fill="var(--fill-0, white)"/>
<path id="Vector_101" d="M591.284 213.664C592.199 213.07 592.46 211.847 591.866 210.932C591.272 210.017 590.049 209.757 589.134 210.35C588.219 210.944 587.958 212.167 588.552 213.083C589.146 213.998 590.369 214.258 591.284 213.664Z" fill="var(--fill-0, white)"/>
<path id="Vector_102" d="M683.916 262.999C684.602 262.554 684.797 261.637 684.352 260.951C683.907 260.265 682.99 260.07 682.304 260.515C681.618 260.96 681.423 261.877 681.868 262.563C682.313 263.249 683.23 263.444 683.916 262.999Z" fill="var(--fill-0, white)"/>
<path id="Vector_103" opacity="0.3" d="M703.124 204.637C704.039 204.043 704.3 202.82 703.706 201.904C703.112 200.989 701.889 200.729 700.974 201.323C700.059 201.917 699.798 203.14 700.392 204.055C700.986 204.97 702.209 205.23 703.124 204.637Z" fill="var(--fill-0, white)"/>
<path id="Vector_104" opacity="0.3" d="M823.264 210.23C824.179 209.636 824.44 208.413 823.846 207.498C823.252 206.583 822.029 206.323 821.114 206.917C820.199 207.51 819.938 208.734 820.532 209.649C821.126 210.564 822.349 210.824 823.264 210.23Z" fill="var(--fill-0, white)"/>
<path id="Vector_105" opacity="0.3" d="M727.443 274.763C728.358 274.169 728.619 272.946 728.025 272.03C727.431 271.115 726.208 270.855 725.293 271.449C724.378 272.043 724.117 273.266 724.711 274.181C725.305 275.096 726.528 275.356 727.443 274.763Z" fill="var(--fill-0, white)"/>
<path id="Vector_106" opacity="0.3" d="M261.245 597.307C262.16 596.713 262.421 595.49 261.827 594.575C261.233 593.66 260.01 593.4 259.095 593.994C258.18 594.587 257.919 595.811 258.513 596.726C259.107 597.641 260.33 597.901 261.245 597.307Z" fill="var(--fill-0, white)"/>
<path id="Vector_107" opacity="0.3" d="M164.601 595.297C165.516 594.703 165.777 593.479 165.183 592.564C164.589 591.649 163.366 591.389 162.451 591.983C161.536 592.577 161.275 593.8 161.869 594.715C162.463 595.63 163.686 595.89 164.601 595.297Z" fill="var(--fill-0, white)"/>
<path id="Vector_108" opacity="0.11" d="M773.186 207.421C774.101 206.827 774.362 205.604 773.768 204.689C773.174 203.774 771.951 203.514 771.036 204.108C770.121 204.701 769.86 205.925 770.454 206.84C771.048 207.755 772.271 208.015 773.186 207.421Z" fill="var(--fill-0, white)"/>
<path id="Vector_109" opacity="0.3" d="M264.751 490.292C265.666 489.699 265.926 488.475 265.333 487.56C264.739 486.645 263.516 486.385 262.601 486.979C261.686 487.573 261.425 488.796 262.019 489.711C262.613 490.626 263.836 490.886 264.751 490.292Z" fill="var(--fill-0, white)"/>
<path id="Vector_110" opacity="0.11" d="M231.646 488.239C232.561 487.646 232.822 486.422 232.228 485.507C231.634 484.592 230.411 484.332 229.496 484.926C228.581 485.52 228.32 486.743 228.914 487.658C229.508 488.573 230.731 488.833 231.646 488.239Z" fill="var(--fill-0, white)"/>
<path id="Vector_111" opacity="0.3" d="M259.423 545.533C260.338 544.94 260.598 543.716 260.005 542.801C259.411 541.886 258.187 541.626 257.272 542.22C256.357 542.813 256.097 544.037 256.691 544.952C257.285 545.867 258.508 546.127 259.423 545.533Z" fill="var(--fill-0, white)"/>
<path id="Vector_112" d="M310.635 511.121C311.32 510.676 311.516 509.76 311.071 509.074C310.625 508.388 309.709 508.193 309.023 508.638C308.337 509.083 308.142 510 308.587 510.686C309.032 511.371 309.949 511.567 310.635 511.121Z" fill="var(--fill-0, white)"/>
<path id="Vector_113" opacity="0.11" d="M979.225 260.453C980.141 259.859 980.401 258.636 979.807 257.721C979.213 256.806 977.99 256.546 977.075 257.14C976.16 257.733 975.9 258.957 976.493 259.872C977.087 260.787 978.31 261.047 979.225 260.453Z" fill="var(--fill-0, white)"/>
<path id="Vector_114" d="M990.516 266.073C991.202 265.627 991.397 264.711 990.952 264.025C990.507 263.339 989.59 263.144 988.905 263.589C988.219 264.034 988.024 264.951 988.469 265.637C988.914 266.323 989.831 266.518 990.516 266.073Z" fill="var(--fill-0, white)"/>
<path id="Vector_115" d="M1006.56 230.95C1007.25 230.505 1007.44 229.588 1007 228.902C1006.55 228.216 1005.63 228.021 1004.95 228.466C1004.26 228.911 1004.07 229.828 1004.51 230.514C1004.96 231.2 1005.87 231.395 1006.56 230.95Z" fill="var(--fill-0, white)"/>
<path id="Vector_116" d="M935.094 274.968C935.78 274.523 935.975 273.606 935.53 272.92C935.085 272.234 934.168 272.039 933.483 272.484C932.797 272.929 932.602 273.846 933.047 274.532C933.492 275.218 934.409 275.413 935.094 274.968Z" fill="var(--fill-0, white)"/>
<path id="Vector_117" opacity="0.11" d="M906.995 321.447C907.911 320.853 908.171 319.63 907.577 318.715C906.983 317.8 905.76 317.54 904.845 318.134C903.93 318.727 903.67 319.951 904.263 320.866C904.857 321.781 906.08 322.041 906.995 321.447Z" fill="var(--fill-0, white)"/>
<path id="Vector_118" d="M879.441 313.436C879.898 313.14 880.028 312.529 879.731 312.072C879.435 311.615 878.824 311.485 878.367 311.781C877.91 312.078 877.78 312.689 878.076 313.146C878.373 313.603 878.984 313.733 879.441 313.436Z" fill="var(--fill-0, white)"/>
<path id="Vector_119" d="M997.689 294.363C998.146 294.066 998.276 293.455 997.98 292.998C997.683 292.541 997.072 292.411 996.615 292.708C996.158 293.004 996.028 293.615 996.325 294.072C996.621 294.529 997.232 294.659 997.689 294.363Z" fill="var(--fill-0, white)"/>
<path id="Vector_120" d="M1178.22 177.208C1178.68 176.911 1178.81 176.301 1178.51 175.844C1178.22 175.387 1177.61 175.257 1177.15 175.553C1176.69 175.85 1176.56 176.46 1176.86 176.917C1177.16 177.374 1177.77 177.505 1178.22 177.208Z" fill="var(--fill-0, white)"/>
<path id="Vector_121" d="M1239.47 73.9135C1239.92 73.6169 1240.05 73.006 1239.76 72.549C1239.46 72.092 1238.85 71.962 1238.39 72.2586C1237.93 72.5552 1237.8 73.166 1238.1 73.623C1238.4 74.08 1239.01 74.2101 1239.47 73.9135Z" fill="var(--fill-0, white)"/>
<path id="Vector_122" d="M1311 113.404C1311.45 113.107 1311.58 112.496 1311.29 112.039C1310.99 111.582 1310.38 111.452 1309.92 111.749C1309.47 112.045 1309.34 112.656 1309.63 113.113C1309.93 113.57 1310.54 113.7 1311 113.404Z" fill="var(--fill-0, white)"/>
<path id="Vector_123" d="M708.494 452.618C708.951 452.322 709.081 451.711 708.784 451.254C708.488 450.797 707.877 450.667 707.42 450.963C706.963 451.26 706.833 451.871 707.129 452.328C707.426 452.785 708.037 452.915 708.494 452.618Z" fill="var(--fill-0, white)"/>
<path id="Vector_124" opacity="0.11" d="M667.062 415.956C667.519 415.66 667.649 415.049 667.352 414.592C667.056 414.135 666.445 414.005 665.988 414.301C665.531 414.598 665.401 415.209 665.697 415.666C665.994 416.123 666.605 416.253 667.062 415.956Z" fill="var(--fill-0, white)"/>
<path id="Vector_125" opacity="0.11" d="M643.818 458.115C644.275 457.818 644.405 457.207 644.108 456.75C643.812 456.293 643.201 456.163 642.744 456.46C642.287 456.756 642.157 457.367 642.453 457.824C642.75 458.281 643.361 458.411 643.818 458.115Z" fill="var(--fill-0, white)"/>
<path id="Vector_126" opacity="0.11" d="M703.384 490.064C703.841 489.768 703.971 489.157 703.674 488.7C703.378 488.243 702.767 488.113 702.31 488.409C701.853 488.706 701.723 489.317 702.02 489.774C702.316 490.231 702.927 490.361 703.384 490.064Z" fill="var(--fill-0, white)"/>
<path id="Vector_127" opacity="0.11" d="M878.967 329.035C879.424 328.738 879.554 328.127 879.258 327.67C878.961 327.214 878.35 327.083 877.893 327.38C877.436 327.677 877.306 328.287 877.603 328.744C877.899 329.201 878.51 329.331 878.967 329.035Z" fill="var(--fill-0, white)"/>
<path id="Vector_128" opacity="0.11" d="M1015.38 325.249C1015.84 324.952 1015.97 324.341 1015.67 323.884C1015.37 323.427 1014.76 323.297 1014.31 323.594C1013.85 323.89 1013.72 324.501 1014.02 324.958C1014.31 325.415 1014.92 325.545 1015.38 325.249Z" fill="var(--fill-0, white)"/>
<path id="Vector_129" opacity="0.11" d="M1169.01 213.785C1169.46 213.488 1169.59 212.877 1169.3 212.42C1169 211.963 1168.39 211.833 1167.93 212.13C1167.48 212.426 1167.35 213.037 1167.64 213.494C1167.94 213.951 1168.55 214.081 1169.01 213.785Z" fill="var(--fill-0, white)"/>
<path id="Vector_130" opacity="0.3" d="M733.156 407.191C733.613 406.895 733.743 406.284 733.446 405.827C733.15 405.37 732.539 405.24 732.082 405.536C731.625 405.833 731.495 406.444 731.791 406.901C732.088 407.358 732.699 407.488 733.156 407.191Z" fill="var(--fill-0, white)"/>
<path id="Vector_131" d="M894.596 238.872C895.053 238.575 895.183 237.964 894.886 237.507C894.589 237.05 893.979 236.92 893.522 237.217C893.065 237.514 892.935 238.124 893.231 238.581C893.528 239.038 894.139 239.168 894.596 238.872Z" fill="var(--fill-0, white)"/>
<path id="Vector_132" d="M1021.06 154.455C1021.51 154.159 1021.64 153.548 1021.35 153.091C1021.05 152.634 1020.44 152.504 1019.98 152.8C1019.52 153.097 1019.39 153.708 1019.69 154.165C1019.99 154.622 1020.6 154.752 1021.06 154.455Z" fill="var(--fill-0, white)"/>
<path id="Vector_133" d="M887.729 351.603C888.186 351.306 888.316 350.695 888.019 350.238C887.722 349.781 887.112 349.651 886.655 349.948C886.198 350.244 886.067 350.855 886.364 351.312C886.661 351.769 887.272 351.899 887.729 351.603Z" fill="var(--fill-0, white)"/>
<path id="Vector_134" opacity="0.3" d="M829.763 389.219C830.22 388.923 830.35 388.312 830.053 387.855C829.757 387.398 829.146 387.268 828.689 387.564C828.232 387.861 828.102 388.472 828.398 388.929C828.695 389.386 829.306 389.516 829.763 389.219Z" fill="var(--fill-0, white)"/>
<path id="Vector_135" opacity="0.11" d="M728.548 381.937C729.005 381.641 729.135 381.03 728.839 380.573C728.542 380.116 727.931 379.986 727.475 380.283C727.018 380.579 726.887 381.19 727.184 381.647C727.481 382.104 728.091 382.234 728.548 381.937Z" fill="var(--fill-0, white)"/>
<path id="Vector_136" opacity="0.3" d="M922.413 249.071C922.87 248.775 923 248.164 922.703 247.707C922.407 247.25 921.796 247.12 921.339 247.417C920.882 247.713 920.752 248.324 921.049 248.781C921.345 249.238 921.956 249.368 922.413 249.071Z" fill="var(--fill-0, white)"/>
<path id="Vector_137" opacity="0.3" d="M912.03 358.201C912.487 357.904 912.617 357.293 912.32 356.836C912.024 356.379 911.413 356.249 910.956 356.546C910.499 356.843 910.369 357.453 910.665 357.91C910.962 358.367 911.573 358.497 912.03 358.201Z" fill="var(--fill-0, white)"/>
<path id="Vector_138" opacity="0.3" d="M817.195 431.506C817.652 431.209 817.782 430.598 817.486 430.141C817.189 429.684 816.578 429.554 816.121 429.851C815.664 430.147 815.534 430.758 815.831 431.215C816.127 431.672 816.738 431.802 817.195 431.506Z" fill="var(--fill-0, white)"/>
<path id="Vector_139" opacity="0.3" d="M757.176 391.612C757.633 391.315 757.763 390.705 757.467 390.248C757.17 389.791 756.559 389.66 756.102 389.957C755.645 390.254 755.515 390.865 755.812 391.321C756.108 391.778 756.719 391.909 757.176 391.612Z" fill="var(--fill-0, white)"/>
<path id="Vector_140" opacity="0.3" d="M1270.64 54.8629C1271.1 54.5663 1271.23 53.9554 1270.93 53.4985C1270.64 53.0415 1270.03 52.9114 1269.57 53.208C1269.11 53.5045 1268.98 54.1154 1269.28 54.5724C1269.57 55.0294 1270.19 55.1594 1270.64 54.8629Z" fill="var(--fill-0, white)"/>
<path id="Vector_141" opacity="0.11" d="M1115.28 107.427C1115.74 107.131 1115.87 106.52 1115.57 106.063C1115.28 105.606 1114.67 105.476 1114.21 105.773C1113.75 106.069 1113.62 106.68 1113.92 107.137C1114.21 107.594 1114.83 107.724 1115.28 107.427Z" fill="var(--fill-0, white)"/>
<path id="Vector_142" opacity="0.11" d="M1271.39 104.974C1271.85 104.678 1271.98 104.067 1271.68 103.61C1271.38 103.153 1270.77 103.023 1270.32 103.319C1269.86 103.616 1269.73 104.227 1270.03 104.684C1270.32 105.141 1270.93 105.271 1271.39 104.974Z" fill="var(--fill-0, white)"/>
<path id="Vector_143" opacity="0.3" d="M1066.72 248.394C1067.63 247.801 1067.89 246.577 1067.3 245.662C1066.7 244.747 1065.48 244.487 1064.57 245.081C1063.65 245.674 1063.39 246.898 1063.98 247.813C1064.58 248.728 1065.8 248.988 1066.72 248.394Z" fill="var(--fill-0, white)"/>
<path id="Vector_144" opacity="0.11" d="M1099.46 191.845C1100.37 191.251 1100.63 190.028 1100.04 189.113C1099.44 188.198 1098.22 187.937 1097.3 188.531C1096.39 189.125 1096.13 190.348 1096.72 191.263C1097.32 192.178 1098.54 192.439 1099.46 191.845Z" fill="var(--fill-0, white)"/>
<path id="Vector_145" d="M1080.24 163.132C1080.92 162.687 1081.12 161.77 1080.67 161.085C1080.23 160.399 1079.31 160.203 1078.62 160.649C1077.94 161.094 1077.74 162.01 1078.19 162.696C1078.63 163.382 1079.55 163.577 1080.24 163.132Z" fill="var(--fill-0, white)"/>
<path id="Vector_146" d="M1079.53 287.163C1080.21 286.718 1080.41 285.801 1079.96 285.115C1079.52 284.429 1078.6 284.234 1077.91 284.679C1077.23 285.124 1077.03 286.041 1077.48 286.727C1077.92 287.413 1078.84 287.608 1079.53 287.163Z" fill="var(--fill-0, white)"/>
<path id="Vector_147" d="M1365.2 125.307C1365.89 124.862 1366.08 123.945 1365.64 123.259C1365.19 122.574 1364.28 122.378 1363.59 122.824C1362.9 123.269 1362.71 124.185 1363.15 124.871C1363.6 125.557 1364.52 125.752 1365.2 125.307Z" fill="var(--fill-0, white)"/>
<path id="Vector_148" d="M818.618 460.005C819.304 459.56 819.5 458.643 819.054 457.957C818.609 457.271 817.693 457.076 817.007 457.521C816.321 457.966 816.126 458.883 816.571 459.569C817.016 460.255 817.933 460.45 818.618 460.005Z" fill="var(--fill-0, white)"/>
<path id="Vector_149" d="M696.128 512.43C696.814 511.985 697.009 511.068 696.564 510.382C696.119 509.697 695.202 509.501 694.517 509.947C693.831 510.392 693.635 511.308 694.081 511.994C694.526 512.68 695.443 512.875 696.128 512.43Z" fill="var(--fill-0, white)"/>
<path id="Vector_150" d="M660.553 488.443C661.239 487.998 661.434 487.081 660.989 486.395C660.544 485.709 659.627 485.514 658.941 485.959C658.255 486.404 658.06 487.321 658.505 488.007C658.95 488.693 659.867 488.888 660.553 488.443Z" fill="var(--fill-0, white)"/>
<path id="Vector_151" d="M1051.24 205.488C1051.92 205.043 1052.12 204.126 1051.67 203.44C1051.23 202.754 1050.31 202.559 1049.63 203.004C1048.94 203.449 1048.75 204.366 1049.19 205.052C1049.64 205.738 1050.55 205.933 1051.24 205.488Z" fill="var(--fill-0, white)"/>
<path id="Vector_152" d="M946.91 360.275C947.596 359.83 947.791 358.913 947.346 358.227C946.9 357.541 945.984 357.346 945.298 357.791C944.612 358.236 944.417 359.153 944.862 359.839C945.307 360.525 946.224 360.72 946.91 360.275Z" fill="var(--fill-0, white)"/>
<path id="Vector_153" d="M1178.7 260.455C1179.39 260.01 1179.58 259.093 1179.14 258.408C1178.69 257.722 1177.78 257.527 1177.09 257.972C1176.4 258.417 1176.21 259.334 1176.65 260.019C1177.1 260.705 1178.02 260.901 1178.7 260.455Z" fill="var(--fill-0, white)"/>
<path id="Vector_154" d="M1361.6 61.7331C1362.29 61.288 1362.49 60.3711 1362.04 59.6853C1361.6 58.9994 1360.68 58.8042 1359.99 59.2493C1359.31 59.6944 1359.11 60.6112 1359.56 61.2971C1360 61.983 1360.92 62.1782 1361.6 61.7331Z" fill="var(--fill-0, white)"/>
<path id="Vector_155" d="M1351.93 3.28967C1352.61 2.84456 1352.81 1.92775 1352.36 1.24188C1351.92 0.556008 1351 0.36081 1350.31 0.805913C1349.63 1.25102 1349.43 2.16783 1349.88 2.8537C1350.32 3.53957 1351.24 3.73477 1351.93 3.28967Z" fill="var(--fill-0, white)"/>
<path id="Vector_156" opacity="0.3" d="M1149.09 119.619C1150 119.025 1150.26 117.802 1149.67 116.887C1149.07 115.972 1147.85 115.711 1146.94 116.305C1146.02 116.899 1145.76 118.122 1146.35 119.037C1146.95 119.952 1148.17 120.213 1149.09 119.619Z" fill="var(--fill-0, white)"/>
<path id="Vector_157" d="M1110.93 60.8285C1111.85 60.2346 1112.11 59.0114 1111.51 58.0964C1110.92 57.1813 1109.7 56.9209 1108.78 57.5148C1107.86 58.1086 1107.6 59.3318 1108.2 60.2468C1108.79 61.1619 1110.02 61.4223 1110.93 60.8285Z" fill="var(--fill-0, white)"/>
<path id="Vector_158" d="M1203.56 110.163C1204.25 109.718 1204.44 108.801 1204 108.115C1203.55 107.429 1202.64 107.234 1201.95 107.679C1201.26 108.124 1201.07 109.041 1201.51 109.727C1201.96 110.413 1202.88 110.608 1203.56 110.163Z" fill="var(--fill-0, white)"/>
<path id="Vector_159" opacity="0.3" d="M1222.77 51.8035C1223.69 51.2097 1223.95 49.9865 1223.35 49.0715C1222.76 48.1564 1221.54 47.896 1220.62 48.4899C1219.71 49.0837 1219.45 50.3069 1220.04 51.2219C1220.63 52.137 1221.86 52.3974 1222.77 51.8035Z" fill="var(--fill-0, white)"/>
<path id="Vector_160" opacity="0.3" d="M1342.91 57.3969C1343.83 56.8031 1344.09 55.5799 1343.49 54.6648C1342.9 53.7498 1341.68 53.4894 1340.76 54.0832C1339.85 54.6771 1339.59 55.9002 1340.18 56.8153C1340.77 57.7303 1342 57.9907 1342.91 57.3969Z" fill="var(--fill-0, white)"/>
<path id="Vector_161" opacity="0.3" d="M1247.1 121.928C1248.01 121.334 1248.27 120.111 1247.68 119.195C1247.08 118.28 1245.86 118.02 1244.95 118.614C1244.03 119.208 1243.77 120.431 1244.36 121.346C1244.96 122.261 1246.18 122.521 1247.1 121.928Z" fill="var(--fill-0, white)"/>
<path id="Vector_162" opacity="0.3" d="M780.895 444.473C781.81 443.88 782.071 442.656 781.477 441.741C780.883 440.826 779.66 440.566 778.745 441.16C777.83 441.753 777.569 442.977 778.163 443.892C778.757 444.807 779.98 445.067 780.895 444.473Z" fill="var(--fill-0, white)"/>
<path id="Vector_163" opacity="0.3" d="M684.25 442.46C685.165 441.866 685.426 440.643 684.832 439.728C684.238 438.813 683.015 438.553 682.1 439.146C681.185 439.74 680.924 440.963 681.518 441.878C682.112 442.793 683.335 443.054 684.25 442.46Z" fill="var(--fill-0, white)"/>
<path id="Vector_164" opacity="0.11" d="M1292.84 54.5871C1293.75 53.9933 1294.01 52.7701 1293.42 51.855C1292.83 50.94 1291.6 50.6796 1290.69 51.2734C1289.77 51.8672 1289.51 53.0904 1290.11 54.0055C1290.7 54.9205 1291.92 55.1809 1292.84 54.5871Z" fill="var(--fill-0, white)"/>
<path id="Vector_165" opacity="0.3" d="M784.401 337.459C785.316 336.865 785.576 335.642 784.982 334.727C784.389 333.812 783.165 333.551 782.25 334.145C781.335 334.739 781.075 335.962 781.669 336.877C782.262 337.792 783.486 338.053 784.401 337.459Z" fill="var(--fill-0, white)"/>
<path id="Vector_166" opacity="0.11" d="M751.292 335.405C752.207 334.811 752.467 333.588 751.873 332.673C751.279 331.758 750.056 331.497 749.141 332.091C748.226 332.685 747.966 333.908 748.559 334.823C749.153 335.738 750.376 335.999 751.292 335.405Z" fill="var(--fill-0, white)"/>
<path id="Vector_167" opacity="0.3" d="M779.069 392.702C779.984 392.108 780.244 390.885 779.65 389.97C779.056 389.054 777.833 388.794 776.918 389.388C776.003 389.982 775.743 391.205 776.337 392.12C776.93 393.035 778.154 393.295 779.069 392.702Z" fill="var(--fill-0, white)"/>
<path id="Vector_168" d="M830.278 358.283C830.964 357.838 831.159 356.921 830.714 356.236C830.269 355.55 829.352 355.354 828.666 355.8C827.98 356.245 827.785 357.162 828.23 357.847C828.675 358.533 829.592 358.728 830.278 358.283Z" fill="var(--fill-0, white)"/>
</g>
</svg>
