<svg preserveAspectRatio="none" width="100%" height="100%" overflow="visible" style="display: block;" viewBox="0 0 848.974 686.413" fill="none" xmlns="http://www.w3.org/2000/svg">
<g id="Group" style="mix-blend-mode:overlay" opacity="0.7">
<path id="Vector" opacity="0.11" d="M209.574 529.361C210.142 528.992 210.304 528.232 209.935 527.664C209.566 527.095 208.806 526.933 208.238 527.302C207.669 527.671 207.507 528.431 207.876 529C208.245 529.568 209.005 529.73 209.574 529.361Z" fill="var(--fill-0, white)"/>
<path id="Vector_2" d="M216.583 532.852C217.009 532.576 217.13 532.006 216.854 531.58C216.577 531.153 216.007 531.032 215.581 531.309C215.155 531.585 215.033 532.155 215.31 532.582C215.587 533.008 216.157 533.129 216.583 532.852Z" fill="var(--fill-0, white)"/>
<path id="Vector_3" d="M226.554 511.031C226.98 510.754 227.102 510.184 226.825 509.758C226.548 509.332 225.979 509.21 225.552 509.487C225.126 509.764 225.005 510.333 225.281 510.76C225.558 511.186 226.128 511.307 226.554 511.031Z" fill="var(--fill-0, white)"/>
<path id="Vector_4" d="M182.154 538.378C182.58 538.101 182.701 537.531 182.425 537.105C182.148 536.679 181.578 536.557 181.152 536.834C180.726 537.111 180.604 537.68 180.881 538.107C181.158 538.533 181.728 538.654 182.154 538.378Z" fill="var(--fill-0, white)"/>
<path id="Vector_5" opacity="0.11" d="M164.694 567.257C165.263 566.888 165.425 566.128 165.056 565.559C164.687 564.991 163.927 564.829 163.358 565.198C162.79 565.567 162.628 566.327 162.997 566.895C163.366 567.464 164.126 567.625 164.694 567.257Z" fill="var(--fill-0, white)"/>
<path id="Vector_6" d="M147.58 562.278C147.864 562.094 147.945 561.714 147.761 561.43C147.576 561.146 147.197 561.065 146.913 561.25C146.629 561.434 146.548 561.814 146.732 562.098C146.916 562.382 147.296 562.462 147.58 562.278Z" fill="var(--fill-0, white)"/>
<path id="Vector_7" d="M221.045 550.429C221.329 550.245 221.41 549.865 221.225 549.581C221.041 549.297 220.661 549.216 220.377 549.4C220.093 549.585 220.012 549.964 220.197 550.248C220.381 550.532 220.761 550.613 221.045 550.429Z" fill="var(--fill-0, white)"/>
<path id="Vector_8" d="M333.212 477.641C333.496 477.457 333.577 477.077 333.393 476.793C333.208 476.509 332.829 476.429 332.545 476.613C332.261 476.797 332.18 477.177 332.364 477.461C332.548 477.745 332.928 477.826 333.212 477.641Z" fill="var(--fill-0, white)"/>
<path id="Vector_9" d="M371.256 413.463C371.54 413.279 371.621 412.899 371.437 412.615C371.252 412.331 370.873 412.25 370.589 412.435C370.305 412.619 370.224 412.999 370.408 413.283C370.593 413.567 370.972 413.648 371.256 413.463Z" fill="var(--fill-0, white)"/>
<path id="Vector_10" d="M415.701 438C415.985 437.815 416.066 437.436 415.882 437.152C415.697 436.868 415.318 436.787 415.034 436.971C414.75 437.156 414.669 437.535 414.853 437.819C415.037 438.103 415.417 438.184 415.701 438Z" fill="var(--fill-0, white)"/>
<path id="Vector_11" d="M41.3646 648.753C41.6486 648.568 41.7294 648.189 41.5451 647.905C41.3608 647.621 40.9811 647.54 40.6971 647.724C40.4131 647.908 40.3323 648.288 40.5166 648.572C40.7009 648.856 41.0805 648.937 41.3646 648.753Z" fill="var(--fill-0, white)"/>
<path id="Vector_12" opacity="0.11" d="M15.6269 625.977C15.9109 625.792 15.9917 625.413 15.8074 625.129C15.6231 624.845 15.2434 624.764 14.9594 624.948C14.6754 625.132 14.5946 625.512 14.7789 625.796C14.9632 626.08 15.3429 626.161 15.6269 625.977Z" fill="var(--fill-0, white)"/>
<path id="Vector_13" opacity="0.11" d="M1.18171 652.166C1.46573 651.981 1.54657 651.602 1.36225 651.318C1.17793 651.034 0.798282 650.953 0.514263 651.137C0.230243 651.322 0.149405 651.701 0.333723 651.985C0.51804 652.269 0.897689 652.35 1.18171 652.166Z" fill="var(--fill-0, white)"/>
<path id="Vector_14" opacity="0.11" d="M38.1939 672.019C38.4779 671.835 38.5587 671.455 38.3744 671.171C38.1901 670.887 37.8105 670.806 37.5264 670.99C37.2424 671.175 37.1616 671.554 37.3459 671.838C37.5302 672.122 37.9099 672.203 38.1939 672.019Z" fill="var(--fill-0, white)"/>
<path id="Vector_15" opacity="0.11" d="M147.283 571.973C147.567 571.789 147.648 571.409 147.464 571.125C147.28 570.841 146.9 570.76 146.616 570.945C146.332 571.129 146.251 571.509 146.435 571.793C146.62 572.077 146.999 572.157 147.283 571.973Z" fill="var(--fill-0, white)"/>
<path id="Vector_16" opacity="0.11" d="M232.046 569.62C232.33 569.435 232.411 569.056 232.227 568.772C232.042 568.488 231.663 568.407 231.379 568.591C231.095 568.775 231.014 569.155 231.198 569.439C231.383 569.723 231.762 569.804 232.046 569.62Z" fill="var(--fill-0, white)"/>
<path id="Vector_17" opacity="0.11" d="M327.483 500.367C327.767 500.183 327.847 499.803 327.663 499.519C327.479 499.235 327.099 499.154 326.815 499.339C326.531 499.523 326.45 499.903 326.635 500.187C326.819 500.471 327.199 500.551 327.483 500.367Z" fill="var(--fill-0, white)"/>
<path id="Vector_18" opacity="0.3" d="M56.6913 620.529C56.9753 620.344 57.0561 619.965 56.8718 619.681C56.6875 619.397 56.3078 619.316 56.0238 619.5C55.7398 619.684 55.659 620.064 55.8433 620.348C56.0276 620.632 56.4073 620.713 56.6913 620.529Z" fill="var(--fill-0, white)"/>
<path id="Vector_19" d="M156.996 515.951C157.28 515.767 157.361 515.387 157.176 515.103C156.992 514.819 156.612 514.738 156.328 514.923C156.044 515.107 155.964 515.487 156.148 515.771C156.332 516.055 156.712 516.135 156.996 515.951Z" fill="var(--fill-0, white)"/>
<path id="Vector_20" d="M235.562 463.503C235.846 463.319 235.927 462.939 235.743 462.655C235.558 462.371 235.179 462.29 234.895 462.474C234.611 462.659 234.53 463.038 234.714 463.322C234.898 463.606 235.278 463.687 235.562 463.503Z" fill="var(--fill-0, white)"/>
<path id="Vector_21" d="M152.728 585.99C153.012 585.805 153.093 585.426 152.908 585.142C152.724 584.858 152.344 584.777 152.06 584.961C151.776 585.145 151.696 585.525 151.88 585.809C152.064 586.093 152.444 586.174 152.728 585.99Z" fill="var(--fill-0, white)"/>
<path id="Vector_22" opacity="0.3" d="M116.713 609.364C116.997 609.18 117.077 608.8 116.893 608.516C116.709 608.232 116.329 608.151 116.045 608.336C115.761 608.52 115.68 608.899 115.865 609.183C116.049 609.468 116.428 609.548 116.713 609.364Z" fill="var(--fill-0, white)"/>
<path id="Vector_23" opacity="0.11" d="M53.8275 604.841C54.1115 604.657 54.1924 604.277 54.008 603.993C53.8237 603.709 53.444 603.628 53.16 603.813C52.876 603.997 52.7952 604.377 52.9795 604.661C53.1638 604.945 53.5435 605.026 53.8275 604.841Z" fill="var(--fill-0, white)"/>
<path id="Vector_24" opacity="0.3" d="M174.273 522.289C174.557 522.105 174.638 521.725 174.454 521.441C174.269 521.157 173.89 521.076 173.606 521.26C173.322 521.445 173.241 521.824 173.425 522.108C173.609 522.392 173.989 522.473 174.273 522.289Z" fill="var(--fill-0, white)"/>
<path id="Vector_25" opacity="0.3" d="M167.823 590.09C168.107 589.906 168.188 589.526 168.004 589.242C167.82 588.958 167.44 588.877 167.156 589.062C166.872 589.246 166.791 589.626 166.975 589.91C167.16 590.194 167.539 590.275 167.823 590.09Z" fill="var(--fill-0, white)"/>
<path id="Vector_26" opacity="0.3" d="M108.901 635.635C109.185 635.451 109.266 635.071 109.081 634.787C108.897 634.503 108.517 634.422 108.233 634.607C107.949 634.791 107.869 635.171 108.053 635.455C108.237 635.739 108.617 635.819 108.901 635.635Z" fill="var(--fill-0, white)"/>
<path id="Vector_27" opacity="0.3" d="M71.6144 610.849C71.8984 610.665 71.9792 610.285 71.7949 610.001C71.6106 609.717 71.2309 609.636 70.9469 609.821C70.6629 610.005 70.5821 610.385 70.7664 610.669C70.9507 610.953 71.3304 611.034 71.6144 610.849Z" fill="var(--fill-0, white)"/>
<path id="Vector_28" opacity="0.3" d="M390.63 401.626C390.914 401.441 390.995 401.062 390.811 400.778C390.626 400.494 390.247 400.413 389.963 400.597C389.679 400.781 389.598 401.161 389.782 401.445C389.967 401.729 390.346 401.81 390.63 401.626Z" fill="var(--fill-0, white)"/>
<path id="Vector_29" opacity="0.11" d="M294.105 434.284C294.389 434.1 294.47 433.72 294.286 433.436C294.101 433.152 293.722 433.072 293.438 433.256C293.154 433.44 293.073 433.82 293.257 434.104C293.441 434.388 293.821 434.469 294.105 434.284Z" fill="var(--fill-0, white)"/>
<path id="Vector_30" opacity="0.11" d="M391.095 432.762C391.379 432.578 391.459 432.198 391.275 431.914C391.091 431.63 390.711 431.55 390.427 431.734C390.143 431.918 390.062 432.298 390.247 432.582C390.431 432.866 390.811 432.947 391.095 432.762Z" fill="var(--fill-0, white)"/>
<path id="Vector_31" opacity="0.3" d="M263.93 521.868C264.499 521.499 264.661 520.739 264.292 520.171C263.923 519.602 263.163 519.44 262.594 519.809C262.026 520.178 261.864 520.938 262.233 521.507C262.602 522.075 263.362 522.237 263.93 521.868Z" fill="var(--fill-0, white)"/>
<path id="Vector_32" opacity="0.11" d="M284.273 486.733C284.842 486.364 285.004 485.604 284.635 485.035C284.266 484.467 283.506 484.305 282.937 484.674C282.369 485.043 282.207 485.803 282.576 486.371C282.945 486.94 283.705 487.102 284.273 486.733Z" fill="var(--fill-0, white)"/>
<path id="Vector_33" d="M272.333 468.893C272.759 468.616 272.881 468.046 272.604 467.62C272.327 467.194 271.758 467.072 271.331 467.349C270.905 467.626 270.784 468.195 271.06 468.622C271.337 469.048 271.907 469.169 272.333 468.893Z" fill="var(--fill-0, white)"/>
<path id="Vector_34" d="M271.888 545.955C272.314 545.678 272.436 545.109 272.159 544.682C271.882 544.256 271.313 544.135 270.886 544.411C270.46 544.688 270.339 545.258 270.615 545.684C270.892 546.11 271.462 546.232 271.888 545.955Z" fill="var(--fill-0, white)"/>
<path id="Vector_35" d="M449.379 445.392C449.805 445.115 449.927 444.546 449.65 444.119C449.373 443.693 448.804 443.572 448.377 443.848C447.951 444.125 447.83 444.695 448.106 445.121C448.383 445.547 448.953 445.669 449.379 445.392Z" fill="var(--fill-0, white)"/>
<path id="Vector_36" d="M109.787 653.339C110.213 653.063 110.334 652.493 110.058 652.067C109.781 651.641 109.211 651.519 108.785 651.796C108.359 652.072 108.238 652.642 108.514 653.069C108.791 653.495 109.361 653.616 109.787 653.339Z" fill="var(--fill-0, white)"/>
<path id="Vector_37" d="M33.6854 685.913C34.1117 685.636 34.233 685.066 33.9563 684.64C33.6797 684.214 33.1099 684.092 32.6836 684.369C32.2574 684.646 32.136 685.215 32.4127 685.642C32.6893 686.068 33.2591 686.189 33.6854 685.913Z" fill="var(--fill-0, white)"/>
<path id="Vector_38" d="M11.5821 671.009C12.0084 670.732 12.1297 670.162 11.8531 669.736C11.5764 669.31 11.0066 669.188 10.5803 669.465C10.1541 669.742 10.0328 670.312 10.3094 670.738C10.586 671.164 11.1559 671.285 11.5821 671.009Z" fill="var(--fill-0, white)"/>
<path id="Vector_39" d="M254.314 495.211C254.741 494.935 254.862 494.365 254.585 493.939C254.309 493.512 253.739 493.391 253.313 493.668C252.886 493.944 252.765 494.514 253.042 494.94C253.318 495.367 253.888 495.488 254.314 495.211Z" fill="var(--fill-0, white)"/>
<path id="Vector_40" d="M189.499 591.38C189.925 591.104 190.046 590.534 189.77 590.108C189.493 589.681 188.923 589.56 188.497 589.837C188.071 590.113 187.949 590.683 188.226 591.11C188.503 591.536 189.072 591.657 189.499 591.38Z" fill="var(--fill-0, white)"/>
<path id="Vector_41" d="M333.511 529.365C333.938 529.088 334.059 528.518 333.782 528.092C333.506 527.666 332.936 527.545 332.51 527.821C332.083 528.098 331.962 528.668 332.239 529.094C332.515 529.52 333.085 529.641 333.511 529.365Z" fill="var(--fill-0, white)"/>
<path id="Vector_42" d="M447.144 405.895C447.571 405.619 447.692 405.049 447.415 404.623C447.139 404.196 446.569 404.075 446.143 404.352C445.716 404.628 445.595 405.198 445.872 405.625C446.148 406.051 446.718 406.172 447.144 405.895Z" fill="var(--fill-0, white)"/>
<path id="Vector_43" d="M441.133 369.585C441.559 369.308 441.681 368.739 441.404 368.312C441.128 367.886 440.558 367.765 440.131 368.041C439.705 368.318 439.584 368.888 439.86 369.314C440.137 369.74 440.707 369.862 441.133 369.585Z" fill="var(--fill-0, white)"/>
<path id="Vector_44" opacity="0.3" d="M315.116 441.861C315.685 441.492 315.847 440.732 315.478 440.163C315.109 439.595 314.349 439.433 313.78 439.802C313.212 440.171 313.05 440.931 313.419 441.499C313.788 442.068 314.548 442.23 315.116 441.861Z" fill="var(--fill-0, white)"/>
<path id="Vector_45" d="M291.403 405.333C291.971 404.964 292.133 404.204 291.764 403.635C291.395 403.067 290.635 402.905 290.067 403.274C289.498 403.643 289.336 404.403 289.705 404.971C290.074 405.54 290.834 405.702 291.403 405.333Z" fill="var(--fill-0, white)"/>
<path id="Vector_46" d="M348.952 435.984C349.379 435.708 349.5 435.138 349.223 434.712C348.947 434.285 348.377 434.164 347.951 434.441C347.524 434.717 347.403 435.287 347.68 435.713C347.956 436.14 348.526 436.261 348.952 435.984Z" fill="var(--fill-0, white)"/>
<path id="Vector_47" opacity="0.3" d="M360.888 399.725C361.457 399.356 361.619 398.596 361.25 398.027C360.881 397.459 360.121 397.297 359.552 397.666C358.984 398.035 358.822 398.795 359.191 399.363C359.56 399.932 360.32 400.094 360.888 399.725Z" fill="var(--fill-0, white)"/>
<path id="Vector_48" opacity="0.3" d="M435.53 403.2C436.098 402.831 436.26 402.071 435.891 401.503C435.522 400.934 434.762 400.772 434.194 401.141C433.625 401.51 433.463 402.27 433.832 402.839C434.201 403.407 434.961 403.569 435.53 403.2Z" fill="var(--fill-0, white)"/>
<path id="Vector_49" opacity="0.3" d="M375.998 443.292C376.567 442.923 376.728 442.163 376.359 441.594C375.99 441.026 375.23 440.864 374.662 441.233C374.093 441.602 373.932 442.362 374.301 442.93C374.669 443.499 375.429 443.661 375.998 443.292Z" fill="var(--fill-0, white)"/>
<path id="Vector_50" opacity="0.3" d="M86.3482 643.692C86.9168 643.323 87.0785 642.563 86.7096 641.994C86.3406 641.426 85.5807 641.264 85.0122 641.633C84.4436 642.002 84.2818 642.762 84.6508 643.33C85.0197 643.899 85.7797 644.06 86.3482 643.692Z" fill="var(--fill-0, white)"/>
<path id="Vector_51" opacity="0.3" d="M26.3046 642.44C26.8732 642.071 27.0349 641.311 26.666 640.742C26.297 640.174 25.5371 640.012 24.9686 640.381C24.4 640.75 24.2382 641.51 24.6072 642.078C24.9761 642.647 25.7361 642.809 26.3046 642.44Z" fill="var(--fill-0, white)"/>
<path id="Vector_52" opacity="0.11" d="M404.418 401.456C404.986 401.087 405.148 400.327 404.779 399.759C404.41 399.19 403.65 399.028 403.082 399.397C402.513 399.766 402.351 400.526 402.72 401.095C403.089 401.663 403.849 401.825 404.418 401.456Z" fill="var(--fill-0, white)"/>
<path id="Vector_53" opacity="0.3" d="M88.5272 577.201C89.0957 576.832 89.2575 576.072 88.8886 575.503C88.5196 574.935 87.7596 574.773 87.1911 575.142C86.6226 575.511 86.4608 576.271 86.8297 576.839C87.1987 577.408 87.9587 577.57 88.5272 577.201Z" fill="var(--fill-0, white)"/>
<path id="Vector_54" opacity="0.11" d="M67.9565 575.927C68.525 575.558 68.6867 574.798 68.3178 574.229C67.9488 573.661 67.1889 573.499 66.6204 573.868C66.0518 574.237 65.89 574.997 66.259 575.565C66.6279 576.134 67.3879 576.296 67.9565 575.927Z" fill="var(--fill-0, white)"/>
<path id="Vector_55" opacity="0.3" d="M85.2144 611.525C85.7829 611.156 85.9447 610.396 85.5757 609.828C85.2068 609.259 84.4468 609.097 83.8783 609.466C83.3098 609.835 83.148 610.595 83.5169 611.164C83.8859 611.732 84.6458 611.894 85.2144 611.525Z" fill="var(--fill-0, white)"/>
<path id="Vector_56" d="M117.032 590.145C117.458 589.869 117.579 589.299 117.303 588.873C117.026 588.446 116.456 588.325 116.03 588.602C115.604 588.878 115.482 589.448 115.759 589.874C116.036 590.301 116.605 590.422 117.032 590.145Z" fill="var(--fill-0, white)"/>
<path id="Vector_57" opacity="0.11" d="M285.537 256.774C286.106 256.405 286.268 255.645 285.899 255.076C285.53 254.508 284.77 254.346 284.201 254.715C283.633 255.084 283.471 255.844 283.84 256.412C284.209 256.981 284.969 257.143 285.537 256.774Z" fill="var(--fill-0, white)"/>
<path id="Vector_58" d="M292.549 260.264C292.975 259.988 293.096 259.418 292.82 258.992C292.543 258.565 291.973 258.444 291.547 258.721C291.121 258.997 290.999 259.567 291.276 259.993C291.553 260.42 292.123 260.541 292.549 260.264Z" fill="var(--fill-0, white)"/>
<path id="Vector_59" d="M302.52 238.443C302.946 238.166 303.068 237.596 302.791 237.17C302.515 236.744 301.945 236.622 301.518 236.899C301.092 237.176 300.971 237.745 301.247 238.172C301.524 238.598 302.094 238.719 302.52 238.443Z" fill="var(--fill-0, white)"/>
<path id="Vector_60" d="M258.119 265.791C258.546 265.514 258.667 264.945 258.39 264.518C258.114 264.092 257.544 263.971 257.117 264.247C256.691 264.524 256.57 265.094 256.847 265.52C257.123 265.946 257.693 266.068 258.119 265.791Z" fill="var(--fill-0, white)"/>
<path id="Vector_61" opacity="0.11" d="M240.66 294.67C241.229 294.301 241.39 293.541 241.021 292.972C240.653 292.404 239.893 292.242 239.324 292.611C238.756 292.98 238.594 293.74 238.963 294.308C239.332 294.877 240.092 295.039 240.66 294.67Z" fill="var(--fill-0, white)"/>
<path id="Vector_62" d="M223.543 289.694C223.827 289.51 223.907 289.13 223.723 288.846C223.539 288.562 223.159 288.481 222.875 288.666C222.591 288.85 222.51 289.23 222.695 289.514C222.879 289.798 223.259 289.878 223.543 289.694Z" fill="var(--fill-0, white)"/>
<path id="Vector_63" d="M297.007 277.845C297.291 277.661 297.372 277.281 297.188 276.997C297.003 276.713 296.624 276.633 296.34 276.817C296.056 277.001 295.975 277.381 296.159 277.665C296.343 277.949 296.723 278.03 297.007 277.845Z" fill="var(--fill-0, white)"/>
<path id="Vector_64" d="M409.175 205.056C409.459 204.871 409.54 204.492 409.356 204.208C409.171 203.924 408.792 203.843 408.508 204.027C408.224 204.211 408.143 204.591 408.327 204.875C408.512 205.159 408.891 205.24 409.175 205.056Z" fill="var(--fill-0, white)"/>
<path id="Vector_65" d="M447.225 140.878C447.509 140.694 447.59 140.314 447.406 140.03C447.221 139.746 446.842 139.666 446.558 139.85C446.274 140.034 446.193 140.414 446.377 140.698C446.562 140.982 446.941 141.063 447.225 140.878Z" fill="var(--fill-0, white)"/>
<path id="Vector_66" d="M491.668 165.416C491.952 165.232 492.032 164.852 491.848 164.568C491.664 164.284 491.284 164.203 491 164.388C490.716 164.572 490.635 164.952 490.82 165.236C491.004 165.52 491.383 165.601 491.668 165.416Z" fill="var(--fill-0, white)"/>
<path id="Vector_67" d="M117.332 376.166C117.616 375.982 117.697 375.602 117.513 375.318C117.328 375.034 116.949 374.953 116.665 375.138C116.381 375.322 116.3 375.702 116.484 375.986C116.668 376.27 117.048 376.35 117.332 376.166Z" fill="var(--fill-0, white)"/>
<path id="Vector_68" opacity="0.11" d="M91.586 353.391C91.87 353.206 91.9508 352.827 91.7665 352.543C91.5822 352.258 91.2026 352.178 90.9185 352.362C90.6345 352.546 90.5537 352.926 90.738 353.21C90.9223 353.494 91.302 353.575 91.586 353.391Z" fill="var(--fill-0, white)"/>
<path id="Vector_69" opacity="0.11" d="M77.142 379.582C77.426 379.398 77.5069 379.018 77.3226 378.734C77.1383 378.45 76.7586 378.369 76.4746 378.554C76.1905 378.738 76.1097 379.118 76.294 379.402C76.4784 379.686 76.858 379.766 77.142 379.582Z" fill="var(--fill-0, white)"/>
<path id="Vector_70" opacity="0.11" d="M114.157 399.432C114.441 399.248 114.522 398.868 114.338 398.584C114.154 398.3 113.774 398.219 113.49 398.403C113.206 398.588 113.125 398.967 113.309 399.251C113.494 399.535 113.873 399.616 114.157 399.432Z" fill="var(--fill-0, white)"/>
<path id="Vector_71" opacity="0.11" d="M223.25 299.385C223.534 299.2 223.614 298.821 223.43 298.537C223.246 298.253 222.866 298.172 222.582 298.356C222.298 298.54 222.217 298.92 222.402 299.204C222.586 299.488 222.966 299.569 223.25 299.385Z" fill="var(--fill-0, white)"/>
<path id="Vector_72" opacity="0.11" d="M308.008 297.033C308.292 296.849 308.372 296.469 308.188 296.185C308.004 295.901 307.624 295.82 307.34 296.005C307.056 296.189 306.975 296.569 307.16 296.853C307.344 297.137 307.724 297.218 308.008 297.033Z" fill="var(--fill-0, white)"/>
<path id="Vector_73" opacity="0.11" d="M403.45 227.78C403.734 227.596 403.815 227.216 403.631 226.932C403.446 226.648 403.067 226.568 402.783 226.752C402.499 226.936 402.418 227.316 402.602 227.6C402.786 227.884 403.166 227.965 403.45 227.78Z" fill="var(--fill-0, white)"/>
<path id="Vector_74" opacity="0.3" d="M132.652 347.944C132.936 347.76 133.017 347.38 132.832 347.096C132.648 346.812 132.268 346.732 131.984 346.916C131.7 347.1 131.619 347.48 131.804 347.764C131.988 348.048 132.368 348.129 132.652 347.944Z" fill="var(--fill-0, white)"/>
<path id="Vector_75" d="M232.959 243.364C233.243 243.18 233.324 242.8 233.14 242.516C232.956 242.232 232.576 242.152 232.292 242.336C232.008 242.52 231.927 242.9 232.111 243.184C232.296 243.468 232.675 243.549 232.959 243.364Z" fill="var(--fill-0, white)"/>
<path id="Vector_76" d="M311.523 190.917C311.807 190.733 311.888 190.353 311.704 190.069C311.519 189.785 311.14 189.705 310.856 189.889C310.572 190.073 310.491 190.453 310.675 190.737C310.859 191.021 311.239 191.102 311.523 190.917Z" fill="var(--fill-0, white)"/>
<path id="Vector_77" d="M228.689 313.405C228.973 313.221 229.053 312.841 228.869 312.557C228.685 312.273 228.305 312.192 228.021 312.376C227.737 312.561 227.656 312.94 227.841 313.224C228.025 313.508 228.405 313.589 228.689 313.405Z" fill="var(--fill-0, white)"/>
<path id="Vector_78" opacity="0.3" d="M192.674 336.777C192.958 336.593 193.039 336.213 192.854 335.929C192.67 335.645 192.291 335.564 192.006 335.749C191.722 335.933 191.642 336.313 191.826 336.597C192.01 336.881 192.39 336.961 192.674 336.777Z" fill="var(--fill-0, white)"/>
<path id="Vector_79" opacity="0.11" d="M129.788 332.256C130.072 332.072 130.153 331.692 129.969 331.408C129.785 331.124 129.405 331.043 129.121 331.227C128.837 331.412 128.756 331.791 128.94 332.075C129.125 332.36 129.504 332.44 129.788 332.256Z" fill="var(--fill-0, white)"/>
<path id="Vector_80" opacity="0.3" d="M250.238 249.703C250.523 249.519 250.603 249.139 250.419 248.855C250.235 248.571 249.855 248.49 249.571 248.674C249.287 248.859 249.206 249.238 249.39 249.522C249.575 249.806 249.954 249.887 250.238 249.703Z" fill="var(--fill-0, white)"/>
<path id="Vector_81" opacity="0.3" d="M243.786 317.505C244.07 317.321 244.151 316.941 243.967 316.657C243.783 316.373 243.403 316.292 243.119 316.477C242.835 316.661 242.754 317.041 242.938 317.325C243.123 317.609 243.502 317.69 243.786 317.505Z" fill="var(--fill-0, white)"/>
<path id="Vector_82" opacity="0.3" d="M184.866 363.049C185.15 362.865 185.231 362.485 185.047 362.201C184.862 361.917 184.483 361.837 184.199 362.021C183.915 362.205 183.834 362.585 184.018 362.869C184.202 363.153 184.582 363.234 184.866 363.049Z" fill="var(--fill-0, white)"/>
<path id="Vector_83" opacity="0.3" d="M147.582 338.262C147.866 338.078 147.947 337.698 147.763 337.414C147.578 337.13 147.199 337.049 146.915 337.234C146.631 337.418 146.55 337.798 146.734 338.082C146.919 338.366 147.298 338.446 147.582 338.262Z" fill="var(--fill-0, white)"/>
<path id="Vector_84" opacity="0.3" d="M466.596 129.039C466.88 128.855 466.96 128.475 466.776 128.191C466.592 127.907 466.212 127.827 465.928 128.011C465.644 128.195 465.563 128.575 465.748 128.859C465.932 129.143 466.312 129.224 466.596 129.039Z" fill="var(--fill-0, white)"/>
<path id="Vector_85" opacity="0.11" d="M370.069 161.701C370.354 161.517 370.434 161.137 370.25 160.853C370.066 160.569 369.686 160.488 369.402 160.673C369.118 160.857 369.037 161.237 369.221 161.521C369.406 161.805 369.785 161.886 370.069 161.701Z" fill="var(--fill-0, white)"/>
<path id="Vector_86" opacity="0.11" d="M467.058 160.175C467.342 159.991 467.423 159.611 467.239 159.327C467.054 159.043 466.675 158.962 466.391 159.147C466.107 159.331 466.026 159.711 466.21 159.995C466.395 160.279 466.774 160.359 467.058 160.175Z" fill="var(--fill-0, white)"/>
<path id="Vector_87" opacity="0.3" d="M339.891 249.284C340.459 248.915 340.621 248.155 340.252 247.587C339.883 247.018 339.123 246.856 338.555 247.225C337.986 247.594 337.824 248.354 338.193 248.923C338.562 249.491 339.322 249.653 339.891 249.284Z" fill="var(--fill-0, white)"/>
<path id="Vector_88" opacity="0.11" d="M360.236 214.148C360.805 213.78 360.966 213.02 360.597 212.451C360.228 211.883 359.468 211.721 358.9 212.09C358.331 212.459 358.17 213.219 358.539 213.787C358.907 214.356 359.667 214.517 360.236 214.148Z" fill="var(--fill-0, white)"/>
<path id="Vector_89" d="M348.293 196.306C348.719 196.029 348.84 195.459 348.563 195.033C348.287 194.607 347.717 194.485 347.291 194.762C346.864 195.039 346.743 195.609 347.02 196.035C347.296 196.461 347.866 196.582 348.293 196.306Z" fill="var(--fill-0, white)"/>
<path id="Vector_90" d="M347.852 273.368C348.278 273.092 348.399 272.522 348.123 272.096C347.846 271.669 347.276 271.548 346.85 271.825C346.424 272.101 346.302 272.671 346.579 273.097C346.855 273.524 347.425 273.645 347.852 273.368Z" fill="var(--fill-0, white)"/>
<path id="Vector_91" d="M525.345 172.805C525.771 172.529 525.892 171.959 525.616 171.532C525.339 171.106 524.769 170.985 524.343 171.262C523.917 171.538 523.795 172.108 524.072 172.534C524.349 172.961 524.918 173.082 525.345 172.805Z" fill="var(--fill-0, white)"/>
<path id="Vector_92" d="M185.752 380.755C186.178 380.479 186.299 379.909 186.023 379.482C185.746 379.056 185.176 378.935 184.75 379.211C184.324 379.488 184.202 380.058 184.479 380.484C184.756 380.91 185.325 381.032 185.752 380.755Z" fill="var(--fill-0, white)"/>
<path id="Vector_93" d="M109.652 413.328C110.079 413.051 110.2 412.481 109.923 412.055C109.647 411.629 109.077 411.507 108.651 411.784C108.224 412.061 108.103 412.63 108.38 413.057C108.656 413.483 109.226 413.604 109.652 413.328Z" fill="var(--fill-0, white)"/>
<path id="Vector_94" d="M87.5423 398.426C87.9685 398.149 88.0898 397.579 87.8132 397.153C87.5366 396.727 86.9667 396.605 86.5405 396.882C86.1142 397.159 85.9929 397.728 86.2695 398.155C86.5462 398.581 87.116 398.702 87.5423 398.426Z" fill="var(--fill-0, white)"/>
<path id="Vector_95" d="M330.279 222.622C330.705 222.345 330.826 221.775 330.55 221.349C330.273 220.923 329.703 220.801 329.277 221.078C328.851 221.355 328.73 221.925 329.006 222.351C329.283 222.777 329.853 222.898 330.279 222.622Z" fill="var(--fill-0, white)"/>
<path id="Vector_96" d="M265.462 318.794C265.888 318.517 266.01 317.947 265.733 317.521C265.456 317.095 264.887 316.973 264.46 317.25C264.034 317.527 263.913 318.096 264.189 318.523C264.466 318.949 265.036 319.07 265.462 318.794Z" fill="var(--fill-0, white)"/>
<path id="Vector_97" d="M409.473 256.778C409.899 256.502 410.02 255.932 409.744 255.506C409.467 255.079 408.897 254.958 408.471 255.235C408.045 255.511 407.923 256.081 408.2 256.507C408.477 256.934 409.046 257.055 409.473 256.778Z" fill="var(--fill-0, white)"/>
<path id="Vector_98" d="M523.107 133.311C523.533 133.034 523.655 132.464 523.378 132.038C523.101 131.612 522.532 131.491 522.105 131.767C521.679 132.044 521.558 132.614 521.834 133.04C522.111 133.466 522.681 133.588 523.107 133.311Z" fill="var(--fill-0, white)"/>
<path id="Vector_99" d="M517.096 96.9996C517.522 96.7229 517.644 96.1531 517.367 95.7268C517.091 95.3006 516.521 95.1792 516.094 95.4559C515.668 95.7325 515.547 96.3023 515.824 96.7286C516.1 97.1549 516.67 97.2762 517.096 96.9996Z" fill="var(--fill-0, white)"/>
<path id="Vector_100" opacity="0.3" d="M391.078 169.274C391.646 168.905 391.808 168.145 391.439 167.577C391.07 167.008 390.31 166.846 389.742 167.215C389.173 167.584 389.011 168.344 389.38 168.913C389.749 169.481 390.509 169.643 391.078 169.274Z" fill="var(--fill-0, white)"/>
<path id="Vector_101" d="M367.364 132.747C367.932 132.378 368.094 131.618 367.725 131.049C367.356 130.481 366.596 130.319 366.028 130.688C365.459 131.057 365.297 131.817 365.666 132.386C366.035 132.954 366.795 133.116 367.364 132.747Z" fill="var(--fill-0, white)"/>
<path id="Vector_102" d="M424.921 163.4C425.347 163.124 425.469 162.554 425.192 162.128C424.915 161.701 424.346 161.58 423.919 161.857C423.493 162.133 423.372 162.703 423.648 163.129C423.925 163.556 424.495 163.677 424.921 163.4Z" fill="var(--fill-0, white)"/>
<path id="Vector_103" opacity="0.3" d="M436.852 127.138C437.42 126.769 437.582 126.009 437.213 125.44C436.844 124.872 436.084 124.71 435.516 125.079C434.947 125.448 434.785 126.208 435.154 126.777C435.523 127.345 436.283 127.507 436.852 127.138Z" fill="var(--fill-0, white)"/>
<path id="Vector_104" opacity="0.3" d="M511.495 130.614C512.063 130.245 512.225 129.485 511.856 128.917C511.487 128.348 510.727 128.186 510.159 128.555C509.59 128.924 509.429 129.684 509.798 130.253C510.166 130.821 510.926 130.983 511.495 130.614Z" fill="var(--fill-0, white)"/>
<path id="Vector_105" opacity="0.3" d="M451.96 170.709C452.528 170.34 452.69 169.58 452.321 169.012C451.952 168.443 451.192 168.282 450.624 168.651C450.055 169.02 449.893 169.78 450.262 170.348C450.631 170.917 451.391 171.078 451.96 170.709Z" fill="var(--fill-0, white)"/>
<path id="Vector_106" opacity="0.3" d="M162.314 371.105C162.882 370.736 163.044 369.976 162.675 369.408C162.306 368.839 161.546 368.678 160.978 369.046C160.409 369.415 160.247 370.175 160.616 370.744C160.985 371.312 161.745 371.474 162.314 371.105Z" fill="var(--fill-0, white)"/>
<path id="Vector_107" opacity="0.3" d="M102.265 369.855C102.834 369.486 102.996 368.726 102.627 368.158C102.258 367.589 101.498 367.427 100.929 367.796C100.361 368.165 100.199 368.925 100.568 369.494C100.937 370.062 101.697 370.224 102.265 369.855Z" fill="var(--fill-0, white)"/>
<path id="Vector_108" opacity="0.11" d="M480.382 128.868C480.95 128.499 481.112 127.739 480.743 127.17C480.374 126.602 479.614 126.44 479.046 126.809C478.477 127.178 478.316 127.938 478.684 128.506C479.053 129.075 479.813 129.237 480.382 128.868Z" fill="var(--fill-0, white)"/>
<path id="Vector_109" opacity="0.3" d="M164.492 304.617C165.06 304.248 165.222 303.488 164.853 302.919C164.484 302.351 163.724 302.189 163.156 302.558C162.587 302.927 162.425 303.687 162.794 304.255C163.163 304.824 163.923 304.986 164.492 304.617Z" fill="var(--fill-0, white)"/>
<path id="Vector_110" opacity="0.11" d="M143.922 303.34C144.491 302.971 144.652 302.211 144.283 301.642C143.914 301.074 143.154 300.912 142.586 301.281C142.017 301.65 141.856 302.41 142.225 302.978C142.594 303.547 143.354 303.709 143.922 303.34Z" fill="var(--fill-0, white)"/>
<path id="Vector_111" opacity="0.3" d="M161.179 338.941C161.747 338.572 161.909 337.812 161.54 337.244C161.171 336.675 160.411 336.514 159.843 336.882C159.274 337.251 159.113 338.011 159.482 338.58C159.85 339.148 160.61 339.31 161.179 338.941Z" fill="var(--fill-0, white)"/>
<path id="Vector_112" d="M193 317.556C193.426 317.279 193.548 316.71 193.271 316.283C192.994 315.857 192.425 315.736 191.998 316.012C191.572 316.289 191.451 316.859 191.727 317.285C192.004 317.711 192.574 317.833 193 317.556Z" fill="var(--fill-0, white)"/>
<path id="Vector_113" opacity="0.11" d="M608.397 161.817C608.965 161.448 609.127 160.688 608.758 160.119C608.389 159.551 607.629 159.389 607.06 159.758C606.492 160.127 606.33 160.887 606.699 161.455C607.068 162.024 607.828 162.186 608.397 161.817Z" fill="var(--fill-0, white)"/>
<path id="Vector_114" d="M615.408 165.309C615.834 165.032 615.955 164.462 615.679 164.036C615.402 163.61 614.832 163.488 614.406 163.765C613.98 164.042 613.858 164.611 614.135 165.038C614.412 165.464 614.981 165.585 615.408 165.309Z" fill="var(--fill-0, white)"/>
<path id="Vector_115" d="M625.377 143.487C625.803 143.21 625.924 142.64 625.648 142.214C625.371 141.788 624.801 141.667 624.375 141.943C623.949 142.22 623.828 142.79 624.104 143.216C624.381 143.642 624.951 143.764 625.377 143.487Z" fill="var(--fill-0, white)"/>
<path id="Vector_116" d="M580.97 170.835C581.396 170.558 581.518 169.988 581.241 169.562C580.964 169.136 580.394 169.014 579.968 169.291C579.542 169.568 579.421 170.137 579.697 170.564C579.974 170.99 580.544 171.111 580.97 170.835Z" fill="var(--fill-0, white)"/>
<path id="Vector_117" opacity="0.11" d="M563.52 199.711C564.088 199.342 564.25 198.582 563.881 198.013C563.512 197.445 562.752 197.283 562.184 197.652C561.615 198.021 561.454 198.781 561.823 199.35C562.191 199.918 562.951 200.08 563.52 199.711Z" fill="var(--fill-0, white)"/>
<path id="Vector_118" d="M546.4 194.736C546.684 194.551 546.765 194.172 546.581 193.888C546.396 193.604 546.017 193.523 545.733 193.707C545.449 193.891 545.368 194.271 545.552 194.555C545.737 194.839 546.116 194.92 546.4 194.736Z" fill="var(--fill-0, white)"/>
<path id="Vector_119" d="M619.867 182.887C620.151 182.702 620.232 182.323 620.048 182.039C619.863 181.755 619.484 181.674 619.2 181.858C618.916 182.042 618.835 182.422 619.019 182.706C619.203 182.99 619.583 183.071 619.867 182.887Z" fill="var(--fill-0, white)"/>
<path id="Vector_120" d="M732.034 110.1C732.318 109.916 732.399 109.536 732.214 109.252C732.03 108.968 731.65 108.887 731.366 109.072C731.082 109.256 731.002 109.636 731.186 109.92C731.37 110.204 731.75 110.285 732.034 110.1Z" fill="var(--fill-0, white)"/>
<path id="Vector_121" d="M770.082 45.9214C770.366 45.7371 770.447 45.3574 770.263 45.0734C770.079 44.7894 769.699 44.7086 769.415 44.8929C769.131 45.0772 769.05 45.4568 769.234 45.7409C769.419 46.0249 769.798 46.1057 770.082 45.9214Z" fill="var(--fill-0, white)"/>
<path id="Vector_122" d="M814.527 70.4585C814.811 70.2742 814.892 69.8945 814.708 69.6105C814.523 69.3265 814.144 69.2456 813.86 69.43C813.576 69.6143 813.495 69.994 813.679 70.278C813.863 70.562 814.243 70.6428 814.527 70.4585Z" fill="var(--fill-0, white)"/>
<path id="Vector_123" d="M440.187 281.209C440.471 281.024 440.552 280.645 440.368 280.361C440.184 280.077 439.804 279.996 439.52 280.18C439.236 280.364 439.155 280.744 439.339 281.028C439.524 281.312 439.903 281.393 440.187 281.209Z" fill="var(--fill-0, white)"/>
<path id="Vector_124" opacity="0.11" d="M414.447 258.435C414.731 258.251 414.812 257.871 414.627 257.587C414.443 257.303 414.063 257.222 413.779 257.407C413.495 257.591 413.414 257.971 413.599 258.255C413.783 258.539 414.163 258.619 414.447 258.435Z" fill="var(--fill-0, white)"/>
<path id="Vector_125" opacity="0.11" d="M400.005 284.626C400.289 284.442 400.37 284.062 400.186 283.778C400.001 283.494 399.622 283.413 399.338 283.597C399.054 283.782 398.973 284.161 399.157 284.445C399.341 284.729 399.721 284.81 400.005 284.626Z" fill="var(--fill-0, white)"/>
<path id="Vector_126" opacity="0.11" d="M437.014 304.476C437.298 304.291 437.379 303.912 437.195 303.628C437.011 303.344 436.631 303.263 436.347 303.447C436.063 303.631 435.982 304.011 436.166 304.295C436.351 304.579 436.73 304.66 437.014 304.476Z" fill="var(--fill-0, white)"/>
<path id="Vector_127" opacity="0.11" d="M546.107 204.428C546.391 204.244 546.471 203.865 546.287 203.58C546.103 203.296 545.723 203.216 545.439 203.4C545.155 203.584 545.074 203.964 545.258 204.248C545.443 204.532 545.822 204.613 546.107 204.428Z" fill="var(--fill-0, white)"/>
<path id="Vector_128" opacity="0.11" d="M630.859 202.075C631.143 201.891 631.224 201.511 631.039 201.227C630.855 200.943 630.476 200.862 630.191 201.046C629.907 201.231 629.827 201.61 630.011 201.894C630.195 202.178 630.575 202.259 630.859 202.075Z" fill="var(--fill-0, white)"/>
<path id="Vector_129" opacity="0.11" d="M726.306 132.827C726.59 132.642 726.671 132.263 726.487 131.979C726.302 131.695 725.923 131.614 725.639 131.798C725.355 131.982 725.274 132.362 725.458 132.646C725.642 132.93 726.022 133.011 726.306 132.827Z" fill="var(--fill-0, white)"/>
<path id="Vector_130" opacity="0.3" d="M455.512 252.986C455.796 252.801 455.876 252.422 455.692 252.138C455.508 251.854 455.128 251.773 454.844 251.957C454.56 252.141 454.479 252.521 454.664 252.805C454.848 253.089 455.228 253.17 455.512 252.986Z" fill="var(--fill-0, white)"/>
<path id="Vector_131" d="M555.816 148.409C556.1 148.225 556.181 147.845 555.996 147.561C555.812 147.277 555.433 147.196 555.149 147.38C554.864 147.565 554.784 147.944 554.968 148.228C555.152 148.512 555.532 148.593 555.816 148.409Z" fill="var(--fill-0, white)"/>
<path id="Vector_132" d="M634.382 95.9611C634.666 95.7768 634.747 95.3971 634.563 95.1131C634.378 94.8291 633.999 94.7482 633.715 94.9325C633.431 95.1169 633.35 95.4965 633.534 95.7805C633.718 96.0645 634.098 96.1454 634.382 95.9611Z" fill="var(--fill-0, white)"/>
<path id="Vector_133" d="M551.547 218.449C551.831 218.265 551.912 217.885 551.728 217.601C551.544 217.317 551.164 217.236 550.88 217.421C550.596 217.605 550.515 217.985 550.699 218.269C550.884 218.553 551.263 218.633 551.547 218.449Z" fill="var(--fill-0, white)"/>
<path id="Vector_134" opacity="0.3" d="M515.533 241.821C515.817 241.636 515.898 241.257 515.713 240.973C515.529 240.689 515.15 240.608 514.865 240.792C514.581 240.977 514.501 241.356 514.685 241.64C514.869 241.924 515.249 242.005 515.533 241.821Z" fill="var(--fill-0, white)"/>
<path id="Vector_135" opacity="0.11" d="M452.647 237.3C452.931 237.116 453.012 236.736 452.828 236.452C452.643 236.168 452.264 236.087 451.98 236.272C451.696 236.456 451.615 236.836 451.799 237.12C451.984 237.404 452.363 237.484 452.647 237.3Z" fill="var(--fill-0, white)"/>
<path id="Vector_136" opacity="0.3" d="M573.1 154.746C573.384 154.562 573.465 154.182 573.28 153.898C573.096 153.614 572.716 153.533 572.432 153.717C572.148 153.902 572.068 154.281 572.252 154.565C572.436 154.849 572.816 154.93 573.1 154.746Z" fill="var(--fill-0, white)"/>
<path id="Vector_137" opacity="0.3" d="M566.642 222.547C566.926 222.362 567.007 221.983 566.822 221.699C566.638 221.415 566.258 221.334 565.974 221.518C565.69 221.703 565.61 222.082 565.794 222.366C565.978 222.65 566.358 222.731 566.642 222.547Z" fill="var(--fill-0, white)"/>
<path id="Vector_138" opacity="0.3" d="M507.722 268.095C508.006 267.911 508.087 267.531 507.903 267.247C507.719 266.963 507.339 266.882 507.055 267.067C506.771 267.251 506.69 267.631 506.874 267.915C507.059 268.199 507.438 268.28 507.722 268.095Z" fill="var(--fill-0, white)"/>
<path id="Vector_139" opacity="0.3" d="M470.434 243.308C470.718 243.123 470.799 242.744 470.615 242.46C470.43 242.176 470.051 242.095 469.767 242.279C469.483 242.463 469.402 242.843 469.586 243.127C469.771 243.411 470.15 243.492 470.434 243.308Z" fill="var(--fill-0, white)"/>
<path id="Vector_140" opacity="0.3" d="M789.448 34.0836C789.732 33.8993 789.813 33.5196 789.629 33.2356C789.444 32.9516 789.065 32.8708 788.781 33.0551C788.497 33.2394 788.416 33.6191 788.6 33.9031C788.785 34.1871 789.164 34.2679 789.448 34.0836Z" fill="var(--fill-0, white)"/>
<path id="Vector_141" opacity="0.11" d="M692.926 66.7449C693.21 66.5606 693.291 66.1809 693.107 65.8969C692.923 65.6129 692.543 65.5321 692.259 65.7164C691.975 65.9007 691.894 66.2804 692.078 66.5644C692.263 66.8484 692.642 66.9292 692.926 66.7449Z" fill="var(--fill-0, white)"/>
<path id="Vector_142" opacity="0.11" d="M789.918 65.2179C790.202 65.0335 790.282 64.6539 790.098 64.3699C789.914 64.0859 789.534 64.005 789.25 64.1893C788.966 64.3736 788.885 64.7533 789.07 65.0373C789.254 65.3213 789.634 65.4022 789.918 65.2179Z" fill="var(--fill-0, white)"/>
<path id="Vector_143" opacity="0.3" d="M662.75 154.328C663.318 153.959 663.48 153.199 663.111 152.63C662.742 152.062 661.982 151.9 661.414 152.269C660.845 152.638 660.683 153.398 661.052 153.966C661.421 154.535 662.181 154.697 662.75 154.328Z" fill="var(--fill-0, white)"/>
<path id="Vector_144" opacity="0.11" d="M683.091 119.192C683.66 118.823 683.821 118.063 683.452 117.494C683.083 116.926 682.323 116.764 681.755 117.133C681.186 117.502 681.025 118.262 681.394 118.83C681.763 119.399 682.522 119.561 683.091 119.192Z" fill="var(--fill-0, white)"/>
<path id="Vector_145" d="M671.152 101.349C671.578 101.072 671.699 100.503 671.423 100.076C671.146 99.65 670.576 99.5287 670.15 99.8053C669.724 100.082 669.602 100.652 669.879 101.078C670.156 101.504 670.725 101.626 671.152 101.349Z" fill="var(--fill-0, white)"/>
<path id="Vector_146" d="M670.711 178.412C671.137 178.135 671.258 177.565 670.982 177.139C670.705 176.713 670.135 176.591 669.709 176.868C669.283 177.145 669.161 177.714 669.438 178.141C669.715 178.567 670.284 178.688 670.711 178.412Z" fill="var(--fill-0, white)"/>
<path id="Vector_147" d="M848.202 77.852C848.629 77.5754 848.75 77.0056 848.473 76.5793C848.197 76.1531 847.627 76.0317 847.201 76.3084C846.774 76.585 846.653 77.1548 846.93 77.5811C847.206 78.0074 847.776 78.1287 848.202 77.852Z" fill="var(--fill-0, white)"/>
<path id="Vector_148" d="M508.613 285.799C509.039 285.522 509.16 284.952 508.884 284.526C508.607 284.1 508.037 283.978 507.611 284.255C507.185 284.532 507.063 285.102 507.34 285.528C507.617 285.954 508.186 286.075 508.613 285.799Z" fill="var(--fill-0, white)"/>
<path id="Vector_149" d="M432.507 318.371C432.934 318.094 433.055 317.525 432.778 317.098C432.502 316.672 431.932 316.551 431.506 316.827C431.079 317.104 430.958 317.674 431.235 318.1C431.511 318.526 432.081 318.648 432.507 318.371Z" fill="var(--fill-0, white)"/>
<path id="Vector_150" d="M410.402 303.466C410.829 303.19 410.95 302.62 410.673 302.193C410.397 301.767 409.827 301.646 409.401 301.923C408.974 302.199 408.853 302.769 409.13 303.195C409.406 303.622 409.976 303.743 410.402 303.466Z" fill="var(--fill-0, white)"/>
<path id="Vector_151" d="M653.137 127.667C653.564 127.39 653.685 126.821 653.408 126.394C653.132 125.968 652.562 125.847 652.136 126.123C651.709 126.4 651.588 126.97 651.865 127.396C652.141 127.822 652.711 127.944 653.137 127.667Z" fill="var(--fill-0, white)"/>
<path id="Vector_152" d="M588.319 223.838C588.745 223.561 588.866 222.991 588.59 222.565C588.313 222.139 587.743 222.018 587.317 222.294C586.891 222.571 586.769 223.141 587.046 223.567C587.323 223.993 587.892 224.115 588.319 223.838Z" fill="var(--fill-0, white)"/>
<path id="Vector_153" d="M732.332 161.82C732.759 161.543 732.88 160.973 732.603 160.547C732.327 160.121 731.757 160 731.331 160.276C730.904 160.553 730.783 161.123 731.06 161.549C731.336 161.975 731.906 162.096 732.332 161.82Z" fill="var(--fill-0, white)"/>
<path id="Vector_154" d="M845.967 38.3511C846.394 38.0744 846.515 37.5046 846.238 37.0784C845.962 36.6521 845.392 36.5308 844.966 36.8074C844.539 37.084 844.418 37.6538 844.695 38.0801C844.971 38.5064 845.541 38.6277 845.967 38.3511Z" fill="var(--fill-0, white)"/>
<path id="Vector_155" d="M839.955 2.04455C840.381 1.76791 840.502 1.1981 840.226 0.771833C839.949 0.345562 839.379 0.224245 838.953 0.500879C838.527 0.777513 838.405 1.34732 838.682 1.77359C838.959 2.19986 839.528 2.32118 839.955 2.04455Z" fill="var(--fill-0, white)"/>
<path id="Vector_156" opacity="0.3" d="M713.926 74.3178C714.495 73.9488 714.657 73.1888 714.288 72.6203C713.919 72.0518 713.159 71.89 712.59 72.259C712.022 72.6279 711.86 73.3879 712.229 73.9564C712.598 74.5249 713.358 74.6867 713.926 74.3178Z" fill="var(--fill-0, white)"/>
<path id="Vector_157" d="M690.225 37.7898C690.794 37.4208 690.955 36.6609 690.586 36.0923C690.217 35.5238 689.457 35.362 688.889 35.731C688.32 36.0999 688.159 36.8599 688.528 37.4284C688.897 37.9969 689.657 38.1587 690.225 37.7898Z" fill="var(--fill-0, white)"/>
<path id="Vector_158" d="M747.778 68.4433C748.205 68.1667 748.326 67.5969 748.049 67.1706C747.773 66.7443 747.203 66.623 746.777 66.8997C746.35 67.1763 746.229 67.7461 746.506 68.1724C746.782 68.5986 747.352 68.72 747.778 68.4433Z" fill="var(--fill-0, white)"/>
<path id="Vector_159" opacity="0.3" d="M759.709 32.1818C760.277 31.8128 760.439 31.0529 760.07 30.4843C759.701 29.9158 758.941 29.754 758.373 30.123C757.804 30.4919 757.642 31.2519 758.011 31.8204C758.38 32.3889 759.14 32.5507 759.709 32.1818Z" fill="var(--fill-0, white)"/>
<path id="Vector_160" opacity="0.3" d="M834.354 35.6576C834.923 35.2886 835.084 34.5287 834.715 33.9601C834.346 33.3916 833.586 33.2298 833.018 33.5988C832.449 33.9677 832.288 34.7277 832.657 35.2962C833.026 35.8647 833.785 36.0265 834.354 35.6576Z" fill="var(--fill-0, white)"/>
<path id="Vector_161" opacity="0.3" d="M774.824 75.7495C775.393 75.3805 775.555 74.6206 775.186 74.0521C774.817 73.4835 774.057 73.3217 773.488 73.6907C772.92 74.0596 772.758 74.8196 773.127 75.3881C773.496 75.9567 774.256 76.1184 774.824 75.7495Z" fill="var(--fill-0, white)"/>
<path id="Vector_162" opacity="0.3" d="M485.174 276.15C485.743 275.781 485.905 275.021 485.536 274.452C485.167 273.884 484.407 273.722 483.838 274.091C483.27 274.46 483.108 275.22 483.477 275.788C483.846 276.357 484.606 276.519 485.174 276.15Z" fill="var(--fill-0, white)"/>
<path id="Vector_163" opacity="0.3" d="M425.13 274.9C425.699 274.531 425.861 273.771 425.492 273.202C425.123 272.634 424.363 272.472 423.794 272.841C423.226 273.21 423.064 273.97 423.433 274.538C423.802 275.107 424.562 275.269 425.13 274.9Z" fill="var(--fill-0, white)"/>
<path id="Vector_164" opacity="0.11" d="M803.243 33.9119C803.811 33.543 803.973 32.783 803.604 32.2145C803.235 31.6459 802.475 31.4841 801.907 31.8531C801.338 32.222 801.176 32.982 801.545 33.5505C801.914 34.1191 802.674 34.2809 803.243 33.9119Z" fill="var(--fill-0, white)"/>
<path id="Vector_165" opacity="0.3" d="M487.349 209.659C487.918 209.29 488.08 208.53 487.711 207.961C487.342 207.393 486.582 207.231 486.013 207.6C485.445 207.969 485.283 208.729 485.652 209.297C486.021 209.866 486.781 210.028 487.349 209.659Z" fill="var(--fill-0, white)"/>
<path id="Vector_166" opacity="0.11" d="M466.781 208.384C467.349 208.015 467.511 207.255 467.142 206.687C466.773 206.118 466.013 205.956 465.445 206.325C464.876 206.694 464.714 207.454 465.083 208.023C465.452 208.591 466.212 208.753 466.781 208.384Z" fill="var(--fill-0, white)"/>
<path id="Vector_167" opacity="0.3" d="M484.036 243.983C484.605 243.614 484.767 242.854 484.398 242.286C484.029 241.717 483.269 241.556 482.7 241.925C482.132 242.293 481.97 243.053 482.339 243.622C482.708 244.19 483.468 244.352 484.036 243.983Z" fill="var(--fill-0, white)"/>
<path id="Vector_168" d="M515.852 222.602C516.279 222.325 516.4 221.755 516.123 221.329C515.847 220.903 515.277 220.781 514.85 221.058C514.424 221.335 514.303 221.904 514.579 222.331C514.856 222.757 515.426 222.878 515.852 222.602Z" fill="var(--fill-0, white)"/>
</g>
</svg>
