<svg width="848.974" height="686.414" preserveAspectRatio="none" overflow="visible" style="display: block;" viewBox="0 0 848.974 686.414" fill="none" xmlns="http://www.w3.org/2000/svg">
<g id="Group" style="mix-blend-mode:overlay" opacity="0.7">
<path id="Vector" opacity="0.11" d="M209.572 529.36C210.14 528.991 210.302 528.232 209.933 527.663C209.564 527.094 208.804 526.933 208.236 527.302C207.667 527.671 207.505 528.431 207.874 528.999C208.243 529.568 209.003 529.729 209.572 529.36Z" fill="var(--fill-0, white)"/>
<path id="Vector_2" d="M216.583 532.853C217.009 532.576 217.13 532.006 216.854 531.58C216.577 531.154 216.007 531.032 215.581 531.309C215.155 531.586 215.033 532.155 215.31 532.582C215.587 533.008 216.156 533.129 216.583 532.853Z" fill="var(--fill-0, white)"/>
<path id="Vector_3" d="M226.552 511.03C226.979 510.753 227.1 510.184 226.823 509.757C226.547 509.331 225.977 509.21 225.55 509.486C225.124 509.763 225.003 510.333 225.28 510.759C225.556 511.185 226.126 511.307 226.552 511.03Z" fill="var(--fill-0, white)"/>
<path id="Vector_4" d="M182.154 538.378C182.58 538.101 182.701 537.531 182.424 537.105C182.148 536.679 181.578 536.558 181.152 536.834C180.726 537.111 180.604 537.681 180.881 538.107C181.157 538.533 181.727 538.655 182.154 538.378Z" fill="var(--fill-0, white)"/>
<path id="Vector_5" opacity="0.11" d="M164.694 567.256C165.263 566.888 165.425 566.128 165.056 565.559C164.687 564.991 163.927 564.829 163.358 565.198C162.79 565.567 162.628 566.327 162.997 566.895C163.366 567.464 164.126 567.625 164.694 567.256Z" fill="var(--fill-0, white)"/>
<path id="Vector_6" d="M147.578 562.278C147.862 562.093 147.943 561.714 147.759 561.43C147.574 561.146 147.195 561.065 146.911 561.249C146.627 561.433 146.546 561.813 146.73 562.097C146.914 562.381 147.294 562.462 147.578 562.278Z" fill="var(--fill-0, white)"/>
<path id="Vector_7" d="M221.045 550.429C221.329 550.245 221.409 549.865 221.225 549.581C221.041 549.297 220.661 549.216 220.377 549.401C220.093 549.585 220.012 549.965 220.197 550.249C220.381 550.533 220.761 550.614 221.045 550.429Z" fill="var(--fill-0, white)"/>
<path id="Vector_8" d="M333.21 477.641C333.494 477.457 333.575 477.077 333.391 476.793C333.206 476.509 332.827 476.428 332.543 476.613C332.259 476.797 332.178 477.177 332.362 477.461C332.546 477.745 332.926 477.825 333.21 477.641Z" fill="var(--fill-0, white)"/>
<path id="Vector_9" d="M371.256 413.464C371.54 413.28 371.621 412.9 371.436 412.616C371.252 412.332 370.872 412.251 370.588 412.435C370.304 412.62 370.224 412.999 370.408 413.283C370.592 413.567 370.972 413.648 371.256 413.464Z" fill="var(--fill-0, white)"/>
<path id="Vector_10" d="M415.701 437.999C415.985 437.815 416.066 437.435 415.882 437.151C415.697 436.867 415.318 436.786 415.034 436.971C414.75 437.155 414.669 437.535 414.853 437.819C415.037 438.103 415.417 438.184 415.701 437.999Z" fill="var(--fill-0, white)"/>
<path id="Vector_11" d="M41.3646 648.752C41.6487 648.568 41.7295 648.188 41.5452 647.904C41.3609 647.62 40.9812 647.539 40.6972 647.724C40.4131 647.908 40.3323 648.288 40.5167 648.572C40.701 648.856 41.0806 648.936 41.3646 648.752Z" fill="var(--fill-0, white)"/>
<path id="Vector_12" opacity="0.11" d="M15.6268 625.977C15.9108 625.792 15.9916 625.413 15.8073 625.129C15.623 624.845 15.2434 624.764 14.9593 624.948C14.6753 625.132 14.5945 625.512 14.7788 625.796C14.9631 626.08 15.3428 626.161 15.6268 625.977Z" fill="var(--fill-0, white)"/>
<path id="Vector_13" opacity="0.11" d="M1.18171 652.165C1.46573 651.981 1.54657 651.602 1.36225 651.317C1.17793 651.033 0.798282 650.953 0.514263 651.137C0.230243 651.321 0.149405 651.701 0.333723 651.985C0.51804 652.269 0.897689 652.35 1.18171 652.165Z" fill="var(--fill-0, white)"/>
<path id="Vector_14" opacity="0.11" d="M38.194 672.018C38.478 671.834 38.5588 671.454 38.3745 671.17C38.1902 670.886 37.8105 670.806 37.5265 670.99C37.2425 671.174 37.1617 671.554 37.346 671.838C37.5303 672.122 37.91 672.203 38.194 672.018Z" fill="var(--fill-0, white)"/>
<path id="Vector_15" opacity="0.11" d="M147.283 571.973C147.567 571.789 147.648 571.409 147.464 571.125C147.279 570.841 146.9 570.76 146.616 570.945C146.332 571.129 146.251 571.509 146.435 571.793C146.62 572.077 146.999 572.158 147.283 571.973Z" fill="var(--fill-0, white)"/>
<path id="Vector_16" opacity="0.11" d="M232.046 569.62C232.33 569.436 232.411 569.056 232.227 568.772C232.042 568.488 231.663 568.407 231.379 568.591C231.095 568.776 231.014 569.155 231.198 569.439C231.382 569.723 231.762 569.804 232.046 569.62Z" fill="var(--fill-0, white)"/>
<path id="Vector_17" opacity="0.11" d="M327.482 500.368C327.766 500.184 327.847 499.804 327.663 499.52C327.478 499.236 327.099 499.155 326.815 499.339C326.531 499.524 326.45 499.903 326.634 500.187C326.819 500.471 327.198 500.552 327.482 500.368Z" fill="var(--fill-0, white)"/>
<path id="Vector_18" opacity="0.3" d="M56.6867 620.529C56.9707 620.345 57.0516 619.966 56.8672 619.682C56.6829 619.397 56.3032 619.317 56.0192 619.501C55.7352 619.685 55.6544 620.065 55.8387 620.349C56.023 620.633 56.4027 620.714 56.6867 620.529Z" fill="var(--fill-0, white)"/>
<path id="Vector_19" d="M156.996 515.951C157.28 515.767 157.361 515.387 157.176 515.103C156.992 514.819 156.612 514.739 156.328 514.923C156.044 515.107 155.963 515.487 156.148 515.771C156.332 516.055 156.712 516.136 156.996 515.951Z" fill="var(--fill-0, white)"/>
<path id="Vector_20" d="M235.56 463.503C235.844 463.319 235.925 462.939 235.74 462.655C235.556 462.371 235.176 462.291 234.892 462.475C234.608 462.659 234.527 463.039 234.712 463.323C234.896 463.607 235.276 463.688 235.56 463.503Z" fill="var(--fill-0, white)"/>
<path id="Vector_21" d="M152.728 585.99C153.012 585.806 153.092 585.426 152.908 585.142C152.724 584.858 152.344 584.777 152.06 584.961C151.776 585.146 151.695 585.525 151.88 585.809C152.064 586.093 152.444 586.174 152.728 585.99Z" fill="var(--fill-0, white)"/>
<path id="Vector_22" opacity="0.3" d="M116.713 609.364C116.997 609.179 117.077 608.8 116.893 608.516C116.709 608.232 116.329 608.151 116.045 608.335C115.761 608.52 115.68 608.899 115.865 609.183C116.049 609.467 116.428 609.548 116.713 609.364Z" fill="var(--fill-0, white)"/>
<path id="Vector_23" opacity="0.11" d="M53.8269 604.843C54.111 604.658 54.1918 604.279 54.0075 603.995C53.8232 603.711 53.4435 603.63 53.1595 603.814C52.8754 603.998 52.7946 604.378 52.9789 604.662C53.1633 604.946 53.5429 605.027 53.8269 604.843Z" fill="var(--fill-0, white)"/>
<path id="Vector_24" opacity="0.3" d="M174.273 522.289C174.557 522.105 174.638 521.725 174.454 521.441C174.269 521.157 173.89 521.076 173.606 521.261C173.322 521.445 173.241 521.825 173.425 522.109C173.609 522.393 173.989 522.473 174.273 522.289Z" fill="var(--fill-0, white)"/>
<path id="Vector_25" opacity="0.3" d="M167.823 590.091C168.107 589.907 168.188 589.527 168.004 589.243C167.819 588.959 167.44 588.878 167.156 589.062C166.872 589.247 166.791 589.626 166.975 589.91C167.159 590.194 167.539 590.275 167.823 590.091Z" fill="var(--fill-0, white)"/>
<path id="Vector_26" opacity="0.3" d="M108.901 635.636C109.185 635.451 109.266 635.072 109.081 634.788C108.897 634.504 108.517 634.423 108.233 634.607C107.949 634.791 107.868 635.171 108.053 635.455C108.237 635.739 108.617 635.82 108.901 635.636Z" fill="var(--fill-0, white)"/>
<path id="Vector_27" opacity="0.3" d="M71.6142 610.849C71.8982 610.665 71.9791 610.286 71.7948 610.002C71.6104 609.717 71.2308 609.637 70.9467 609.821C70.6627 610.005 70.5819 610.385 70.7662 610.669C70.9506 610.953 71.3302 611.034 71.6142 610.849Z" fill="var(--fill-0, white)"/>
<path id="Vector_28" opacity="0.3" d="M390.628 401.626C390.912 401.442 390.993 401.062 390.808 400.778C390.624 400.494 390.244 400.414 389.96 400.598C389.676 400.782 389.595 401.162 389.78 401.446C389.964 401.73 390.344 401.811 390.628 401.626Z" fill="var(--fill-0, white)"/>
<path id="Vector_29" opacity="0.11" d="M294.105 434.285C294.389 434.1 294.47 433.721 294.286 433.437C294.101 433.153 293.722 433.072 293.438 433.256C293.154 433.44 293.073 433.82 293.257 434.104C293.441 434.388 293.821 434.469 294.105 434.285Z" fill="var(--fill-0, white)"/>
<path id="Vector_30" opacity="0.11" d="M391.095 432.762C391.379 432.577 391.46 432.198 391.275 431.914C391.091 431.63 390.711 431.549 390.427 431.733C390.143 431.918 390.062 432.297 390.247 432.581C390.431 432.865 390.811 432.946 391.095 432.762Z" fill="var(--fill-0, white)"/>
<path id="Vector_31" opacity="0.3" d="M263.93 521.868C264.499 521.499 264.66 520.739 264.291 520.171C263.922 519.602 263.162 519.44 262.594 519.809C262.025 520.178 261.864 520.938 262.233 521.507C262.602 522.075 263.362 522.237 263.93 521.868Z" fill="var(--fill-0, white)"/>
<path id="Vector_32" opacity="0.11" d="M284.273 486.734C284.841 486.365 285.003 485.605 284.634 485.037C284.265 484.468 283.505 484.306 282.937 484.675C282.368 485.044 282.206 485.804 282.575 486.373C282.944 486.941 283.704 487.103 284.273 486.734Z" fill="var(--fill-0, white)"/>
<path id="Vector_33" d="M272.333 468.893C272.759 468.616 272.881 468.046 272.604 467.62C272.327 467.194 271.757 467.073 271.331 467.349C270.905 467.626 270.784 468.196 271.06 468.622C271.337 469.048 271.907 469.169 272.333 468.893Z" fill="var(--fill-0, white)"/>
<path id="Vector_34" d="M271.888 545.956C272.314 545.679 272.435 545.109 272.159 544.683C271.882 544.257 271.312 544.136 270.886 544.412C270.46 544.689 270.338 545.259 270.615 545.685C270.892 546.111 271.461 546.232 271.888 545.956Z" fill="var(--fill-0, white)"/>
<path id="Vector_35" d="M449.381 445.392C449.807 445.115 449.929 444.545 449.652 444.119C449.375 443.693 448.806 443.571 448.379 443.848C447.953 444.125 447.832 444.695 448.108 445.121C448.385 445.547 448.955 445.668 449.381 445.392Z" fill="var(--fill-0, white)"/>
<path id="Vector_36" d="M109.787 653.34C110.213 653.063 110.334 652.494 110.058 652.067C109.781 651.641 109.211 651.52 108.785 651.796C108.359 652.073 108.237 652.643 108.514 653.069C108.791 653.495 109.36 653.617 109.787 653.34Z" fill="var(--fill-0, white)"/>
<path id="Vector_37" d="M33.6851 685.913C34.1114 685.637 34.2326 685.067 33.956 684.64C33.6794 684.214 33.1096 684.093 32.6833 684.37C32.257 684.646 32.1357 685.216 32.4123 685.642C32.689 686.069 33.2588 686.19 33.6851 685.913Z" fill="var(--fill-0, white)"/>
<path id="Vector_38" d="M11.584 671.009C12.0103 670.732 12.1316 670.163 11.855 669.736C11.5784 669.31 11.0085 669.189 10.5823 669.465C10.156 669.742 10.0347 670.312 10.3113 670.738C10.588 671.164 11.1578 671.286 11.584 671.009Z" fill="var(--fill-0, white)"/>
<path id="Vector_39" d="M254.314 495.212C254.74 494.935 254.862 494.365 254.585 493.939C254.308 493.513 253.739 493.392 253.312 493.668C252.886 493.945 252.765 494.515 253.041 494.941C253.318 495.367 253.888 495.488 254.314 495.212Z" fill="var(--fill-0, white)"/>
<path id="Vector_40" d="M189.499 591.379C189.925 591.102 190.047 590.533 189.77 590.106C189.493 589.68 188.923 589.559 188.497 589.835C188.071 590.112 187.95 590.682 188.226 591.108C188.503 591.534 189.073 591.656 189.499 591.379Z" fill="var(--fill-0, white)"/>
<path id="Vector_41" d="M333.511 529.366C333.937 529.089 334.058 528.519 333.782 528.093C333.505 527.667 332.935 527.545 332.509 527.822C332.083 528.099 331.961 528.669 332.238 529.095C332.515 529.521 333.085 529.642 333.511 529.366Z" fill="var(--fill-0, white)"/>
<path id="Vector_42" d="M447.144 405.896C447.57 405.62 447.692 405.05 447.415 404.623C447.138 404.197 446.569 404.076 446.142 404.352C445.716 404.629 445.595 405.199 445.871 405.625C446.148 406.051 446.718 406.173 447.144 405.896Z" fill="var(--fill-0, white)"/>
<path id="Vector_43" d="M441.133 369.585C441.559 369.309 441.681 368.739 441.404 368.313C441.127 367.886 440.557 367.765 440.131 368.042C439.705 368.318 439.584 368.888 439.86 369.315C440.137 369.741 440.707 369.862 441.133 369.585Z" fill="var(--fill-0, white)"/>
<path id="Vector_44" opacity="0.3" d="M315.116 441.861C315.685 441.492 315.846 440.732 315.477 440.164C315.108 439.595 314.348 439.433 313.78 439.802C313.211 440.171 313.05 440.931 313.419 441.5C313.788 442.068 314.548 442.23 315.116 441.861Z" fill="var(--fill-0, white)"/>
<path id="Vector_45" d="M291.402 405.333C291.971 404.964 292.133 404.204 291.764 403.636C291.395 403.067 290.635 402.905 290.066 403.274C289.498 403.643 289.336 404.403 289.705 404.972C290.074 405.54 290.834 405.702 291.402 405.333Z" fill="var(--fill-0, white)"/>
<path id="Vector_46" d="M348.952 435.985C349.378 435.708 349.5 435.139 349.223 434.712C348.946 434.286 348.377 434.165 347.95 434.441C347.524 434.718 347.403 435.288 347.679 435.714C347.956 436.14 348.526 436.262 348.952 435.985Z" fill="var(--fill-0, white)"/>
<path id="Vector_47" opacity="0.3" d="M360.888 399.725C361.457 399.356 361.618 398.596 361.249 398.028C360.88 397.459 360.12 397.297 359.552 397.666C358.983 398.035 358.822 398.795 359.191 399.364C359.56 399.932 360.319 400.094 360.888 399.725Z" fill="var(--fill-0, white)"/>
<path id="Vector_48" opacity="0.3" d="M435.529 403.201C436.098 402.832 436.26 402.072 435.891 401.503C435.522 400.935 434.762 400.773 434.193 401.142C433.625 401.511 433.463 402.271 433.832 402.839C434.201 403.408 434.961 403.57 435.529 403.201Z" fill="var(--fill-0, white)"/>
<path id="Vector_49" opacity="0.3" d="M375.997 443.293C376.566 442.924 376.728 442.164 376.359 441.595C375.99 441.027 375.23 440.865 374.661 441.234C374.093 441.603 373.931 442.363 374.3 442.931C374.669 443.5 375.429 443.662 375.997 443.293Z" fill="var(--fill-0, white)"/>
<path id="Vector_50" opacity="0.3" d="M86.3456 643.693C86.9141 643.324 87.0759 642.564 86.7069 641.995C86.338 641.427 85.578 641.265 85.0095 641.634C84.441 642.003 84.2792 642.763 84.6481 643.332C85.0171 643.9 85.777 644.062 86.3456 643.693Z" fill="var(--fill-0, white)"/>
<path id="Vector_51" opacity="0.3" d="M26.3046 642.439C26.8732 642.071 27.0349 641.311 26.666 640.742C26.297 640.174 25.5371 640.012 24.9686 640.381C24.4 640.75 24.2382 641.51 24.6072 642.078C24.9761 642.647 25.7361 642.808 26.3046 642.439Z" fill="var(--fill-0, white)"/>
<path id="Vector_52" opacity="0.11" d="M404.418 401.456C404.986 401.087 405.148 400.327 404.779 399.758C404.41 399.19 403.65 399.028 403.082 399.397C402.513 399.766 402.351 400.526 402.72 401.095C403.089 401.663 403.849 401.825 404.418 401.456Z" fill="var(--fill-0, white)"/>
<path id="Vector_53" opacity="0.3" d="M88.5266 577.202C89.0952 576.833 89.2569 576.073 88.888 575.505C88.519 574.936 87.7591 574.774 87.1905 575.143C86.622 575.512 86.4602 576.272 86.8292 576.841C87.1981 577.409 87.9581 577.571 88.5266 577.202Z" fill="var(--fill-0, white)"/>
<path id="Vector_54" opacity="0.11" d="M67.9564 575.927C68.5249 575.558 68.6867 574.798 68.3177 574.229C67.9488 573.661 67.1888 573.499 66.6203 573.868C66.0517 574.237 65.89 574.997 66.2589 575.565C66.6278 576.134 67.3879 576.296 67.9564 575.927Z" fill="var(--fill-0, white)"/>
<path id="Vector_55" opacity="0.3" d="M85.2141 611.526C85.7826 611.157 85.9444 610.397 85.5755 609.828C85.2065 609.26 84.4466 609.098 83.8781 609.467C83.3095 609.836 83.1477 610.596 83.5167 611.164C83.8856 611.733 84.6456 611.895 85.2141 611.526Z" fill="var(--fill-0, white)"/>
<path id="Vector_56" d="M117.033 590.147C117.459 589.87 117.581 589.3 117.304 588.874C117.027 588.448 116.458 588.326 116.031 588.603C115.605 588.88 115.484 589.449 115.76 589.876C116.037 590.302 116.607 590.423 117.033 590.147Z" fill="var(--fill-0, white)"/>
<path id="Vector_57" opacity="0.11" d="M285.537 256.774C286.106 256.405 286.268 255.645 285.899 255.076C285.53 254.508 284.77 254.346 284.201 254.715C283.633 255.084 283.471 255.844 283.84 256.412C284.209 256.981 284.969 257.143 285.537 256.774Z" fill="var(--fill-0, white)"/>
<path id="Vector_58" d="M292.547 260.264C292.973 259.987 293.094 259.417 292.818 258.991C292.541 258.565 291.971 258.444 291.545 258.72C291.119 258.997 290.997 259.567 291.274 259.993C291.551 260.419 292.121 260.541 292.547 260.264Z" fill="var(--fill-0, white)"/>
<path id="Vector_59" d="M302.518 238.442C302.944 238.166 303.066 237.596 302.789 237.17C302.512 236.743 301.943 236.622 301.516 236.899C301.09 237.175 300.969 237.745 301.245 238.171C301.522 238.598 302.092 238.719 302.518 238.442Z" fill="var(--fill-0, white)"/>
<path id="Vector_60" d="M258.119 265.792C258.545 265.515 258.667 264.945 258.39 264.519C258.113 264.093 257.544 263.971 257.117 264.248C256.691 264.524 256.57 265.094 256.846 265.521C257.123 265.947 257.693 266.068 258.119 265.792Z" fill="var(--fill-0, white)"/>
<path id="Vector_61" opacity="0.11" d="M240.66 294.67C241.228 294.301 241.39 293.541 241.021 292.973C240.652 292.404 239.892 292.242 239.324 292.611C238.755 292.98 238.593 293.74 238.962 294.309C239.331 294.877 240.091 295.039 240.66 294.67Z" fill="var(--fill-0, white)"/>
<path id="Vector_62" d="M223.542 289.695C223.826 289.51 223.907 289.131 223.723 288.847C223.539 288.563 223.159 288.482 222.875 288.666C222.591 288.85 222.51 289.23 222.694 289.514C222.879 289.798 223.258 289.879 223.542 289.695Z" fill="var(--fill-0, white)"/>
<path id="Vector_63" d="M297.007 277.846C297.291 277.662 297.372 277.282 297.187 276.998C297.003 276.714 296.623 276.633 296.339 276.817C296.055 277.002 295.975 277.381 296.159 277.665C296.343 277.949 296.723 278.03 297.007 277.846Z" fill="var(--fill-0, white)"/>
<path id="Vector_64" d="M409.175 205.056C409.459 204.872 409.54 204.492 409.356 204.208C409.171 203.924 408.792 203.843 408.508 204.028C408.224 204.212 408.143 204.592 408.327 204.876C408.511 205.16 408.891 205.24 409.175 205.056Z" fill="var(--fill-0, white)"/>
<path id="Vector_65" d="M447.225 140.879C447.509 140.694 447.59 140.315 447.406 140.031C447.221 139.747 446.842 139.666 446.558 139.85C446.274 140.034 446.193 140.414 446.377 140.698C446.561 140.982 446.941 141.063 447.225 140.879Z" fill="var(--fill-0, white)"/>
<path id="Vector_66" d="M491.667 165.417C491.951 165.232 492.032 164.853 491.848 164.569C491.663 164.285 491.284 164.204 491 164.388C490.716 164.572 490.635 164.952 490.819 165.236C491.004 165.52 491.383 165.601 491.667 165.417Z" fill="var(--fill-0, white)"/>
<path id="Vector_67" d="M117.332 376.167C117.616 375.982 117.697 375.603 117.512 375.319C117.328 375.035 116.948 374.954 116.664 375.138C116.38 375.322 116.3 375.702 116.484 375.986C116.668 376.27 117.048 376.351 117.332 376.167Z" fill="var(--fill-0, white)"/>
<path id="Vector_68" opacity="0.11" d="M91.5858 353.391C91.8698 353.207 91.9506 352.827 91.7663 352.543C91.582 352.259 91.2023 352.178 90.9183 352.362C90.6343 352.547 90.5534 352.926 90.7378 353.21C90.9221 353.494 91.3017 353.575 91.5858 353.391Z" fill="var(--fill-0, white)"/>
<path id="Vector_69" opacity="0.11" d="M77.1417 379.583C77.4257 379.398 77.5066 379.019 77.3222 378.735C77.1379 378.451 76.7583 378.37 76.4742 378.554C76.1902 378.739 76.1094 379.118 76.2937 379.402C76.478 379.686 76.8577 379.767 77.1417 379.583Z" fill="var(--fill-0, white)"/>
<path id="Vector_70" opacity="0.11" d="M114.155 399.432C114.439 399.247 114.52 398.868 114.336 398.584C114.152 398.3 113.772 398.219 113.488 398.403C113.204 398.588 113.123 398.967 113.307 399.251C113.492 399.535 113.871 399.616 114.155 399.432Z" fill="var(--fill-0, white)"/>
<path id="Vector_71" opacity="0.11" d="M223.249 299.385C223.533 299.201 223.614 298.821 223.43 298.537C223.246 298.253 222.866 298.172 222.582 298.357C222.298 298.541 222.217 298.92 222.401 299.204C222.586 299.488 222.965 299.569 223.249 299.385Z" fill="var(--fill-0, white)"/>
<path id="Vector_72" opacity="0.11" d="M308.007 297.034C308.291 296.85 308.372 296.47 308.188 296.186C308.003 295.902 307.624 295.821 307.34 296.005C307.056 296.19 306.975 296.569 307.159 296.853C307.344 297.137 307.723 297.218 308.007 297.034Z" fill="var(--fill-0, white)"/>
<path id="Vector_73" opacity="0.11" d="M403.448 227.78C403.732 227.596 403.813 227.216 403.629 226.932C403.444 226.648 403.065 226.568 402.781 226.752C402.497 226.936 402.416 227.316 402.6 227.6C402.784 227.884 403.164 227.965 403.448 227.78Z" fill="var(--fill-0, white)"/>
<path id="Vector_74" opacity="0.3" d="M132.652 347.945C132.936 347.761 133.016 347.381 132.832 347.097C132.648 346.813 132.268 346.732 131.984 346.916C131.7 347.101 131.619 347.48 131.804 347.764C131.988 348.048 132.367 348.129 132.652 347.945Z" fill="var(--fill-0, white)"/>
<path id="Vector_75" d="M232.959 243.366C233.243 243.181 233.324 242.802 233.139 242.518C232.955 242.234 232.575 242.153 232.291 242.337C232.007 242.522 231.926 242.901 232.111 243.185C232.295 243.469 232.675 243.55 232.959 243.366Z" fill="var(--fill-0, white)"/>
<path id="Vector_76" d="M311.523 190.918C311.807 190.734 311.888 190.354 311.703 190.07C311.519 189.786 311.139 189.705 310.855 189.89C310.571 190.074 310.49 190.454 310.675 190.738C310.859 191.022 311.239 191.102 311.523 190.918Z" fill="var(--fill-0, white)"/>
<path id="Vector_77" d="M228.688 313.405C228.972 313.221 229.053 312.841 228.869 312.557C228.684 312.273 228.305 312.193 228.021 312.377C227.737 312.561 227.656 312.941 227.84 313.225C228.025 313.509 228.404 313.59 228.688 313.405Z" fill="var(--fill-0, white)"/>
<path id="Vector_78" opacity="0.3" d="M192.673 336.779C192.957 336.595 193.038 336.215 192.854 335.931C192.669 335.647 192.29 335.566 192.006 335.75C191.722 335.935 191.641 336.314 191.825 336.598C192.01 336.882 192.389 336.963 192.673 336.779Z" fill="var(--fill-0, white)"/>
<path id="Vector_79" opacity="0.11" d="M129.788 332.257C130.072 332.073 130.153 331.693 129.968 331.409C129.784 331.125 129.404 331.044 129.12 331.228C128.836 331.413 128.756 331.792 128.94 332.076C129.124 332.36 129.504 332.441 129.788 332.257Z" fill="var(--fill-0, white)"/>
<path id="Vector_80" opacity="0.3" d="M250.238 249.703C250.522 249.519 250.603 249.139 250.419 248.855C250.234 248.571 249.855 248.491 249.571 248.675C249.287 248.859 249.206 249.239 249.39 249.523C249.575 249.807 249.954 249.888 250.238 249.703Z" fill="var(--fill-0, white)"/>
<path id="Vector_81" opacity="0.3" d="M243.784 317.505C244.068 317.321 244.149 316.941 243.965 316.657C243.78 316.373 243.401 316.292 243.117 316.477C242.833 316.661 242.752 317.041 242.936 317.325C243.121 317.609 243.5 317.689 243.784 317.505Z" fill="var(--fill-0, white)"/>
<path id="Vector_82" opacity="0.3" d="M184.866 363.05C185.15 362.866 185.231 362.486 185.046 362.202C184.862 361.918 184.482 361.837 184.198 362.022C183.914 362.206 183.834 362.585 184.018 362.869C184.202 363.154 184.582 363.234 184.866 363.05Z" fill="var(--fill-0, white)"/>
<path id="Vector_83" opacity="0.3" d="M147.58 338.263C147.864 338.078 147.945 337.699 147.76 337.415C147.576 337.131 147.196 337.05 146.912 337.234C146.628 337.418 146.548 337.798 146.732 338.082C146.916 338.366 147.296 338.447 147.58 338.263Z" fill="var(--fill-0, white)"/>
<path id="Vector_84" opacity="0.3" d="M466.595 129.04C466.879 128.855 466.96 128.476 466.776 128.192C466.592 127.908 466.212 127.827 465.928 128.011C465.644 128.195 465.563 128.575 465.747 128.859C465.932 129.143 466.311 129.224 466.595 129.04Z" fill="var(--fill-0, white)"/>
<path id="Vector_85" opacity="0.11" d="M370.067 161.701C370.351 161.517 370.432 161.137 370.248 160.853C370.064 160.569 369.684 160.488 369.4 160.672C369.116 160.857 369.035 161.236 369.219 161.52C369.404 161.805 369.783 161.885 370.067 161.701Z" fill="var(--fill-0, white)"/>
<path id="Vector_86" opacity="0.11" d="M467.057 160.177C467.341 159.993 467.422 159.613 467.238 159.329C467.054 159.045 466.674 158.964 466.39 159.149C466.106 159.333 466.025 159.713 466.209 159.997C466.394 160.281 466.773 160.361 467.057 160.177Z" fill="var(--fill-0, white)"/>
<path id="Vector_87" opacity="0.3" d="M339.891 249.284C340.459 248.915 340.621 248.155 340.252 247.587C339.883 247.018 339.123 246.856 338.554 247.225C337.986 247.594 337.824 248.354 338.193 248.923C338.562 249.491 339.322 249.653 339.891 249.284Z" fill="var(--fill-0, white)"/>
<path id="Vector_88" opacity="0.11" d="M360.236 214.149C360.804 213.78 360.966 213.02 360.597 212.451C360.228 211.883 359.468 211.721 358.9 212.09C358.331 212.459 358.169 213.219 358.538 213.788C358.907 214.356 359.667 214.518 360.236 214.149Z" fill="var(--fill-0, white)"/>
<path id="Vector_89" d="M348.292 196.306C348.719 196.029 348.84 195.46 348.563 195.033C348.287 194.607 347.717 194.486 347.291 194.762C346.864 195.039 346.743 195.609 347.02 196.035C347.296 196.461 347.866 196.583 348.292 196.306Z" fill="var(--fill-0, white)"/>
<path id="Vector_90" d="M347.851 273.369C348.278 273.092 348.399 272.522 348.122 272.096C347.846 271.67 347.276 271.548 346.85 271.825C346.423 272.102 346.302 272.672 346.579 273.098C346.855 273.524 347.425 273.645 347.851 273.369Z" fill="var(--fill-0, white)"/>
<path id="Vector_91" d="M525.344 172.806C525.771 172.529 525.892 171.959 525.615 171.533C525.339 171.107 524.769 170.986 524.343 171.262C523.916 171.539 523.795 172.109 524.072 172.535C524.348 172.961 524.918 173.082 525.344 172.806Z" fill="var(--fill-0, white)"/>
<path id="Vector_92" d="M185.752 380.754C186.178 380.478 186.299 379.908 186.023 379.482C185.746 379.055 185.176 378.934 184.75 379.211C184.324 379.487 184.202 380.057 184.479 380.484C184.756 380.91 185.326 381.031 185.752 380.754Z" fill="var(--fill-0, white)"/>
<path id="Vector_93" d="M109.652 413.328C110.078 413.051 110.2 412.481 109.923 412.055C109.647 411.629 109.077 411.508 108.65 411.784C108.224 412.061 108.103 412.631 108.379 413.057C108.656 413.483 109.226 413.605 109.652 413.328Z" fill="var(--fill-0, white)"/>
<path id="Vector_94" d="M87.542 398.426C87.9683 398.149 88.0896 397.58 87.813 397.153C87.5363 396.727 86.9665 396.606 86.5402 396.882C86.114 397.159 85.9927 397.729 86.2693 398.155C86.5459 398.581 87.1158 398.703 87.542 398.426Z" fill="var(--fill-0, white)"/>
<path id="Vector_95" d="M330.28 222.623C330.707 222.346 330.828 221.776 330.551 221.35C330.275 220.924 329.705 220.803 329.279 221.079C328.852 221.356 328.731 221.926 329.008 222.352C329.284 222.778 329.854 222.899 330.28 222.623Z" fill="var(--fill-0, white)"/>
<path id="Vector_96" d="M265.462 318.794C265.888 318.518 266.009 317.948 265.733 317.521C265.456 317.095 264.886 316.974 264.46 317.251C264.034 317.527 263.912 318.097 264.189 318.523C264.466 318.95 265.035 319.071 265.462 318.794Z" fill="var(--fill-0, white)"/>
<path id="Vector_97" d="M409.47 256.778C409.897 256.502 410.018 255.932 409.741 255.506C409.465 255.079 408.895 254.958 408.469 255.235C408.042 255.511 407.921 256.081 408.198 256.507C408.474 256.934 409.044 257.055 409.47 256.778Z" fill="var(--fill-0, white)"/>
<path id="Vector_98" d="M523.105 133.31C523.532 133.033 523.653 132.463 523.376 132.037C523.1 131.611 522.53 131.489 522.104 131.766C521.677 132.043 521.556 132.613 521.833 133.039C522.109 133.465 522.679 133.586 523.105 133.31Z" fill="var(--fill-0, white)"/>
<path id="Vector_99" d="M517.094 97.0007C517.52 96.7241 517.641 96.1543 517.365 95.728C517.088 95.3017 516.518 95.1804 516.092 95.457C515.666 95.7337 515.544 96.3035 515.821 96.7297C516.098 97.156 516.667 97.2773 517.094 97.0007Z" fill="var(--fill-0, white)"/>
<path id="Vector_100" opacity="0.3" d="M391.077 169.274C391.646 168.905 391.808 168.146 391.439 167.577C391.07 167.008 390.31 166.847 389.741 167.216C389.173 167.585 389.011 168.345 389.38 168.913C389.749 169.482 390.509 169.643 391.077 169.274Z" fill="var(--fill-0, white)"/>
<path id="Vector_101" d="M367.363 132.747C367.932 132.378 368.094 131.618 367.725 131.05C367.356 130.481 366.596 130.32 366.027 130.688C365.459 131.057 365.297 131.817 365.666 132.386C366.035 132.954 366.795 133.116 367.363 132.747Z" fill="var(--fill-0, white)"/>
<path id="Vector_102" d="M424.918 163.398C425.344 163.121 425.465 162.551 425.189 162.125C424.912 161.699 424.342 161.578 423.916 161.854C423.49 162.131 423.368 162.701 423.645 163.127C423.922 163.553 424.492 163.674 424.918 163.398Z" fill="var(--fill-0, white)"/>
<path id="Vector_103" opacity="0.3" d="M436.852 127.138C437.42 126.769 437.582 126.009 437.213 125.441C436.844 124.872 436.084 124.711 435.515 125.08C434.947 125.448 434.785 126.208 435.154 126.777C435.523 127.345 436.283 127.507 436.852 127.138Z" fill="var(--fill-0, white)"/>
<path id="Vector_104" opacity="0.3" d="M511.493 130.614C512.061 130.245 512.223 129.485 511.854 128.916C511.485 128.348 510.725 128.186 510.157 128.555C509.588 128.924 509.426 129.684 509.795 130.252C510.164 130.821 510.924 130.983 511.493 130.614Z" fill="var(--fill-0, white)"/>
<path id="Vector_105" opacity="0.3" d="M451.96 170.71C452.528 170.341 452.69 169.581 452.321 169.012C451.952 168.444 451.192 168.282 450.624 168.651C450.055 169.02 449.893 169.78 450.262 170.348C450.631 170.917 451.391 171.079 451.96 170.71Z" fill="var(--fill-0, white)"/>
<path id="Vector_106" opacity="0.3" d="M162.313 371.106C162.882 370.737 163.044 369.977 162.675 369.408C162.306 368.84 161.546 368.678 160.977 369.047C160.409 369.416 160.247 370.176 160.616 370.744C160.985 371.313 161.745 371.475 162.313 371.106Z" fill="var(--fill-0, white)"/>
<path id="Vector_107" opacity="0.3" d="M102.265 369.855C102.834 369.486 102.995 368.726 102.626 368.158C102.258 367.589 101.498 367.428 100.929 367.797C100.361 368.166 100.199 368.925 100.568 369.494C100.937 370.063 101.697 370.224 102.265 369.855Z" fill="var(--fill-0, white)"/>
<path id="Vector_108" opacity="0.11" d="M480.382 128.868C480.95 128.499 481.112 127.739 480.743 127.17C480.374 126.602 479.614 126.44 479.046 126.809C478.477 127.178 478.315 127.938 478.684 128.506C479.053 129.075 479.813 129.237 480.382 128.868Z" fill="var(--fill-0, white)"/>
<path id="Vector_109" opacity="0.3" d="M164.492 304.617C165.06 304.248 165.222 303.488 164.853 302.92C164.484 302.351 163.724 302.189 163.156 302.558C162.587 302.927 162.425 303.687 162.794 304.256C163.163 304.824 163.923 304.986 164.492 304.617Z" fill="var(--fill-0, white)"/>
<path id="Vector_110" opacity="0.11" d="M143.922 303.34C144.49 302.971 144.652 302.211 144.283 301.642C143.914 301.074 143.154 300.912 142.586 301.281C142.017 301.65 141.856 302.41 142.225 302.978C142.593 303.547 143.353 303.709 143.922 303.34Z" fill="var(--fill-0, white)"/>
<path id="Vector_111" opacity="0.3" d="M161.177 338.941C161.745 338.572 161.907 337.812 161.538 337.244C161.169 336.675 160.409 336.514 159.841 336.882C159.272 337.251 159.11 338.011 159.479 338.58C159.848 339.148 160.608 339.31 161.177 338.941Z" fill="var(--fill-0, white)"/>
<path id="Vector_112" d="M193 317.557C193.426 317.28 193.547 316.71 193.271 316.284C192.994 315.858 192.424 315.736 191.998 316.013C191.572 316.29 191.451 316.859 191.727 317.286C192.004 317.712 192.574 317.833 193 317.557Z" fill="var(--fill-0, white)"/>
<path id="Vector_113" opacity="0.11" d="M608.396 161.818C608.964 161.449 609.126 160.689 608.757 160.121C608.388 159.552 607.628 159.391 607.06 159.76C606.491 160.128 606.33 160.888 606.698 161.457C607.067 162.025 607.827 162.187 608.396 161.818Z" fill="var(--fill-0, white)"/>
<path id="Vector_114" d="M615.403 165.308C615.83 165.032 615.951 164.462 615.674 164.036C615.398 163.61 614.828 163.488 614.402 163.765C613.975 164.041 613.854 164.611 614.131 165.038C614.407 165.464 614.977 165.585 615.403 165.308Z" fill="var(--fill-0, white)"/>
<path id="Vector_115" d="M625.379 143.487C625.805 143.21 625.926 142.641 625.65 142.214C625.373 141.788 624.803 141.667 624.377 141.943C623.951 142.22 623.829 142.79 624.106 143.216C624.383 143.642 624.953 143.764 625.379 143.487Z" fill="var(--fill-0, white)"/>
<path id="Vector_116" d="M580.97 170.835C581.396 170.558 581.517 169.989 581.241 169.562C580.964 169.136 580.394 169.015 579.968 169.291C579.542 169.568 579.42 170.138 579.697 170.564C579.974 170.99 580.543 171.112 580.97 170.835Z" fill="var(--fill-0, white)"/>
<path id="Vector_117" opacity="0.11" d="M563.52 199.711C564.088 199.342 564.25 198.582 563.881 198.014C563.512 197.445 562.752 197.284 562.184 197.653C561.615 198.022 561.453 198.781 561.822 199.35C562.191 199.919 562.951 200.08 563.52 199.711Z" fill="var(--fill-0, white)"/>
<path id="Vector_118" d="M546.4 194.736C546.684 194.552 546.765 194.172 546.581 193.888C546.396 193.604 546.017 193.523 545.733 193.707C545.449 193.892 545.368 194.271 545.552 194.555C545.736 194.839 546.116 194.92 546.4 194.736Z" fill="var(--fill-0, white)"/>
<path id="Vector_119" d="M619.867 182.887C620.151 182.703 620.232 182.323 620.047 182.039C619.863 181.755 619.483 181.674 619.199 181.858C618.915 182.043 618.834 182.422 619.019 182.706C619.203 182.99 619.583 183.071 619.867 182.887Z" fill="var(--fill-0, white)"/>
<path id="Vector_120" d="M732.034 110.099C732.318 109.915 732.399 109.535 732.215 109.251C732.03 108.967 731.651 108.886 731.367 109.071C731.083 109.255 731.002 109.634 731.186 109.918C731.371 110.203 731.75 110.283 732.034 110.099Z" fill="var(--fill-0, white)"/>
<path id="Vector_121" d="M770.082 45.9221C770.366 45.7377 770.447 45.358 770.263 45.074C770.078 44.79 769.699 44.7092 769.415 44.8935C769.131 45.0778 769.05 45.4575 769.234 45.7415C769.418 46.0255 769.798 46.1064 770.082 45.9221Z" fill="var(--fill-0, white)"/>
<path id="Vector_122" d="M814.523 70.4567C814.807 70.2724 814.888 69.8927 814.704 69.6087C814.52 69.3247 814.14 69.2438 813.856 69.4282C813.572 69.6125 813.491 69.9922 813.675 70.2762C813.86 70.5602 814.239 70.641 814.523 70.4567Z" fill="var(--fill-0, white)"/>
<path id="Vector_123" d="M440.187 281.21C440.471 281.026 440.551 280.647 440.367 280.362C440.183 280.078 439.803 279.998 439.519 280.182C439.235 280.366 439.154 280.746 439.339 281.03C439.523 281.314 439.903 281.395 440.187 281.21Z" fill="var(--fill-0, white)"/>
<path id="Vector_124" opacity="0.11" d="M414.447 258.434C414.731 258.25 414.812 257.87 414.627 257.586C414.443 257.302 414.063 257.221 413.779 257.406C413.495 257.59 413.415 257.97 413.599 258.254C413.783 258.538 414.163 258.619 414.447 258.434Z" fill="var(--fill-0, white)"/>
<path id="Vector_125" opacity="0.11" d="M400.003 284.626C400.287 284.441 400.368 284.062 400.184 283.778C399.999 283.494 399.62 283.413 399.336 283.597C399.052 283.781 398.971 284.161 399.155 284.445C399.339 284.729 399.719 284.81 400.003 284.626Z" fill="var(--fill-0, white)"/>
<path id="Vector_126" opacity="0.11" d="M437.014 304.476C437.298 304.292 437.379 303.912 437.195 303.628C437.01 303.344 436.631 303.263 436.347 303.447C436.063 303.632 435.982 304.011 436.166 304.295C436.351 304.579 436.73 304.66 437.014 304.476Z" fill="var(--fill-0, white)"/>
<path id="Vector_127" opacity="0.11" d="M546.107 204.428C546.391 204.244 546.471 203.864 546.287 203.58C546.103 203.296 545.723 203.215 545.439 203.4C545.155 203.584 545.074 203.964 545.259 204.248C545.443 204.532 545.823 204.613 546.107 204.428Z" fill="var(--fill-0, white)"/>
<path id="Vector_128" opacity="0.11" d="M630.857 202.075C631.141 201.891 631.222 201.511 631.037 201.227C630.853 200.943 630.473 200.862 630.189 201.046C629.905 201.231 629.824 201.61 630.009 201.894C630.193 202.178 630.573 202.259 630.857 202.075Z" fill="var(--fill-0, white)"/>
<path id="Vector_129" opacity="0.11" d="M726.304 132.827C726.588 132.642 726.669 132.263 726.485 131.979C726.3 131.695 725.921 131.614 725.637 131.798C725.353 131.982 725.272 132.362 725.456 132.646C725.64 132.93 726.02 133.011 726.304 132.827Z" fill="var(--fill-0, white)"/>
<path id="Vector_130" opacity="0.3" d="M455.511 252.986C455.795 252.802 455.876 252.422 455.692 252.138C455.508 251.854 455.128 251.773 454.844 251.958C454.56 252.142 454.479 252.522 454.663 252.806C454.848 253.09 455.227 253.17 455.511 252.986Z" fill="var(--fill-0, white)"/>
<path id="Vector_131" d="M555.816 148.409C556.1 148.225 556.181 147.845 555.996 147.561C555.812 147.277 555.432 147.197 555.148 147.381C554.864 147.565 554.783 147.945 554.968 148.229C555.152 148.513 555.532 148.594 555.816 148.409Z" fill="var(--fill-0, white)"/>
<path id="Vector_132" d="M634.382 95.9613C634.666 95.777 634.747 95.3973 634.562 95.1133C634.378 94.8293 633.998 94.7484 633.714 94.9327C633.43 95.1171 633.35 95.4967 633.534 95.7807C633.718 96.0647 634.098 96.1456 634.382 95.9613Z" fill="var(--fill-0, white)"/>
<path id="Vector_133" d="M551.547 218.45C551.831 218.266 551.912 217.886 551.727 217.602C551.543 217.318 551.163 217.237 550.879 217.422C550.595 217.606 550.515 217.986 550.699 218.27C550.883 218.554 551.263 218.635 551.547 218.45Z" fill="var(--fill-0, white)"/>
<path id="Vector_134" opacity="0.3" d="M515.533 241.821C515.817 241.637 515.898 241.257 515.713 240.973C515.529 240.689 515.149 240.608 514.865 240.792C514.581 240.977 514.501 241.356 514.685 241.64C514.869 241.924 515.249 242.005 515.533 241.821Z" fill="var(--fill-0, white)"/>
<path id="Vector_135" opacity="0.11" d="M452.647 237.3C452.931 237.116 453.012 236.736 452.828 236.452C452.643 236.168 452.264 236.087 451.98 236.272C451.696 236.456 451.615 236.836 451.799 237.12C451.983 237.404 452.363 237.485 452.647 237.3Z" fill="var(--fill-0, white)"/>
<path id="Vector_136" opacity="0.3" d="M573.098 154.746C573.382 154.562 573.463 154.182 573.278 153.898C573.094 153.614 572.714 153.533 572.43 153.717C572.146 153.902 572.065 154.281 572.25 154.565C572.434 154.849 572.814 154.93 573.098 154.746Z" fill="var(--fill-0, white)"/>
<path id="Vector_137" opacity="0.3" d="M566.642 222.546C566.926 222.362 567.007 221.982 566.823 221.698C566.638 221.414 566.259 221.333 565.975 221.518C565.691 221.702 565.61 222.082 565.794 222.366C565.978 222.65 566.358 222.731 566.642 222.546Z" fill="var(--fill-0, white)"/>
<path id="Vector_138" opacity="0.3" d="M507.722 268.095C508.006 267.911 508.087 267.531 507.903 267.247C507.718 266.963 507.339 266.882 507.055 267.067C506.771 267.251 506.69 267.631 506.874 267.915C507.059 268.199 507.438 268.28 507.722 268.095Z" fill="var(--fill-0, white)"/>
<path id="Vector_139" opacity="0.3" d="M470.434 243.308C470.718 243.124 470.799 242.744 470.615 242.46C470.43 242.176 470.051 242.095 469.767 242.28C469.483 242.464 469.402 242.844 469.586 243.128C469.77 243.412 470.15 243.492 470.434 243.308Z" fill="var(--fill-0, white)"/>
<path id="Vector_140" opacity="0.3" d="M789.45 34.084C789.734 33.8997 789.815 33.52 789.631 33.236C789.446 32.952 789.067 32.8711 788.783 33.0555C788.499 33.2398 788.418 33.6195 788.602 33.9035C788.786 34.1875 789.166 34.2683 789.45 34.084Z" fill="var(--fill-0, white)"/>
<path id="Vector_141" opacity="0.11" d="M692.926 66.7456C693.21 66.5613 693.291 66.1816 693.107 65.8976C692.922 65.6135 692.543 65.5327 692.259 65.7171C691.975 65.9014 691.894 66.281 692.078 66.565C692.262 66.8491 692.642 66.9299 692.926 66.7456Z" fill="var(--fill-0, white)"/>
<path id="Vector_142" opacity="0.11" d="M789.917 65.2181C790.201 65.0337 790.282 64.6541 790.098 64.3701C789.914 64.086 789.534 64.0052 789.25 64.1895C788.966 64.3738 788.885 64.7535 789.069 65.0375C789.254 65.3215 789.633 65.4024 789.917 65.2181Z" fill="var(--fill-0, white)"/>
<path id="Vector_143" opacity="0.3" d="M662.749 154.328C663.318 153.959 663.48 153.199 663.111 152.631C662.742 152.062 661.982 151.9 661.413 152.269C660.845 152.638 660.683 153.398 661.052 153.967C661.421 154.535 662.181 154.697 662.749 154.328Z" fill="var(--fill-0, white)"/>
<path id="Vector_144" opacity="0.11" d="M683.093 119.191C683.662 118.822 683.824 118.062 683.455 117.494C683.086 116.925 682.326 116.763 681.757 117.132C681.189 117.501 681.027 118.261 681.396 118.83C681.765 119.398 682.525 119.56 683.093 119.191Z" fill="var(--fill-0, white)"/>
<path id="Vector_145" d="M671.151 101.351C671.577 101.074 671.699 100.504 671.422 100.078C671.145 99.6516 670.576 99.5303 670.149 99.8069C669.723 100.084 669.602 100.653 669.878 101.08C670.155 101.506 670.725 101.627 671.151 101.351Z" fill="var(--fill-0, white)"/>
<path id="Vector_146" d="M670.71 178.412C671.137 178.136 671.258 177.566 670.981 177.139C670.705 176.713 670.135 176.592 669.709 176.869C669.282 177.145 669.161 177.715 669.438 178.141C669.714 178.568 670.284 178.689 670.71 178.412Z" fill="var(--fill-0, white)"/>
<path id="Vector_147" d="M848.202 77.8527C848.628 77.5761 848.75 77.0063 848.473 76.58C848.196 76.1537 847.627 76.0324 847.2 76.309C846.774 76.5857 846.653 77.1555 846.929 77.5817C847.206 78.008 847.776 78.1293 848.202 77.8527Z" fill="var(--fill-0, white)"/>
<path id="Vector_148" d="M508.611 285.799C509.037 285.522 509.158 284.952 508.882 284.526C508.605 284.1 508.035 283.978 507.609 284.255C507.183 284.531 507.061 285.101 507.338 285.528C507.615 285.954 508.184 286.075 508.611 285.799Z" fill="var(--fill-0, white)"/>
<path id="Vector_149" d="M432.507 318.372C432.933 318.095 433.055 317.525 432.778 317.099C432.501 316.673 431.932 316.551 431.505 316.828C431.079 317.105 430.958 317.674 431.234 318.101C431.511 318.527 432.081 318.648 432.507 318.372Z" fill="var(--fill-0, white)"/>
<path id="Vector_150" d="M410.402 303.467C410.828 303.191 410.949 302.621 410.673 302.195C410.396 301.768 409.826 301.647 409.4 301.924C408.974 302.2 408.852 302.77 409.129 303.196C409.406 303.623 409.976 303.744 410.402 303.467Z" fill="var(--fill-0, white)"/>
<path id="Vector_151" d="M653.135 127.667C653.561 127.39 653.683 126.82 653.406 126.394C653.13 125.968 652.56 125.846 652.133 126.123C651.707 126.4 651.586 126.97 651.863 127.396C652.139 127.822 652.709 127.943 653.135 127.667Z" fill="var(--fill-0, white)"/>
<path id="Vector_152" d="M588.318 223.838C588.745 223.562 588.866 222.992 588.589 222.566C588.313 222.139 587.743 222.018 587.317 222.295C586.89 222.571 586.769 223.141 587.046 223.567C587.322 223.994 587.892 224.115 588.318 223.838Z" fill="var(--fill-0, white)"/>
<path id="Vector_153" d="M732.33 161.819C732.757 161.542 732.878 160.973 732.601 160.546C732.325 160.12 731.755 159.999 731.329 160.275C730.902 160.552 730.781 161.122 731.058 161.548C731.334 161.974 731.904 162.096 732.33 161.819Z" fill="var(--fill-0, white)"/>
<path id="Vector_154" d="M845.965 38.3515C846.391 38.0749 846.513 37.5051 846.236 37.0788C845.959 36.6525 845.39 36.5312 844.963 36.8079C844.537 37.0845 844.416 37.6543 844.692 38.0806C844.969 38.5068 845.539 38.6282 845.965 38.3515Z" fill="var(--fill-0, white)"/>
<path id="Vector_155" d="M839.953 2.04455C840.379 1.76791 840.5 1.1981 840.224 0.771833C839.947 0.345562 839.377 0.224245 838.951 0.500879C838.525 0.777513 838.403 1.34732 838.68 1.77359C838.957 2.19986 839.526 2.32118 839.953 2.04455Z" fill="var(--fill-0, white)"/>
<path id="Vector_156" opacity="0.3" d="M713.926 74.3189C714.494 73.9499 714.656 73.19 714.287 72.6214C713.918 72.0529 713.158 71.8911 712.59 72.2601C712.021 72.629 711.859 73.389 712.228 73.9575C712.597 74.5261 713.357 74.6878 713.926 74.3189Z" fill="var(--fill-0, white)"/>
<path id="Vector_157" d="M690.223 37.7895C690.791 37.4206 690.953 36.6606 690.584 36.0921C690.215 35.5236 689.455 35.3618 688.887 35.7307C688.318 36.0997 688.157 36.8596 688.525 37.4282C688.894 37.9967 689.654 38.1585 690.223 37.7895Z" fill="var(--fill-0, white)"/>
<path id="Vector_158" d="M747.778 68.4438C748.204 68.1671 748.326 67.5973 748.049 67.171C747.772 66.7448 747.203 66.6235 746.776 66.9001C746.35 67.1767 746.229 67.7465 746.505 68.1728C746.782 68.5991 747.352 68.7204 747.778 68.4438Z" fill="var(--fill-0, white)"/>
<path id="Vector_159" opacity="0.3" d="M759.708 32.182C760.277 31.813 760.439 31.0531 760.07 30.4845C759.701 29.916 758.941 29.7542 758.372 30.1232C757.804 30.4921 757.642 31.2521 758.011 31.8206C758.38 32.3891 759.14 32.5509 759.708 32.182Z" fill="var(--fill-0, white)"/>
<path id="Vector_160" opacity="0.3" d="M834.354 35.6569C834.923 35.2879 835.084 34.5279 834.716 33.9594C834.347 33.3909 833.587 33.2291 833.018 33.5981C832.45 33.967 832.288 34.727 832.657 35.2955C833.026 35.864 833.786 36.0258 834.354 35.6569Z" fill="var(--fill-0, white)"/>
<path id="Vector_161" opacity="0.3" d="M774.822 75.7504C775.39 75.3815 775.552 74.6215 775.183 74.053C774.814 73.4845 774.054 73.3227 773.486 73.6916C772.917 74.0606 772.755 74.8205 773.124 75.389C773.493 75.9576 774.253 76.1194 774.822 75.7504Z" fill="var(--fill-0, white)"/>
<path id="Vector_162" opacity="0.3" d="M485.174 276.15C485.743 275.781 485.905 275.021 485.536 274.452C485.167 273.884 484.407 273.722 483.838 274.091C483.27 274.46 483.108 275.22 483.477 275.788C483.846 276.357 484.606 276.519 485.174 276.15Z" fill="var(--fill-0, white)"/>
<path id="Vector_163" opacity="0.3" d="M425.13 274.9C425.699 274.531 425.86 273.771 425.491 273.202C425.122 272.634 424.363 272.472 423.794 272.841C423.225 273.21 423.064 273.97 423.433 274.538C423.802 275.107 424.562 275.269 425.13 274.9Z" fill="var(--fill-0, white)"/>
<path id="Vector_164" opacity="0.11" d="M803.241 33.911C803.809 33.542 803.971 32.7821 803.602 32.2135C803.233 31.645 802.473 31.4832 801.905 31.8522C801.336 32.2211 801.175 32.9811 801.544 33.5496C801.912 34.1181 802.672 34.2799 803.241 33.911Z" fill="var(--fill-0, white)"/>
<path id="Vector_165" opacity="0.3" d="M487.349 209.659C487.918 209.29 488.079 208.53 487.71 207.962C487.342 207.393 486.582 207.231 486.013 207.6C485.445 207.969 485.283 208.729 485.652 209.298C486.021 209.866 486.781 210.028 487.349 209.659Z" fill="var(--fill-0, white)"/>
<path id="Vector_166" opacity="0.11" d="M466.782 208.385C467.351 208.016 467.513 207.256 467.144 206.688C466.775 206.119 466.015 205.957 465.446 206.326C464.878 206.695 464.716 207.455 465.085 208.024C465.454 208.592 466.214 208.754 466.782 208.385Z" fill="var(--fill-0, white)"/>
<path id="Vector_167" opacity="0.3" d="M484.037 243.983C484.605 243.614 484.767 242.854 484.398 242.285C484.029 241.717 483.269 241.555 482.7 241.924C482.132 242.293 481.97 243.053 482.339 243.621C482.708 244.19 483.468 244.352 484.037 243.983Z" fill="var(--fill-0, white)"/>
<path id="Vector_168" d="M515.852 222.602C516.278 222.325 516.4 221.755 516.123 221.329C515.846 220.903 515.277 220.781 514.85 221.058C514.424 221.335 514.303 221.904 514.579 222.331C514.856 222.757 515.426 222.878 515.852 222.602Z" fill="var(--fill-0, white)"/>
</g>
</svg>
