<svg preserveAspectRatio="none" width="100%" height="100%" overflow="visible" style="display: block;" viewBox="0 0 14 16" fill="none" xmlns="http://www.w3.org/2000/svg">
<g id="Vector">
<path d="M13.8219 12C13.9317 11.8068 14 11.589 14 11.3935V4.60649C14 4.41097 13.9318 4.19328 13.8219 4.00004L7 8.00002L13.8219 12Z" fill="#E4E4E4"/>
<path d="M7.60621 15.8534L13.3938 12.4599C13.5605 12.3621 13.712 12.1933 13.8219 12L7 8.00002L0.178111 12.0001C0.287961 12.1933 0.439536 12.3622 0.606209 12.4599L6.39379 15.8534C6.72718 16.0489 7.27282 16.0489 7.60621 15.8534Z" fill="white"/>
<path d="M13.8219 4.00004C13.712 3.80674 13.5605 3.63789 13.3938 3.54013L7.60621 0.146642C7.27282 -0.0488806 6.72718 -0.0488806 6.39379 0.146642L0.606209 3.54013C0.272771 3.73561 0 4.21549 0 4.60649V11.3935C0 11.589 0.0682157 11.8068 0.178111 12.0001L7 8.00002L13.8219 4.00004Z" fill="#E4E4E4"/>
<path d="M7 12.7394C4.42679 12.7394 2.33333 10.6133 2.33333 8.00002C2.33333 5.38672 4.42679 3.26065 7 3.26065C8.66042 3.26065 10.209 4.1681 11.0413 5.62885L9.02167 6.81574C8.6051 6.08457 7.83039 5.63033 7 5.63033C5.71337 5.63033 4.66667 6.69335 4.66667 8.00002C4.66667 9.30665 5.71337 10.3697 7 10.3697C7.83048 10.3697 8.6052 9.91548 9.02181 9.18417L11.0414 10.371C10.2091 11.8319 8.66051 12.7394 7 12.7394Z" fill="var(--fill-0, #953DAC)"/>
<path d="M10.3699 8.3004V8.6269H12.3222V8.3004H10.3699ZM10.4814 7.36319V7.68969H12.4338V7.36319H10.4814ZM10.9405 6.80455L10.5322 9.18553H10.9268L11.3351 6.80455H10.9405ZM11.8338 6.80455L11.4255 9.18553H11.8201L12.2284 6.80455H11.8338Z" fill="var(--fill-0, #953DAC)"/>
</g>
</svg>
