<svg preserveAspectRatio="none" width="100%" height="100%" overflow="visible" style="display: block;" viewBox="0 0 18 18" fill="none" xmlns="http://www.w3.org/2000/svg">
<path id="Vector" d="M0 0H18V18H0V0ZM16.5255 13.707C16.3943 12.8857 15.8595 12.1957 14.2733 11.5522C13.7213 11.2935 13.1077 11.1135 12.9255 10.6972C12.8572 10.4497 12.8467 10.3147 12.891 10.1685C13.0035 9.684 13.5772 9.5385 14.0272 9.6735C14.3197 9.7635 14.5898 9.9885 14.7593 10.3485C15.5348 9.8415 15.5347 9.8415 16.0755 9.50475C15.873 9.18975 15.7725 9.054 15.636 8.91975C15.1635 8.391 14.5342 8.121 13.5105 8.14425L12.9818 8.211C12.4748 8.33475 11.9917 8.60475 11.6992 8.96475C10.8442 9.933 11.091 11.6205 12.126 12.318C13.1497 13.083 14.6468 13.251 14.838 13.9717C15.018 14.8492 14.1855 15.1305 13.3635 15.0292C12.7553 14.8942 12.4185 14.5897 12.0472 14.0272L10.6747 14.8155C10.8322 15.1755 11.0123 15.3323 11.2823 15.6473C12.5873 16.9643 15.8497 16.8967 16.4355 14.8942C16.4572 14.8267 16.6155 14.3655 16.491 13.6567L16.5255 13.707ZM9.78825 8.27325H8.10225C8.10225 9.72675 8.0955 11.1713 8.0955 12.627C8.0955 13.551 8.14275 14.3993 7.992 14.6603C7.7445 15.177 7.107 15.111 6.8175 15.0203C6.5205 14.8733 6.36975 14.6708 6.195 14.379C6.14775 14.3003 6.1125 14.232 6.09975 14.232L4.731 15.0757C4.95975 15.5482 5.2935 15.9548 5.724 16.2135C6.36525 16.596 7.227 16.7198 8.12925 16.5173C8.7165 16.3478 9.22275 15.999 9.4875 15.459C9.87 14.7615 9.789 13.9065 9.78525 12.9495C9.79425 11.409 9.78525 9.86775 9.78525 8.31525L9.78825 8.27325Z" fill="url(#paint0_linear_18403_28429)"/>
<defs>
<linearGradient id="paint0_linear_18403_28429" x1="-0.587903" y1="0.69231" x2="12.8278" y2="12.2446" gradientUnits="userSpaceOnUse">
<stop stop-color="#FFE97F"/>
<stop offset="1" stop-color="#FBD725"/>
</linearGradient>
</defs>
</svg>
