<svg width="30" height="16" preserveAspectRatio="none" overflow="visible" style="display: block;" viewBox="0 0 30 16" fill="none" xmlns="http://www.w3.org/2000/svg">
<g id="Vector">
<path d="M15 16C23.2843 16 30 12.4183 30 8C30 3.58172 23.2843 0 15 0C6.71573 0 0 3.58172 0 8C0 12.4183 6.71573 16 15 16Z" fill="white"/>
<path d="M15 15.4056C22.9607 15.4056 29.4141 12.09 29.4141 8C29.4141 3.90997 22.9607 0.594354 15 0.594354C7.03933 0.594354 0.585938 3.90997 0.585938 8C0.585938 12.09 7.03933 15.4056 15 15.4056Z" fill="#565FFB"/>
<path d="M17.918 10.4012L18.6328 6.66865C18.7969 5.82467 18.6563 5.19465 18.2344 4.80238C17.8242 4.42199 17.1211 4.2318 16.0898 4.2318H14.8477L15.1992 2.37741C15.2109 2.30609 15.1992 2.23477 15.1523 2.17533C15.1055 2.1159 15.0469 2.09212 14.9766 2.09212H13.2656C13.1484 2.09212 13.0547 2.17533 13.0312 2.28232L12.2695 6.24071C12.1992 5.78901 12.0352 5.40862 11.7539 5.09955C11.25 4.51709 10.4648 4.21991 9.39844 4.21991H6.10547C5.98828 4.21991 5.89453 4.30312 5.87109 4.4101L4.33594 12.4458C4.32422 12.5171 4.33594 12.5884 4.38281 12.6478C4.42969 12.7073 4.48828 12.7311 4.55859 12.7311H6.28125C6.39844 12.7311 6.49219 12.6478 6.51563 12.5409L6.89062 10.6033H8.16797C8.83594 10.6033 9.41016 10.5319 9.84375 10.3893C10.3008 10.2348 10.7109 9.98514 11.0742 9.64042C11.3672 9.36701 11.6133 9.05795 11.8008 8.72511L11.4961 10.3299C11.4844 10.4012 11.4961 10.4725 11.543 10.5319C11.5898 10.5914 11.6484 10.6152 11.7188 10.6152H13.4297C13.5469 10.6152 13.6406 10.5319 13.6641 10.425L14.5078 6.02675H15.6797C16.1836 6.02675 16.3242 6.12184 16.3711 6.16939C16.4062 6.20505 16.4766 6.3477 16.3945 6.78752L15.7148 10.3418C15.7031 10.4131 15.7148 10.4844 15.7617 10.5438C15.8086 10.6033 15.8672 10.627 15.9375 10.627H17.6953C17.8008 10.5914 17.8945 10.5082 17.918 10.4012ZM9.99609 7.31055C9.89063 7.86924 9.69141 8.2734 9.39844 8.49926C9.10547 8.72511 8.625 8.84398 7.99219 8.84398H7.23047L7.78125 5.96731H8.76563C9.49219 5.96731 9.78516 6.12184 9.90234 6.2526C10.0547 6.44279 10.0898 6.81129 9.99609 7.31055Z" fill="#565FFB"/>
<path d="M25.2305 5.09955C24.7266 4.51709 23.9414 4.21991 22.875 4.21991H19.5586C19.4414 4.21991 19.3477 4.30312 19.3242 4.4101L17.7891 12.4339C17.7773 12.5052 17.7891 12.5765 17.8359 12.636C17.8828 12.6954 17.9414 12.7192 18.0117 12.7192H19.7344C19.8516 12.7192 19.9453 12.636 19.9688 12.529L20.3438 10.5914H21.6211C22.2891 10.5914 22.8633 10.5201 23.2969 10.3774C23.7539 10.2229 24.1641 9.97325 24.5273 9.62853C24.832 9.34324 25.0898 9.02229 25.2773 8.67756C25.4648 8.33284 25.6055 7.95245 25.6875 7.5364C25.8867 6.50223 25.7344 5.69391 25.2305 5.09955ZM23.4375 7.31055C23.332 7.86924 23.1328 8.2734 22.8398 8.49926C22.5469 8.72511 22.0664 8.84398 21.4336 8.84398H20.6719L21.2227 5.96731H22.207C22.9336 5.96731 23.2266 6.12184 23.3437 6.2526C23.5078 6.44279 23.543 6.81129 23.4375 7.31055Z" fill="#565FFB"/>
<path d="M8.76563 5.72957C9.42188 5.72957 9.85547 5.84844 10.0781 6.09807C10.3008 6.3477 10.3477 6.76374 10.2305 7.3581C10.1133 7.97623 9.87891 8.42793 9.53906 8.68945C9.19922 8.95097 8.68359 9.08172 7.99219 9.08172H6.94922L7.59375 5.72957H8.76563ZM4.57031 12.4814H6.29297L6.70313 10.3536H8.17969C8.83594 10.3536 9.36328 10.2823 9.78516 10.1397C10.207 9.99703 10.582 9.77117 10.9336 9.43834C11.2266 9.16493 11.4609 8.86776 11.6367 8.54681C11.8125 8.22585 11.9414 7.86924 12.0117 7.47697C12.1992 6.526 12.0586 5.789 11.6016 5.25409C11.1445 4.71917 10.418 4.45765 9.42188 4.45765H6.10547L4.57031 12.4814Z" fill="var(--fill-0, white)"/>
<path d="M13.2773 2.32987H14.9883L14.5781 4.45765H16.1016C17.0625 4.45765 17.7188 4.62407 18.082 4.9688C18.4453 5.31352 18.5508 5.86033 18.4102 6.6211L17.6953 10.3536H15.9609L16.6406 6.79941C16.7227 6.39525 16.6875 6.12184 16.5586 5.9792C16.4297 5.83655 16.1367 5.75334 15.7031 5.75334H14.332L13.4531 10.3536H11.7422L13.2773 2.32987Z" fill="var(--fill-0, white)"/>
<path d="M22.207 5.72957C22.8633 5.72957 23.2969 5.84844 23.5195 6.09807C23.7422 6.3477 23.7891 6.76374 23.6719 7.3581C23.5547 7.97623 23.3203 8.42793 22.9805 8.68945C22.6406 8.95097 22.125 9.08172 21.4336 9.08172H20.3906L21.0352 5.72957H22.207ZM18.0117 12.4814H19.7344L20.1445 10.3536H21.6211C22.2773 10.3536 22.8047 10.2823 23.2266 10.1397C23.6484 9.99703 24.0234 9.77117 24.375 9.43834C24.668 9.16493 24.9023 8.86776 25.0781 8.54681C25.2539 8.22585 25.3828 7.86924 25.4531 7.47697C25.6406 6.526 25.5 5.789 25.043 5.25409C24.5859 4.71917 23.8594 4.45765 22.8633 4.45765H19.5469L18.0117 12.4814Z" fill="var(--fill-0, white)"/>
</g>
</svg>
