<svg width="19.0039" height="19.0039" preserveAspectRatio="none" overflow="visible" style="display: block;" viewBox="0 0 19.0039 19.0039" fill="none" xmlns="http://www.w3.org/2000/svg">
<g id="Vector" filter="url(#filter0_d_18403_28446)">
<path d="M2.10065 10.2249C1.9641 9.40301 1.9686 8.57733 2.10132 7.77896C2.92722 7.79906 3.67 7.40282 3.95869 6.70586C4.24738 6.00891 4.00234 5.20351 3.40414 4.63369C3.87484 3.97531 4.45548 3.38829 5.13323 2.90366C5.70307 3.5022 6.50872 3.74745 7.20586 3.45868C7.903 3.16992 8.29927 2.42682 8.27895 1.60065C9.10087 1.4641 9.92655 1.4686 10.7249 1.60132C10.7049 2.42722 11.1011 3.16999 11.7981 3.45868C12.495 3.74737 13.3004 3.50233 13.8703 2.90414C14.5286 3.37484 15.1156 3.95548 15.6003 4.63323C15.0017 5.20307 14.7565 6.00872 15.0452 6.70586C15.334 7.403 16.0771 7.79928 16.9033 7.77896C17.0398 8.60088 17.0353 9.42656 16.9026 10.2249C16.0767 10.2049 15.3339 10.6011 15.0452 11.298C14.7565 11.995 15.0016 12.8004 15.5998 13.3702C15.1291 14.0286 14.5484 14.6157 13.8707 15.1002C13.3009 14.5017 12.4952 14.2565 11.7981 14.5452C11.1009 14.834 10.7047 15.5771 10.7249 16.4033C9.903 16.5399 9.07732 16.5354 8.27902 16.4026C8.29905 15.5767 7.90282 14.8339 7.20586 14.5452C6.50891 14.2566 5.70351 14.5016 5.13369 15.0998C4.47532 14.6291 3.88829 14.0484 3.40366 13.3707C4.0022 12.8009 4.24745 11.9952 3.95869 11.298C3.66992 10.6009 2.92683 10.2047 2.10065 10.2249ZM9.50197 11.252C10.7446 11.252 11.752 10.2446 11.752 9.00198C11.752 7.75931 10.7446 6.75197 9.50197 6.75197C8.2593 6.75197 7.25197 7.75931 7.25197 9.00198C7.25197 10.2446 8.2593 11.252 9.50197 11.252Z" fill="var(--fill-0, #F2A230)"/>
</g>
<defs>
<filter id="filter0_d_18403_28446" x="-2.2234e-09" y="-2.2234e-09" width="19.0039" height="19.0039" filterUnits="userSpaceOnUse" color-interpolation-filters="sRGB">
<feFlood flood-opacity="0" result="BackgroundImageFix"/>
<feColorMatrix in="SourceAlpha" type="matrix" values="0 0 0 0 0 0 0 0 0 0 0 0 0 0 0 0 0 0 127 0" result="hardAlpha"/>
<feOffset dy="0.5"/>
<feGaussianBlur stdDeviation="1"/>
<feComposite in2="hardAlpha" operator="out"/>
<feColorMatrix type="matrix" values="0 0 0 0 0 0 0 0 0 0 0 0 0 0 0 0 0 0 0.6 0"/>
<feBlend mode="normal" in2="BackgroundImageFix" result="effect1_dropShadow_18403_28446"/>
<feBlend mode="normal" in="SourceGraphic" in2="effect1_dropShadow_18403_28446" result="shape"/>
</filter>
</defs>
</svg>
