<svg preserveAspectRatio="none" width="100%" height="100%" overflow="visible" style="display: block;" viewBox="0 0 11.5072 15.6034" fill="none" xmlns="http://www.w3.org/2000/svg">
<g id="Group 1271">
<path id="Vector" d="M3.70509 12.0668C3.70509 12.0668 3.10922 12.4135 4.12972 12.5305C5.36622 12.6718 5.99809 12.6515 7.36034 12.394C7.36034 12.394 7.71922 12.6184 8.21947 12.8129C5.16459 14.1216 1.30597 12.737 3.70509 12.0668ZM3.33159 10.3586C3.33159 10.3586 2.66309 10.8535 3.68447 10.9593C5.00534 11.0956 6.04822 11.1068 7.85372 10.7593C7.85372 10.7593 8.10284 11.0124 8.49522 11.1506C4.80247 12.2306 0.689467 11.2356 3.33159 10.3586V10.3586Z" fill="var(--fill-0, #006AFF)"/>
<path id="Vector_2" d="M6.47922 7.46066C7.23235 8.32753 6.28172 9.10691 6.28172 9.10691C6.28172 9.10691 8.19285 8.12053 7.31535 6.88478C6.49547 5.73291 5.86697 5.16078 9.26972 3.18728C9.26972 3.18741 3.92835 4.52103 6.47922 7.46066V7.46066Z" fill="var(--fill-0, #FF6061)"/>
<path id="Vector_3" d="M10.5192 13.3304C10.5192 13.3304 10.9603 13.6942 10.0332 13.9753C8.27046 14.5093 2.69496 14.6703 1.14646 13.9967C0.590085 13.7544 1.63384 13.4185 1.96221 13.3477C2.30459 13.2735 2.50009 13.287 2.50009 13.287C1.88096 12.8512 -1.50154 14.1433 0.78221 14.5139C7.00983 15.5234 12.1343 14.0593 10.5192 13.3304V13.3304ZM3.99284 8.58853C3.99284 8.58853 1.15709 9.26216 2.98871 9.50703C3.76221 9.61053 5.30346 9.58678 6.74009 9.46628C7.91384 9.36766 9.09171 9.15703 9.09171 9.15703C9.09171 9.15703 8.67821 9.33441 8.37871 9.53866C5.49846 10.2963 -0.0642898 9.94341 1.53734 9.16891C2.89134 8.51403 3.99284 8.58853 3.99284 8.58853V8.58853ZM9.07996 11.4319C12.0076 9.91103 10.6538 8.44941 9.70896 8.64628C9.47796 8.69441 9.37434 8.73628 9.37434 8.73628C9.37434 8.73628 9.46034 8.60141 9.62434 8.54341C11.4935 7.88653 12.9307 10.4813 9.02146 11.509C9.02146 11.5088 9.06634 11.4682 9.07996 11.4319V11.4319Z" fill="var(--fill-0, #006AFF)"/>
<path id="Vector_4" d="M7.31591 0C7.31591 0 8.93691 1.622 5.77804 4.11537C3.24479 6.11612 5.20041 7.25663 5.77716 8.56025C4.29829 7.22613 3.21354 6.0515 3.94116 4.95837C5.00966 3.35413 7.96979 2.576 7.31591 0Z" fill="var(--fill-0, #FF6061)"/>
<path id="Vector_5" d="M4.28009 15.5545C7.08959 15.7341 11.4051 15.4545 11.5072 14.125C11.5072 14.125 11.3108 14.629 9.18509 15.0289C6.78684 15.4804 3.82834 15.4278 2.07422 15.1381C2.07422 15.1383 2.43359 15.4358 4.28009 15.5545V15.5545Z" fill="var(--fill-0, #006AFF)"/>
</g>
</svg>
