<svg preserveAspectRatio="none" width="100%" height="100%" overflow="visible" style="display: block;" viewBox="0 0 17 17" fill="none" xmlns="http://www.w3.org/2000/svg">
<g id="Vector">
<path d="M8.40464 0.500123C7.74481 0.503214 7.11498 0.558708 6.56049 0.655784C4.92732 0.941138 4.63101 1.53843 4.63101 2.64012V4.09486H8.49012V4.57978H3.18257C2.06107 4.57978 1.07899 5.24648 0.771731 6.51527C0.417279 7.96908 0.401651 8.87646 0.771731 10.3946C1.04601 11.5247 1.70115 12.3298 2.8228 12.3298H4.14981V10.5858C4.14981 9.32583 5.25176 8.21456 6.56064 8.21456H10.4154C11.4884 8.21456 12.3449 7.34056 12.3449 6.27489V2.64027C12.3449 1.60567 11.4625 0.828604 10.4154 0.655939C9.75212 0.546806 9.06431 0.497186 8.40464 0.500123ZM6.31762 1.67013C6.71614 1.67013 7.04184 1.99738 7.04184 2.3999C7.04184 2.80073 6.7163 3.12488 6.31762 3.12488C5.91753 3.12488 5.59356 2.80073 5.59356 2.3999C5.5934 1.99738 5.91753 1.67013 6.31762 1.67013Z" fill="url(#paint0_linear_18403_28444)"/>
<path d="M12.8261 4.57978V6.27489C12.8261 7.58882 11.6996 8.69483 10.4152 8.69483H6.56049C5.50463 8.69483 4.63101 9.58877 4.63101 10.6346V14.2696C4.63101 15.3039 5.54026 15.9124 6.56049 16.2091C7.782 16.5642 8.9535 16.6285 10.4152 16.2091C11.3867 15.9307 12.3447 15.3708 12.3447 14.2696V12.8147H8.49012V12.3296H14.2745C15.396 12.3296 15.8142 11.5559 16.2043 10.3944C16.6072 9.19876 16.5898 8.04885 16.2043 6.51511C15.927 5.41064 15.3977 4.57962 14.2745 4.57962L12.8261 4.57978ZM10.6579 13.7845C11.0582 13.7845 11.3822 14.1087 11.3822 14.5098C11.3822 14.912 11.058 15.2393 10.6579 15.2393C10.2594 15.2393 9.93387 14.912 9.93387 14.5098C9.93387 14.1087 10.2594 13.7845 10.6579 13.7845Z" fill="url(#paint1_linear_18403_28444)"/>
<path d="M8.91211 0.257812C9.42515 0.275982 9.9473 0.325471 10.4561 0.40918L10.666 0.452148C11.7054 0.703161 12.5947 1.52092 12.5947 2.64062V4.33008H14.2744C14.9073 4.33008 15.3884 4.56782 15.7432 4.9668C16.0891 5.35597 16.3034 5.88496 16.4463 6.4541C16.8396 8.01885 16.864 9.22045 16.4414 10.4746C16.246 11.0564 16.0307 11.5819 15.7021 11.9609C15.3592 12.3566 14.9046 12.5801 14.2744 12.5801H12.5947V14.2695C12.5947 14.9039 12.3149 15.3853 11.9082 15.7373C11.5088 16.083 10.9874 16.305 10.4844 16.4492C8.9737 16.8826 7.75329 16.8164 6.49023 16.4492C5.45121 16.147 4.38086 15.4852 4.38086 14.2695V12.5801H2.82324C2.19601 12.5801 1.68721 12.3521 1.30176 11.9619C0.921783 11.5772 0.672296 11.0464 0.52832 10.4531C0.340462 9.68234 0.24796 9.05459 0.25 8.42969C0.252071 7.80481 0.348501 7.19362 0.52832 6.45605C0.864029 5.07022 1.95107 4.33008 3.18262 4.33008H4.38086V2.63965C4.3809 2.07539 4.45452 1.57246 4.79395 1.17871C5.12996 0.788975 5.68441 0.554753 6.51758 0.40918C7.08706 0.309497 7.7309 0.253158 8.40332 0.25L8.91211 0.257812ZM10.6582 14.0342C10.3977 14.0342 10.1836 14.2468 10.1836 14.5098C10.1836 14.7755 10.3993 14.9893 10.6582 14.9893C10.9182 14.9891 11.1318 14.7757 11.1318 14.5098C11.1318 14.2465 10.92 14.0343 10.6582 14.0342ZM6.31738 1.91992C6.05752 1.92005 5.84386 2.13337 5.84375 2.39941C5.84375 2.66233 6.05572 2.87487 6.31738 2.875C6.57813 2.875 6.79199 2.66203 6.79199 2.39941C6.79173 2.1336 6.57609 1.91992 6.31738 1.91992Z" stroke="var(--stroke-0, black)" stroke-width="0.5"/>
</g>
<defs>
<linearGradient id="paint0_linear_18403_28444" x1="-0.0225805" y1="1.11539" x2="11.9025" y2="11.3841" gradientUnits="userSpaceOnUse">
<stop stop-color="#FFD43B"/>
<stop offset="1" stop-color="#FFE873"/>
</linearGradient>
<linearGradient id="paint1_linear_18403_28444" x1="12.3629" y1="13.13" x2="9.21713" y2="8.66991" gradientUnits="userSpaceOnUse">
<stop stop-color="#4D8EC1"/>
<stop offset="1" stop-color="#306998"/>
</linearGradient>
</defs>
</svg>
